<svg width="48" height="48" viewBox="0 0 48 48" fill="none" xmlns="http://www.w3.org/2000/svg">
<path fill-rule="evenodd" clip-rule="evenodd" d="M24 0C37.245 0 48 10.755 48 24C48 37.245 37.245 48 24 48C10.755 48 0 37.245 0 24C0 10.755 10.755 0 24 0ZM24 6C33.933 6 42 14.067 42 24C42 33.933 33.933 42 24 42C14.067 42 6 33.933 6 24C6 14.067 14.067 6 24 6ZM31.8295 16.7882C32.2525 16.8212 32.6605 16.9232 33.0385 17.1212C33.2905 17.2532 33.5215 17.4182 33.7225 17.6102C34.5145 18.3662 34.8355 19.5272 34.5445 20.5802C34.4185 21.0392 34.1815 21.4442 33.8725 21.8012C29.5555 26.1152 28.2415 27.4322 24.0865 31.5872C23.8405 31.8002 23.5765 31.9832 23.2765 32.1152C22.5115 32.4512 21.6205 32.4512 20.8525 32.1152C20.5555 31.9832 20.2885 31.8002 20.0425 31.5872C17.9305 29.5682 16.3255 27.9632 14.3065 25.8512C13.9975 25.4912 13.7605 25.0892 13.6345 24.6302C13.5595 24.3572 13.5235 24.0782 13.5265 23.7962C13.5385 22.6502 14.2285 21.5882 15.2665 21.1082C15.6055 20.9522 15.9745 20.8592 16.3495 20.8352C16.7245 20.8142 17.1025 20.8622 17.4595 20.9792C17.9125 21.1292 18.3055 21.3812 18.6475 21.7082L22.0645 25.1282C25.3915 21.8042 26.2975 20.8952 29.6335 17.5622C29.7415 17.4692 29.7385 17.4722 29.8495 17.3852C30.0025 17.2742 30.1585 17.1722 30.3295 17.0912C30.6685 16.9232 31.0315 16.8332 31.4065 16.7912C31.5475 16.7852 31.6855 16.7822 31.8295 16.7882Z" fill="#57A4FE"/>
</svg>
