<svg width="105" height="105" viewBox="0 0 105 105" fill="none" xmlns="http://www.w3.org/2000/svg">
<path d="M66.915 77.1254V85.6413C66.915 86.4262 66.0519 86.9052 65.3859 86.4898L43.8419 73.0559C43.4995 72.8424 43.0624 72.8556 42.7335 73.0893L22.5327 87.4433" stroke="#161251" stroke-width="2"/>
<path d="M56.5095 4.2966C58.9799 2.87486 62.0201 2.87485 64.4905 4.2966L74.6375 10.1364L84.7823 16.1933C87.1813 17.6256 88.6592 20.2057 88.6811 22.9996L88.775 35L88.6811 47.0004C88.6592 49.7943 87.1813 52.3744 84.7823 53.8067L74.6375 59.8636L64.4905 65.7034C62.0201 67.1251 58.9799 67.1251 56.5095 65.7034L46.3625 59.8636L36.2177 53.8067C33.8187 52.3744 32.3408 49.7943 32.3189 47.0004L32.225 35L32.3189 22.9996C32.3408 20.2057 33.8187 17.6256 36.2177 16.1933L46.3625 10.1364L56.5095 4.2966Z" fill="url(#paint0_linear)"/>
<path d="M66.9272 78.0226L66.9272 38.386C66.9272 32.8631 62.4501 28.386 56.9272 28.386L28.1911 28.386C22.6683 28.386 18.1911 32.8631 18.1911 38.386L18.1911 55.9619" stroke="#161251" stroke-width="2" stroke-linecap="round"/>
<defs>
<linearGradient id="paint0_linear" x1="93" y1="68" x2="14.0381" y2="12.2073" gradientUnits="userSpaceOnUse">
<stop stop-color="#0087FC" stop-opacity="0.48"/>
<stop offset="1" stop-color="#0087FC" stop-opacity="0.2"/>
</linearGradient>
</defs>
</svg>
