<svg width="36" height="36" viewBox="0 0 36 36" fill="none" xmlns="http://www.w3.org/2000/svg">
<rect width="36" height="36" rx="6" fill="#1F7ECB"/>
<path fill-rule="evenodd" clip-rule="evenodd" d="M9.96643 26.3074H13.4125V15.209H9.96643V26.3074ZM26.307 26.3074V20.2207C26.307 17.2316 25.6629 14.9331 22.1775 14.9331C20.5023 14.9331 19.3783 15.8537 18.9193 16.7264H18.8721V15.209H15.5712V26.3074H19.0101V20.8182C19.0101 19.3698 19.2836 17.9674 21.0755 17.9674C22.8423 17.9674 22.8649 19.6232 22.8649 20.9099V26.3074H26.307ZM11.6898 13.6925C12.7911 13.6925 13.6856 12.7971 13.6856 11.6925C13.6856 10.5884 12.7911 9.69238 11.6898 9.69238C10.584 9.69238 9.69214 10.5884 9.69214 11.6925C9.69214 12.7971 10.584 13.6925 11.6898 13.6925Z" fill="white"/>
</svg>
