<svg width="121" height="38" viewBox="0 0 121 38" fill="none" xmlns="http://www.w3.org/2000/svg">
<path d="M0 16.7802L6.2807 16.2689C6.5371 16.94 6.90014 17.4193 7.36555 17.7069C7.83129 17.996 8.45271 18.1398 9.22981 18.1398C10.0777 18.1398 10.7343 17.9752 11.2001 17.6475C11.5631 17.4032 11.7435 17.0996 11.7435 16.7338C11.7435 16.3212 11.5029 16.0021 11.0213 15.7766C10.6761 15.6167 9.76829 15.4203 8.299 15.1868C6.10559 14.8386 4.57969 14.5189 3.72655 14.2233C2.87308 13.9291 2.15457 13.4306 1.56869 12.7294C0.984465 12.0279 0.692516 11.2275 0.692516 10.3294C0.692516 9.34651 1.0075 8.49975 1.63781 7.78847C2.26977 7.07689 3.13903 6.54477 4.24528 6.19478C5.3535 5.8433 6.83695 5.66919 8.69923 5.66919C10.6659 5.66919 12.1177 5.80348 13.0521 6.07504C13.9902 6.34363 14.7709 6.76374 15.396 7.33122C16.0227 7.90048 16.543 8.66881 16.9574 9.63738L10.9282 10.2049C10.7741 9.71731 10.5174 9.35959 10.1583 9.13111C9.66593 8.82746 9.07117 8.67416 8.37371 8.67416C7.6677 8.67416 7.15062 8.78943 6.82839 9.01761C6.50418 9.24787 6.34323 9.52745 6.34323 9.85517C6.34323 10.2209 6.55026 10.499 6.96465 10.6844C7.37707 10.8731 8.27991 11.0424 9.66593 11.1925C11.7672 11.4082 13.3303 11.7068 14.3536 12.0906C15.3785 12.4757 16.1629 13.0221 16.706 13.7348C17.2494 14.4458 17.5222 15.2257 17.5222 16.0772C17.5222 16.9386 17.2336 17.7773 16.6599 18.5911C16.0849 19.4058 15.18 20.0529 13.9444 20.5354C12.7088 21.0164 11.0236 21.2576 8.89244 21.2576C5.88309 21.2576 3.73939 20.8696 2.46133 20.093C1.18228 19.316 0.362715 18.212 0 16.7802Z" fill="#A40C33"/>
<path d="M21.1872 19.4328C22.8247 20.6486 24.9704 21.2573 27.6236 21.2573C30.5958 21.2573 32.9274 20.5256 34.6106 19.0602C36.2942 17.5952 37.1368 15.7142 37.1368 13.4211C37.1368 11.3805 36.4571 9.66294 35.1011 8.26622C33.4106 6.53526 30.9127 5.66919 27.6078 5.66919C24.7153 5.66919 22.4192 6.40572 20.7218 7.88117C19.0225 9.35602 18.1726 11.2305 18.1726 13.5058C18.1729 15.9492 19.1765 17.9244 21.1872 19.4328ZM25.4184 10.4957C26.0204 9.84833 26.785 9.52419 27.7089 9.52419C28.5817 9.52419 29.3144 9.84358 29.9075 10.483C30.497 11.1223 30.7942 12.0939 30.7942 13.3991C30.7942 14.8006 30.5003 15.8184 29.9128 16.4525C29.3266 17.0853 28.5761 17.4032 27.6628 17.4032C26.7583 17.4032 26.0078 17.0806 25.4091 16.4379C24.8127 15.7941 24.5152 14.8 24.5152 13.4564C24.5155 12.1319 24.8164 11.1443 25.4184 10.4957Z" fill="#A40C33"/>
<path d="M45.6678 6.00815H48.6808V10.2048H45.6678V20.9174H39.3252V10.2048H36.939V6.00815H39.3252V5.33698C39.3252 4.72968 39.3977 4.06178 39.5428 3.33476C39.688 2.60624 39.9605 2.01024 40.3604 1.54853C40.7606 1.08683 41.3218 0.712765 42.044 0.428135C42.7661 0.142018 43.823 0 45.2162 0C46.3278 0 47.9442 0.116764 50.0629 0.349995L49.348 3.79676C48.5886 3.68475 47.9761 3.62889 47.5087 3.62889C46.935 3.62889 46.5243 3.71535 46.2748 3.88797C46.0253 4.06059 45.8482 4.33393 45.7439 4.7077C45.6922 4.91211 45.6678 5.34648 45.6678 6.00815Z" fill="#A40C33"/>
<path d="M57.0324 10.205V15.4941C57.0324 16.1299 57.0979 16.5503 57.2326 16.7547C57.4396 17.0744 57.8007 17.2328 58.3174 17.2328C58.7832 17.2328 59.4326 17.1131 60.2719 16.8682L60.7376 20.796C59.1729 21.1044 57.7138 21.2574 56.358 21.2574C54.7844 21.2574 53.6229 21.0756 52.8777 20.711C52.1322 20.3465 51.5819 19.7939 51.2244 19.0508C50.867 18.3095 50.6899 17.1059 50.6899 15.4445V10.205H48.3655V6.00829H50.6899V3.27251L57.0328 0.340332V6.00799V10.205H57.0324Z" fill="#A40C33"/>
<path d="M62.1621 0.340576H68.5031V20.9175H62.1621V0.340576Z" fill="#A7AAAC"/>
<path d="M71.1729 20.9176H77.5154V6.0083H71.1729V20.9176Z" fill="#A7AAAC"/>
<path d="M71.1729 0.340576V4.25202H77.5154V0.340576H71.1729Z" fill="#A7AAAC"/>
<path d="M79.9316 6.00814H85.8388V8.43582C86.7166 7.44347 87.6073 6.73338 88.5081 6.30852C89.409 5.88187 90.5067 5.66943 91.8012 5.66943C93.5499 5.66943 94.9182 6.13916 95.9072 7.08041C96.895 8.02046 97.3897 9.47451 97.3897 11.4399V20.9174H91.0491V12.7166C91.0491 11.7819 90.8556 11.1187 90.4734 10.7304C90.0893 10.3421 89.5512 10.1469 88.8557 10.1469C88.0894 10.1469 87.468 10.4089 86.9898 10.9333C86.5135 11.4571 86.2765 12.3984 86.2765 13.755V20.9171H79.932V6.00814H79.9316Z" fill="#A7AAAC"/>
<path d="M117.915 14.2601C117.915 12.2884 117.559 10.6888 116.844 9.45847C116.129 8.22814 115.089 7.28987 113.725 6.64098C112.358 5.99209 110.496 5.66943 108.137 5.66943C105.23 5.66943 102.95 6.39022 101.3 7.8318C99.6496 9.27486 98.8254 11.1603 98.8254 13.4914C98.8254 15.1294 99.2359 16.5549 100.057 17.7677C100.879 18.9805 101.914 19.8656 103.166 20.4215C104.416 20.978 106.133 21.2573 108.313 21.2573C110.826 21.2573 112.751 20.9331 114.097 20.2828C115.44 19.6324 116.588 18.5604 117.538 17.0627L111.321 16.5531C110.931 17.0021 110.567 17.3155 110.229 17.4926C109.677 17.774 109.093 17.9127 108.477 17.9127C107.501 17.9127 106.713 17.5915 106.108 16.9492C105.678 16.5017 105.406 15.8229 105.293 14.9086H117.915V14.2601H117.915ZM105.309 12.1877C105.412 11.2913 105.655 10.6154 106.035 10.1614C106.633 9.4347 107.432 9.07015 108.433 9.07015C109.297 9.07015 109.997 9.3114 110.528 9.79242C111.059 10.2749 111.386 11.0739 111.51 12.1877H105.309Z" fill="#A7AAAC"/>
<path d="M29.0806 2.33955C36.3082 3.03954 39.1974 3.59721 45.933 5.23488C51.5498 6.60277 60.4857 6.00825 60.4857 6.00825C60.4857 6.00825 60.4857 8.60024 60.4857 10.2049C56.9859 10.6411 49.39 10.4845 43.0705 8.40563C31.7661 4.6882 26.6486 3.93265 20.6015 3.54106C12.4052 3.0122 2.64617 4.13706 2.64617 4.13706L2.54907 3.39547C2.54907 3.39547 16.6805 1.13625 29.0806 2.33955Z" fill="#A7AAAC"/>
<path d="M117.796 3.10454H118.107C118.558 3.10454 118.598 2.89835 118.598 2.79139C118.598 2.51181 118.17 2.51835 118.107 2.51835H117.796V3.10454ZM118.352 2.02425C118.993 2.02425 119.326 2.33265 119.326 2.73345C119.326 3.09801 119.033 3.29113 118.764 3.34074V3.34877C118.938 3.39185 119.049 3.57724 119.065 3.62032L119.532 4.63674H118.764L118.391 3.8075C118.375 3.77066 118.279 3.59834 118.019 3.59834H117.796V4.63703H117.09V2.02425H118.352ZM118.161 5.29513C119.366 5.29513 120.35 4.40856 120.35 3.31995C120.35 2.23193 119.366 1.34328 118.161 1.34328C116.956 1.34328 115.971 2.23163 115.971 3.31995C115.972 4.40826 116.956 5.29513 118.161 5.29513ZM118.161 0.75708C119.731 0.75708 121 1.90273 121 3.31995C121 4.73746 119.731 5.88311 118.161 5.88311C116.591 5.88311 115.322 4.73746 115.322 3.31995C115.322 1.90273 116.591 0.75708 118.161 0.75708Z" fill="#A7AAAC"/>
<path d="M25.3408 28.0168C25.7239 28.3793 25.9589 28.9025 26.0455 29.5859C26.0731 29.7841 26.0873 30.0755 26.0873 30.4603C26.0873 30.7087 26.081 30.996 26.0689 31.3222C25.9915 33.629 25.8911 35.1689 25.7677 35.9414C25.5636 37.2329 25.216 37.8785 24.7246 37.8785C24.4653 37.8785 24.1638 37.6958 23.8208 37.3303C23.4005 36.8811 22.994 36.2189 22.6017 35.343C22.1165 34.2636 21.7749 33.5704 21.5774 33.2635V33.2677C21.5774 33.4489 21.4507 34.5132 21.1972 36.4601C21.1044 37.1631 20.9823 37.6135 20.8312 37.8117C20.7321 37.937 20.6163 38 20.4836 38C20.3507 38 20.2009 37.9373 20.034 37.8117C19.7589 37.6025 19.5736 37.371 19.4778 37.117C19.0143 35.8897 18.6974 34.933 18.5275 34.2466C18.3327 33.4658 18.2356 32.7584 18.2356 32.1253C18.2356 31.8297 18.257 31.5507 18.3004 31.2883C18.3373 31.0512 18.4071 30.8489 18.5091 30.6816C18.6418 30.4502 18.8119 30.3343 19.019 30.3343H19.0423C19.3142 30.3426 19.484 30.4166 19.5522 30.5559C19.5831 30.6201 19.5986 30.7651 19.5986 30.9909V31.1083C19.5956 31.2616 19.594 31.411 19.594 31.556C19.594 32.9397 19.7144 33.9382 19.9554 34.5518C20.0541 34.3064 20.1344 33.973 20.1963 33.5517C20.2858 32.9242 20.3352 32.5837 20.3447 32.5308C20.4682 31.9366 20.5472 31.5839 20.5811 31.4722C20.7295 31.0177 20.9365 30.7262 21.2022 30.5978C21.2917 30.5533 21.3782 30.531 21.4618 30.531C21.9128 30.531 22.3222 31.1279 22.6902 32.3217C23.1536 33.8224 23.7099 35.1026 24.359 36.1627C24.6743 35.3008 24.8319 34.0526 24.8319 32.4179C24.8319 32.0109 24.8227 31.5783 24.804 31.1207C24.773 30.3845 24.7082 29.6899 24.6094 29.0371C24.591 28.9257 24.5815 28.8265 24.5815 28.74C24.5815 28.5614 24.6187 28.4387 24.6927 28.3719C24.7358 28.333 24.8207 28.2828 24.9475 28.2213C25.1137 28.141 25.245 28.0727 25.3408 28.0168Z" fill="#595A5C"/>
<path d="M31.8994 35.4562C32.1249 35.3056 32.295 35.2301 32.4093 35.2301C32.5235 35.2301 32.5807 35.3082 32.5807 35.4642C32.5067 35.9357 32.2147 36.4307 31.7049 36.9495C31.2072 37.4516 30.702 37.7835 30.1892 37.9454C30.0039 37.9816 29.8199 37.9998 29.6375 37.9998C28.7321 37.9998 27.8977 37.5369 27.1347 36.6105C26.875 36.2952 26.7454 35.8629 26.7454 35.3136C26.7454 35.0821 26.7687 34.8281 26.8148 34.5521C26.8984 34.0556 27.3368 33.7279 28.1311 33.5687C28.2393 33.5464 28.346 33.5354 28.451 33.5354C28.7383 33.5354 29.0072 33.6192 29.2574 33.7865C29.5418 33.976 29.7843 34.2592 29.9851 34.6359C30.0378 34.8061 30.0638 34.9651 30.0638 35.1128C30.0638 35.5507 29.8367 35.9034 29.3825 36.1713C29.3084 36.2159 29.2093 36.2578 29.0859 36.2967C28.947 36.3413 28.8634 36.3692 28.8354 36.3805C28.7706 36.4111 28.738 36.4503 28.738 36.4976V36.5059C28.7442 36.5644 28.7982 36.644 28.9003 36.7445C29.1165 36.9563 29.3653 37.0624 29.6464 37.0624C29.7267 37.0624 29.8103 37.0541 29.8969 37.0371C30.2583 36.9646 30.62 36.7359 30.9814 36.3508C31.4669 35.8413 31.773 35.5427 31.8994 35.4562ZM28.21 35.8035C28.4079 35.8035 28.5701 35.7408 28.6968 35.6152C28.8144 35.5008 28.8822 35.3585 28.9009 35.1882C28.9039 35.1603 28.9055 35.1327 28.9055 35.1047C28.9055 34.9707 28.8687 34.8522 28.7943 34.7491C28.6952 34.6097 28.5501 34.5286 28.3585 34.5064C28.3338 34.5037 28.3104 34.5022 28.289 34.5022C28.1653 34.5022 28.0695 34.5482 28.0017 34.6403C27.9306 34.7351 27.8951 34.8662 27.8951 35.0337C27.8947 35.4075 27.9997 35.6639 28.21 35.8035Z" fill="#595A5C"/>
<path d="M39.8191 35.2429C39.8312 35.2429 40.5498 35.4913 41.9743 35.9877C43.0776 36.3725 43.6631 36.7157 43.7309 37.0169C43.7247 37.0169 43.6829 37.0992 43.6058 37.2638C43.5285 37.4311 43.4067 37.5149 43.2398 37.5149C43.172 37.5345 43.1009 37.5443 43.0266 37.5443C42.8751 37.5443 42.7066 37.5066 42.5213 37.4314C42.4377 37.4008 42.3189 37.3479 42.1645 37.2724C42.0069 37.1943 41.8927 37.1414 41.8216 37.1135H41.8262L41.293 36.8794C40.9931 36.7454 40.7367 36.6396 40.5234 36.5612C40.1683 36.4328 39.8994 36.3686 39.717 36.3686C39.5594 36.3686 39.4698 36.4189 39.4481 36.5193C39.4356 36.5751 39.4297 36.6574 39.4297 36.7662C39.4297 36.8416 39.4326 36.9281 39.4389 37.0255C39.4452 37.1429 39.4481 37.2445 39.4481 37.331C39.4481 37.437 39.4435 37.5205 39.4343 37.582C39.3971 37.8581 39.249 37.9962 38.9893 37.9962C38.8751 37.9962 38.7375 37.9683 38.5765 37.9124C38.3478 37.8346 38.2165 37.6908 38.1826 37.4816C38.1763 37.4454 38.1733 37.405 38.1733 37.3601C38.1733 37.2291 38.1993 37.0573 38.252 36.8455C38.3323 36.5136 38.3754 36.2961 38.3817 36.1928V36.155C38.3817 35.9515 38.3106 35.8035 38.1684 35.7114C37.9673 35.5831 37.8547 35.4506 37.83 35.3139C37.8271 35.2973 37.8254 35.2791 37.8254 35.2595C37.8254 35.1591 37.8639 35.0435 37.9413 34.9122C38.2411 34.3935 38.3955 34.0559 38.4047 33.8997C38.4077 33.8328 38.4093 33.6542 38.4093 33.364V32.4394C38.4093 31.9931 38.4169 31.6208 38.4324 31.3222C38.5002 30.0669 38.7289 29.4395 39.1183 29.4395H39.1555C39.5139 29.4787 39.693 30.042 39.693 31.1297C39.693 31.8104 39.6219 32.6987 39.4797 33.7951C39.6186 33.7532 39.8243 33.6849 40.0962 33.5901C40.4082 33.4787 40.6294 33.4017 40.7591 33.3598C41.2472 33.2035 41.6567 33.1257 41.9875 33.1257C42.0243 33.1257 42.0599 33.1272 42.0941 33.1298C42.3814 33.1298 42.5559 33.1759 42.6181 33.268C42.652 33.3182 42.6691 33.4715 42.6691 33.7282C42.5825 33.8985 42.1392 34.0895 41.3387 34.3014C40.736 34.4241 40.3174 34.5286 40.0824 34.6151C39.7424 34.7378 39.5725 34.862 39.5725 34.9874C39.5732 35.0712 39.6551 35.1564 39.8191 35.2429Z" fill="#595A5C"/>
<path d="M48.2132 36.8412C48.2968 37.1258 48.3382 37.3558 48.3382 37.5316C48.3382 37.674 48.3103 37.7785 48.2546 37.8454C48.1651 37.9485 48.0213 38.0002 47.8235 38.0002C47.7461 38.0002 47.6595 37.9919 47.5638 37.9749C47.3011 37.933 47.0924 37.6472 46.9381 37.1172C46.8452 36.8049 46.7432 36.2651 46.6323 35.4979C46.5549 34.9735 46.4947 34.6387 46.4516 34.4937C45.9882 34.8006 45.662 35.1435 45.4737 35.5229C45.319 35.8351 45.239 36.2244 45.2328 36.6902C45.2298 36.8911 45.1446 37.1198 44.978 37.3765C44.7865 37.6722 44.5807 37.8201 44.3615 37.8201C44.1729 37.8201 44.0047 37.7016 43.8563 37.4645C43.7668 37.3195 43.7217 37.0797 43.7217 36.7449C43.7217 36.4409 43.7589 36.0586 43.8329 35.5983C43.8978 35.1967 43.9317 34.9218 43.935 34.7742C43.9379 34.4812 44.0228 34.2664 44.1897 34.1297C44.3072 34.0293 44.4553 33.9791 44.6347 33.9791C44.7058 33.9791 44.7832 33.9874 44.8664 34.0043C45.0672 34.0433 45.1755 34.1063 45.191 34.1927C45.293 34.095 45.4257 33.9319 45.5896 33.7031C45.741 33.4912 45.8631 33.3364 45.9556 33.2387C46.0267 33.1662 46.1409 33.0854 46.2985 32.996C46.5118 32.8789 46.7001 32.8201 46.864 32.8201C47.0618 32.8201 47.2053 32.9053 47.2952 33.0753C47.5516 33.608 47.7708 34.442 47.9535 35.5772C48.0213 35.9816 48.0756 36.2859 48.1157 36.4894C48.1282 36.5568 48.1605 36.6739 48.2132 36.8412Z" fill="#595A5C"/>
<path d="M51.3788 33.5439C51.8702 33.5439 52.2625 33.7112 52.5561 34.0461C52.8497 34.3809 52.9965 34.8286 52.9965 35.3893C52.9965 36.0504 52.8079 36.636 52.4311 37.1467C52.0048 37.7157 51.4608 38.0003 50.7995 38.0003C50.6698 38.0003 50.5369 37.9878 50.4009 37.9626C49.8789 37.8704 49.5001 37.5733 49.2654 37.0712C49.1077 36.7307 49.0291 36.3391 49.0291 35.8956C49.0291 35.7841 49.0337 35.6695 49.0429 35.5524C49.0922 34.9415 49.3226 34.4549 49.7334 34.0921C50.1412 33.7267 50.6619 33.5439 51.2955 33.5439H51.3788ZM50.4937 35.2303C50.3917 35.4059 50.3407 35.6068 50.3407 35.8329V35.8914C50.3469 36.1451 50.4085 36.3599 50.526 36.5358C50.6343 36.7004 50.764 36.7827 50.9154 36.7827C51.0852 36.7827 51.2662 36.6796 51.4578 36.4731C51.6556 36.2613 51.7669 35.9892 51.7915 35.6573C51.7945 35.6127 51.7962 35.5693 51.7962 35.5274C51.7962 35.2488 51.7251 35.0072 51.5829 34.8037C51.4993 34.6866 51.3897 34.6281 51.2537 34.6281C51.0928 34.6281 50.9292 34.6979 50.7623 34.8373C50.6017 34.968 50.5122 35.099 50.4937 35.2303Z" fill="#595A5C"/>
<path d="M59.4676 34.3598C59.5756 34.7309 59.6299 35.1198 59.6299 35.5272V35.6234C59.6174 36.2203 59.5664 36.6779 59.4769 36.9958C59.3162 37.5621 59.0286 37.8452 58.6145 37.8452C58.5928 37.8452 58.5697 37.844 58.5451 37.841C58.2669 37.8188 57.9997 37.6889 57.7433 37.4518C57.5919 37.3125 57.3832 37.0626 57.1176 36.7028C56.8269 36.3124 56.6044 36.0584 56.4501 35.9413L56.4221 35.9999C55.7608 37.333 55.2171 37.9997 54.7905 37.9997C54.6855 37.9997 54.5881 37.962 54.4986 37.8868C54.1586 37.5965 53.9394 37.1197 53.8403 36.4559C53.8031 36.2075 53.7847 35.9568 53.7847 35.7027C53.7847 35.4407 53.8047 35.1757 53.8449 34.9077C53.8604 34.7318 53.9746 34.4837 54.1879 34.1628C54.4351 33.7891 54.6668 33.6022 54.883 33.6022C55.0561 33.6022 55.1921 33.7192 55.2908 33.9537C55.3188 34.0205 55.3326 34.1085 55.3326 34.2172C55.3326 34.4097 55.2879 34.6676 55.1983 34.9912C55.1088 35.3064 55.0637 35.5575 55.0637 35.7443C55.0637 35.8754 55.0854 35.9761 55.1286 36.0456C55.249 35.9788 55.3757 35.7779 55.5087 35.4431C55.5828 35.2535 55.6447 35.1249 55.694 35.058C55.7559 34.9745 55.8546 34.8907 55.9906 34.807C56.1482 34.7092 56.2917 34.6605 56.4218 34.6605C56.4807 34.6605 56.533 34.6703 56.5794 34.6899C56.9257 34.8322 57.3674 35.2045 57.9052 35.807C58.0935 36.0162 58.2389 36.174 58.341 36.2797C58.3749 36.171 58.392 36.0275 58.392 35.8489C58.392 35.5895 58.3565 35.2535 58.2854 34.8405C58.2327 34.528 58.2067 34.2728 58.2067 34.0749C58.2067 33.8378 58.2436 33.6788 58.3179 33.598C58.3953 33.5199 58.5033 33.481 58.6425 33.481H58.6935C59.0427 33.5092 59.3008 33.8021 59.4676 34.3598Z" fill="#595A5C"/>
<path d="M70.5574 34.3598C70.6657 34.7309 70.7197 35.1198 70.7197 35.5272V35.6234C70.7072 36.2203 70.6565 36.6779 70.5666 36.9958C70.4057 37.5621 70.1183 37.8452 69.7046 37.8452C69.6829 37.8452 69.6595 37.844 69.6348 37.841C69.3567 37.8188 69.0894 37.6889 68.833 37.4518C68.6816 37.3125 68.4729 37.0626 68.2073 36.7028C67.9167 36.3124 67.6942 36.0584 67.5398 35.9413L67.5118 35.9999C66.8506 37.333 66.3069 37.9997 65.8803 37.9997C65.7753 37.9997 65.6779 37.962 65.5883 37.8868C65.2483 37.5965 65.0291 37.1197 64.9304 36.4559C64.8932 36.2075 64.8748 35.9568 64.8748 35.7027C64.8748 35.4407 64.8948 35.1757 64.935 34.9077C64.9505 34.7318 65.0647 34.4837 65.278 34.1628C65.5251 33.7891 65.7569 33.6022 65.9734 33.6022C66.1466 33.6022 66.2822 33.7192 66.3812 33.9537C66.4092 34.0205 66.423 34.1085 66.423 34.2172C66.423 34.4097 66.3779 34.6676 66.2887 34.9912C66.1992 35.3064 66.1541 35.5575 66.1541 35.7443C66.1541 35.8754 66.1759 35.9761 66.219 36.0456C66.3394 35.9788 66.4662 35.7779 66.5991 35.4431C66.6732 35.2535 66.7351 35.1249 66.7844 35.058C66.8463 34.9745 66.9451 34.8907 67.081 34.807C67.2387 34.7092 67.3822 34.6605 67.5122 34.6605C67.5711 34.6605 67.6237 34.6703 67.6698 34.6899C68.0161 34.8322 68.4578 35.2045 68.9956 35.807C69.1839 36.0162 69.329 36.174 69.4314 36.2797C69.4653 36.171 69.4821 36.0275 69.4821 35.8489C69.4821 35.5895 69.4465 35.2535 69.3754 34.8405C69.3228 34.528 69.2968 34.2728 69.2968 34.0749C69.2968 33.8378 69.3336 33.6788 69.408 33.598C69.4854 33.5199 69.5933 33.481 69.7326 33.481H69.7832C70.1325 33.5092 70.3905 33.8021 70.5574 34.3598Z" fill="#595A5C"/>
<path d="M76.3884 35.456C76.6139 35.3053 76.7841 35.2299 76.8983 35.2299C77.0125 35.2299 77.0698 35.308 77.0698 35.464C76.9954 35.9355 76.7034 36.4305 76.1939 36.9492C75.6962 37.4514 75.191 37.7832 74.6782 37.9451C74.4929 37.9814 74.3089 37.9995 74.1266 37.9995C73.2211 37.9995 72.3867 37.5366 71.6238 36.6102C71.3644 36.295 71.2344 35.8627 71.2344 35.3134C71.2344 35.0819 71.2577 34.8279 71.3038 34.5519C71.3874 34.0554 71.8258 33.7277 72.6201 33.5684C72.7284 33.5461 72.835 33.5352 72.94 33.5352C73.2273 33.5352 73.4962 33.6189 73.7467 33.7862C74.0308 33.9758 74.2737 34.2589 74.4745 34.6356C74.5271 34.8059 74.5535 34.9648 74.5535 35.1125C74.5535 35.5504 74.3264 35.9031 73.8718 36.1711C73.7977 36.2157 73.6987 36.2576 73.5752 36.2965C73.4363 36.3411 73.3527 36.369 73.3251 36.3803C73.2603 36.4109 73.2277 36.4501 73.2277 36.4973V36.5057C73.2339 36.5642 73.2879 36.6438 73.3899 36.7442C73.6062 36.9561 73.855 37.0621 74.1361 37.0621C74.2164 37.0621 74.3 37.0538 74.3866 37.0369C74.748 36.9644 75.1097 36.7356 75.4711 36.3506C75.9559 35.841 76.2617 35.5424 76.3884 35.456ZM72.6987 35.8033C72.8965 35.8033 73.0588 35.7406 73.1855 35.6149C73.3027 35.5005 73.3708 35.3582 73.3893 35.188C73.3926 35.16 73.3939 35.1324 73.3939 35.1045C73.3939 34.9705 73.357 34.8519 73.2826 34.7488C73.1836 34.6095 73.0384 34.5284 72.8468 34.5061C72.8222 34.5034 72.7988 34.5019 72.7771 34.5019C72.6533 34.5019 72.5575 34.548 72.4897 34.6401C72.4186 34.7349 72.3831 34.8659 72.3831 35.0335C72.3837 35.4072 72.4887 35.6636 72.6987 35.8033Z" fill="#595A5C"/>
<path d="M84.294 36.7076C84.3496 36.7076 84.4082 36.7035 84.4701 36.6951C84.7607 36.6619 85.2133 36.5181 85.8281 36.2643C86.4706 36.0023 86.8945 35.8543 87.0983 35.8207C87.1631 35.8095 87.222 35.8041 87.2744 35.8041C87.5403 35.8041 87.6809 35.9339 87.6967 36.1933C87.6002 36.726 86.8188 37.2448 85.3509 37.7499C84.8627 37.9171 84.4303 38.0009 84.0534 38.0009C83.4629 38.0009 83.0057 37.7974 82.6812 37.3901C82.4495 37.1001 82.3274 36.7347 82.3152 36.2937V36.1933C82.3152 35.8112 82.3955 35.4318 82.5561 35.0551C82.7352 34.6368 82.9794 34.3007 83.2885 34.0467C83.616 33.7817 83.9701 33.6492 84.3503 33.6492H84.3825C84.735 33.6492 84.9651 33.7817 85.0731 34.0467C85.101 34.1165 85.1152 34.1819 85.1152 34.2434C85.1152 34.4303 84.9931 34.588 84.7485 34.7161C84.2453 34.9894 83.9375 35.1778 83.8263 35.2809C83.6314 35.4624 83.534 35.6701 83.534 35.9042C83.534 36.0186 83.559 36.1413 83.6084 36.2723C83.7157 36.5623 83.9444 36.7076 84.294 36.7076Z" fill="#595A5C"/>
<path d="M91.9466 36.7701C92.1691 37.0491 92.28 37.2791 92.28 37.4606C92.2524 37.5973 92.1566 37.7188 91.9927 37.8246C91.8321 37.9306 91.6622 37.9835 91.4829 37.9835C91.3344 37.9835 91.211 37.9416 91.1119 37.8581C90.9082 37.6909 90.7209 37.3643 90.5511 36.8791C90.4214 36.4997 90.2943 36.2389 90.1709 36.0966C90.1432 36.1358 90.1014 36.1943 90.0458 36.2722C89.7124 36.749 89.4386 37.0937 89.2256 37.3055C88.8579 37.668 88.4728 37.8887 88.0713 37.9666C87.9541 37.9889 87.8412 38.0001 87.7333 38.0001C87.4179 38.0001 87.1632 37.9095 86.9683 37.7283C86.7705 37.5471 86.6626 37.3002 86.6438 36.9876C86.6438 36.3571 87.0872 35.5832 87.9742 34.6654C89.1114 33.8314 89.9704 33.4146 90.5514 33.4146H90.5978C90.8325 33.4146 91.0165 33.6154 91.1494 34.0171C91.2268 34.2429 91.2992 34.6 91.3673 35.0882C91.3887 35.2584 91.4042 35.363 91.4134 35.4019C91.4226 35.4328 91.4397 35.505 91.4644 35.6194C91.5477 36.0018 91.6313 36.2763 91.7146 36.4436C91.7518 36.5164 91.8291 36.6251 91.9466 36.7701ZM89.6383 34.7786C89.6199 34.7676 89.5982 34.7619 89.5735 34.7619C89.4715 34.7619 89.3313 34.8496 89.1519 35.0255C88.9231 35.2543 88.6947 35.5597 88.4659 35.9418C88.2559 36.2989 88.1335 36.5681 88.0996 36.7493C88.4179 36.6685 88.7516 36.3978 89.1009 35.9376C89.4435 35.4884 89.6229 35.1021 89.6383 34.7786Z" fill="#595A5C"/>
<path d="M97.3745 36.8412C97.4577 37.1258 97.4995 37.3558 97.4995 37.5316C97.4995 37.674 97.4716 37.7785 97.4163 37.8454C97.3267 37.9485 97.1829 38.0002 96.9851 38.0002C96.9077 38.0002 96.8215 37.9919 96.7257 37.9749C96.4631 37.933 96.2547 37.6472 96.1 37.1172C96.0075 36.8049 95.9055 36.2651 95.7942 35.4979C95.7169 34.9735 95.6567 34.6387 95.6135 34.4937C95.1501 34.8006 94.8239 35.1435 94.6353 35.5229C94.481 35.8351 94.4007 36.2244 94.3944 36.6902C94.3911 36.8911 94.3062 37.1198 94.1393 37.3765C93.9477 37.6722 93.7424 37.8201 93.5228 37.8201C93.3346 37.8201 93.166 37.7016 93.0176 37.4645C92.9281 37.3195 92.8833 37.0797 92.8833 36.7449C92.8833 36.4409 92.9202 36.0586 92.9946 35.5983C93.0594 35.1967 93.0936 34.9218 93.0966 34.7742C93.0999 34.4812 93.1848 34.2664 93.3517 34.1297C93.4688 34.0293 93.6173 33.9791 93.7967 33.9791C93.8674 33.9791 93.9451 33.9874 94.0284 34.0043C94.2292 34.0433 94.3375 34.1063 94.3529 34.1927C94.455 34.095 94.5876 33.9319 94.7515 33.7031C94.9029 33.4912 95.025 33.3364 95.1179 33.2387C95.189 33.1662 95.3032 33.0854 95.4608 32.996C95.6738 32.8789 95.8624 32.8201 96.0263 32.8201C96.2241 32.8201 96.3676 32.9053 96.4575 33.0753C96.7139 33.608 96.9331 34.442 97.1158 35.5772C97.1836 35.9816 97.2375 36.2859 97.2777 36.4894C97.2895 36.5568 97.3218 36.6739 97.3745 36.8412Z" fill="#595A5C"/>
</svg>
