<svg width="128" height="27" viewBox="0 0 128 27" fill="none" xmlns="http://www.w3.org/2000/svg">
<path d="M77.9131 19.4001C77.5922 19.4001 77.302 19.4965 77.0382 19.6848C76.7788 19.8732 76.6469 20.1185 76.6469 20.4207C76.6469 20.942 76.9942 21.2048 77.6977 21.2048C77.812 21.2048 77.9879 21.1916 78.2121 21.1654C78.4803 20.2324 79.197 19.4001 77.9131 19.4001ZM74.985 23.1146C75.0333 23.189 75.0993 23.2241 75.196 23.2241C75.3719 23.2241 75.5785 23.0314 75.8159 22.6415C76.0534 22.2473 76.26 21.9757 76.4359 21.8399C76.6117 21.6997 76.9019 21.5815 77.3064 21.4807V21.4063H77.1569C76.6777 21.4063 76.3172 21.3143 76.0753 21.1303C75.8335 20.9507 75.7148 20.7229 75.7148 20.447C75.7148 20.0265 75.9742 19.6761 76.5018 19.4001C77.025 19.1242 77.7197 19.0234 78.5814 18.9884C80.1554 18.927 79.4256 19.1417 79.0651 20.9814C78.8364 22.1422 78.599 22.7773 78.599 22.935C78.599 23.0839 78.6606 23.1978 78.7573 23.1584C80.9205 22.2341 78.8848 23.8067 78.2033 23.8067C78.0802 23.8067 77.9747 23.7541 77.8912 23.6533C77.8076 23.5526 77.7637 23.4037 77.7637 23.2022C77.7637 23.0051 77.7988 22.7642 77.878 22.4794L78.1374 21.5026C77.8208 21.5026 77.5614 21.5946 77.368 21.7698C77.1701 21.9494 76.9151 22.3174 76.6029 22.8693C76.2468 23.4957 75.8423 23.811 75.3939 23.811C75.2136 23.811 75.0553 23.7497 74.919 23.6314C74.5541 23.3204 74.198 21.818 74.985 23.1146Z" fill="#727271"/>
<path d="M73.6486 20.2764C73.4859 20.8239 73.332 21.459 73.1825 22.1774C73.1034 22.5672 73.0638 22.8169 73.0638 22.9308C73.0638 23.0447 73.1078 23.1016 73.2001 23.1016C73.2573 23.1016 73.3496 23.0622 73.4815 22.9877C74.6774 22.2694 74.3608 22.8082 73.5079 23.3864C73.2749 23.544 73.0506 23.6623 72.8396 23.7412C72.7033 23.7893 72.5626 23.8156 72.4351 23.8156C72.3384 23.8156 72.268 23.7937 72.2197 23.7499C72.1713 23.7061 72.1493 23.6404 72.1493 23.5572C72.1493 23.5046 72.1625 23.4302 72.1933 23.3338L72.4131 22.5935C72.1009 22.9702 71.7228 23.29 71.292 23.5572C71.0238 23.7236 70.7775 23.8069 70.5577 23.8069C70.3467 23.8069 70.184 23.7324 70.0697 23.5835C69.9158 23.382 69.8411 23.1192 69.8411 22.795C69.8411 22.4095 69.9466 21.9803 70.1532 21.5072C70.3599 21.0341 70.6369 20.6049 70.9842 20.215C71.3315 19.8296 71.6965 19.5449 72.079 19.3609C73.3144 18.7914 74.1058 18.7389 73.6486 20.2764ZM72.523 19.7463C72.1933 19.7463 71.9075 19.8383 71.6613 20.0179C71.4151 20.1975 71.1908 20.5217 70.9798 20.9903C70.7688 21.459 70.6676 21.9233 70.6676 22.392C70.6676 22.6417 70.7072 22.8169 70.7951 22.9264C70.8787 23.0359 70.9886 23.0885 71.1249 23.0885C71.3755 23.0885 71.6481 22.9527 71.9383 22.6811C72.2284 22.4095 72.4395 22.0197 72.5714 21.5116C72.7385 20.8677 73.4595 19.7463 72.523 19.7463Z" fill="#727271"/>
<path d="M27.7914 8.77809C27.2023 8.99711 26.7406 9.10223 26.3141 9.49646C25.8965 9.88192 25.3425 10.5127 24.6654 11.3887C23.8476 12.4444 23.2233 13.1452 22.7968 13.4869C22.3703 13.8285 21.9263 14.0038 21.4646 14.0038C21.1041 14.0038 20.7875 13.8811 20.5018 13.6402C19.9214 13.1321 18.4002 10.2893 20.6952 12.6634C20.8007 12.7729 20.9326 12.8298 21.0821 12.8298C21.535 12.8298 22.1593 12.3086 22.9595 11.2661C23.9487 9.98267 24.6786 9.20298 25.1622 8.92702C25.6459 8.65106 26.4416 8.41891 27.5584 8.23494C24.3225 6.35142 22.0054 -0.525607 28.0069 7.78377C29.1544 3.11002 30.9306 2.65009 29.5985 7.96774C36.4748 0.0175467 35.1251 5.08114 30.0337 8.48023C31.0581 8.96206 31.7616 9.44389 32.1397 9.93448C32.5222 10.4207 33.1026 11.6253 33.8896 13.5482C34.4743 14.9806 35.0327 15.9661 35.5559 16.4918C36.0791 17.0218 36.6727 17.289 37.3278 17.289C37.6619 17.289 37.9521 17.2101 38.2159 17.0612C38.2775 17.0261 42.5642 14.5381 39.0513 17.3503C38.5457 17.762 37.8993 17.9635 37.1255 17.9635C36.2506 17.9635 35.4548 17.7182 34.7425 17.2233C34.0259 16.7327 33.4235 16.045 32.9311 15.1558C32.4431 14.271 31.8979 13.0051 31.3044 11.3625C30.9482 10.3725 30.658 9.74175 30.425 9.48331C30.1876 9.21612 29.8623 8.97082 29.4402 8.73867C27.9541 14.8667 26.002 15.7559 27.7914 8.77809Z" fill="#1C4A24"/>
<path d="M60.1156 4.76559C59.4737 4.76559 58.8978 4.95394 58.3746 5.33064C57.8557 5.70734 57.5963 6.19355 57.5963 6.79365C57.5963 7.83616 58.291 8.35741 59.6891 8.35741C59.9222 8.35741 60.2651 8.33113 60.7136 8.27856C61.2456 6.41695 62.6701 4.76559 60.1156 4.76559ZM54.2813 12.1639C54.3736 12.3084 54.5143 12.3829 54.7033 12.3829C55.0551 12.3829 55.4684 11.993 55.9344 11.2221C56.4092 10.4337 56.8181 9.89926 57.1655 9.62331C57.5128 9.34735 58.0932 9.10206 58.8978 8.90494V8.75601H58.5988C57.6403 8.75601 56.9237 8.57642 56.4444 8.20848C55.9652 7.84492 55.7278 7.39375 55.7278 6.8506C55.7278 6.01396 56.2466 5.3175 57.293 4.76559C58.335 4.21805 59.7199 4.01656 61.439 3.94647C64.5782 3.81945 63.1229 4.25309 62.4019 7.92376C61.9446 10.2409 61.4742 11.5024 61.4742 11.8178C61.4742 12.1157 61.5973 12.3435 61.7907 12.2602C66.0995 10.4161 62.0502 13.5568 60.6916 13.5568C60.4454 13.5568 60.2343 13.4517 60.0673 13.2502C59.8958 13.0487 59.8123 12.7508 59.8123 12.3522C59.8123 11.958 59.887 11.4762 60.0365 10.9111L60.5553 8.96189C59.9222 8.96189 59.4078 9.14148 59.0209 9.49628C58.6252 9.85546 58.1195 10.5826 57.4908 11.6864C56.7786 12.9304 55.974 13.5568 55.0815 13.5568C54.7253 13.5568 54.4088 13.4341 54.1318 13.1932C53.4195 12.5669 52.7073 9.57513 54.2813 12.1639Z" fill="#1C4A24"/>
<path d="M44.8285 11.2659C43.3205 12.834 42.2037 13.6225 41.4827 13.6225C41.2716 13.6225 41.0738 13.5261 40.8891 13.3378C40.7045 13.1494 40.6121 12.891 40.6121 12.5624C40.6121 12.1814 40.6913 11.6864 40.8408 11.0732L41.3684 8.8436H38.2248C37.1652 13.2983 35.1999 14.2532 35.7362 12.3172C35.8462 11.9405 36.0396 11.1695 36.3386 9.99561L37.341 5.97452C37.3938 5.76865 37.4202 5.60219 37.4202 5.47955C37.4202 5.25615 37.3234 5.07656 37.1827 5.14227C32.6762 7.23166 37.1652 3.77124 38.5281 3.77124C38.9414 3.77124 39.1481 4.04282 39.1481 4.59473C39.1481 5.12036 38.9018 6.30742 38.405 8.16465H41.5574C42.8017 3.50404 44.8198 1.98847 43.1974 7.99382C42.5731 10.2759 42.2609 11.5725 42.2609 11.8879C42.2609 12.1857 42.3708 12.3303 42.5906 12.3303C42.8588 12.3303 43.4832 11.8397 44.4548 10.8541L44.8285 11.2659Z" fill="#1C4A24"/>
<path d="M52.2543 6.255C51.9202 7.38511 51.5992 8.69481 51.2914 10.1753C51.1244 10.9769 51.0452 11.4982 51.0452 11.7303C51.0452 11.9669 51.1375 12.0808 51.3266 12.0808C51.4453 12.0808 51.6388 12.0019 51.907 11.8442C54.3779 10.3593 53.7228 11.4719 51.9597 12.6677C51.4761 12.9962 51.0188 13.2415 50.5836 13.3992C50.2978 13.5043 50.0164 13.5569 49.7482 13.5569C49.5504 13.5569 49.4053 13.5087 49.3085 13.4211C49.2074 13.3291 49.1634 13.1977 49.1634 13.0269C49.1634 12.9174 49.1942 12.7597 49.2514 12.567L49.7042 11.0383C49.0579 11.8092 48.2841 12.475 47.3872 13.0313C46.8332 13.3773 46.3276 13.5481 45.8703 13.5481C45.4351 13.5481 45.0965 13.3948 44.8635 13.0882C44.547 12.6721 44.3887 12.1333 44.3887 11.4675C44.3887 10.6703 44.6041 9.7855 45.0306 8.80869C45.4571 7.83189 46.0242 6.9427 46.7453 6.14987C47.4575 5.35266 48.2138 4.77008 49.0052 4.39338C51.5596 3.18881 53.1996 3.08368 52.2543 6.255ZM49.9285 5.15993C49.2514 5.15993 48.6578 5.34828 48.1522 5.71622C47.6466 6.08855 47.1806 6.75873 46.7453 7.72239C46.3144 8.68605 46.099 9.64971 46.099 10.609C46.099 11.1215 46.1825 11.4894 46.3584 11.7128C46.5298 11.9406 46.7585 12.0501 47.0355 12.0501C47.5543 12.0501 48.1126 11.7741 48.7106 11.2135C49.3041 10.6572 49.7394 9.84682 50.0208 8.79993C50.3725 7.47271 51.8674 5.15993 49.9285 5.15993Z" fill="#1C4A24"/>
<path d="M12.1869 7.81879C12.1869 9.46577 12.5518 10.736 13.286 11.634C14.0159 12.532 14.9216 12.9787 16.012 12.9787C17.4189 12.9787 18.5752 12.2954 19.4765 10.9288C20.3778 9.56214 20.8263 7.82755 20.8263 5.72502C20.8263 4.13498 20.4614 2.92602 19.7271 2.08501C18.9973 1.244 18.118 0.823491 17.0935 0.823491C15.6602 0.823491 14.4863 1.45863 13.5674 2.72453C12.6485 3.98605 12.1869 5.68559 12.1869 7.81879ZM10.5381 5.93527C11.0217 4.34961 11.8923 2.96544 13.1585 1.77839C14.4248 0.595717 15.9416 0 17.7091 0C19.3754 0 20.6592 0.508112 21.5605 1.52433C22.4619 2.53618 22.9103 3.80208 22.9103 5.30889C22.9103 7.36762 22.1937 9.29494 20.756 11.0996C19.3182 12.9043 17.5024 13.8022 15.3085 13.8022C13.6949 13.8022 12.4287 13.3029 11.5098 12.2998C10.5865 11.2967 10.1292 10.1535 10.1292 8.87005C10.1292 8.31814 10.1996 7.63482 10.3359 6.80694H10.0545C9.46533 6.80694 8.63436 6.85513 7.56597 6.95149C7.0076 9.17667 5.30169 13.7453 2.58016 14.2052C2.04377 14.2972 1.22159 13.9161 0.795114 13.6796C-0.378795 13.0357 -0.286465 11.7829 1.3359 13.0751C1.71841 13.3774 2.16687 13.4912 2.43507 13.4912C4.87961 13.4912 5.99637 6.40396 6.36129 5.05483L7.46925 0.928618C5.97438 0.946139 4.84884 1.19143 4.07942 1.67326C3.31 2.15947 2.76042 3.2633 2.76042 3.89844C2.76042 6.62297 1.81074 6.29007 1.81074 4.1525C1.81074 3.41223 2.03497 2.75081 2.48343 2.16385C2.93189 1.58128 3.48587 1.15201 4.14537 0.876055C4.80487 0.595717 5.4248 0.416126 6.01835 0.32414C6.6031 0.236535 7.82098 0.188352 9.66758 0.188352C9.14437 1.13449 8.52444 3.07057 7.80339 6.00097H9.19274C9.19274 6.00535 10.5381 5.93527 10.5381 5.93527Z" fill="#1C4A24"/>
<path d="M121.911 21.1699C121.598 22.3087 121.44 22.9614 121.44 23.1191C121.44 23.1892 121.458 23.2461 121.489 23.2812C121.524 23.3206 121.559 23.3381 121.603 23.3381C121.664 23.3381 121.744 23.3074 121.827 23.2549C123.841 21.8444 121.704 23.9864 121.049 23.9864C120.926 23.9864 120.825 23.9382 120.741 23.8462C120.658 23.7542 120.614 23.6228 120.614 23.452C120.614 23.2593 120.653 22.9964 120.737 22.6679C120.403 23.049 119.989 23.3863 119.492 23.6754C119.163 23.8681 118.881 23.9645 118.639 23.9645C118.508 23.9645 118.402 23.9207 118.327 23.8331C118.253 23.7455 118.217 23.6097 118.217 23.4213C118.217 23.2768 118.235 23.1191 118.266 22.9483C118.314 22.7117 118.442 22.2387 118.639 21.5247C118.89 20.618 119.018 20.0792 119.018 19.8996C119.018 19.7945 118.978 19.7419 118.903 19.7419C118.837 19.7419 118.745 19.7769 118.626 19.847C117.017 20.7932 118.231 19.6412 118.934 19.2645C119.202 19.1243 119.413 19.0542 119.576 19.0542C119.668 19.0542 119.739 19.0849 119.796 19.1506C119.853 19.2163 119.879 19.3214 119.879 19.4572C119.879 19.7156 119.743 20.3551 119.47 21.367C119.229 22.2781 119.11 22.7993 119.11 22.9264C119.11 23.0052 119.136 23.0709 119.185 23.1279C119.237 23.1848 119.29 23.2111 119.352 23.2111C119.563 23.2111 119.862 23.0402 120.249 22.6898C120.64 22.3438 120.891 21.9496 121.014 21.5028C121.616 19.2864 122.816 17.819 121.911 21.1699Z" fill="#727271"/>
<path d="M115.729 23.9864C115.624 23.9864 115.522 23.9382 115.43 23.8462C115.338 23.7542 115.289 23.6228 115.289 23.4564C115.289 23.268 115.329 23.0183 115.404 22.7117L115.668 21.5947H114.098C113.57 23.8199 112.586 24.3017 112.854 23.3293C112.906 23.141 113.008 22.7555 113.153 22.1686L113.654 20.158C113.68 20.0529 113.693 19.9697 113.693 19.9083C113.693 19.7988 113.645 19.7068 113.575 19.7375C111.297 20.7187 113.566 19.0498 114.247 19.0498C114.454 19.0498 114.56 19.1856 114.56 19.4615C114.56 19.7244 114.437 20.3201 114.186 21.2487H115.764C116.389 18.9184 117.395 18.1606 116.586 21.1655C116.274 22.3043 116.116 22.957 116.116 23.1147C116.116 23.2636 116.186 23.3907 116.279 23.3337C118.416 22.0678 116.411 23.9864 115.729 23.9864Z" fill="#727271"/>
<path d="M110.787 19.8207C110.58 19.7769 110.409 19.7594 110.273 19.7594C109.934 19.7594 109.639 19.8514 109.384 20.0398C109.129 20.2281 108.896 20.561 108.681 21.0428C108.466 21.5247 108.356 22.0065 108.356 22.4883C108.356 22.7424 108.4 22.9307 108.483 23.0402C108.571 23.1541 108.685 23.2111 108.822 23.2111C109.081 23.2111 109.358 23.0709 109.661 22.7906C109.96 22.5102 110.176 22.1072 110.317 21.5816L110.787 19.8207ZM111.433 20.3026C111.266 20.8676 111.104 21.5203 110.954 22.2606C110.871 22.6635 110.831 22.922 110.831 23.0359C110.831 23.1541 110.879 23.2111 110.972 23.2111C111.033 23.2111 111.13 23.1717 111.262 23.0928C112.497 22.3525 112.168 22.9045 111.288 23.5046C111.046 23.6666 110.818 23.7893 110.598 23.8681C110.453 23.9207 110.312 23.947 110.18 23.947C110.084 23.947 110.009 23.9251 109.96 23.8813C109.912 23.8331 109.886 23.7717 109.886 23.6841C109.886 23.6272 109.903 23.5527 109.93 23.452L110.154 22.6854C109.829 23.0709 109.442 23.4038 108.998 23.6798C108.721 23.8506 108.47 23.9382 108.237 23.9382C108.017 23.9382 107.85 23.8594 107.731 23.706C107.573 23.5002 107.494 23.2286 107.494 22.8957C107.494 22.4971 107.604 22.0547 107.815 21.5685C108.026 21.0823 108.312 20.6355 108.672 20.2369C109.028 19.8383 109.406 19.5448 109.802 19.3564C110.106 19.2163 110.497 19.1418 110.976 19.1418C111.099 19.1418 111.218 19.1506 111.345 19.1637C112.348 18.5899 111.631 19.6412 111.433 20.3026Z" fill="#727271"/>
<path d="M103.436 19.2644C103.722 19.1111 103.968 19.0366 104.17 19.0366C104.249 19.0366 104.311 19.0541 104.355 19.0892C104.403 19.1198 104.421 19.1636 104.421 19.2075C104.421 19.2425 104.412 19.2994 104.394 19.387L104.139 20.5215C104.522 20.0966 105.005 19.7024 105.586 19.3345C105.894 19.1417 106.149 19.0454 106.346 19.0454C106.496 19.0454 106.61 19.0936 106.694 19.1899C106.777 19.2819 106.821 19.4177 106.821 19.5929C106.821 19.7112 106.804 19.8426 106.769 19.9871C106.707 20.2281 106.549 20.7624 106.294 21.5816C106.052 22.3481 105.933 22.8562 105.933 23.1059C105.933 23.1804 105.942 23.2373 105.964 23.2723C105.986 23.3118 106.021 23.3293 106.061 23.3293C106.171 23.3293 106.342 23.2242 106.575 23.0139C107.705 21.9933 106.782 23.3161 106.131 23.7235C105.894 23.8724 105.696 23.9469 105.542 23.9469C105.397 23.9469 105.287 23.8943 105.208 23.7892C105.129 23.6885 105.089 23.5176 105.089 23.2855C105.089 22.9526 105.296 22.1203 105.718 20.7887C105.845 20.3157 105.911 20.0397 105.911 19.9609C105.911 19.8426 105.841 19.7856 105.7 19.7856C105.551 19.7856 105.357 19.8645 105.12 20.0222C104.764 20.2543 104.469 20.5303 104.232 20.8457C104.082 21.0472 103.955 21.3713 103.854 21.8137C103.405 23.7454 102.337 24.9587 102.965 22.1598L103.471 20.0178C103.489 19.9302 103.502 19.8689 103.502 19.8295C103.502 19.7287 103.462 19.6761 103.387 19.6761C103.326 19.6761 103.242 19.7156 103.128 19.7944C101.642 20.78 102.6 19.698 103.436 19.2644Z" fill="#727271"/>
<path d="M97.7291 19.0586C97.927 19.0586 98.0369 19.1812 98.0633 19.4222L98.4458 22.9264C99.3251 21.5378 102.381 16.356 101.066 21.1743C100.754 22.3131 100.6 22.9658 100.6 23.1235C100.6 23.2724 100.675 23.4082 100.763 23.3425C102.631 22.0065 100.89 23.9908 100.209 23.9908C100.108 23.9908 100.011 23.9426 99.9143 23.8506C99.822 23.7586 99.7736 23.6272 99.7736 23.4564C99.7736 23.2023 99.9055 22.5803 100.169 21.5816L100.512 20.2675C98.1776 23.9776 97.9973 25.8655 97.417 20.6662C96.8894 22.1861 96.4585 23.1103 96.1288 23.4432C95.799 23.7718 95.4341 23.9382 95.0296 23.9382C94.8273 23.9382 94.6779 23.8857 94.5723 23.7805C94.4668 23.671 94.4141 23.5484 94.4141 23.4126C94.4141 23.2768 94.4624 23.1585 94.5504 23.0578C94.6383 22.957 94.7526 22.9045 94.8889 22.9045C94.9768 22.9045 95.0868 22.9351 95.223 22.9877C95.3725 23.0446 95.4824 23.0709 95.544 23.0709C95.7111 23.0709 95.8782 22.9702 96.0496 22.7731C96.2211 22.5716 96.4673 22.0766 96.7971 21.2794C97.1268 20.4822 97.2851 20.0047 97.2851 19.8383C97.2851 19.7419 97.2279 19.6543 97.1444 19.6981C95.0208 20.8457 96.9861 19.0586 97.7291 19.0586Z" fill="#727271"/>
<path d="M92.796 19.4747C92.4751 19.4747 92.1629 19.7025 91.8639 20.158C91.565 20.6136 91.4155 21.2443 91.4155 22.0459C91.4155 22.5365 91.5078 22.9176 91.6925 23.1979C91.8288 23.4038 92.009 23.5089 92.2333 23.5089C92.5498 23.5089 92.8356 23.3162 93.0994 22.9264C93.4291 22.4182 93.5962 21.7919 93.5962 21.0385C93.5962 20.4734 93.5171 20.0748 93.3676 19.8339C93.2181 19.593 93.0247 19.4747 92.796 19.4747ZM93.2753 19.0542C93.6446 19.0542 93.9523 19.1987 94.1942 19.4966C94.4404 19.7901 94.5635 20.1974 94.5635 20.7187C94.5635 21.551 94.2689 22.3 93.6798 22.9658C93.0906 23.6272 92.4707 23.9601 91.8156 23.9601C91.4111 23.9601 91.0901 23.8287 90.8395 23.5659C90.5933 23.3031 90.4702 22.9439 90.4702 22.4883C90.4702 21.6999 90.6944 20.9728 91.1473 20.3026C91.7189 19.4659 92.4267 19.0542 93.2753 19.0542Z" fill="#727271"/>
<path d="M89.0764 18.178C88.2103 19.0015 87.3309 19.5666 86.6627 19.9871C86.8561 20.2236 87.0188 20.4908 87.1551 20.7843C87.2914 21.0778 87.5244 21.7479 87.8629 22.8036C88.3246 24.2447 88.7994 25.5018 90.4922 24.8141C92.1673 24.1396 90.8527 25.1602 90.2679 25.3091C89.925 25.3967 89.2039 25.5194 88.6807 25.2741C88.3466 25.1208 88.0696 24.8098 87.8058 24.4243C87.542 24.0388 87.2738 23.4387 86.9968 22.6284C86.7418 21.8618 86.5439 21.3362 86.4033 21.0559C86.2626 20.7711 86.0691 20.4733 85.8229 20.1579L85.159 22.44C84.394 25.0726 83.4707 25.1339 84.2181 22.8124C84.416 22.2035 84.6754 21.288 84.9963 20.0703L85.6866 17.464C84.9436 17.5078 84.3324 17.6524 83.9191 17.9722C83.3783 18.3883 81.9494 19.295 83.6378 17.7488C84.1346 17.2976 85.0667 17.118 86.3593 17.118H86.7242C86.5176 17.6568 86.3813 18.0466 86.3153 18.2832L85.8625 19.9871C87.7179 18.1693 92.8136 14.6388 89.0764 18.178Z" fill="#727271"/>
<path d="M67.9152 23.9864C67.8097 23.9864 67.7086 23.9382 67.6162 23.8462C67.5239 23.7542 67.4756 23.6228 67.4756 23.4564C67.4756 23.268 67.5151 23.0183 67.5899 22.7117L67.8537 21.5947H66.2841C65.7565 23.8199 64.7716 24.3017 65.0398 23.3293C65.0926 23.141 65.1937 22.7555 65.3388 22.1686L65.84 20.158C65.8664 20.0529 65.8796 19.9697 65.8796 19.9083C65.8796 19.7988 65.8268 19.6981 65.7609 19.7375C64.0901 20.7187 65.7521 19.0498 66.4335 19.0498C66.6402 19.0498 66.7457 19.1856 66.7457 19.4615C66.7457 19.7244 66.6226 20.3201 66.372 21.2487H67.9504C68.5747 18.9184 69.5815 18.1606 68.7726 21.1655C68.4604 22.3043 68.3021 22.957 68.3021 23.1147C68.3021 23.2636 68.3857 23.4082 68.4648 23.3337C69.9992 22.0065 68.5967 23.9864 67.9152 23.9864Z" fill="#727271"/>
<path d="M60.8147 23.1061C61.1137 23.404 61.417 23.5529 61.7292 23.5529C62.1821 23.5529 62.5778 23.2025 62.9207 22.4972C63.2636 21.7964 63.4307 21.1087 63.4307 20.4429C63.4307 20.2283 63.3824 20.0662 63.2856 19.9567C63.1889 19.8472 63.0614 19.7902 62.8987 19.7902C62.7185 19.7902 62.5118 19.8778 62.2876 20.0574C61.9402 20.329 61.672 20.605 61.483 20.8722C61.3511 21.0693 61.228 21.4066 61.1093 21.8884L60.8147 23.1061ZM60.4718 19.3172C60.8103 19.12 61.1049 19.0237 61.3555 19.0237C61.4478 19.0237 61.5226 19.05 61.5753 19.0938C61.6325 19.1419 61.6589 19.2077 61.6589 19.2996C61.6589 19.4091 61.6457 19.5187 61.6237 19.6325C61.5973 19.7464 61.5226 20.018 61.3951 20.4473C61.971 19.8735 62.3667 19.5187 62.5778 19.3829C62.9295 19.1551 63.2548 19.0368 63.5494 19.0368C63.7429 19.0368 63.9056 19.1288 64.0375 19.3084C64.1694 19.488 64.2353 19.7596 64.2353 20.1275C64.2353 21.0342 63.9495 21.9015 63.3824 22.7163C62.8152 23.5354 62.1821 23.9427 61.4918 23.9427C61.2192 23.9427 60.951 23.8683 60.6784 23.7237L60.1992 25.581C59.9134 26.6804 58.8934 27.7755 59.4517 25.4671L60.4762 21.1919C60.6652 20.3947 60.7619 19.9523 60.7619 19.8647C60.7619 19.7683 60.7136 19.7201 60.6212 19.7201C60.4278 19.7245 58.1547 20.6444 60.4718 19.3172Z" fill="#727271"/>
<path d="M56.6336 21.5597C57.2403 21.2881 57.6932 20.999 58.0009 20.688C58.2076 20.469 58.3131 20.2544 58.3131 20.0397C58.3131 19.8777 58.2691 19.7506 58.1856 19.6543C58.102 19.5579 57.9921 19.5097 57.8558 19.5097C57.7151 19.5097 57.5832 19.5623 57.4469 19.6674C57.2711 19.8076 57.1216 20.0178 57.0029 20.2982C56.827 20.7099 56.7083 21.1304 56.6336 21.5597ZM56.4225 23.9382C56.1543 23.9382 55.9521 23.8462 55.807 23.671C55.6663 23.4914 55.5959 23.1979 55.5959 22.8037C55.5959 22.0021 55.8422 21.2005 56.3302 20.4033C56.8798 19.501 57.5393 19.0454 58.3043 19.0454C58.5725 19.0454 58.7747 19.1111 58.9198 19.2469C59.0605 19.3827 59.1309 19.5623 59.1309 19.7988C59.1309 20.0441 59.0473 20.285 58.8803 20.5216C58.7088 20.7581 58.4054 21.0034 57.9701 21.2618C57.7503 21.3845 57.2843 21.6079 56.5676 21.932C56.5368 22.1379 56.5192 22.3262 56.5192 22.5146C56.5192 22.7818 56.5632 22.9658 56.6467 23.0709C56.7303 23.176 56.8534 23.2286 57.0161 23.2286C57.17 23.2286 57.3414 23.1848 57.5261 23.1015C60.4323 21.7086 57.359 23.9382 56.4225 23.9382Z" fill="#727271"/>
<path d="M52.3467 21.967C52.3159 22.1773 52.2983 22.3832 52.2983 22.5847C52.2983 22.9219 52.3379 23.1585 52.4126 23.2943C52.4918 23.43 52.6237 23.5001 52.8083 23.5001C53.0809 23.5001 53.3579 23.3556 53.6481 23.0621C53.9339 22.7686 54.079 22.4357 54.079 22.0503C54.079 21.656 53.9251 21.4589 53.6261 21.4589C53.3843 21.4589 52.9622 21.6254 52.3467 21.967ZM52.395 21.5597C53.5162 21.0778 54.079 20.5522 54.079 19.9872C54.079 19.6324 53.9295 19.4528 53.6305 19.4528C53.0457 19.4528 52.6368 20.1536 52.395 21.5597ZM53.9734 21.1129L54.2548 21.1085C54.7604 21.1085 55.011 21.3582 55.011 21.8532C55.011 22.3613 54.7165 22.8343 54.1273 23.2811C53.5382 23.7235 52.9622 23.9469 52.4038 23.9469C51.7092 23.9469 51.3574 23.579 51.3574 22.8387C51.3574 21.9583 51.63 21.1085 52.1708 20.2806C52.7116 19.4528 53.3447 19.041 54.0658 19.041C54.6153 19.041 54.8879 19.2907 54.8879 19.79C54.8923 20.2806 54.5846 20.7187 53.9734 21.1129Z" fill="#727271"/>
<path d="M45.277 19.2994C45.5979 19.0935 45.8749 19.0322 46.0684 19.0322C46.1475 19.0322 46.2091 19.0497 46.2442 19.0848C46.2838 19.1154 46.3058 19.1636 46.3058 19.2249C46.3058 19.2994 46.275 19.444 46.2135 19.6586C46.1255 19.974 46.0684 20.2236 46.0332 20.4076C46.9389 19.4921 47.6292 19.0322 48.1084 19.0322C48.2315 19.0322 48.3283 19.0673 48.3898 19.133C48.4514 19.1987 48.4865 19.3082 48.4865 19.4527C48.4865 19.6104 48.4294 19.8776 48.3151 20.2587C48.7459 19.8119 49.1197 19.4965 49.4362 19.3082C49.7528 19.1242 49.999 19.0278 50.1792 19.0278C50.3375 19.0278 50.4606 19.076 50.5442 19.1636C50.6321 19.2556 50.6761 19.3914 50.6761 19.5797C50.6761 19.6936 50.6585 19.825 50.6189 19.9784C50.5837 20.136 50.4431 20.6047 50.2056 21.3888C49.9067 22.3612 49.7616 22.9394 49.7616 23.1278C49.7616 23.2548 49.8143 23.3205 49.9198 23.3205C49.9902 23.3205 50.0605 23.2986 50.1265 23.2548C50.5881 22.9263 51.573 22.4751 50.553 23.2636C50.232 23.5089 50.043 23.7016 49.933 23.7717C49.7132 23.8987 49.5285 23.9644 49.3791 23.9644C49.2647 23.9644 49.1636 23.9075 49.0801 23.798C48.9922 23.6884 48.9482 23.5351 48.9482 23.3424C48.9482 23.1628 48.9746 22.9482 49.0273 22.7073C49.0801 22.4663 49.234 21.9188 49.489 21.0778C49.6824 20.4427 49.7792 20.0572 49.7792 19.9214C49.7792 19.7944 49.722 19.7331 49.6077 19.7331C49.5154 19.7331 49.3879 19.7812 49.2296 19.8732C48.9042 20.066 48.6316 20.3069 48.4162 20.5872C48.2667 20.7799 48.1304 21.0909 48.0205 21.5158C46.7762 26.0845 46.873 22.8869 47.4929 20.3463C47.5544 20.0966 47.5852 19.9565 47.5852 19.917C47.5852 19.8557 47.5676 19.8119 47.5413 19.7812C47.5105 19.7506 47.4665 19.7331 47.4094 19.7331C47.3082 19.7331 47.15 19.8119 46.9345 19.9696C46.5608 20.2368 46.2926 20.4952 46.1299 20.7405C45.9673 20.9902 45.8266 21.3713 45.7078 21.8838C44.934 25.2697 44.4944 23.6622 45.1055 21.0997C45.2638 20.4427 45.5496 19.571 45.2858 19.7024C43.9712 20.3507 44.0283 20.101 45.277 19.2994Z" fill="#727271"/>
<path d="M40.6911 22.5189C40.7966 23.1409 41.0252 23.4519 41.3814 23.4519C41.7771 23.4519 42.1288 23.1059 42.4498 22.4182C42.7663 21.7261 42.9246 21.0559 42.9246 20.3989C42.9246 19.9127 42.7356 19.6674 42.353 19.6674C42.1772 19.6674 41.9837 19.7506 41.7771 19.9171C41.5704 20.0835 41.4122 20.285 41.2934 20.5171C41.1791 20.7493 41.0604 21.0866 40.9461 21.529L40.6911 22.5189ZM40.4053 20.4602C40.335 20.1623 40.2558 19.939 40.1635 19.7813C40.0712 19.628 39.9261 19.5491 39.7194 19.5491C39.3193 19.5491 38.9632 19.8952 38.6423 20.5872C38.3257 21.2793 38.163 21.9495 38.163 22.5978C38.163 23.0884 38.3521 23.338 38.7302 23.338C38.9632 23.338 39.2138 23.2066 39.4732 22.9438C39.7326 22.681 39.9569 22.1904 40.1415 21.4677L40.4053 20.4602ZM40.6295 19.8207C41.1923 17.3677 43.2412 12.7334 41.6144 18.8045L41.3066 19.9521C41.7727 19.3389 42.2783 19.0322 42.8323 19.0322C43.1576 19.0322 43.3994 19.133 43.5577 19.3301C43.716 19.5272 43.7951 19.7769 43.7951 20.0791C43.7951 20.5259 43.672 21.0559 43.4302 21.6604C43.1884 22.2649 42.8499 22.8037 42.4146 23.2636C41.9793 23.7279 41.566 23.96 41.1747 23.96C40.845 23.96 40.6164 23.7367 40.4801 23.2811C39.8645 26.3035 38.0751 29.9435 39.7854 23.0665C39.3149 23.6622 38.8049 23.9557 38.2597 23.9557C37.6178 23.9557 37.2969 23.5965 37.2969 22.8781C37.2969 22.4664 37.4156 21.9583 37.6486 21.3538C37.886 20.7493 38.2246 20.2105 38.6642 19.7375C39.1083 19.2644 39.526 19.0235 39.9261 19.0235C40.0888 19.0235 40.2294 19.0717 40.3482 19.1636C40.4581 19.2688 40.5548 19.4834 40.6295 19.8207Z" fill="#727271"/>
<path d="M35.1073 19.4747C34.7864 19.4747 34.4742 19.7025 34.1752 20.158C33.8763 20.6136 33.7268 21.2443 33.7268 22.0459C33.7268 22.5365 33.8191 22.9176 34.0038 23.1979C34.1401 23.4038 34.3203 23.5089 34.5446 23.5089C34.8611 23.5089 35.1469 23.3162 35.4107 22.9264C35.7405 22.4182 35.9075 21.7919 35.9075 21.0385C35.9075 20.4734 35.8284 20.0748 35.6789 19.8339C35.525 19.593 35.336 19.4747 35.1073 19.4747ZM35.5866 19.0542C35.9559 19.0542 36.2637 19.1987 36.5055 19.4966C36.7517 19.7901 36.8748 20.1974 36.8748 20.7187C36.8748 21.551 36.5802 22.3 35.9911 22.9658C35.4019 23.6272 34.782 23.9601 34.1269 23.9601C33.7224 23.9601 33.4014 23.8287 33.1508 23.5659C32.9046 23.3031 32.7815 22.9439 32.7815 22.4883C32.7815 21.6999 33.0057 20.9728 33.4586 20.3026C34.0301 19.4659 34.738 19.0542 35.5866 19.0542Z" fill="#727271"/>
<path d="M32.2409 18.7826C32.2409 18.2526 32.131 17.8846 31.9111 17.6788C31.6913 17.4685 31.4143 17.3634 31.0758 17.3634C30.6273 17.3634 30.1613 17.543 29.6776 17.9065C29.194 18.2701 28.7807 18.8352 28.4334 19.6017C28.086 20.3683 27.9102 21.1611 27.9102 21.9714C27.9102 22.7555 28.0728 23.3556 28.3938 23.7761C28.7148 24.1922 29.1192 24.4025 29.6073 24.4025C30.2668 24.4025 30.8735 24.0083 31.4231 23.2198C31.4803 23.141 31.5374 23.1015 31.599 23.1015C31.6473 23.1015 31.6869 23.1191 31.7221 23.1497C31.7572 23.1804 31.7704 23.2198 31.7704 23.2592C31.7704 23.36 31.6429 23.5571 31.3967 23.855C31.1461 24.1528 30.8295 24.3981 30.447 24.5952C30.0689 24.7923 29.6908 24.8931 29.3215 24.8931C28.8774 24.8931 28.4641 24.7792 28.0816 24.547C27.7035 24.3149 27.4046 23.9864 27.1935 23.5571C26.9825 23.1278 26.877 22.6197 26.877 22.0284C26.877 21.2049 27.0924 20.3858 27.5233 19.5754C27.9541 18.7607 28.4949 18.1299 29.1412 17.6875C29.7875 17.2451 30.4207 17.0217 31.0406 17.0217C31.2648 17.0217 31.4846 17.048 31.7045 17.0962C33.7445 17.5517 32.2409 20.6617 32.2409 18.7826Z" fill="#727271"/>
<path d="M126.189 19.5273C125.868 19.5273 125.577 19.6237 125.314 19.812C125.054 20.0004 124.922 20.2457 124.922 20.5479C124.922 21.0691 125.27 21.332 125.973 21.332C126.087 21.332 126.263 21.3188 126.487 21.2925C126.756 20.3595 127.468 19.5273 126.189 19.5273ZM123.26 23.2374C123.309 23.3118 123.375 23.3469 123.471 23.3469C123.647 23.3469 123.854 23.1542 124.091 22.7643C124.329 22.3701 124.535 22.0985 124.707 21.9627C124.883 21.8226 125.173 21.7043 125.577 21.6035V21.5291H125.428C124.949 21.5291 124.588 21.4371 124.346 21.2531C124.105 21.0735 123.986 20.8458 123.986 20.5698C123.986 20.1493 124.245 19.7989 124.773 19.5229C125.296 19.247 125.991 19.1462 126.852 19.1112C128.426 19.0498 127.697 19.2645 127.336 21.1042C127.107 22.265 126.87 22.9001 126.87 23.0578C126.87 23.2067 126.932 23.3206 127.028 23.2812C129.191 22.3569 127.16 23.9295 126.474 23.9295C126.351 23.9295 126.246 23.8769 126.162 23.7762C126.079 23.6754 126.035 23.5265 126.035 23.325C126.035 23.1279 126.07 22.887 126.149 22.6022L126.408 21.6254C126.092 21.6254 125.832 21.7174 125.639 21.8926C125.441 22.0722 125.186 22.4402 124.874 22.9921C124.518 23.6185 124.113 23.9338 123.665 23.9338C123.485 23.9338 123.326 23.8725 123.19 23.7543C122.829 23.4433 122.469 21.9408 123.26 23.2374Z" fill="#727271"/>
</svg>
