<svg width="138" height="35" viewBox="0 0 138 35" fill="none" xmlns="http://www.w3.org/2000/svg">
<path fill-rule="evenodd" clip-rule="evenodd" d="M72.5244 23.8264V11.579H74.0364V23.8264H72.5244Z" fill="#1D5891"/>
<path fill-rule="evenodd" clip-rule="evenodd" d="M79.9033 15.2711C81.0848 15.2711 82.0973 15.7048 82.9402 16.5724C83.7829 17.4399 84.2045 18.4522 84.2045 19.6088C84.2045 20.7998 83.7889 21.823 82.9575 22.6793C82.1258 23.5356 81.1076 23.9636 79.9033 23.9636C78.7108 23.9636 77.6986 23.5356 76.8669 22.6793C76.0352 21.823 75.6194 20.7998 75.6194 19.6088C75.6194 18.4407 76.0352 17.4259 76.8669 16.5639C77.6986 15.7023 78.7108 15.2711 79.9033 15.2711ZM79.9031 16.6833C79.1464 16.6833 78.51 16.9613 77.9939 17.5168C77.4778 18.0727 77.2197 18.7647 77.2197 19.5923C77.2197 20.409 77.4778 21.1006 77.9939 21.6675C78.51 22.2347 79.1464 22.5181 79.9031 22.5181C80.66 22.5181 81.3024 22.2402 81.8298 21.6848C82.3574 21.1289 82.6212 20.4315 82.6212 19.5923C82.6212 18.7647 82.3574 18.0727 81.8298 17.5168C81.3024 16.9613 80.66 16.6833 79.9031 16.6833Z" fill="#1D5891"/>
<path fill-rule="evenodd" clip-rule="evenodd" d="M92.8574 15.3876V19.9818C92.8574 21.2185 92.525 22.1887 91.8596 22.8918C91.1947 23.5953 90.323 23.9468 89.245 23.9468C88.1555 23.9468 87.2838 23.6009 86.6304 22.9088C85.977 22.2167 85.6499 21.2413 85.6499 19.9818V15.3876H87.1451V20.2548C87.1451 20.9246 87.3429 21.4665 87.7387 21.8807C88.1348 22.2947 88.6424 22.5017 89.262 22.5017C89.8701 22.5017 90.3722 22.2947 90.7683 21.8807C91.1639 21.4665 91.3619 20.9246 91.3619 20.2548V15.3876H92.8574Z" fill="#1D5891"/>
<path fill-rule="evenodd" clip-rule="evenodd" d="M102.854 11.5626V18.9451C102.854 19.6367 102.831 20.1641 102.785 20.527C102.739 20.89 102.608 21.2754 102.39 21.6837C102.022 22.3983 101.503 22.9597 100.832 23.368C100.161 23.7758 99.4126 23.98 98.5865 23.9802C97.3594 23.98 96.3412 23.569 95.5321 22.7472C94.7237 21.925 94.3191 20.8787 94.3191 19.6087C94.3191 18.3952 94.7237 17.3717 95.5321 16.5384C96.3408 15.7049 97.336 15.2881 98.5173 15.2881C98.8611 15.2881 99.1709 15.3134 99.446 15.3645C99.7218 15.4156 99.9796 15.4864 100.22 15.5772L100.822 17.4653C100.111 16.9549 99.3947 16.7001 98.6727 16.7001C97.8585 16.7001 97.1876 16.9664 96.6603 17.4993C96.1331 18.0322 95.8691 18.7298 95.8691 19.5919C95.8691 20.4877 96.1244 21.2051 96.635 21.7437C97.1453 22.2821 97.8079 22.5517 98.6228 22.5517C99.4145 22.5517 100.066 22.2821 100.576 21.7437C101.087 21.2051 101.342 20.4932 101.342 19.6087V11.5626H102.854Z" fill="#1D5891"/>
<path fill-rule="evenodd" clip-rule="evenodd" d="M60.3059 16.2202C61.2166 12.8186 64.8051 10.8725 68.2709 11.8013C68.8298 11.951 69.354 12.1672 69.8372 12.4395L68.8724 13.6613L68.5897 13.5076C68.3622 13.4108 68.1253 13.3292 67.8797 13.2629C65.1669 12.5361 62.4483 14.0704 61.7675 16.6117C61.0865 19.1532 62.6737 21.8416 65.3858 22.5682C66.7223 22.9263 68.0602 22.7354 69.1553 22.1455C69.4251 22.5319 69.7282 22.9222 70.1463 23.3221C68.6647 24.2127 66.8123 24.517 64.9944 24.0303C61.5285 23.1011 59.3939 19.6221 60.3059 16.2202Z" fill="#1D5891"/>
<path fill-rule="evenodd" clip-rule="evenodd" d="M117.338 23.8269V11.5795H118.85V23.8269H117.338Z" fill="#1D5891"/>
<path fill-rule="evenodd" clip-rule="evenodd" d="M127.435 23.8102V19.626C127.435 18.7307 127.183 18.0158 126.678 17.4829C126.174 16.95 125.52 16.6837 124.718 16.6837C123.926 16.6837 123.273 16.95 122.757 17.4829C122.241 18.0163 121.983 18.7134 121.983 19.5754C121.983 20.4487 122.244 21.1599 122.766 21.7103C123.287 22.2602 123.961 22.5353 124.786 22.5353C125.52 22.5353 126.231 22.2791 126.918 21.7671L126.316 23.6577C125.88 23.8511 125.313 23.9473 124.613 23.9473C123.489 23.9473 122.526 23.556 121.723 22.7734C120.874 21.9456 120.45 20.891 120.45 19.6097C120.45 18.3505 120.851 17.3127 121.654 16.4962C122.457 15.68 123.471 15.2715 124.699 15.2715C125.524 15.2715 126.27 15.47 126.935 15.867C127.6 16.2639 128.116 16.8196 128.483 17.5338C128.677 17.9195 128.804 18.319 128.861 18.7332C128.919 19.147 128.947 19.6656 128.947 20.2891V23.8102H127.435Z" fill="#1D5891"/>
<path fill-rule="evenodd" clip-rule="evenodd" d="M130.792 23.8103V19.2349C130.792 17.9989 131.124 17.0293 131.789 16.3264C132.454 15.6233 133.326 15.2716 134.404 15.2716C135.493 15.2716 136.365 15.6177 137.018 16.3094C137.672 17.0012 137.999 17.9762 137.999 19.2349V23.8103H136.504V18.9622C136.504 18.2816 136.308 17.7376 135.918 17.3294C135.528 16.9209 135.023 16.7169 134.404 16.7171C133.784 16.7169 133.276 16.9239 132.88 17.3377C132.484 17.7517 132.286 18.2931 132.286 18.9622V23.8103H130.792Z" fill="#1D5891"/>
<path fill-rule="evenodd" clip-rule="evenodd" d="M105.257 16.2208C106.169 12.8193 109.757 10.8731 113.223 11.8018C113.781 11.9515 114.306 12.1677 114.789 12.44L113.933 13.6929L113.542 13.5082C113.314 13.4113 113.078 13.3297 112.831 13.2634C110.119 12.5366 107.4 14.071 106.719 16.6122C106.038 19.1539 107.625 21.8422 110.338 22.5687C111.674 22.9268 113.012 22.7359 114.107 22.146C114.377 22.5324 114.68 22.9227 115.098 23.3227C113.616 24.2132 111.764 24.518 109.946 24.0308C106.48 23.1016 104.346 19.6227 105.257 16.2208Z" fill="#1D5891"/>
<path fill-rule="evenodd" clip-rule="evenodd" d="M30.987 32.1958C29.332 33.1216 27.4138 33.6511 25.37 33.6511C21.2425 33.6511 17.6296 31.4923 15.6567 28.2721C13.4331 29.1833 10.8824 29.394 8.37129 28.721C2.46009 27.1368 -1.20171 21.1936 0.36136 15.3607C1.74135 10.2105 6.6923 7.02274 11.9018 7.43743C11.911 7.35509 11.9351 7.27229 11.9756 7.19226C14.1486 2.8945 18.7005 -2.67029e-05 23.8605 -2.67029e-05C27.1419 -2.67029e-05 30.1639 1.1656 32.4898 3.11001C32.511 3.12772 32.5317 3.14705 32.5508 3.16706L33.2613 3.91639L33.7792 3.87108C33.7997 3.8697 33.8213 3.86855 33.842 3.86855C38.781 3.86855 43.1613 6.51881 45.433 10.5155L46.0984 11.9353L46.9163 12.0146C46.9395 12.0169 46.9634 12.0206 46.986 12.0252C51.7587 12.9668 55.4934 17.058 55.4934 22.1495C55.4934 27.9703 50.6192 32.4808 44.8801 32.4808C44.1501 32.4808 43.4341 32.4084 42.7409 32.2699C42.7186 32.2655 42.6951 32.26 42.6733 32.2533L42.6169 32.2366L42.5716 32.2681L42.4548 32.3412L42.1875 32.5857C41.1258 33.4017 39.0108 34.1064 36.8469 34.1064C34.6562 34.1064 32.6301 33.3969 30.987 32.1958Z" fill="white"/>
<path fill-rule="evenodd" clip-rule="evenodd" d="M36.0555 30.4298L49.5972 17.1266C49.6836 17.2014 49.768 17.2778 49.8504 17.3562L37.1184 30.4477C36.9843 30.4551 36.8499 30.4587 36.7142 30.4587C36.4923 30.4587 36.2726 30.4491 36.0555 30.4298ZM37.8916 30.3654L45.4392 22.9576L50.4663 18.0243C50.5473 18.1248 50.6259 18.2277 50.7011 18.3323L45.83 23.346L39.4268 29.9366L38.2557 30.2856L38.0561 30.329C38.0538 30.3375 37.9726 30.352 37.8916 30.3654ZM24.9666 30.3408L26.7275 28.5833L34.4943 20.914L42.2611 13.2445L42.6443 12.862C42.677 12.9299 42.7085 12.9982 42.7393 13.0667L42.4138 13.3963L34.7834 21.202L27.1534 29.0075L25.8335 30.3433C25.5474 30.3582 25.258 30.3571 24.9666 30.3408ZM35.2383 30.3081L34.5578 30.1321L34.4725 30.1096L42.0741 22.6342L48.478 16.3371C48.5702 16.389 48.6604 16.444 48.7494 16.4997L42.4313 22.9898L35.2933 30.3214C35.2565 30.3145 35.2199 30.3069 35.2383 30.3081ZM23.2731 30.0677C23.0838 30.0169 22.8982 29.9603 22.7161 29.898L24.7474 27.8706L32.5103 20.1974L40.2732 12.5239L41.6098 11.1895C41.6491 11.2403 41.6877 11.2911 41.7259 11.3424L40.4168 12.6667L32.7831 20.4688L25.1485 28.2701L23.3518 30.0884C23.3253 30.0818 23.2994 30.0746 23.2731 30.0677ZM27.9297 29.9583L28.7101 29.1802L43.3097 14.7791C43.332 14.8777 43.3527 14.9766 43.3709 15.0769L36.7874 21.8191L29.5958 29.1829L28.6206 29.6974C28.3954 29.795 28.165 29.8817 27.9297 29.9583ZM33.0538 29.4785L40.2836 22.3607L47.0357 15.7138C47.1359 15.7448 47.2358 15.7779 47.3344 15.8127L40.6235 22.6988L33.6944 29.8095C33.4743 29.7096 33.2606 29.5985 33.0538 29.4785ZM40.5462 29.3741L47.0179 23.0291L51.125 19.003C51.1982 19.1361 51.2674 19.2716 51.3313 19.4101L47.425 23.4346L42.4851 28.5247L42.0944 28.4065L41.6992 28.481L40.595 29.3363C40.6187 29.3285 40.5826 29.3515 40.5462 29.3741ZM20.8363 28.9741L22.7809 27.032L38.2992 11.6778L40.2279 9.75152C40.2716 9.78878 40.3158 9.82649 40.3593 9.86398L38.4342 11.8123L30.7959 19.6093L23.1577 27.4071L21.317 29.2692C21.1528 29.176 20.9925 29.0776 20.8363 28.9741ZM43.9859 28.901L49.9801 23.0362L51.8698 21.187C51.9056 21.4237 51.9291 21.6643 51.9388 21.9088L50.4215 23.4755L45.1184 28.9506C45.0397 28.9534 44.9602 28.9546 44.8808 28.9546C44.5772 28.9546 44.2789 28.9364 43.9859 28.901ZM31.7826 28.5318L38.419 21.9923L45.1124 15.3957C45.2329 15.3994 45.3525 15.406 45.4712 15.4157L38.7421 22.3136L32.2698 28.9481C32.1007 28.8163 31.9381 28.6772 31.7826 28.5318ZM45.2713 28.9444L51.3688 22.9854L51.9395 22.4276C51.9261 22.7749 51.8854 23.116 51.8192 23.4482L46.7551 28.6825L46.5147 28.754C46.5497 28.7664 46.3815 28.8034 45.9029 28.8844C45.9038 28.8901 45.5908 28.9276 45.2713 28.9444ZM43.5418 28.823L43.2644 28.7607L42.8336 28.6309L48.5297 23.0526L51.5915 20.0541C51.652 20.23 51.7049 20.4085 51.7502 20.59L48.9538 23.4744L43.7278 28.8646C43.6298 28.8494 43.533 28.832 43.5418 28.823ZM46.8004 28.6691L51.7223 23.8626C51.6533 24.1218 51.5685 24.3753 51.6145 24.2244C51.4604 24.6421 51.4523 24.6625 51.2886 25.028C51.2867 25.0604 51.0954 25.4215 50.8736 25.7617L49.6604 27.0166L50.7161 25.9869L49.909 26.9283L49.6066 27.1792L48.9127 27.7307L48.4837 27.9754L47.7726 28.3474L47.2654 28.53L46.8004 28.6691ZM19.2758 27.6242L38.465 8.59394L38.6115 8.66133C32.2762 15.0866 25.9715 21.5592 19.6302 27.9959C19.5078 27.8756 19.3894 27.7514 19.2758 27.6242ZM18.0671 25.8245C21.4488 22.4599 24.8383 19.1039 28.2218 15.7513L28.3112 15.7816L28.4837 15.8874C25.0936 19.3436 21.6997 22.806 18.2964 26.2603C18.2157 26.1175 18.1391 25.9722 18.0671 25.8245ZM12.2417 25.9075L12.0869 25.8707L11.7263 25.8716L14.1049 23.5059C14.1201 23.6745 14.1397 23.8417 14.1624 24.0091C13.5396 24.64 12.9158 25.2711 12.2928 25.902C12.2755 25.9034 12.2592 25.9052 12.2417 25.9075ZM9.26714 25.6258L9.2108 25.6163C8.9417 25.5446 8.68019 25.46 8.84119 25.4974L14.3876 19.974C14.3379 20.1711 14.2938 20.368 14.2551 20.5656L9.26714 25.6258ZM6.62331 24.3902L26.9938 4.08527L27.1245 4.1246C20.3883 10.9461 13.667 17.7955 6.9092 24.6103C6.71738 24.4884 6.532 24.3599 6.62331 24.3902ZM17.3587 23.4362C20.3296 20.4809 23.2037 17.6324 25.718 15.1404C25.8321 15.15 25.9462 15.162 26.0614 15.1756C23.1892 18.1005 20.317 21.0267 17.4397 23.9479C17.4068 23.7782 17.3797 23.6075 17.3587 23.4362ZM5.08692 22.9978L4.8951 22.7386L24.0917 3.58618L24.2497 3.59538L5.08692 22.9978ZM3.77892 20.8179L3.7021 20.6578L3.69313 20.6339L3.66806 20.5341L13.2309 10.977L13.4476 11.046L3.77892 20.8179ZM17.8583 19.7726L21.9037 15.7485C22.1064 15.6625 22.3131 15.585 22.5236 15.516C20.8807 17.1871 19.2371 18.8585 17.5926 20.5292C17.6676 20.2698 17.7566 20.0175 17.8583 19.7726ZM3.25636 17.8047L3.25269 17.7375L3.25568 17.6904L3.28166 17.4445L10.0015 10.7242L10.2745 10.7164L3.25636 17.8047ZM30.7161 13.36C30.6984 13.3503 30.6812 13.3406 30.6634 13.3305C32.5326 11.4772 34.3991 9.62433 36.26 7.77009L36.4208 7.81264C34.5619 9.69747 32.7035 11.5876 30.8449 13.4814C30.8136 13.4326 30.7704 13.3908 30.7161 13.36ZM28.4831 12.3986C30.6913 10.2081 32.4301 8.47687 33.4312 7.45867L33.6606 7.449C32.0108 9.12177 30.3633 10.7969 28.7156 12.4735C28.6388 12.4476 28.5613 12.4227 28.4831 12.3986ZM22.1379 12.2564L29.2641 5.15984L29.3145 5.18927L29.3278 5.19778L29.3729 5.23113L22.5461 12.1561C22.4095 12.1865 22.2733 12.2201 22.1379 12.2564ZM25.7744 11.899L31.0512 6.65022L31.1414 6.7574C29.4458 8.47664 27.7519 10.1977 26.058 11.9206C25.9637 11.9117 25.8687 11.9045 25.7744 11.899ZM15.8727 8.58911L15.7057 8.50884L19.7277 4.49744L20.0587 4.34977L15.8727 8.58911Z" fill="#00B2FC"/>
<path fill-rule="evenodd" clip-rule="evenodd" d="M8.5625 28.0086C3.01724 26.5228 -0.376619 20.9644 1.07352 15.5519C2.52366 10.1393 8.24234 7.02305 13.7876 8.50861C14.2347 8.62844 14.6676 8.77495 15.0857 8.94606L15.9183 9.34856L14.8679 10.8235L14.6041 10.66C14.588 10.6503 14.5717 10.6414 14.5547 10.6345C14.1637 10.4675 13.7549 10.3256 13.3313 10.2122C8.66416 8.96148 3.95862 11.5989 2.77712 16.0079C1.59516 20.4186 4.35146 25.0545 9.01905 26.3054C10.8572 26.7981 12.6997 26.6879 14.3309 26.1042L14.559 26.0117C14.7373 26.5754 14.9613 27.1199 15.2279 27.6401L14.8856 27.7767C12.9279 28.467 10.7305 28.5898 8.5625 28.0086Z" fill="#1D5891"/>
<path fill-rule="evenodd" clip-rule="evenodd" d="M22.6255 32.4834C17.0802 30.9976 13.6864 25.4392 15.1365 20.0262C16.5871 14.6139 22.3053 11.4974 27.8504 12.983C28.2975 13.1028 28.7308 13.2498 29.1487 13.4204L29.9666 13.8153L28.8596 15.2524L28.6653 15.1337C28.6501 15.124 28.634 15.116 28.6176 15.1088C28.2266 14.9421 27.8179 14.8004 27.3943 14.6866C22.7269 13.4361 18.0216 16.0732 16.8401 20.4827C15.6581 24.8934 18.4147 29.5293 23.082 30.7798C25.0959 31.3196 27.1141 31.1361 28.8545 30.3991L29.1232 30.2706C29.5112 30.7416 29.948 31.1823 30.4247 31.5843L29.9424 31.8428C27.7519 32.8774 25.1688 33.1646 22.6255 32.4834Z" fill="#1D5891"/>
<path fill-rule="evenodd" clip-rule="evenodd" d="M29.6955 29.9819C30.2316 29.6794 30.7236 29.328 31.1723 28.9273L32.0787 29.7252C33.0518 30.4191 34.197 30.8996 35.4408 31.0967C35.8553 31.1622 36.2806 31.1965 36.7143 31.1965C38.3193 31.1965 39.8136 30.7282 41.0556 29.9244L42.031 29.1541L43.2923 29.5359C43.8056 29.6387 44.3369 29.6921 44.8809 29.6921C48.6365 29.6921 51.7926 27.1235 52.5228 23.6919C52.6272 23.2015 52.682 22.6935 52.682 22.173C52.682 21.6527 52.6272 21.1451 52.5228 20.6545C51.7926 17.2236 48.6365 14.6546 44.8809 14.6546L44.0409 14.7157L43.917 14.1663C42.7336 9.8637 38.6617 6.70306 33.8428 6.70306C33.5213 6.70306 33.2032 6.71754 32.8888 6.74514L32.1746 6.83921L32.196 6.83784C30.2415 4.42768 27.2437 2.88416 23.8846 2.88416C20.0008 2.88416 16.6 4.94726 14.7364 8.02763C14.4997 7.94851 14.2097 7.85834 13.9787 7.79601C13.5263 7.67503 13.0732 7.58258 12.6206 7.51795C14.6701 3.46399 18.9722 0.722183 23.8606 0.722183C26.9691 0.722183 29.8282 1.8257 32.0267 3.66408L32.9771 4.66596L33.8421 4.59052C39.1912 4.59052 43.8335 7.87007 45.5976 12.5613L45.612 12.6133L46.8464 12.7336C51.3086 13.6141 54.7713 17.4306 54.7713 22.1495C54.7713 27.5432 50.2493 31.7582 44.8802 31.7582C44.1982 31.7582 43.5294 31.6908 42.8827 31.5615L42.4677 31.4362L42.1899 31.6551L42.0351 31.7515C41.3835 32.487 39.2197 33.384 36.847 33.384C33.9629 33.384 31.3866 32.0576 29.6955 29.9819Z" fill="#00B2FC"/>
</svg>
