<svg width="76" height="20" viewBox="0 0 76 20" fill="none" xmlns="http://www.w3.org/2000/svg">
<path fill-rule="evenodd" clip-rule="evenodd" d="M68.5666 5.89329H75.9981V1.07178H68.5673C61.7392 1.07178 58.094 4.66109 58.094 10.0004C58.094 15.3398 61.7392 18.929 68.5673 18.929H75.9981V14.1075H68.5666C65.4073 14.1075 63.3295 12.9133 63.3295 10.0004C63.3295 7.08749 65.4073 5.89329 68.5666 5.89329Z" fill="#E30611"/>
<path fill-rule="evenodd" clip-rule="evenodd" d="M47.9627 5.89308H43.2339V1.07178H57.7581V5.89308H53.0293V18.9288H47.9627V5.89308Z" fill="#E30611"/>
<path fill-rule="evenodd" clip-rule="evenodd" d="M30.2291 11.7305L32.9302 1.07178H41.8835V18.929H36.8167V4.39483L33.1337 18.929H27.3244L23.6438 4.40407L23.6436 18.929H18.5771V1.07178H27.5279L30.2291 11.7305Z" fill="#E30611"/>
<path fill-rule="evenodd" clip-rule="evenodd" d="M0 12.1112C0 16.039 2.08546 20 6.75548 20C11.4213 20 13.5109 16.039 13.5109 12.1112C13.5109 9.42825 12.654 6.33867 11.2237 3.84318C9.83274 1.43337 8.16153 0 6.75548 0C5.34544 0 3.67345 1.43337 2.29459 3.84318C0.857541 6.33867 0 9.42825 0 12.1112Z" fill="#E30611"/>
</svg>
