<svg width="94" height="50" viewBox="0 0 94 50" fill="none" xmlns="http://www.w3.org/2000/svg">
<path fill-rule="evenodd" clip-rule="evenodd" d="M57.3659 0L28.668 50C10.9237 39.7022 0 20.6257 0 0H57.3659Z" fill="url(#paint0_linear)"/>
<path d="M43.0622 24.9093C42.7003 25.0914 42.1566 25.1223 41.7042 25.1223C40.0748 25.1223 38.4454 24.5151 37.3588 23.6641L36.0307 25.8815C37.2376 26.8536 39.2597 27.5518 41.5233 27.5827L43.0622 24.9093ZM45.9592 19.8664C45.2046 19.3194 44.1488 18.8943 42.7601 18.6512C40.8285 18.3172 39.0787 18.1952 39.0787 16.8289C39.0787 15.7657 39.8631 14.9155 41.8246 14.9155C43.0016 14.9155 44.2085 15.2796 45.1141 15.7966L46.3817 13.7003C45.2046 12.9411 43.5453 12.516 41.6436 12.516C38.9575 12.516 36.3926 13.9433 36.3926 16.8298C36.3926 19.5032 38.1432 20.5964 41.4627 21.0825C43.1527 21.3256 44.1787 21.7507 44.5107 22.4188L45.9592 19.8664ZM17.4422 18.6512C15.5107 18.3172 13.7609 18.1952 13.7609 16.8289C13.7609 15.7657 14.5453 14.9155 16.5067 14.9155C17.9552 14.9155 19.4942 15.4926 20.4296 16.1607L21.6365 14.1254C20.4595 13.1232 18.5587 12.5151 16.3258 12.5151C13.6397 12.5151 11.0748 13.9424 11.0748 16.8289C11.0748 19.5023 12.8254 20.5956 16.1449 21.0816C18.4383 21.3857 19.3738 22.0838 19.3738 23.056C19.3738 24.2712 18.2872 25.1214 16.3864 25.1214C14.757 25.1214 13.1276 24.5143 12.041 23.6632L10.7129 25.8806C12.0103 26.9137 14.1228 27.5819 16.4461 27.5819C19.856 27.5819 22.1495 25.9115 22.1495 22.8731C22.1495 20.6256 20.6106 19.2283 17.4422 18.6512ZM29.2715 19.3804L25.7105 13.1532H22.572L27.9135 22.0839V27.2177H30.6295V22.0839L35.971 13.1532H32.8624L29.2715 19.3804Z" fill="#FEFEFE"/>
<path d="M53.8951 16.1607L55.1328 14.1254C54.0163 13.1833 52.2965 12.5461 50.1839 12.5461L48.7056 15.0975C48.977 14.9455 49.5506 14.9155 50.003 14.9155C51.4506 14.9146 52.9596 15.4917 53.8951 16.1607ZM75.1697 16.1298C75.1697 15.8258 75.4113 15.6137 75.6827 15.6137H82.0501V13.1532H74.7472C73.3892 13.1532 72.4537 14.2465 72.4537 15.4617V27.2177H75.1697V21.1117H80.8731V18.6512H75.1697V16.1298ZM63.7928 12.5151C59.5678 12.5151 57.1241 14.9455 57.1241 20.0485C57.1241 25.1214 59.8401 27.5819 63.7928 27.5819C67.7763 27.5819 70.4616 25.1214 70.4616 20.0485C70.4624 14.9455 68.0179 12.5151 63.7928 12.5151ZM63.7928 25.1214C61.4089 25.1214 59.8699 23.7542 59.8699 20.0485C59.8699 16.3428 61.4993 14.9756 63.7928 14.9756C66.0863 14.9756 67.7157 16.3428 67.7157 20.0485C67.7157 23.7542 66.1768 25.1214 63.7928 25.1214ZM83.257 13.1532V15.5836H87.2704V27.2177H89.9864V15.5836H93.9998V13.1532H83.257ZM50.9376 18.6512C49.338 18.3781 47.8597 18.1952 47.3766 17.406L45.958 19.8664C46.803 20.4736 48.0398 20.8386 49.6393 21.0816C51.9328 21.3857 52.8384 22.0838 52.8384 23.056C52.8384 24.2712 51.7826 25.1214 49.8809 25.1214C48.7038 25.1214 47.5268 24.8174 46.5913 24.3313L45.2632 26.5487C46.5008 27.1868 48.1601 27.5819 49.9107 27.5819C53.3207 27.5819 55.6141 25.9115 55.6141 22.8731C55.615 20.6256 54.0761 19.2283 50.9376 18.6512Z" fill="#B1B4B7"/>
<defs>
<linearGradient id="paint0_linear" x1="1.40373e-06" y1="25.0001" x2="57.3657" y2="25.0001" gradientUnits="userSpaceOnUse">
<stop stop-color="#00CB8C"/>
<stop offset="1" stop-color="#008E86"/>
</linearGradient>
</defs>
</svg>
