<?xml version="1.0" standalone="no"?>
<!DOCTYPE svg PUBLIC "-//W3C//DTD SVG 1.1//EN" "http://www.w3.org/Graphics/SVG/1.1/DTD/svg11.dtd" >
<svg xmlns="http://www.w3.org/2000/svg" xmlns:xlink="http://www.w3.org/1999/xlink" version="1.1">
<metadata></metadata>
<defs>
<font id="webfontregular" horiz-adv-x="1044" >
<font-face units-per-em="2048" ascent="1638" descent="-410" />
<missing-glyph horiz-adv-x="430" />
<glyph horiz-adv-x="0" />
<glyph horiz-adv-x="0" />
<glyph unicode="&#xd;" horiz-adv-x="0" />
<glyph unicode=" "  horiz-adv-x="430" />
<glyph unicode="&#x09;" horiz-adv-x="430" />
<glyph unicode="&#xa0;" horiz-adv-x="430" />
<glyph unicode="!" horiz-adv-x="655" d="M164 143q0 70 47 117t117 47t117 -47t47 -117t-47.5 -116.5t-116.5 -46.5q-70 0 -117 46.5t-47 116.5zM164 1434h328l-52 -994h-225z" />
<glyph unicode="&#x22;" horiz-adv-x="870" d="M102 932v502h267v-502h-267zM501 932v502h267v-502h-267z" />
<glyph unicode="#" horiz-adv-x="1536" d="M41 379l41 205h276l52 266h-277l41 205h277l71 379h236l-72 -379h297l72 379h235l-71 -379h276l-41 -205h-276l-52 -266h277l-41 -205h-277l-71 -379h-236l72 379h-297l-72 -379h-235l71 379h-276zM594 584h297l51 266h-297z" />
<glyph unicode="$" horiz-adv-x="1198" d="M41 195l205 204q57 -72 151.5 -112.5t186.5 -40.5q39 0 81 7t75.5 25.5t56 50t22.5 81.5q0 66 -71 110q-47 31 -118 53.5t-149 51.5q-70 25 -137.5 56.5t-121.5 79.5t-87 116.5t-33 166.5q0 154 100.5 258.5t278.5 151.5v184h267v-184q82 -10 147.5 -41t112.5 -63 q55 -37 98 -80l-205 -205q-47 53 -120.5 88t-145.5 35q-35 0 -73 -6t-69.5 -21.5t-52 -43t-20.5 -73.5q0 -35 16.5 -59t44.5 -45q47 -33 118 -55.5t149 -50.5q72 -25 141 -57t124.5 -80t89.5 -117.5t34 -169.5q0 -80 -29 -151t-81 -126t-124 -95t-155 -58v-185h-267v185 q-111 16 -193.5 51t-137.5 71q-63 43 -109 93z" />
<glyph unicode="%" horiz-adv-x="1669" d="M61 1126q0 70 27 131.5t74 107.5t110.5 72.5t137.5 26.5t137 -26.5t110.5 -72.5t74 -107.5t26.5 -131.5t-26.5 -131t-74 -107t-110.5 -73t-137 -27t-137.5 27t-110.5 73t-74 107.5t-27 130.5zM256 0l901 1434h256l-901 -1434h-256zM266 1126q0 -61 41.5 -102t102.5 -41 t102 41t41 102t-41 102.5t-102 41.5t-102.5 -41t-41.5 -103zM911 307q0 70 27 131.5t74 107.5t110.5 72.5t137.5 26.5t137 -26.5t110 -72.5t74 -107.5t27 -131.5t-27 -131t-74 -107t-110 -73t-137 -27t-137.5 27t-110.5 73t-74 107.5t-27 130.5zM1116 307q0 -61 41.5 -102 t102.5 -41t102 41t41 102t-41 102.5t-102 41.5t-102.5 -41t-41.5 -103z" />
<glyph unicode="&#x26;" horiz-adv-x="1341" d="M82 358q0 100 43 175t96 124q59 59 137 101q-51 49 -92 104q-35 49 -63.5 111.5t-28.5 132.5q0 80 27.5 147.5t80 116.5t126 77t165.5 28q84 0 154 -27t120 -74t77.5 -110.5t27.5 -137.5q0 -86 -37.5 -153.5t-85.5 -114.5q-53 -57 -122 -100l225 -266q16 29 31 63 q12 31 21 75t9 97h256q0 -96 -21.5 -176t-49.5 -139q-31 -70 -72 -125q16 -16 37 -31q18 -10 44.5 -20.5t61.5 -10.5q25 0 37 6q8 2 14 5v-236q-16 -8 -34 -16l-38 -9.5t-50 -5.5q-66 0 -114 20.5t-81 47.5q-37 29 -63 65q-37 -41 -95 -71q-47 -29 -119.5 -50.5 t-173.5 -21.5q-104 0 -187 30.5t-141.5 85t-90 127t-31.5 156.5zM369 369q0 -70 49 -117t135 -47q47 0 84 12t65 29q31 18 56 41l-256 307q-37 -25 -66 -59q-27 -29 -47 -71t-20 -95zM451 1106q0 -39 17 -74t40 -61q24 -33 55 -60q35 27 62 60q23 27 42 61.5t19 73.5 q0 53 -32.5 88t-80.5 35q-53 0 -87.5 -35t-34.5 -88z" />
<glyph unicode="'" horiz-adv-x="471" d="M102 932v502h267v-502h-267z" />
<glyph unicode="(" horiz-adv-x="757" d="M143 512q0 111 16.5 212t43 191.5t60.5 169t71 142.5q82 150 188 268l215 -133q-84 -109 -147 -240q-57 -115 -103.5 -269.5t-46.5 -340.5t46 -341t104 -269q63 -131 147 -240l-215 -133q-106 119 -188 268q-37 63 -71 142t-60.5 169.5t-43 191.5t-16.5 212z" />
<glyph unicode=")" horiz-adv-x="757" d="M20 -338q84 109 150 240q55 115 101 269.5t46 340.5t-46 341t-101 269q-66 131 -150 240l216 133q106 -119 190 -268q35 -63 68.5 -142t60.5 -169.5t43 -191.5t16 -212t-16 -212t-43 -191.5t-60.5 -169t-68.5 -142.5q-84 -150 -190 -268z" />
<glyph unicode="*" horiz-adv-x="819" d="M51 1085l62 195l225 -92l-31 246h205l-31 -246l226 92l61 -195l-236 -41l175 -184l-164 -123l-133 215l-134 -215l-163 123l174 184z" />
<glyph unicode="+" horiz-adv-x="1075" d="M72 471v256h348v348h235v-348h349v-256h-349v-348h-235v348h-348z" />
<glyph unicode="," horiz-adv-x="491" d="M-31 -174l215 481l236 -133l-287 -440z" />
<glyph unicode="-" horiz-adv-x="890" d="M102 481v256h686v-256h-686z" />
<glyph unicode="." horiz-adv-x="491" d="M82 143q0 70 47 117t117 47t117 -47t47 -117t-47.5 -116.5t-116.5 -46.5q-70 0 -117 46.5t-47 116.5z" />
<glyph unicode="/" horiz-adv-x="870" d="M0 -430l614 1884h256l-614 -1884h-256z" />
<glyph unicode="0" horiz-adv-x="1433" d="M102 717q0 172 50.5 311t134.5 235.5t195.5 148.5t234.5 52t234.5 -52t195.5 -148.5t134 -235.5t50 -311t-50 -311.5t-134 -235.5t-195.5 -148.5t-234.5 -52.5t-234.5 52.5t-195.5 148.5t-134.5 235.5t-50.5 311.5zM410 717q0 -115 26.5 -202t69.5 -144.5t98.5 -86 t112.5 -28.5t112.5 28.5t98.5 86t69.5 144.5t26.5 202t-26.5 202t-69.5 144t-98.5 86t-112.5 29t-112.5 -29t-98.5 -86t-69.5 -144.5t-26.5 -201.5z" />
<glyph unicode="1" horiz-adv-x="798" d="M61 1044v195q86 12 142.5 43t91.5 66q41 39 63 86h256v-1434h-307v1044h-246z" />
<glyph unicode="2" horiz-adv-x="1177" d="M61 0q0 170 51.5 286.5t129 200.5t168 143.5t168 114t129 111.5t51.5 137q0 78 -56.5 131.5t-148.5 53.5q-66 0 -112 -27t-76 -59q-35 -39 -58 -88l-246 122q37 94 107 170q59 63 157.5 115.5t247.5 52.5q115 0 208 -34.5t159 -95t100.5 -142.5t34.5 -178 q0 -102 -33.5 -178t-89 -135.5t-123 -107.5t-136 -95t-130 -97.5t-102.5 -113.5h614v-287h-1014z" />
<glyph unicode="3" horiz-adv-x="1177" d="M20 195l205 204q37 -43 84 -75q41 -29 97.5 -53.5t125.5 -24.5q123 0 184.5 52t61.5 122t-58 122t-167 52h-164v266h143q92 0 143.5 47t51.5 117t-51 117t-144 47q-57 0 -104 -21.5t-82 -50.5q-39 -31 -70 -72l-204 205q51 59 123 109q61 41 153 73.5t215 32.5 q109 0 197 -33.5t151.5 -89t98 -127t34.5 -149.5q0 -88 -34.5 -146.5t-75.5 -93.5q-49 -41 -111 -65v-4q76 -27 138 -76q51 -41 93 -108.5t42 -172.5q0 -84 -37 -161.5t-106.5 -137t-168 -95.5t-221.5 -36q-135 0 -236.5 36t-168.5 77q-80 49 -138 113z" />
<glyph unicode="4" horiz-adv-x="1208" d="M31 256v328l624 850h359v-891h164v-287h-164v-256h-307v256h-676zM348 543h359v491z" />
<glyph unicode="5" horiz-adv-x="1239" d="M72 195l204 204q37 -43 84 -75q41 -29 97.5 -53.5t126.5 -24.5q123 0 189.5 61.5t66.5 153.5t-64.5 153.5t-181.5 61.5q-57 0 -101 -17.5t-75 -37.5q-35 -27 -60 -58l-215 31l52 840h870v-287h-604l-10 -256q25 14 57 27q27 10 63.5 17t83.5 7q111 0 204 -36 t158.5 -100.5t102.5 -152.5t37 -192t-39 -193.5t-109.5 -156t-171 -104.5t-223.5 -38q-135 0 -236.5 36t-168.5 77q-80 49 -137 113z" />
<glyph unicode="6" horiz-adv-x="1249" d="M82 471q0 74 19.5 137.5t41.5 110.5q27 55 62 100l399 615h318l-308 -471q10 2 21 6q10 2 22.5 3t28.5 1q96 0 183 -40t154 -107.5t105.5 -159t38.5 -195.5t-40 -195.5t-112.5 -159t-172 -107.5t-217.5 -40q-119 0 -218.5 40t-172 107.5t-112.5 159t-40 195.5zM399 471 q0 -100 63 -162.5t163 -62.5t162.5 62.5t62.5 162.5t-62.5 162.5t-162.5 62.5t-163 -62.5t-63 -162.5z" />
<glyph unicode="7" horiz-adv-x="1075" d="M51 1147v287h983v-267l-563 -1167h-317l553 1147h-656z" />
<glyph unicode="8" horiz-adv-x="1249" d="M92 410q0 96 36 163.5t81 110.5q49 49 115 82v4q-51 29 -91 72q-35 37 -62.5 92t-27.5 131q0 78 35 149.5t98.5 127t152.5 89t196 33.5q109 0 196.5 -33.5t151 -89t98.5 -127t35 -149.5q0 -76 -27.5 -131t-62.5 -92q-39 -43 -90 -72v-4q66 -33 116 -82q43 -43 79 -110.5 t36 -163.5q0 -88 -37 -168t-106.5 -140.5t-167.5 -96.5t-221 -36t-221.5 36t-168 96.5t-106.5 140.5t-37 168zM410 430q0 -78 57 -131t158 -53q100 0 157.5 53t57.5 131t-57.5 131t-157.5 53t-157.5 -53t-57.5 -131zM451 1034q0 -61 48 -107t126 -46t126 46t48 107 t-48 107.5t-126 46.5t-126 -46t-48 -108z" />
<glyph unicode="9" horiz-adv-x="1249" d="M82 963q0 104 40 195t112.5 158.5t172 107.5t218.5 40t218 -40t171.5 -107.5t112.5 -158.5t40 -195q0 -72 -19.5 -136.5t-41.5 -111.5q-27 -55 -62 -101l-399 -614h-317l307 471q-8 -2 -21 -4q-18 -6 -51 -6q-96 0 -183 40t-153.5 107.5t-105.5 158.5t-39 196zM399 963 q0 -100 62.5 -163t163.5 -63q100 0 162.5 62.5t62.5 163.5q0 100 -62.5 162.5t-162.5 62.5t-163 -62.5t-63 -162.5z" />
<glyph unicode=":" horiz-adv-x="491" d="M82 143q0 70 47 117t117 47t117 -47t47 -117t-47.5 -116.5t-116.5 -46.5q-70 0 -117 46.5t-47 116.5zM82 860q0 70 47 117t117 47t117 -47t47 -117t-47.5 -117t-116.5 -47q-70 0 -117 47t-47 117z" />
<glyph unicode=";" horiz-adv-x="491" d="M-31 -174l215 481l236 -133l-287 -440zM92 860q0 70 47 117t117 47t117 -47t47 -117t-47 -117t-117 -47t-117 47t-47 117z" />
<glyph unicode="&#x3c;" d="M82 410v184l881 420v-266l-529 -244v-4l529 -244v-266z" />
<glyph unicode="=" horiz-adv-x="1013" d="M82 287v235h850v-235h-850zM82 686v236h850v-236h-850z" />
<glyph unicode="&#x3e;" d="M82 -10v266l528 244v4l-528 244v266l881 -420v-184z" />
<glyph unicode="?" horiz-adv-x="1116" d="M20 1116q37 94 109 170q59 63 159.5 115.5t254.5 52.5q119 0 214 -34t160.5 -91t101.5 -134t36 -161q0 -86 -30 -147.5t-74 -107.5t-96 -80.5t-96 -71.5t-74 -80t-30 -105v-2h-266q-6 12 -10 27q-4 12 -7 29.5t-3 35.5q0 70 26.5 121.5t66.5 91t86 71.5t86 61.5 t66.5 62.5t26.5 74q0 53 -50 98t-134 45q-70 0 -118 -25.5t-79 -56.5q-37 -37 -59 -82zM348 143q0 70 47 117t117 47t117 -47t47 -117t-47 -116.5t-117 -46.5t-117 46.5t-47 116.5z" />
<glyph unicode="@" horiz-adv-x="1802" d="M102 512q0 166 64.5 312.5t174.5 257t254 175t306 64.5q172 0 320.5 -61.5t257 -166t170 -243.5t61.5 -297q0 -104 -27.5 -184t-74.5 -134.5t-112.5 -83t-143.5 -28.5q-70 0 -117 20.5t-76 46.5q-33 29 -53 66h-10q-20 -37 -54 -66q-29 -27 -72.5 -47t-109.5 -20 q-70 0 -131 27.5t-107.5 78t-73 120t-26.5 153.5t26.5 153.5t73 119.5t108 78t130.5 28q47 0 82 -12.5t57 -28.5q27 -18 45 -41h11v71h194v-440q0 -53 33 -88t80 -35q61 0 102 54.5t41 191.5q0 119 -45 223.5t-126 182t-191.5 122.5t-241.5 45q-123 0 -231.5 -47 t-188.5 -130t-127 -194.5t-47 -242.5t47 -242.5t127 -194.5t188.5 -130t231.5 -47q90 0 157.5 19.5t115.5 41.5q55 27 96 61l112 -143q-53 -49 -125 -88q-61 -33 -150 -59.5t-206 -26.5q-162 0 -306 64.5t-254 175t-174.5 257t-64.5 312.5zM727 502q0 -86 47 -135.5 t117 -49.5t117 49.5t47 135.5t-48.5 135t-115.5 49q-70 0 -117 -49t-47 -135z" />
<glyph unicode="A" horiz-adv-x="1474" d="M10 0l553 1434h348l553 -1434h-327l-123 328h-553l-123 -328h-328zM563 604h348l-170 471h-8z" />
<glyph unicode="B" horiz-adv-x="1413" d="M184 0v1434h604q109 0 194 -31t144.5 -82t91 -119.5t31.5 -146.5q0 -86 -29.5 -141.5t-64.5 -90.5q-43 -41 -96 -63v-4q74 -25 131 -70q49 -39 90 -105.5t41 -170.5q0 -84 -34 -159t-97.5 -130t-154.5 -88t-206 -33h-645zM492 266h317q92 0 143.5 48t51.5 126t-51.5 126 t-143.5 48h-317v-348zM492 881h276q78 0 121 41t43 102t-43 102t-121 41h-276v-286z" />
<glyph unicode="C" horiz-adv-x="1525" d="M92 717q0 154 59.5 290t164 237.5t247 160.5t307.5 59q152 0 263.5 -45t189.5 -98q88 -63 152 -143l-205 -205q-43 57 -105 102q-51 39 -123.5 71t-171.5 32q-96 0 -180 -36t-146.5 -98.5t-98 -146.5t-35.5 -180t35.5 -180t98 -146.5t146.5 -98.5t180 -36q100 0 176 31.5 t130 70.5q59 45 104 103l205 -205q-63 -80 -154 -143q-78 -53 -192.5 -98.5t-268.5 -45.5q-166 0 -308 59.5t-246.5 161t-164 237.5t-59.5 290z" />
<glyph unicode="D" horiz-adv-x="1556" d="M184 0v1434h523q166 0 304 -56.5t239.5 -153t157.5 -227.5t56 -280q0 -150 -56 -281t-157.5 -227t-240 -152.5t-303.5 -56.5h-523zM492 287h215q96 0 177 32.5t139 90t91 136.5t33 171t-33 171t-91 136t-139 90t-177 33h-215v-860z" />
<glyph unicode="E" horiz-adv-x="1361" d="M184 0v1434h1065v-287h-757v-277h593v-276h-593v-307h778v-287h-1086z" />
<glyph unicode="F" horiz-adv-x="1310" d="M184 0v1434h1055v-287h-747v-338h583v-287h-583v-522h-308z" />
<glyph unicode="G" horiz-adv-x="1628" d="M92 717q0 154 59.5 290t164 237.5t247 160.5t307.5 59q152 0 263.5 -45t189.5 -98q88 -63 152 -143l-205 -205q-43 57 -105 102q-51 39 -123.5 71t-171.5 32q-96 0 -180 -36t-146.5 -98.5t-98 -146.5t-35.5 -180t35.5 -180t98 -146.5t146.5 -98.5t180 -36 q78 0 136.5 17.5t99.5 39.5q47 25 82 56v174h-266v245h573v-542q-66 -78 -158 -137q-80 -53 -196.5 -96.5t-270.5 -43.5q-166 0 -308 59.5t-246.5 161t-164 237.5t-59.5 290z" />
<glyph unicode="H" horiz-adv-x="1597" d="M184 0v1434h308v-564h614v564h307v-1434h-307v584h-614v-584h-308z" />
<glyph unicode="I" horiz-adv-x="675" d="M184 0v1434h308v-1434h-308z" />
<glyph unicode="J" horiz-adv-x="1075" d="M-20 154l204 204q25 -29 58 -51q27 -18 63.5 -34.5t83.5 -16.5q92 0 148.5 58.5t56.5 166.5v953h307v-953q0 -115 -37 -209t-102.5 -161.5t-158.5 -104.5t-204 -37t-190.5 29t-130.5 63q-59 41 -98 93z" />
<glyph unicode="K" horiz-adv-x="1433" d="M184 0v1434h308v-615l552 615h369l-532 -594l573 -840h-358l-420 614l-184 -194v-420h-308z" />
<glyph unicode="L" horiz-adv-x="1198" d="M184 0v1434h308v-1147h665v-287h-973z" />
<glyph unicode="M" horiz-adv-x="1904" d="M184 0v1434h277l491 -615l492 615h276v-1434h-307v942l-461 -573l-460 573v-942h-308z" />
<glyph unicode="N" horiz-adv-x="1648" d="M184 0v1434h277l696 -891v891h307v-1434h-276l-696 891v-891h-308z" />
<glyph unicode="O" horiz-adv-x="1740" d="M92 717q0 154 59.5 290t164 237.5t247 160.5t307.5 59q166 0 308.5 -59t247 -160.5t164 -238t59.5 -289.5q0 -154 -59.5 -290t-164 -237.5t-247 -161t-308.5 -59.5t-308 59.5t-246.5 161t-164 237.5t-59.5 290zM410 717q0 -96 35.5 -180t98 -146.5t146.5 -98.5t180 -36 t180.5 36t147 98.5t98 146.5t35.5 180t-35.5 180t-98 146.5t-146.5 98.5t-181 36q-96 0 -180 -36t-146.5 -98.5t-98 -146.5t-35.5 -180z" />
<glyph unicode="P" horiz-adv-x="1392" d="M184 0v1434h604q115 0 209.5 -36t162 -100.5t104 -152.5t36.5 -193q0 -104 -36.5 -192t-104 -152.5t-162 -100.5t-209.5 -36h-296v-471h-308zM492 758h286q92 0 148.5 54t56.5 140t-56.5 140.5t-148.5 54.5h-286v-389z" />
<glyph unicode="Q" horiz-adv-x="1740" d="M92 717q0 154 59.5 290t164 237.5t247 160.5t307.5 59q166 0 308.5 -59t247 -160.5t164 -238t59.5 -289.5q0 -88 -17.5 -163t-45 -137.5t-63.5 -111.5t-73 -88q-88 -90 -201 -145q35 -43 84 -78q41 -29 102.5 -52.5t141.5 -23.5q20 0 36.5 1t28.5 3q14 4 27 6v-266 q-12 -2 -29 -6q-12 -2 -31.5 -3t-41.5 -1q-162 0 -274.5 51t-184.5 113q-82 72 -135 164q-12 -2 -29 -7q-12 -2 -31.5 -3t-42.5 -1q-166 0 -308 59.5t-246.5 161t-164 237.5t-59.5 290zM410 717q0 -96 35.5 -180t98 -146.5t146.5 -98.5t180 -36t180.5 36t147 98.5t98 146.5 t35.5 180t-35.5 180t-98 146.5t-146.5 98.5t-181 36q-96 0 -180 -36t-146.5 -98.5t-98 -146.5t-35.5 -180z" />
<glyph unicode="R" horiz-adv-x="1443" d="M184 0v1434h635q115 0 208 -35t158.5 -98.5t100.5 -151.5t35 -197q0 -123 -38 -203.5t-85 -127.5q-53 -57 -123 -89l297 -532h-338l-256 471h-286v-471h-308zM492 758h317q86 0 140.5 54t54.5 140t-54.5 140.5t-140.5 54.5h-317v-389z" />
<glyph unicode="S" horiz-adv-x="1198" d="M41 195l205 204q37 -43 88 -75q43 -29 106.5 -53.5t143.5 -24.5q123 0 179 47t56 117q0 61 -53 97t-133 64.5t-172 59.5t-172 81t-133.5 129t-53.5 203q0 84 36 161t102.5 134.5t164 91t220.5 33.5q121 0 210 -30.5t150 -65.5q70 -43 121 -98l-205 -205q-31 35 -72 61 q-35 23 -84 42.5t-110 19.5q-117 0 -166 -41t-49 -103q0 -61 53 -97t133 -64.5t172 -59t172 -81t133.5 -129t53.5 -203.5q0 -88 -37 -168t-107.5 -140.5t-171 -96.5t-227.5 -36q-139 0 -241.5 36t-172.5 77q-82 49 -139 113z" />
<glyph unicode="T" horiz-adv-x="1208" d="M41 1147v287h1126v-287h-409v-1147h-307v1147h-410z" />
<glyph unicode="U" horiz-adv-x="1597" d="M174 594v840h307v-840q0 -76 23.5 -138.5t65.5 -107.5t100.5 -68.5t128.5 -23.5t128 23.5t100 68.5t65.5 107.5t23.5 138.5v840h307v-840q0 -137 -46 -253t-128 -198t-196.5 -128t-253.5 -46q-137 0 -253 46t-198 128t-128 198t-46 253z" />
<glyph unicode="V" horiz-adv-x="1474" d="M31 1434h327l375 -1055h8l375 1055h328l-533 -1434h-348z" />
<glyph unicode="W" horiz-adv-x="2191" d="M31 1434h317l297 -963h10l297 963h287l297 -963h10l297 963h318l-471 -1434h-297l-291 932h-12l-291 -932h-297z" />
<glyph unicode="X" horiz-adv-x="1392" d="M0 0l492 748l-451 686h358l293 -471h8l293 471h359l-451 -686l492 -748h-359l-334 532h-8l-334 -532h-358z" />
<glyph unicode="Y" horiz-adv-x="1372" d="M-10 1434h358l334 -615h8l334 615h358l-542 -922v-512h-308v512z" />
<glyph unicode="Z" horiz-adv-x="1320" d="M92 0v287l727 860h-696v287h1085v-287l-727 -860h748v-287h-1137z" />
<glyph unicode="[" horiz-adv-x="747" d="M164 -430v1884h522v-256h-235v-1372h235v-256h-522z" />
<glyph unicode="\" horiz-adv-x="870" d="M0 1454h256l614 -1884h-256z" />
<glyph unicode="]" horiz-adv-x="747" d="M61 -174h236v1372h-236v256h523v-1884h-523v256z" />
<glyph unicode="^" horiz-adv-x="880" d="M61 819l277 615h205l276 -615h-235l-142 324h-4l-141 -324h-236z" />
<glyph unicode="_" horiz-adv-x="706" d="M-20 -174h747v-256h-747v256z" />
<glyph unicode="`" horiz-adv-x="573" d="M61 1444h287l164 -307h-225z" />
<glyph unicode="a" horiz-adv-x="1105" d="M82 266q0 123 79 210t218 112l317 57l-2 10q-10 47 -53 85t-119 38q-53 0 -95 -17.5t-71 -37.5q-35 -27 -59 -57l-164 163q45 55 105 99q53 35 128.5 65.5t176.5 30.5q96 0 175 -30.5t136 -84t88 -127t31 -157.5v-625h-277v123h-10q-31 -41 -76 -72q-37 -27 -92 -49 t-129 -22q-70 0 -126 21.5t-96 60t-62.5 91t-22.5 113.5zM358 307q0 -47 31 -74.5t92 -27.5q92 0 153.5 62.5t61.5 162.5v21l-225 -41q-53 -10 -83 -37t-30 -66z" />
<glyph unicode="b" horiz-adv-x="1269" d="M143 0v1434h277v-574h10q33 45 78 82q41 31 100.5 56.5t139.5 25.5q88 0 169.5 -38t144 -107.5t99.5 -166t37 -210.5q0 -115 -37 -211t-99.5 -165t-144 -107.5t-169.5 -38.5q-80 0 -139.5 25.5t-100.5 55.5q-45 37 -78 82h-10v-143h-277zM410 502q0 -55 18 -103.5t52 -84 t81.5 -57t104.5 -21.5q53 0 100 20t82 55t54.5 84t19.5 107q0 57 -19.5 106t-54.5 84t-82 55.5t-100 20.5q-57 0 -104.5 -21.5t-81.5 -57.5t-52 -84t-18 -103z" />
<glyph unicode="c" horiz-adv-x="1064" d="M72 502q0 109 41 203t113.5 165.5t170 112.5t207.5 41q109 0 186.5 -31.5t131.5 -70.5q61 -45 102 -103l-174 -174q-29 35 -66 62q-31 23 -75.5 42t-104.5 19q-53 0 -100 -20.5t-82 -55.5t-54.5 -84t-19.5 -106t19.5 -106.5t54.5 -84.5t82 -55t100 -20q59 0 104.5 19 t75.5 42q37 27 66 61l174 -174q-41 -57 -102 -102q-53 -39 -131 -70.5t-187 -31.5q-111 0 -208 40.5t-169.5 112.5t-113.5 167t-41 202z" />
<glyph unicode="d" horiz-adv-x="1269" d="M72 502q0 115 36.5 211t99 165.5t144.5 107.5t170 38q82 0 140.5 -25.5t99.5 -56.5q45 -37 78 -82h10v574h276v-1434h-276v143h-10q-33 -45 -78 -82q-41 -31 -99.5 -56t-140.5 -25q-88 0 -170 38.5t-144.5 107.5t-99 165t-36.5 211zM348 502q0 -57 19.5 -106.5 t54.5 -84.5t82 -55t100 -20q57 0 104.5 21.5t81 57t52 83.5t18.5 104q0 55 -18.5 103t-52 84t-80.5 57.5t-105 21.5q-53 0 -100 -20.5t-82 -55.5t-54.5 -84t-19.5 -106z" />
<glyph unicode="e" horiz-adv-x="1167" d="M72 502q0 109 41 203t112.5 165.5t166.5 112.5t202 41q104 0 195.5 -40t159 -107.5t107.5 -158.5t40 -196q0 -27 -1 -49t-3 -39q-4 -18 -7 -35h-727q23 -70 87.5 -122t179.5 -52q66 0 114.5 17.5t83.5 40.5q39 25 68 55l143 -195q-47 -45 -110 -82q-55 -31 -135 -56 t-185 -25q-111 0 -208 40.5t-169.5 112.5t-113.5 167t-41 202zM358 604h451q-23 70 -81 122t-144 52t-144.5 -52t-81.5 -122z" />
<glyph unicode="f" horiz-adv-x="757" d="M41 727v256h154v102q0 178 92 273.5t245 95.5q39 0 73 -5t59 -9q29 -8 53 -17v-256q-14 6 -33 11q-35 10 -80 10q-61 0 -97 -37t-36 -107v-61h225v-256h-225v-727h-276v727h-154z" />
<glyph unicode="g" horiz-adv-x="1228" d="M72 522q0 111 35.5 204t95 158.5t137.5 102.5t162 37q82 0 139 -25.5t94 -56.5q45 -37 74 -82h10v144h277v-902q0 -115 -40 -213t-113 -168.5t-172 -110.5t-218 -40q-111 0 -194 31.5t-138 70.5q-63 45 -108 103l174 174q31 -35 71 -62q35 -23 84.5 -42t110.5 -19 q57 0 106.5 20.5t84 56.5t55 87t20.5 112v82h-10q-29 -45 -74 -82q-37 -31 -94 -56.5t-139 -25.5q-84 0 -162 37t-137.5 102.5t-95 158.5t-35.5 204zM348 522q0 -109 67.5 -177.5t168.5 -68.5q100 0 167.5 69t67.5 177q0 109 -67.5 177.5t-167.5 68.5t-168 -68.5t-68 -177.5 z" />
<glyph unicode="h" horiz-adv-x="1228" d="M143 0v1434h277v-574h10q31 45 76 82q37 31 93 56.5t128 25.5q78 0 144.5 -29.5t116.5 -84t79 -132.5t29 -174v-604h-277v563q0 92 -49 143.5t-135 51.5q-92 0 -153.5 -62.5t-61.5 -163.5v-532h-277z" />
<glyph unicode="i" horiz-adv-x="542" d="M113 1290q0 61 47 107.5t112 46.5q66 0 112 -46t46 -108q0 -61 -47 -107t-113 -46t-111.5 46t-45.5 107zM133 0v1004h277v-1004h-277z" />
<glyph unicode="j" horiz-adv-x="542" d="M-113 -143q14 -6 33 -11q35 -10 80 -10q61 0 97 37t36 107v1024h277v-1065q0 -178 -92.5 -273.5t-245.5 -95.5q-39 0 -73 5t-58 9q-29 8 -54 17v256zM113 1290q0 61 47 107.5t112 46.5q66 0 112 -46t46 -108q0 -61 -47 -107t-113 -46t-111.5 46t-45.5 107z" />
<glyph unicode="k" horiz-adv-x="1116" d="M143 0v1434h277v-840l358 410h328l-369 -420l389 -584h-317l-256 389l-133 -153v-236h-277z" />
<glyph unicode="l" horiz-adv-x="563" d="M143 0v1434h277v-1434h-277z" />
<glyph unicode="m" horiz-adv-x="1812" d="M133 0v1004h277v-144h10q27 45 65 82q35 31 87.5 56.5t123.5 25.5q82 0 138.5 -26.5t91.5 -59.5q41 -39 67 -88h11q35 49 83 88q41 33 102.5 59.5t141.5 26.5q74 0 137.5 -27.5t110.5 -80t73.5 -126t26.5 -165.5v-625h-276v584q0 86 -43 130t-121 44q-86 0 -140.5 -56.5 t-54.5 -148.5v-553h-276v584q0 86 -43 130t-121 44q-86 0 -140 -56.5t-54 -148.5v-553h-277z" />
<glyph unicode="n" horiz-adv-x="1218" d="M133 0v1004h277v-144h10q31 45 76 82q37 31 93 56.5t128 25.5q78 0 144.5 -29.5t116.5 -84t78.5 -132.5t28.5 -174v-604h-276v563q0 92 -49 143.5t-135 51.5q-92 0 -153.5 -62.5t-61.5 -163.5v-532h-277z" />
<glyph unicode="o" horiz-adv-x="1208" d="M72 502q0 109 41 203t113.5 165.5t170 112.5t207.5 41q111 0 208 -41t170 -112.5t114 -166t41 -202.5q0 -106 -41 -201.5t-114 -167.5t-170 -112.5t-208 -40.5t-208 40.5t-169.5 112.5t-113.5 167t-41 202zM348 502q0 -57 19.5 -106.5t54.5 -84.5t82 -55t100 -20 t100.5 20t82 55t54 84t19.5 107q0 57 -19.5 106t-54 84t-82 55.5t-100.5 20.5t-100 -20.5t-82 -55.5t-54.5 -84t-19.5 -106z" />
<glyph unicode="p" horiz-adv-x="1259" d="M133 -430v1434h277v-144h10q33 45 78 82q41 31 100 56.5t139 25.5q88 0 170 -38t144.5 -107.5t99.5 -166t37 -210.5q0 -115 -37 -211t-99.5 -165t-144.5 -107.5t-170 -38.5q-80 0 -139 25.5t-100 55.5q-45 37 -78 82h-10v-573h-277zM399 502q0 -55 18.5 -103.5t52.5 -84 t81 -57t104 -21.5q53 0 100.5 20t82 55t54 84t19.5 107q0 57 -19.5 106t-54 84t-81.5 55.5t-101 20.5q-57 0 -104 -21.5t-81 -57.5t-52.5 -84t-18.5 -103z" />
<glyph unicode="q" horiz-adv-x="1259" d="M72 502q0 115 36.5 211t99 165.5t144.5 107.5t170 38q82 0 140.5 -25.5t99.5 -56.5q45 -37 78 -82h10v144h276v-1434h-276v573h-10q-33 -45 -78 -82q-41 -31 -99.5 -56t-140.5 -25q-88 0 -170 38.5t-144.5 107.5t-99 165t-36.5 211zM348 502q0 -57 19.5 -106.5 t54.5 -84.5t82 -55t100 -20q57 0 104.5 21.5t81 57t52 83.5t18.5 104q0 55 -18.5 103t-52 84t-80.5 57.5t-105 21.5q-53 0 -100 -20.5t-82 -55.5t-54.5 -84t-19.5 -106z" />
<glyph unicode="r" horiz-adv-x="778" d="M133 0v1004h277v-144h10q31 45 76 82q37 31 93 56.5t128 25.5h20v-297q-10 2 -22 6q-12 2 -29.5 3t-40.5 1q-100 0 -167.5 -71.5t-67.5 -194.5v-471h-277z" />
<glyph unicode="s" horiz-adv-x="931" d="M31 164l164 174q31 -31 71 -55q35 -23 84 -40.5t111 -17.5q70 0 96.5 20.5t26.5 51.5q0 29 -38 48.5t-95.5 37.5t-123 43t-123 61.5t-95 92t-37.5 137.5q0 61 26.5 116.5t76.5 98.5t125 67.5t171 24.5q98 0 170 -23.5t121 -52.5q57 -35 98 -78l-164 -174q-25 23 -59 41 q-29 16 -71 28.5t-95 12.5t-77.5 -19.5t-24.5 -41.5q0 -29 37.5 -48.5t95 -38t123 -43t123 -61.5t95.5 -92t38 -137q0 -66 -27 -123t-80 -100t-131 -68.5t-182 -25.5t-184 28.5t-136 63.5q-63 41 -110 92z" />
<glyph unicode="t" horiz-adv-x="819" d="M41 727v256h92q113 0 113 123v184h246v-307h225v-256h-225v-338q0 -70 35.5 -106.5t97.5 -36.5q23 0 43 3t37 7q18 4 32 10v-256q-25 -8 -53 -16q-25 -4 -58.5 -9t-72.5 -5q-154 0 -246 95t-92 273v379h-174z" />
<glyph unicode="u" horiz-adv-x="1218" d="M133 399v605h277v-564q0 -92 49 -143t135 -51q92 0 153.5 62.5t61.5 162.5v533h276v-1004h-276v143h-10q-31 -45 -76 -82q-37 -31 -92.5 -56t-128.5 -25q-76 0 -143.5 29.5t-118 83.5t-79 132t-28.5 174z" />
<glyph unicode="v" d="M-10 1004h297l231 -676h8l232 676h297l-379 -1004h-307z" />
<glyph unicode="w" horiz-adv-x="1576" d="M-10 1004h297l184 -594h10l195 594h225l195 -594h10l184 594h297l-352 -1004h-252l-190 584h-9l-190 -584h-252z" />
<glyph unicode="x" d="M-10 0l358 512l-338 492h318l190 -308h8l191 308h317l-338 -492l359 -512h-318l-211 328h-8l-211 -328h-317z" />
<glyph unicode="y" d="M-10 1004h297l235 -666h10l226 666h297l-410 -1086q-63 -170 -156.5 -259t-232.5 -89q-39 0 -71.5 5t-59.5 9q-29 8 -53 17v256q14 -6 32 -11q35 -10 80 -10q70 0 111 35t63 88l21 51z" />
<glyph unicode="z" horiz-adv-x="1024" d="M72 0v256l491 492h-471v256h840v-256l-492 -492h512v-256h-880z" />
<glyph unicode="{" horiz-adv-x="778" d="M61 389v246h21q61 0 97 36t36 97v348q0 162 89 250t259 88h154v-256h-92q-123 0 -123 -123v-338q0 -68 -24.5 -110.5t-53.5 -67.5q-35 -31 -80 -45v-4q45 -14 80 -43q29 -27 53.5 -70t24.5 -110v-338q0 -123 123 -123h92v-256h-154q-170 0 -259 88t-89 250v348 q0 61 -36 97t-97 36h-21z" />
<glyph unicode="|" horiz-adv-x="778" d="M246 -430v1884h286v-1884h-286z" />
<glyph unicode="}" horiz-adv-x="778" d="M61 -174h93q123 0 122 123v338q0 68 25 110.5t55 69.5q33 29 78 43v4q-45 14 -78 45q-31 25 -55.5 68t-24.5 110v338q0 123 -122 123h-93v256h154q170 0 259 -88t89 -250v-348q0 -61 36 -97t97 -36h21v-246h-21q-61 0 -97 -36t-36 -97v-348q0 -162 -89 -250t-259 -88 h-154v256z" />
<glyph unicode="~" horiz-adv-x="1167" d="M61 573q27 59 70 109q37 41 94.5 73.5t143.5 32.5q74 0 126 -19t95 -41.5t83 -42t85 -19.5q43 0 73.5 17t51.5 40q23 25 39 55l184 -143q-27 -59 -70 -107q-35 -41 -93 -74.5t-144 -33.5q-74 0 -126 19.5t-95 42t-82 42t-86 19.5q-41 0 -72 -17.5t-53 -38.5 q-23 -27 -39 -57z" />
<glyph unicode="&#xa2;" horiz-adv-x="1064" d="M72 502q0 100 33.5 185t89 150.5t128 108.5t148.5 58v204h246v-194q74 -16 130 -48t97 -65q45 -39 80 -82l-174 -174q-14 18 -35 37q-16 16 -40.5 32.5t-57.5 30.5q-25 10 -52.5 16.5t-60.5 6.5q-55 0 -102 -20.5t-81 -57.5t-53.5 -85t-19.5 -103t19.5 -103.5t53.5 -85.5 t81 -57t102 -20q33 0 60.5 6t52.5 16q33 14 57.5 30.5t40.5 33.5q20 18 35 36l174 -174q-35 -43 -80 -82q-41 -33 -97 -64.5t-130 -47.5v-195h-246v205q-76 16 -148.5 58t-128 107.5t-89 151t-33.5 185.5z" />
<glyph unicode="&#xa3;" horiz-adv-x="1146" d="M61 0v266q70 0 107 36t37 97v154h-133v246h133v184q0 109 34.5 197t97 151.5t148.5 98t191 34.5q113 0 192.5 -28.5t132.5 -63.5q63 -41 105 -92l-205 -195q-23 29 -51 52q-25 20 -60.5 35.5t-82.5 15.5q-100 0 -157.5 -56.5t-57.5 -148.5v-184h358v-246h-358v-154 q0 -35 -7.5 -58.5t-17.5 -39.5q-10 -20 -25 -33v-2h664v-266h-1045z" />
<glyph unicode="&#xa5;" horiz-adv-x="1372" d="M-10 1434h358l334 -615h8l334 615h358l-419 -707h184v-205h-307v-123h307v-204h-307v-195h-308v195h-307v204h307v123h-307v205h185z" />
<glyph unicode="&#xa8;" horiz-adv-x="880" d="M61 1290q0 61 46.5 107.5t107.5 46.5t107.5 -46t46.5 -108q0 -61 -46.5 -107t-107.5 -46t-107.5 46t-46.5 107zM512 1290q0 61 46 107.5t108 46.5q61 0 107 -46t46 -108q0 -61 -46 -107t-107 -46t-107.5 46t-46.5 107z" />
<glyph unicode="&#xa9;" horiz-adv-x="1740" d="M102 717q0 158 59.5 296t163 240.5t244 162t301.5 59.5q162 0 302.5 -59.5t244 -162t162.5 -241t59 -295.5q0 -158 -59 -296t-162.5 -240.5t-244 -162t-302.5 -59.5t-302 59.5t-243.5 162t-163 240.5t-59.5 296zM287 717q0 -123 46 -231.5t126 -188.5t186 -127t225 -47 t225.5 47t186.5 127t126 188.5t46 231.5t-46 231.5t-126 188.5t-186.5 127t-225.5 47t-225 -47t-186 -127t-126 -188.5t-46 -231.5zM481 717q0 84 31 157.5t86 127t130 84t163 30.5q86 0 146.5 -23.5t101.5 -52.5q47 -35 80 -77l-123 -123q-18 27 -47 47q-25 16 -61 30.5 t-87 14.5q-100 0 -162.5 -61.5t-62.5 -153.5t62.5 -153.5t162.5 -61.5q51 0 87 14t61 33q29 18 47 45l123 -123q-33 -43 -80 -76q-41 -29 -101.5 -53.5t-146.5 -24.5q-88 0 -163 31t-130 85t-86 127t-31 157z" />
<glyph unicode="&#xab;" horiz-adv-x="1126" d="M72 492l256 368h276l-256 -368l256 -369h-276zM522 492l256 368h277l-256 -368l256 -369h-277z" />
<glyph unicode="&#xad;" horiz-adv-x="890" d="M102 481v256h686v-256h-686z" />
<glyph unicode="&#xae;" horiz-adv-x="1740" d="M102 717q0 158 59.5 296t163 240.5t244 162t301.5 59.5q162 0 302.5 -59.5t244 -162t162.5 -241t59 -295.5q0 -158 -59 -296t-162.5 -240.5t-244 -162t-302.5 -59.5t-302 59.5t-243.5 162t-163 240.5t-59.5 296zM287 717q0 -123 46 -231.5t126 -188.5t186.5 -127 t224.5 -47q119 0 225.5 47t186.5 127t126 188.5t46 231.5t-46 231.5t-126 188.5t-186.5 127t-225.5 47t-225 -47t-186 -127t-126 -188.5t-46 -231.5zM584 328v778h338q61 0 112 -19.5t87 -54.5t56.5 -82t20.5 -100q0 -57 -21.5 -96t-50.5 -64q-31 -29 -71 -45l174 -317h-215 l-133 266h-103v-266h-194zM778 768h133q82 0 82 82t-82 82h-133v-164z" />
<glyph unicode="&#xb4;" horiz-adv-x="573" d="M61 1137l164 307h287l-225 -307h-226z" />
<glyph unicode="&#xb8;" horiz-adv-x="573" d="M61 -389l62 123q18 -14 41 -27q20 -10 46 -17t56 -7q72 0 72 51t-72 51q-25 0 -37 -6q-8 -2 -14 -4l-61 71l92 195h164l-72 -133q4 0 12 -2q6 0 15.5 -2t21.5 -6q18 -6 41 -18.5t41 -33t30.5 -50t12.5 -72.5q0 -86 -58.5 -140.5t-166.5 -54.5q-53 0 -95 12.5t-71 28.5 q-35 18 -60 41z" />
<glyph unicode="&#xbb;" horiz-adv-x="1126" d="M72 123l256 369l-256 368h276l256 -368l-256 -369h-276zM522 123l256 369l-256 368h277l256 -368l-256 -369h-277z" />
<glyph unicode="&#x2c6;" horiz-adv-x="860" d="M61 1137l246 307h246l246 -307h-246l-121 161h-4l-121 -161h-246z" />
<glyph unicode="&#x2dc;" horiz-adv-x="849" d="M61 1147v4q0 158 61.5 230.5t158.5 72.5q53 0 89 -17.5t63.5 -39t53 -39t56.5 -17.5t51 26t20 87h174v-4q0 -158 -61 -230.5t-154 -72.5q-53 0 -88.5 16.5t-63.5 35t-53.5 34.5t-60.5 16q-31 0 -51 -24.5t-20 -77.5h-175z" />
<glyph unicode="&#x401;" horiz-adv-x="1361" d="M184 0v1434h1065v-287h-757v-277h593v-276h-593v-307h778v-287h-1086zM337 1751q0 61 46.5 107.5t107.5 46.5t107.5 -46t46.5 -108q0 -61 -46.5 -107t-107.5 -46t-107.5 46t-46.5 107zM788 1751q0 61 46 107.5t108 46.5q61 0 107 -46t46 -108q0 -61 -46 -107t-107 -46 t-107.5 46t-46.5 107z" />
<glyph unicode="&#x404;" horiz-adv-x="1525" d="M92 717q0 154 59.5 290t164 237.5t247 160.5t307.5 59q152 0 263.5 -45t189.5 -98q88 -63 152 -143l-205 -205q-43 57 -105 102q-51 39 -123.5 71t-171.5 32q-88 0 -160.5 -27t-128 -71t-94 -101t-57.5 -119h625v-276h-625q18 -66 57 -125.5t94.5 -104.5t128 -71.5 t160.5 -26.5q100 0 176 31.5t130 70.5q59 45 104 103l205 -205q-63 -80 -154 -143q-78 -53 -192.5 -98.5t-268.5 -45.5q-166 0 -308 59.5t-246.5 161t-164 237.5t-59.5 290z" />
<glyph unicode="&#x406;" horiz-adv-x="675" d="M184 0v1434h308v-1434h-308z" />
<glyph unicode="&#x407;" horiz-adv-x="675" d="M-41 1751q0 61 46.5 107.5t107.5 46.5t107.5 -46t46.5 -108q0 -61 -46.5 -107t-107.5 -46t-107.5 46t-46.5 107zM184 0v1434h308v-1434h-308zM410 1751q0 61 46 107.5t108 46.5q61 0 107 -46t46 -108q0 -61 -46 -107t-107 -46t-107.5 46t-46.5 107z" />
<glyph unicode="&#x40e;" horiz-adv-x="1320" d="M0 1434h358l336 -674h4l285 674h358l-532 -1117q-35 -74 -80 -135t-103.5 -106t-132 -70.5t-165.5 -25.5q-39 0 -71 5t-54 9q-27 8 -49 16v277q16 -6 36 -11q16 -4 41 -7t56 -3q86 0 140 46t85 108l20 41zM348 1915h205q0 -53 35 -88t88 -35t88 35t35 88h205 q0 -70 -23.5 -128t-66.5 -100t-103.5 -66t-134.5 -24t-134 24t-103 66t-67 100t-24 128z" />
<glyph unicode="&#x410;" horiz-adv-x="1474" d="M10 0l553 1434h348l553 -1434h-327l-123 328h-553l-123 -328h-328zM563 604h348l-170 471h-8z" />
<glyph unicode="&#x411;" horiz-adv-x="1382" d="M184 0v1434h994v-287h-686v-246h317q111 0 202 -35t155.5 -95t99 -142t34.5 -178t-34.5 -178.5t-99 -142.5t-155.5 -95t-202 -35h-625zM492 287h307q86 0 135 47t49 117t-49 116.5t-135 46.5h-307v-327z" />
<glyph unicode="&#x412;" horiz-adv-x="1413" d="M184 0v1434h604q109 0 194 -31t144.5 -82t91 -119.5t31.5 -146.5q0 -86 -29.5 -141.5t-64.5 -90.5q-43 -41 -96 -63v-4q74 -25 131 -70q49 -39 90 -105.5t41 -170.5q0 -84 -34 -159t-97.5 -130t-154.5 -88t-206 -33h-645zM492 266h317q92 0 143.5 48t51.5 126t-51.5 126 t-143.5 48h-317v-348zM492 881h276q78 0 121 41t43 102t-43 102t-121 41h-276v-286z" />
<glyph unicode="&#x413;" horiz-adv-x="1198" d="M184 0v1434h973v-287h-665v-1147h-308z" />
<glyph unicode="&#x414;" horiz-adv-x="1515" d="M0 287h82q63 66 113 164q43 86 77.5 217t34.5 317v449h993v-1147h175v-574h-308v287h-860v-287h-307v574zM410 287h583v860h-379v-164q0 -186 -31.5 -316t-70.5 -216q-45 -98 -102 -162v-2z" />
<glyph unicode="&#x415;" horiz-adv-x="1361" d="M184 0v1434h1065v-287h-757v-277h593v-276h-593v-307h778v-287h-1086z" />
<glyph unicode="&#x416;" horiz-adv-x="2088" d="M-20 0l573 840l-533 594h369l502 -564v564h307v-564l502 564h368l-532 -594l573 -840h-358l-420 614l-133 -143v-471h-307v471l-133 143l-420 -614h-358z" />
<glyph unicode="&#x417;" horiz-adv-x="1259" d="M31 205l205 205q37 -45 88 -82q43 -31 106.5 -56.5t142.5 -25.5q145 0 211 52t66 122t-62.5 122t-193.5 52h-195v266h174q117 0 171.5 47t54.5 117t-54.5 117t-171.5 47q-66 0 -118 -21.5t-90 -50.5q-43 -31 -78 -72l-205 205q53 59 129 109q66 41 161 73.5t222 32.5 q123 0 220 -33.5t163.5 -89t102.5 -127t36 -149.5q0 -92 -36 -150.5t-79 -93.5q-51 -41 -116 -61v-4q80 -25 141 -72q53 -41 97 -108.5t44 -176.5q0 -84 -37.5 -161.5t-110.5 -137t-179.5 -95.5t-245.5 -36q-141 0 -246.5 37t-177.5 82q-82 51 -139 117z" />
<glyph unicode="&#x418;" horiz-adv-x="1648" d="M184 0v1434h308v-922l696 922h276v-1434h-307v922l-696 -922h-277z" />
<glyph unicode="&#x419;" horiz-adv-x="1648" d="M184 0v1434h308v-922l696 922h276v-1434h-307v922l-696 -922h-277zM492 1915h204q0 -53 35 -88t88 -35t88 35t35 88h205q0 -70 -23.5 -128t-66.5 -100t-103.5 -66t-134.5 -24t-134 24t-103 66t-66.5 100t-23.5 128z" />
<glyph unicode="&#x41a;" horiz-adv-x="1433" d="M184 0v1434h308v-615l552 615h369l-532 -594l573 -840h-358l-420 614l-184 -194v-420h-308z" />
<glyph unicode="&#x41b;" horiz-adv-x="1566" d="M0 0v297q14 -6 33 -10q14 -4 32.5 -7.5t36.5 -3.5q53 0 98.5 26t78 101.5t51 214t18.5 365.5v451h1034v-1434h-307v1147h-420v-164q0 -303 -35.5 -499.5t-100 -310.5t-152.5 -159t-193 -45q-39 0 -70.5 5.5t-54.5 9.5q-27 8 -49 16z" />
<glyph unicode="&#x41c;" horiz-adv-x="1904" d="M184 0v1434h277l491 -615l492 615h276v-1434h-307v942l-461 -573l-460 573v-942h-308z" />
<glyph unicode="&#x41d;" horiz-adv-x="1597" d="M184 0v1434h308v-564h614v564h307v-1434h-307v584h-614v-584h-308z" />
<glyph unicode="&#x41e;" horiz-adv-x="1740" d="M92 717q0 154 59.5 290t164 237.5t247 160.5t307.5 59q166 0 308.5 -59t247 -160.5t164 -238t59.5 -289.5q0 -154 -59.5 -290t-164 -237.5t-247 -161t-308.5 -59.5t-308 59.5t-246.5 161t-164 237.5t-59.5 290zM410 717q0 -96 35.5 -180t98 -146.5t146.5 -98.5t180 -36 t180.5 36t147 98.5t98 146.5t35.5 180t-35.5 180t-98 146.5t-146.5 98.5t-181 36q-96 0 -180 -36t-146.5 -98.5t-98 -146.5t-35.5 -180z" />
<glyph unicode="&#x41f;" horiz-adv-x="1587" d="M184 0v1434h1219v-1434h-307v1147h-604v-1147h-308z" />
<glyph unicode="&#x420;" horiz-adv-x="1392" d="M184 0v1434h604q115 0 209.5 -36t162 -100.5t104 -152.5t36.5 -193q0 -104 -36.5 -192t-104 -152.5t-162 -100.5t-209.5 -36h-296v-471h-308zM492 758h286q92 0 148.5 54t56.5 140t-56.5 140.5t-148.5 54.5h-286v-389z" />
<glyph unicode="&#x421;" horiz-adv-x="1523" d="M92 717q0 154 59.5 290t164 237.5t247 160.5t307.5 59q152 0 263.5 -45t189.5 -98q88 -63 152 -143l-205 -205q-43 57 -105 102q-51 39 -123.5 71t-171.5 32q-96 0 -180 -36t-146.5 -98.5t-98 -146.5t-35.5 -180t35.5 -180t98 -146.5t146.5 -98.5t180 -36q100 0 176 31.5 t130 70.5q59 45 104 103l205 -205q-63 -80 -154 -143q-78 -53 -192.5 -98.5t-268.5 -45.5q-166 0 -308 59.5t-246.5 161t-164 237.5t-59.5 290z" />
<glyph unicode="&#x422;" horiz-adv-x="1208" d="M41 1147v287h1126v-287h-409v-1147h-307v1147h-410z" />
<glyph unicode="&#x423;" horiz-adv-x="1320" d="M0 1434h358l336 -674h4l285 674h358l-532 -1117q-35 -74 -80 -135t-103.5 -106t-132 -70.5t-165.5 -25.5q-39 0 -71 5t-54 9q-27 8 -49 16v277q16 -6 36 -11q16 -4 41 -7t56 -3q86 0 140 46t85 108l20 41z" />
<glyph unicode="&#x424;" horiz-adv-x="1802" d="M72 737q0 123 45 228.5t131 184.5t212 126t288 55v154h307v-154q162 -8 287.5 -55t211.5 -126t131.5 -184.5t45.5 -228.5t-45.5 -228.5t-131.5 -184t-211.5 -125.5t-287.5 -56v-184h-307v184q-162 8 -288 55.5t-212 126t-131 184t-45 228.5zM389 737q0 -139 94.5 -229 t264.5 -98v655q-170 -8 -264.5 -98.5t-94.5 -229.5zM1055 410q170 8 264 98t94 229t-94 229.5t-264 98.5v-655z" />
<glyph unicode="&#x425;" horiz-adv-x="1392" d="M0 0l492 748l-451 686h358l293 -471h8l293 471h359l-451 -686l492 -748h-359l-334 532h-8l-334 -532h-358z" />
<glyph unicode="&#x426;" horiz-adv-x="1597" d="M184 0v1434h308v-1147h583v1147h307v-1147h174v-574h-307v287h-1065z" />
<glyph unicode="&#x427;" horiz-adv-x="1505" d="M164 1004v430h307v-430q0 -276 266 -277q63 0 113.5 14.5t87.5 32.5q43 18 76 45v615h307v-1434h-307v522q-41 -23 -92 -41q-45 -16 -106.5 -28.5t-139.5 -12.5q-115 0 -209 38t-161.5 109.5t-104.5 176t-37 240.5z" />
<glyph unicode="&#x428;" horiz-adv-x="2170" d="M184 0v1434h308v-1147h440v1147h307v-1147h440v1147h308v-1434h-1803z" />
<glyph unicode="&#x429;" horiz-adv-x="2201" d="M184 0v1434h308v-1147h440v1147h307v-1147h440v1147h308v-1147h174v-574h-308v287h-1669z" />
<glyph unicode="&#x42a;" horiz-adv-x="1505" d="M0 1147v287h635v-471h276q115 0 209 -36t162 -100.5t104.5 -152.5t36.5 -193q0 -104 -36.5 -192t-104.5 -152.5t-162 -100.5t-209 -36h-583v1147h-328zM635 287h266q92 0 148.5 54t56.5 140t-56.5 140.5t-148.5 54.5h-266v-389z" />
<glyph unicode="&#x42b;" horiz-adv-x="1935" d="M184 0v1434h308v-471h276q115 0 209 -36t161.5 -100.5t104.5 -152.5t37 -193q0 -104 -37 -192t-104.5 -152.5t-161.5 -100.5t-209 -36h-584zM492 287h266q92 0 148.5 54t56.5 140t-56.5 140.5t-148.5 54.5h-266v-389zM1444 0v1434h307v-1434h-307z" />
<glyph unicode="&#x42c;" horiz-adv-x="1382" d="M184 0v1434h308v-471h296q115 0 209.5 -36t162 -100.5t104 -152.5t36.5 -193q0 -104 -36.5 -192t-104 -152.5t-162 -100.5t-209.5 -36h-604zM492 287h286q92 0 148.5 54t56.5 140t-56.5 140.5t-148.5 54.5h-286v-389z" />
<glyph unicode="&#x42d;" horiz-adv-x="1525" d="M41 256l205 205q45 -57 104 -103q53 -39 129 -70.5t176 -31.5q88 0 161 26.5t128 71.5t94 104.5t58 125.5h-625v276h625q-18 61 -57.5 118.5t-94.5 101.5t-128 71t-161 27q-96 0 -169.5 -32t-125.5 -71q-61 -45 -104 -102l-205 205q63 80 152 143q78 53 190.5 98 t261.5 45q166 0 308.5 -59t247 -160.5t164 -238t59.5 -289.5q0 -154 -59.5 -290t-164 -237.5t-247 -161t-308.5 -59.5q-154 0 -268.5 45t-191.5 99q-90 63 -154 143z" />
<glyph unicode="&#x42e;" horiz-adv-x="2232" d="M184 0v1434h308v-564h194q23 119 85.5 226.5t155.5 189.5t217 130t269 48q154 0 288 -57t234.5 -158.5t157.5 -238t57 -293.5q0 -158 -57 -294t-157.5 -237.5t-234.5 -159t-288 -57.5q-145 0 -270 50.5t-220.5 134.5t-156.5 195.5t-80 234.5h-194v-584h-308zM993 717 q0 -100 34 -184t91.5 -145.5t134 -96.5t160.5 -35t161 35t134 96.5t91 145t34 184.5q0 100 -34 184t-91 145.5t-134 96.5t-161 35t-160.5 -35t-134 -96.5t-91.5 -145.5t-34 -184z" />
<glyph unicode="&#x42f;" horiz-adv-x="1433" d="M61 0l297 532q-70 31 -122 89q-47 47 -85 127.5t-38 203.5q0 109 34.5 197t100 151.5t159 98.5t207.5 35h635v-1434h-307v471h-287l-256 -471h-338zM430 952q0 -86 54.5 -140t140.5 -54h317v389h-317q-86 0 -140.5 -54.5t-54.5 -140.5z" />
<glyph unicode="&#x430;" horiz-adv-x="1105" d="M82 266q0 123 79 210t218 112l317 57l-2 10q-10 47 -53 85t-119 38q-53 0 -95 -17.5t-71 -37.5q-35 -27 -59 -57l-164 163q45 55 105 99q53 35 128.5 65.5t176.5 30.5q96 0 175 -30.5t136 -84t88 -127t31 -157.5v-625h-277v123h-10q-31 -41 -76 -72q-37 -27 -92 -49 t-129 -22q-70 0 -126 21.5t-96 60t-62.5 91t-22.5 113.5zM358 307q0 -47 31 -74.5t92 -27.5q92 0 153.5 62.5t61.5 162.5v21l-225 -41q-53 -10 -83 -37t-30 -66z" />
<glyph unicode="&#x431;" horiz-adv-x="1218" d="M92 635q0 180 40 314t107.5 227.5t159 148.5t195.5 78q66 16 129 34.5t115 37.5q61 20 114 41l144 -236q-47 -25 -107 -47q-51 -20 -121.5 -43t-160.5 -43q-143 -33 -214 -98.5t-102 -192.5l4 -2q27 37 66 66q33 23 81 43t113 20q100 0 189.5 -40t157 -107.5 t106.5 -158.5t39 -196q0 -104 -40 -195t-108.5 -159t-162 -107.5t-201.5 -39.5q-115 0 -214 43t-172 126.5t-115 205.5t-42 280zM399 481q0 -109 68 -177t168 -68t167.5 68.5t67.5 176.5q0 109 -67.5 177.5t-167.5 68.5t-168 -68.5t-68 -177.5z" />
<glyph unicode="&#x432;" horiz-adv-x="1095" d="M133 0v1004h492q88 0 155.5 -21.5t112.5 -59.5t67.5 -88.5t22.5 -107.5t-20.5 -96t-42.5 -62q-29 -29 -66 -45v-4q47 -16 86 -47q31 -27 57.5 -69t26.5 -107q0 -61 -24.5 -115.5t-72.5 -94.5t-119 -63.5t-163 -23.5h-512zM410 236h225q47 0 74.5 26.5t27.5 65.5 t-27.5 65.5t-74.5 26.5h-225v-184zM410 625h204q39 0 60.5 20.5t21.5 50.5q0 31 -21.5 51.5t-60.5 20.5h-204v-143z" />
<glyph unicode="&#x433;" horiz-adv-x="901" d="M133 0v1004h737v-256h-460v-748h-277z" />
<glyph unicode="&#x434;" horiz-adv-x="1167" d="M0 -225v481h61q45 43 82 109q31 55 56.5 142t25.5 210v287h768v-748h133v-481h-276v225h-574v-225h-276zM358 256h359v492h-215v-31q0 -123 -21.5 -210t-50.5 -142q-31 -66 -72 -107v-2z" />
<glyph unicode="&#x435;" horiz-adv-x="1167" d="M72 502q0 109 41 203t112.5 165.5t166.5 112.5t202 41q104 0 195.5 -40t159 -107.5t107.5 -158.5t40 -196q0 -27 -1 -49t-3 -39q-4 -18 -7 -35h-727q23 -70 87.5 -122t179.5 -52q66 0 114.5 17.5t83.5 40.5q39 25 68 55l143 -195q-47 -45 -110 -82q-55 -31 -135 -56 t-185 -25q-111 0 -208 40.5t-169.5 112.5t-113.5 167t-41 202zM358 604h451q-23 70 -81 122t-144 52t-144.5 -52t-81.5 -122z" />
<glyph unicode="&#x436;" horiz-adv-x="1607" d="M-10 0l389 584l-369 420h328l328 -379v379h276v-379l328 379h327l-368 -420l389 -584h-318l-256 389l-102 -113v-276h-276v276l-103 113l-256 -389h-317z" />
<glyph unicode="&#x437;" horiz-adv-x="952" d="M20 164l154 164q35 -31 76 -56q35 -23 84 -40t106 -17q78 0 111 26.5t33 65.5t-33 65.5t-111 26.5h-123v226h123q61 0 92 25.5t31 56.5t-30.5 56t-92.5 25q-49 0 -92 -12t-76 -28q-37 -18 -67 -41l-154 163q45 43 105 78q53 29 128.5 52.5t176.5 23.5q96 0 171 -24.5 t125 -64.5t76.5 -92t26.5 -106q0 -66 -29.5 -107.5t-64.5 -68.5q-43 -31 -96 -47v-2q59 -14 106 -45q39 -27 72 -73t33 -118q0 -57 -27 -110t-80 -95t-131 -66.5t-182 -24.5q-109 0 -191 28.5t-137 63.5q-66 41 -113 92z" />
<glyph unicode="&#x438;" horiz-adv-x="1218" d="M133 0v1004h277v-570h2l428 570h245v-1004h-276v569h-2l-428 -569h-246z" />
<glyph unicode="&#x439;" horiz-adv-x="1218" d="M133 0v1004h277v-570h2l428 570h245v-1004h-276v569h-2l-428 -569h-246zM286 1444h205q0 -53 35 -88t88 -35t88 35t35 88h205q0 -66 -23.5 -122t-66.5 -97t-103.5 -64.5t-134.5 -23.5t-134 23.5t-103 64.5t-67 97t-24 122z" />
<glyph unicode="&#x43a;" horiz-adv-x="1105" d="M133 0v1004h277v-410l358 410h328l-369 -420l389 -584h-317l-256 389l-133 -153v-236h-277z" />
<glyph unicode="&#x43b;" horiz-adv-x="1187" d="M0 0v256q12 -2 25 -4q23 -6 47 -6q39 0 68.5 16.5t51 65.5t33 142t11.5 247v287h819v-1004h-277v748h-266v-31q0 -219 -28.5 -363.5t-79 -229.5t-117 -120t-144.5 -35q-35 0 -61.5 5.5t-44.5 9.5q-20 8 -37 16z" />
<glyph unicode="&#x43c;" horiz-adv-x="1351" d="M133 0v1004h246l297 -379l297 379h246v-1004h-277v584l-266 -338l-266 338v-584h-277z" />
<glyph unicode="&#x43d;" horiz-adv-x="1198" d="M133 0v1004h277v-369h378v369h277v-1004h-277v379h-378v-379h-277z" />
<glyph unicode="&#x43e;" horiz-adv-x="1208" d="M72 502q0 109 41 203t113.5 165.5t170 112.5t207.5 41q111 0 208 -41t170 -112.5t114 -166t41 -202.5q0 -106 -41 -201.5t-114 -167.5t-170 -112.5t-208 -40.5t-208 40.5t-169.5 112.5t-113.5 167t-41 202zM348 502q0 -57 19.5 -106.5t54.5 -84.5t82 -55t100 -20 t100.5 20t82 55t54 84t19.5 107q0 57 -19.5 106t-54 84t-82 55.5t-100.5 20.5t-100 -20.5t-82 -55.5t-54.5 -84t-19.5 -106z" />
<glyph unicode="&#x43f;" horiz-adv-x="1198" d="M133 0v1004h932v-1004h-277v748h-378v-748h-277z" />
<glyph unicode="&#x440;" horiz-adv-x="1259" d="M133 -430v1434h277v-144h10q33 45 78 82q41 31 100 56.5t139 25.5q88 0 170 -38t144.5 -107.5t99.5 -166t37 -210.5q0 -115 -37 -211t-99.5 -165t-144.5 -107.5t-170 -38.5q-80 0 -139 25.5t-100 55.5q-45 37 -78 82h-10v-573h-277zM399 502q0 -55 18.5 -103.5t52.5 -84 t81 -57t104 -21.5q53 0 100.5 20t82 55t54 84t19.5 107q0 57 -19.5 106t-54 84t-81.5 55.5t-101 20.5q-57 0 -104 -21.5t-81 -57.5t-52.5 -84t-18.5 -103z" />
<glyph unicode="&#x441;" horiz-adv-x="1064" d="M72 502q0 109 41 203t113.5 165.5t170 112.5t207.5 41q109 0 186.5 -31.5t131.5 -70.5q61 -45 102 -103l-174 -174q-29 35 -66 62q-31 23 -75.5 42t-104.5 19q-53 0 -100 -20.5t-82 -55.5t-54.5 -84t-19.5 -106t19.5 -106.5t54.5 -84.5t82 -55t100 -20q59 0 104.5 19 t75.5 42q37 27 66 61l174 -174q-41 -57 -102 -102q-53 -39 -131 -70.5t-187 -31.5q-111 0 -208 40.5t-169.5 112.5t-113.5 167t-41 202z" />
<glyph unicode="&#x442;" horiz-adv-x="972" d="M31 748v256h911v-256h-317v-748h-277v748h-317z" />
<glyph unicode="&#x443;" d="M-10 1004h297l235 -666h10l226 666h297l-410 -1086q-63 -170 -156.5 -259t-232.5 -89q-39 0 -71.5 5t-59.5 9q-29 8 -53 17v256q14 -6 32 -11q35 -10 80 -10q70 0 111 35t63 88l21 51z" />
<glyph unicode="&#x444;" horiz-adv-x="1525" d="M72 492q0 109 39 200.5t110.5 160.5t174 111t229.5 50v420h276v-420q127 -8 229.5 -50t174 -111t110.5 -161t39 -200q0 -106 -39 -198.5t-110.5 -162.5t-174 -112t-229.5 -50v-399h-276v399q-127 8 -229.5 50t-174 112t-110.5 162.5t-39 198.5zM348 492q0 -117 77 -193 t200 -84v553q-123 -8 -200 -83.5t-77 -192.5zM901 215q123 8 200 84t77 193t-77 192.5t-200 83.5v-553z" />
<glyph unicode="&#x445;" d="M-10 0l358 512l-338 492h318l190 -308h8l191 308h317l-338 -492l359 -512h-318l-211 328h-8l-211 -328h-317z" />
<glyph unicode="&#x446;" horiz-adv-x="1218" d="M133 0v1004h277v-748h358v748h276v-748h134v-481h-277v225h-768z" />
<glyph unicode="&#x447;" horiz-adv-x="1136" d="M113 666v338h276v-318q0 -78 43 -121t121 -43q43 0 74.5 8.5t54.5 18.5q27 10 45 24v431h277v-1004h-277v328q-29 -16 -63 -31q-31 -10 -75 -20.5t-97 -10.5q-84 0 -154 28t-120 80t-77.5 125.5t-27.5 166.5z" />
<glyph unicode="&#x448;" horiz-adv-x="1638" d="M133 0v1004h277v-748h276v748h277v-748h276v748h277v-1004h-1383z" />
<glyph unicode="&#x449;" horiz-adv-x="1689" d="M133 0v1004h277v-748h276v748h277v-748h276v748h277v-748h133v-481h-277v225h-1239z" />
<glyph unicode="&#x44a;" horiz-adv-x="1126" d="M0 748v256h512v-308h184q84 0 154 -26.5t120 -73.5t77.5 -110.5t27.5 -137.5t-27.5 -137.5t-77.5 -110.5t-120 -73.5t-154 -26.5h-460v748h-236zM512 246h164q53 0 82.5 27.5t29.5 74.5t-29.5 75t-82.5 28h-164v-205z" />
<glyph unicode="&#x44b;" horiz-adv-x="1505" d="M133 0v1004h277v-308h184q84 0 153.5 -26.5t120 -73.5t78 -110.5t27.5 -137.5t-27.5 -137.5t-78 -110.5t-120 -73.5t-153.5 -26.5h-461zM410 246h163q53 0 83 27.5t30 74.5t-29.5 75t-83.5 28h-163v-205zM1096 0v1004h276v-1004h-276z" />
<glyph unicode="&#x44c;" d="M133 0v1004h277v-308h204q84 0 154 -26.5t120 -73.5t77.5 -110.5t27.5 -137.5t-27.5 -137.5t-77.5 -110.5t-120 -73.5t-154 -26.5h-481zM410 246h184q53 0 83 27.5t30 74.5t-30 75t-83 28h-184v-205z" />
<glyph unicode="&#x44d;" horiz-adv-x="1064" d="M41 184l164 164q29 -35 67 -61q33 -23 80 -42.5t109 -19.5q70 0 115 25.5t71 56.5q33 37 49 82h-379v225h379q-16 45 -49 82q-27 31 -72 56.5t-114 25.5q-61 0 -108.5 -19.5t-80.5 -41.5q-39 -27 -67 -62l-164 164q41 57 102 103q53 39 131 70.5t187 31.5q111 0 208 -41 t169.5 -112.5t113.5 -166t41 -202.5q0 -106 -41 -201.5t-113.5 -167.5t-170 -112.5t-207.5 -40.5q-109 0 -186.5 31.5t-131.5 70.5q-61 45 -102 102z" />
<glyph unicode="&#x44e;" horiz-adv-x="1658" d="M133 0v1004h277v-369h153q16 78 57.5 147.5t106 124t149.5 86t189 31.5q111 0 207 -40t165.5 -109.5t109.5 -166t40 -206.5q0 -111 -40 -207t-109.5 -166t-165.5 -109.5t-207 -39.5q-104 0 -189 31.5t-149.5 87t-105.5 128t-58 152.5h-153v-379h-277zM819 502 q0 -123 68.5 -194.5t177.5 -71.5t177.5 71.5t68.5 194.5t-68.5 194.5t-177.5 71.5t-177.5 -71.5t-68.5 -194.5z" />
<glyph unicode="&#x44f;" horiz-adv-x="1075" d="M41 0l215 358q-49 27 -86 68q-35 35 -61.5 88t-26.5 131q0 74 29.5 138.5t82 113.5t126 78t161.5 29h461v-1004h-276v297h-154l-164 -297h-307zM369 645q0 -47 35.5 -80t97.5 -33h164v226h-164q-61 0 -97 -33t-36 -80z" />
<glyph unicode="&#x451;" horiz-adv-x="1167" d="M72 502q0 109 41 203t112.5 165.5t166.5 112.5t202 41q104 0 195.5 -40t159 -107.5t107.5 -158.5t40 -196q0 -27 -1 -49t-3 -39q-4 -18 -7 -35h-727q23 -70 87.5 -122t179.5 -52q66 0 114.5 17.5t83.5 40.5q39 25 68 55l143 -195q-47 -45 -110 -82q-55 -31 -135 -56 t-185 -25q-111 0 -208 40.5t-169.5 112.5t-113.5 167t-41 202zM204 1290q0 61 46.5 107.5t107.5 46.5t107.5 -46t46.5 -108q0 -61 -46.5 -107t-107.5 -46t-107.5 46t-46.5 107zM358 604h451q-23 70 -81 122t-144 52t-144.5 -52t-81.5 -122zM655 1290q0 61 46 107.5t108 46.5 q61 0 107 -46t46 -108q0 -61 -46 -107t-107 -46t-107.5 46t-46.5 107z" />
<glyph unicode="&#x454;" horiz-adv-x="1064" d="M72 502q0 109 41 203t113.5 165.5t170 112.5t207.5 41q109 0 186.5 -31.5t131.5 -70.5q61 -45 102 -103l-164 -164q-29 35 -65 62q-35 23 -82 42t-109 19q-70 0 -115 -25.5t-71 -56.5q-33 -37 -49 -82h379v-225h-379q16 -45 49 -82q27 -31 72 -56.5t114 -25.5 q61 0 108.5 19.5t82.5 42.5q37 27 65 61l164 -164q-41 -57 -102 -102q-53 -39 -131 -70.5t-187 -31.5q-111 0 -208 40.5t-169.5 112.5t-113.5 167t-41 202z" />
<glyph unicode="&#x456;" horiz-adv-x="542" d="M113 1290q0 61 47 107.5t112 46.5q66 0 112 -46t46 -108q0 -61 -47 -107t-113 -46t-111.5 46t-45.5 107zM133 0v1004h277v-1004h-277z" />
<glyph unicode="&#x457;" horiz-adv-x="563" d="M-92 1290q0 61 46 107.5t107 46.5t107.5 -46t46.5 -108q0 -61 -46 -107t-108 -46q-61 0 -107 46t-46 107zM143 0v1004h277v-1004h-277zM358 1290q0 61 46.5 107.5t107.5 46.5t107.5 -46t46.5 -108q0 -61 -46.5 -107t-107.5 -46t-107.5 46t-46.5 107z" />
<glyph unicode="&#x45e;" d="M-10 1004h297l235 -666h10l226 666h297l-410 -1086q-63 -170 -156.5 -259t-232.5 -89q-39 0 -71.5 5t-59.5 9q-29 8 -53 17v256q14 -6 32 -11q35 -10 80 -10q70 0 111 35t63 88l21 51zM194 1444h205q0 -53 35 -88t88 -35t88 35t35 88h205q0 -66 -23.5 -122t-66.5 -97 t-103.5 -64.5t-134.5 -23.5t-134 23.5t-103 64.5t-67 97t-24 122z" />
<glyph unicode="&#x490;" horiz-adv-x="1198" d="M184 0v1434h666v266h307v-553h-665v-1147h-308z" />
<glyph unicode="&#x491;" horiz-adv-x="901" d="M133 0v1004h461v204h276v-460h-460v-748h-277z" />
<glyph unicode="&#x4c1;" horiz-adv-x="2088" d="M-20 0l573 840l-533 594h369l502 -564v564h307v-564l502 564h368l-532 -594l573 -840h-358l-420 614l-133 -143v-471h-307v471l-133 143l-420 -614h-358zM716 1925h205q0 -53 35 -88t88 -35t88 35t35 88h205q0 -70 -23.5 -128t-66.5 -100t-103.5 -66t-134.5 -24t-134 24 t-103 66t-67 100t-24 128z" />
<glyph unicode="&#x4c2;" horiz-adv-x="1607" d="M-10 0l389 584l-369 420h328l328 -379v379h276v-379l328 379h327l-368 -420l389 -584h-318l-256 389l-102 -113v-276h-276v276l-103 113l-256 -389h-317zM481 1444h205q0 -53 35 -88t88 -35t88 35t35 88h205q0 -66 -23.5 -122t-66.5 -97t-103.5 -64.5t-134.5 -23.5 t-134 23.5t-103 64.5t-67 97t-24 122z" />
<glyph unicode="&#x2000;" horiz-adv-x="962" />
<glyph unicode="&#x2001;" horiz-adv-x="1925" />
<glyph unicode="&#x2002;" horiz-adv-x="962" />
<glyph unicode="&#x2003;" horiz-adv-x="1925" />
<glyph unicode="&#x2004;" horiz-adv-x="641" />
<glyph unicode="&#x2005;" horiz-adv-x="481" />
<glyph unicode="&#x2006;" horiz-adv-x="320" />
<glyph unicode="&#x2007;" horiz-adv-x="320" />
<glyph unicode="&#x2008;" horiz-adv-x="240" />
<glyph unicode="&#x2009;" horiz-adv-x="385" />
<glyph unicode="&#x200a;" horiz-adv-x="106" />
<glyph unicode="&#x2010;" horiz-adv-x="890" d="M102 481v256h686v-256h-686z" />
<glyph unicode="&#x2011;" horiz-adv-x="890" d="M102 481v256h686v-256h-686z" />
<glyph unicode="&#x2012;" horiz-adv-x="890" d="M102 481v256h686v-256h-686z" />
<glyph unicode="&#x2013;" horiz-adv-x="1075" d="M82 481v236h911v-236h-911z" />
<glyph unicode="&#x2014;" horiz-adv-x="1566" d="M82 481v236h1403v-236h-1403z" />
<glyph unicode="&#x2018;" horiz-adv-x="532" d="M41 1034l287 441l164 -93l-216 -481z" />
<glyph unicode="&#x2019;" horiz-adv-x="532" d="M41 993l215 482l236 -134l-287 -440z" />
<glyph unicode="&#x201a;" horiz-adv-x="491" d="M-31 -174l215 481l236 -133l-287 -440z" />
<glyph unicode="&#x201c;" horiz-adv-x="942" d="M41 1034l287 441l164 -93l-216 -481zM451 1034l286 441l164 -93l-215 -481z" />
<glyph unicode="&#x201d;" horiz-adv-x="942" d="M41 993l215 482l236 -134l-287 -440zM451 993l215 482l235 -134l-287 -440z" />
<glyph unicode="&#x201e;" horiz-adv-x="901" d="M-31 -174l215 481l236 -133l-287 -440zM379 -174l215 481l235 -133l-286 -440z" />
<glyph unicode="&#x2022;" horiz-adv-x="1003" d="M246 522q0 53 19.5 100.5t54 82t82 54t100.5 19.5t100 -19.5t82 -54t54.5 -82t19.5 -100.5t-19.5 -100t-54.5 -82t-82 -54.5t-100 -19.5t-100.5 19.5t-82 54.5t-54 82t-19.5 100z" />
<glyph unicode="&#x2026;" horiz-adv-x="1597" d="M82 143q0 70 47 117t117 47t117 -47t47 -117t-47.5 -116.5t-116.5 -46.5q-70 0 -117 46.5t-47 116.5zM635 143q0 70 47 117t117 47t117 -47t47 -117t-47.5 -116.5t-116.5 -46.5q-70 0 -117 46.5t-47 116.5zM1188 143q0 70 47 117t117 47t117 -47t47 -117t-47.5 -116.5 t-116.5 -46.5q-70 0 -117 46.5t-47 116.5z" />
<glyph unicode="&#x202f;" horiz-adv-x="385" />
<glyph unicode="&#x2039;" horiz-adv-x="696" d="M72 492l256 368h297l-256 -368l256 -369h-297z" />
<glyph unicode="&#x203a;" horiz-adv-x="696" d="M72 123l256 369l-256 368h297l256 -368l-256 -369h-297z" />
<glyph unicode="&#x205f;" horiz-adv-x="481" />
<glyph unicode="&#x20ac;" horiz-adv-x="1495" d="M41 461v184h174q-2 10 -2 21q0 10 -1 22t-1 29q0 16 1 28.5t1 22.5q0 12 2 20h-174v185h215q51 137 141 246q39 47 89.5 91t115 77.5t144 55t176.5 21.5q143 0 243.5 -36.5t163.5 -79.5q76 -53 125 -119l-205 -205q-35 43 -82 78q-41 29 -99 52.5t-136 23.5 q-92 0 -155.5 -32t-104.5 -71q-49 -45 -78 -102h369v-185h-431q-2 -8 -2 -20q0 -10 -1 -22.5t-1 -28.5t1 -28.5t1 -22.5t2 -21h431v-184h-369q29 -57 78 -103q41 -39 104.5 -70.5t155.5 -31.5q78 0 136 24.5t99 53.5q47 33 82 76l205 -205q-49 -66 -125 -117 q-63 -45 -163.5 -82t-243.5 -37q-96 0 -176 21.5t-144.5 55.5t-115 79t-89.5 90q-90 109 -141 246h-215z" />
<glyph unicode="&#x2122;" horiz-adv-x="1423" d="M0 1260v174h553v-174h-184v-482h-185v482h-184zM625 778v656h163l195 -256l195 256h163v-656h-184v355l-174 -222l-174 222v-355h-184z" />
<glyph unicode="&#x25fc;" horiz-adv-x="1003" d="M0 0v1004h1004v-1004h-1004z" />
</font>
</defs>
</svg>
