<?xml version="1.0" standalone="no"?>
<!DOCTYPE svg PUBLIC "-//W3C//DTD SVG 1.1//EN" "http://www.w3.org/Graphics/SVG/1.1/DTD/svg11.dtd" >
<svg xmlns="http://www.w3.org/2000/svg" xmlns:xlink="http://www.w3.org/1999/xlink" version="1.1">
<metadata></metadata>
<defs>
<font id="webfontregular" horiz-adv-x="1064" >
<font-face units-per-em="2048" ascent="1638" descent="-410" />
<missing-glyph horiz-adv-x="430" />
<glyph horiz-adv-x="0" />
<glyph horiz-adv-x="0" />
<glyph unicode="&#xd;" horiz-adv-x="0" />
<glyph unicode=" "  horiz-adv-x="430" />
<glyph unicode="&#x09;" horiz-adv-x="430" />
<glyph unicode="&#xa0;" horiz-adv-x="430" />
<glyph unicode="!" horiz-adv-x="634" d="M184 113q0 53 40 93t93 40t93.5 -40t40.5 -93t-40 -93t-94 -40q-53 0 -93 40t-40 93zM195 1434h245l-41 -1045h-163z" />
<glyph unicode="&#x22;" horiz-adv-x="778" d="M123 973v461h184v-461h-184zM471 973v461h184v-461h-184z" />
<glyph unicode="#" horiz-adv-x="1474" d="M20 410l31 153h307l62 307h-297l31 154h297l81 410h175l-82 -410h348l82 410h174l-82 -410h307l-31 -154h-307l-61 -307h297l-31 -153h-297l-82 -410h-174l82 410h-348l-82 -410h-174l82 410h-308zM532 563h349l61 307h-348z" />
<glyph unicode="$" horiz-adv-x="1167" d="M61 195l154 153q29 -41 70 -71.5t89 -51t99 -31t100 -10.5t99.5 12.5t92.5 39t68.5 66.5t26.5 97q0 74 -49 115t-125 70q-47 16 -99 31.5t-106 31.5q-72 23 -139.5 51.5t-120.5 74.5t-86 113.5t-33 168.5q0 78 28 143.5t78 116.5t119.5 84t153.5 45v205h205v-199 q90 -14 155.5 -44t112.5 -60q51 -35 90 -76l-153 -154q-49 66 -133 99.5t-164 33.5q-45 0 -92 -10t-86 -33.5t-63.5 -60.5t-24.5 -90q0 -70 43 -110t110 -66q45 -18 97.5 -34t107.5 -32q74 -20 145.5 -49t128 -75t91 -115.5t34.5 -174.5q0 -80 -29.5 -149.5t-81.5 -123.5 t-126 -89t-162 -47v-205h-205v201q-109 14 -186.5 48t-130.5 68q-61 43 -103 93z" />
<glyph unicode="%" horiz-adv-x="1617" d="M82 1137q0 66 25.5 123t69.5 100t103.5 68.5t129.5 25.5t129 -25.5t103 -68.5t69.5 -100.5t25.5 -122.5q0 -66 -25.5 -123.5t-69.5 -100.5t-103 -68.5t-129 -25.5t-129.5 25.5t-103.5 68.5t-69.5 100.5t-25.5 123.5zM246 1137q0 -70 47 -117t117 -47t116.5 47t46.5 117 t-47 116.5t-116 46.5q-70 0 -117 -47t-47 -116zM266 0l901 1434h185l-901 -1434h-185zM881 297q0 66 25.5 123t69.5 100t103.5 68.5t128.5 25.5q70 0 129.5 -25.5t103.5 -68.5t69.5 -100.5t25.5 -122.5q0 -66 -25.5 -123t-69.5 -100t-103.5 -68.5t-129.5 -25.5t-129 25.5 t-103 68.5t-69.5 100t-25.5 123zM1044 297q0 -70 47 -117t117 -47t117 47t47 117t-47 117t-117 47t-117 -47t-47 -117z" />
<glyph unicode="&#x26;" horiz-adv-x="1269" d="M102 338q0 104 43 181t97 128q59 59 137 101q-57 57 -103 120q-39 53 -70.5 121t-31.5 137q0 70 25.5 129.5t72.5 103.5t114 69.5t146 25.5q78 0 141.5 -25.5t109.5 -68.5t72 -100.5t26 -122.5q0 -86 -40 -156t-87 -123q-57 -61 -129 -110l276 -338q23 37 41 82 q16 39 28.5 91t12.5 113h184q0 -92 -20.5 -172t-44.5 -139q-31 -72 -68 -129q20 -27 47 -45q20 -18 48 -32.5t59 -14.5q25 0 43 6q10 2 18 4v-184l-18 -6q-10 -2 -27.5 -3t-46.5 -1q-57 0 -102 22.5t-78 48.5q-37 31 -66 72q-45 -43 -102 -76q-51 -29 -123 -53.5t-164 -24.5 q-96 0 -174 29t-132 79t-84 117.5t-30 143.5zM307 348q0 -39 16.5 -73.5t46 -61.5t71.5 -43t91 -16q61 0 108.5 16t82.5 35q37 23 65 51l-296 369q-51 -35 -93 -76q-35 -37 -63.5 -88t-28.5 -113zM369 1126q0 -41 24.5 -87t52.5 -83q33 -45 76 -86q45 41 82 86 q31 37 56.5 83t25.5 87q0 61 -42 102.5t-112 41.5q-78 0 -120.5 -41t-42.5 -103z" />
<glyph unicode="'" horiz-adv-x="430" d="M123 973v461h184v-461h-184z" />
<glyph unicode="(" horiz-adv-x="665" d="M123 512q0 111 15.5 212t41 190.5t57 166t64.5 140.5q78 150 178 264l156 -103q-86 -109 -154 -243q-57 -117 -105 -275.5t-48 -351.5t48 -351.5t105 -275.5q68 -135 154 -243l-156 -103q-100 115 -178 264q-33 63 -64.5 140t-57 166.5t-41 190.5t-15.5 212z" />
<glyph unicode=")" horiz-adv-x="665" d="M31 -358q86 109 153 243q59 117 106.5 275.5t47.5 351.5t-47 351.5t-107 275.5q-68 135 -153 243l155 103q100 -115 179 -264q68 -127 123 -306.5t55 -402.5t-55.5 -402.5t-122.5 -306.5q-78 -150 -179 -264z" />
<glyph unicode="*" horiz-adv-x="819" d="M61 1116l52 154l235 -92l-20 256h164l-21 -256l236 92l51 -154l-246 -61l164 -205l-123 -102l-143 225l-144 -225l-123 102l164 205z" />
<glyph unicode="+" horiz-adv-x="1054" d="M72 512v184h368v369h174v-369h369v-184h-369v-369h-174v369h-368z" />
<glyph unicode="," horiz-adv-x="450" d="M-20 -195l204 441l185 -103l-256 -409z" />
<glyph unicode="-" horiz-adv-x="839" d="M92 512v184h656v-184h-656z" />
<glyph unicode="." horiz-adv-x="450" d="M92 113q0 53 40 93t93 40t93 -40t40 -93t-39.5 -93t-93.5 -40q-53 0 -93 40t-40 93z" />
<glyph unicode="/" horiz-adv-x="798" d="M0 -430l614 1884h185l-615 -1884h-184z" />
<glyph unicode="0" horiz-adv-x="1413" d="M113 717q0 176 47 313t127 231.5t188.5 143.5t231.5 49t231.5 -49t188 -143.5t126.5 -231.5t47 -313t-47 -313.5t-126.5 -231.5t-188 -143t-231.5 -49t-231.5 49t-188.5 143t-127 231.5t-47 313.5zM338 717q0 -135 30.5 -234.5t81 -166t117 -99.5t140.5 -33t140 33 t116.5 99.5t81 166t30.5 234.5t-30.5 234.5t-81 166t-117 99t-139.5 32.5q-74 0 -140.5 -32.5t-117 -99t-81 -166t-30.5 -234.5z" />
<glyph unicode="1" horiz-adv-x="757" d="M72 1096v143q70 8 119 24.5t84.5 42t60 57.5t43.5 71h174v-1434h-225v1096h-256z" />
<glyph unicode="2" horiz-adv-x="1146" d="M72 0q0 162 54 275.5t136 196.5t178.5 145.5t178 122t136 123t54.5 151.5q0 100 -66.5 162.5t-189.5 62.5q-80 0 -133 -30.5t-86 -65.5q-37 -43 -58 -99l-184 82q29 92 88 164q51 61 141.5 112.5t231.5 51.5q109 0 197 -34t151.5 -94t98 -140t34.5 -172q0 -104 -40 -182 t-103.5 -140.5t-143 -115t-156.5 -106.5t-144.5 -114.5t-108.5 -140.5h696v-215h-962z" />
<glyph unicode="3" horiz-adv-x="1157" d="M41 195l154 153q35 -45 86 -82q43 -31 108.5 -56.5t153.5 -25.5q139 0 212.5 67.5t73.5 168.5q0 92 -73.5 158.5t-212.5 66.5h-154v215h154q117 0 176 54.5t59 140.5t-59.5 140t-175.5 54q-72 0 -129.5 -21.5t-98.5 -49.5q-45 -31 -79 -72l-154 154q51 55 119 98 q59 35 145 65.5t197 30.5q109 0 193.5 -30.5t144 -82t91.5 -120t32 -146.5q0 -88 -33 -147.5t-72 -98.5q-47 -43 -106 -69v-4q74 -27 131 -74q49 -41 90 -106.5t41 -165.5q0 -88 -36 -167t-101.5 -137.5t-160.5 -92t-214 -33.5q-127 0 -221.5 33.5t-155.5 74.5 q-74 47 -125 107z" />
<glyph unicode="4" horiz-adv-x="1208" d="M61 287v245l656 902h266v-942h184v-205h-184v-287h-225v287h-697zM276 492h482v665z" />
<glyph unicode="5" horiz-adv-x="1208" d="M82 195l154 153q35 -45 86 -82q43 -31 108.5 -56.5t153.5 -25.5q139 0 218 77t79 200t-79 199.5t-218 76.5q-66 0 -115 -21.5t-84 -49.5q-39 -31 -68 -72l-163 20l51 820h809v-215h-615l-20 -349q29 20 65 37q33 12 78 23.5t103 11.5q104 0 192 -36t152.5 -100.5 t100.5 -152.5t36 -192t-37 -192.5t-105.5 -153t-165 -100t-214.5 -35.5q-127 0 -221.5 33.5t-155.5 74.5q-74 47 -125 107z" />
<glyph unicode="6" horiz-adv-x="1208" d="M92 461q0 61 16.5 118.5t34.5 102.5q23 51 52 96l419 656h246l-328 -502q10 2 23 6q12 2 29.5 3t40.5 1q104 0 193 -38t155.5 -103.5t104.5 -152.5t38 -187t-38 -187.5t-106.5 -153t-162.5 -103t-205 -37.5t-205 37.5t-162.5 103t-106.5 152.5t-38 188zM317 461 q0 -57 21.5 -107.5t60.5 -88.5t91.5 -59.5t113.5 -21.5t113.5 21.5t91.5 59.5t60.5 88t21.5 108q0 57 -21.5 107t-60.5 88t-91 59.5t-114 21.5q-61 0 -113.5 -21.5t-91.5 -59.5t-60.5 -88t-21.5 -107z" />
<glyph unicode="7" d="M61 1219v215h943v-205l-594 -1229h-246l594 1219h-697z" />
<glyph unicode="8" horiz-adv-x="1228" d="M102 410q0 100 38 167.5t83 108.5q53 49 121 80v4q-51 27 -90 70q-35 37 -62.5 94t-27.5 141q0 78 31.5 146.5t90 120t141.5 82t187 30.5t187.5 -30.5t141.5 -82t90 -120t32 -146.5q0 -84 -27.5 -141t-62.5 -94q-39 -43 -90 -70v-4q68 -31 121 -80q47 -41 83.5 -108.5 t36.5 -167.5q0 -88 -35.5 -167t-101 -137.5t-161 -92t-214.5 -33.5t-214 33.5t-160.5 92t-101.5 137.5t-36 167zM328 420q0 -100 73.5 -168t212.5 -68t213 67.5t74 168.5q0 100 -74 167.5t-213 67.5t-212.5 -67.5t-73.5 -167.5zM389 1055q0 -86 58.5 -140.5t166.5 -54.5 q109 0 167.5 54.5t58.5 140.5t-58.5 140t-167.5 54t-167 -54t-58 -140z" />
<glyph unicode="9" horiz-adv-x="1208" d="M92 973q0 100 38 187t106.5 152.5t163 103.5t204.5 38q111 0 205 -38t162.5 -103.5t106.5 -152.5t38 -187q0 -61 -15.5 -118.5t-35.5 -100.5q-23 -53 -51 -99l-420 -655h-246l328 502q-10 -2 -23 -4q-25 -6 -69 -6q-104 0 -193.5 37.5t-156 103t-104.5 152.5t-38 188z M317 973q0 -57 21.5 -107.5t60.5 -88.5t91.5 -59.5t113.5 -21.5t113.5 21.5t91.5 59.5t60.5 88t21.5 108q0 57 -21.5 107t-60.5 88t-91 59.5t-114 21.5q-61 0 -113.5 -21.5t-91.5 -59.5t-60.5 -88t-21.5 -107z" />
<glyph unicode=":" horiz-adv-x="450" d="M92 113q0 53 40 93t93 40t93 -40t40 -93t-39.5 -93t-93.5 -40q-53 0 -93 40t-40 93zM92 870q0 53 40 93.5t93 40.5t93 -40t40 -94q0 -53 -39.5 -93t-93.5 -40q-53 0 -93 40t-40 93z" />
<glyph unicode=";" horiz-adv-x="460" d="M-20 -195l204 441l185 -103l-256 -409zM113 870q0 53 40 93.5t93 40.5t93 -40t40 -94q0 -53 -40 -93t-93 -40t-93 40t-40 93z" />
<glyph unicode="&#x3c;" horiz-adv-x="1024" d="M82 440v123l860 441v-205l-580 -295v-4l580 -295v-205z" />
<glyph unicode="=" horiz-adv-x="1003" d="M82 317v185h840v-185h-840zM82 707v184h840v-184h-840z" />
<glyph unicode="&#x3e;" horiz-adv-x="1024" d="M82 0v205l580 295v4l-580 295v205l860 -441v-123z" />
<glyph unicode="?" horiz-adv-x="1095" d="M61 1116q29 94 91 170q27 31 63.5 61.5t84.5 54t108.5 38t134.5 14.5q109 0 195.5 -31.5t148 -86t94.5 -124t33 -147.5q0 -96 -30 -162.5t-74 -117t-96 -88.5t-96 -80t-74 -93t-30 -125v-10h-204q-2 12 -4 27q-6 25 -7 65q0 74 29 128.5t72 96.5t94 76.5t94 72.5t71.5 83 t28.5 106q0 86 -64.5 145.5t-180.5 59.5q-88 0 -145.5 -31.5t-92.5 -70.5q-39 -45 -59 -103zM379 113q0 53 40 93t93 40t93 -40t40 -93t-40 -93t-93 -40t-93 40t-40 93z" />
<glyph unicode="@" horiz-adv-x="1812" d="M123 512q0 166 61.5 309.5t168 250t249.5 167.5t309 61q172 0 317.5 -57t250 -158.5t163 -237.5t58.5 -294q0 -106 -25.5 -187t-69.5 -135.5t-103.5 -81t-129.5 -26.5q-66 0 -112 21.5t-74 50.5q-35 31 -58 69h-4q-23 -39 -57 -69q-31 -29 -79 -50.5t-118 -21.5 t-132 28.5t-110 80t-77 121t-29 149.5t29 149.5t77 120.5t110.5 80t131.5 29q59 0 101.5 -16.5t68.5 -37.5q31 -23 52 -53h4v96h164v-471q0 -53 32.5 -88t79.5 -35q61 0 112.5 66t51.5 211q0 127 -46 235.5t-128 188.5t-196.5 125t-254.5 45q-131 0 -244.5 -49t-197.5 -134 t-133 -201t-49 -251t49 -251t133 -201t197.5 -134t244.5 -49q98 0 168 20.5t117 45.5q55 31 94 67l92 -112q-47 -49 -116 -88q-59 -33 -146.5 -59.5t-208.5 -26.5q-166 0 -309 61t-249.5 167.5t-168 250t-61.5 309.5zM686 502q0 -100 59.5 -163t145.5 -63t145.5 62.5 t59.5 163.5q0 100 -59.5 162.5t-145.5 62.5t-145.5 -62.5t-59.5 -162.5z" />
<glyph unicode="A" horiz-adv-x="1433" d="M20 0l574 1434h246l573 -1434h-235l-144 369h-635l-143 -369h-236zM481 573h471l-233 590h-4z" />
<glyph unicode="B" horiz-adv-x="1392" d="M205 0v1434h573q96 0 175 -31t136.5 -82t88 -119.5t30.5 -146.5q0 -80 -26.5 -134.5t-57.5 -86.5q-39 -41 -86 -64v-4q68 -29 121 -78q47 -41 84 -106.5t37 -161.5q0 -84 -35 -161t-97.5 -134t-148.5 -91t-190 -34h-604zM430 195h379q109 0 177.5 67.5t68.5 167.5 t-68.5 168t-177.5 68h-379v-471zM430 850h348q92 0 148.5 54t56.5 140t-56.5 140.5t-148.5 54.5h-348v-389z" />
<glyph unicode="C" horiz-adv-x="1525" d="M113 717q0 154 58 288t159.5 234t240 157.5t299.5 57.5q147 0 256 -43t183 -94q86 -61 145 -139l-143 -144q-45 59 -109 109q-55 41 -137 73.5t-195 32.5q-111 0 -208 -41t-169.5 -113.5t-113.5 -170t-41 -207.5q0 -111 41 -208t113.5 -170t170 -114t207.5 -41 q113 0 197 36t139 77q68 49 115 113l143 -144q-63 -80 -151 -143q-74 -53 -184.5 -98t-258.5 -45q-162 0 -300 57t-239.5 157.5t-159.5 234.5t-58 288z" />
<glyph unicode="D" horiz-adv-x="1546" d="M205 0v1434h481q158 0 294 -57.5t237.5 -156t159 -228.5t57.5 -275t-57.5 -275.5t-159 -228.5t-237.5 -155.5t-294 -57.5h-481zM430 205h256q111 0 207 40t165.5 108.5t109.5 162.5t40 201q0 109 -40 202t-109.5 161.5t-165.5 108.5t-207 40h-256v-1024z" />
<glyph unicode="E" horiz-adv-x="1331" d="M205 0v1434h1014v-215h-789v-369h625v-215h-625v-420h809v-215h-1034z" />
<glyph unicode="F" horiz-adv-x="1280" d="M205 0v1434h1003v-215h-778v-410h614v-215h-614v-594h-225z" />
<glyph unicode="G" horiz-adv-x="1648" d="M113 717q0 154 58 288t159.5 234t240 157.5t299.5 57.5q147 0 256 -43t183 -94q86 -61 145 -139l-143 -144q-45 59 -109 109q-55 41 -137 73.5t-195 32.5q-111 0 -208 -41t-169.5 -113.5t-113.5 -170t-41 -207.5q0 -111 41 -208t113.5 -170t170 -114t207.5 -41 q98 0 170 24.5t121 53.5q57 33 99 76v215h-297v205h522v-502q-66 -78 -158 -137q-78 -53 -191.5 -96t-265.5 -43q-162 0 -300 57t-239.5 157.5t-159.5 234.5t-58 288z" />
<glyph unicode="H" horiz-adv-x="1566" d="M205 0v1434h225v-605h707v605h225v-1434h-225v625h-707v-625h-225z" />
<glyph unicode="I" horiz-adv-x="634" d="M205 0v1434h225v-1434h-225z" />
<glyph unicode="J" horiz-adv-x="1024" d="M0 143l143 144q25 -29 60 -51q31 -18 75 -35t101 -17q109 0 172 66.5t63 189.5v994h226v-994q0 -104 -33 -189t-93.5 -145.5t-145.5 -93t-189 -32.5q-96 0 -167 25.5t-118 55.5q-55 37 -94 82z" />
<glyph unicode="K" horiz-adv-x="1402" d="M205 0v1434h225v-697l645 697h287l-553 -594l594 -840h-277l-471 676l-225 -246v-430h-225z" />
<glyph unicode="L" horiz-adv-x="1167" d="M205 0v1434h225v-1219h696v-215h-921z" />
<glyph unicode="M" horiz-adv-x="1904" d="M205 0v1434h205l542 -697l543 697h205v-1434h-225v1055l-523 -666l-522 666v-1055h-225z" />
<glyph unicode="N" horiz-adv-x="1628" d="M205 0v1434h205l788 -1055v1055h225v-1434h-204l-789 1055v-1055h-225z" />
<glyph unicode="O" horiz-adv-x="1740" d="M113 717q0 154 58 288t159.5 234t240 157.5t299.5 57.5q162 0 300.5 -57.5t239.5 -157.5t159.5 -234.5t58.5 -287.5q0 -154 -58.5 -288t-159.5 -234.5t-239.5 -157.5t-300.5 -57t-300 57t-239.5 157.5t-159.5 234.5t-58 288zM338 717q0 -111 41 -208t113.5 -170 t169.5 -114t208 -41t208.5 41t170 114t113.5 170t41 208t-41 208t-113.5 169.5t-170 113.5t-208.5 41t-208 -41t-169.5 -113.5t-113.5 -170t-41 -207.5z" />
<glyph unicode="P" horiz-adv-x="1351" d="M205 0v1434h573q104 0 192.5 -36t153 -98.5t100.5 -146.5t36 -180t-36 -180t-100.5 -146.5t-152.5 -98.5t-193 -36h-348v-512h-225zM430 717h348q53 0 100.5 19.5t82 54t54 82t19.5 100.5t-19.5 100t-54 82t-82 54.5t-100.5 19.5h-348v-512z" />
<glyph unicode="Q" horiz-adv-x="1740" d="M113 717q0 154 58 288t159.5 234t240 157.5t299.5 57.5q162 0 300.5 -57.5t239.5 -157.5t159.5 -234.5t58.5 -287.5q0 -90 -17.5 -166t-46 -138.5t-65.5 -113.5t-76 -90q-90 -92 -204 -148q35 -51 88 -92q43 -35 110.5 -63.5t159.5 -28.5q20 0 36.5 1t28.5 3q14 4 27 6 v-194q-12 -2 -29 -6q-12 -2 -31.5 -3t-41.5 -1q-147 0 -253 47t-175 106q-80 68 -135 154q-20 -2 -43 -6q-20 -2 -44 -3t-47 -1q-162 0 -300 57t-239.5 157.5t-159.5 234.5t-58 288zM338 717q0 -111 41 -208t113.5 -170t169.5 -114t208 -41t208.5 41t170 114t113.5 170 t41 208t-41 208t-113.5 169.5t-170 113.5t-208.5 41t-208 -41t-169.5 -113.5t-113.5 -170t-41 -207.5z" />
<glyph unicode="R" horiz-adv-x="1413" d="M205 0v1434h594q104 0 190 -35t148.5 -95.5t97.5 -142.5t35 -178q0 -119 -42 -197.5t-95 -126.5q-59 -55 -138 -86l326 -573h-256l-297 532h-338v-532h-225zM430 737h369q109 0 177 68.5t68 177.5t-68.5 177.5t-176.5 68.5h-369v-492z" />
<glyph unicode="S" horiz-adv-x="1167" d="M61 195l154 153q35 -45 88 -82q43 -31 110.5 -56.5t159.5 -25.5q70 0 123.5 17.5t90 47.5t55 68.5t18.5 81.5q0 59 -32.5 97.5t-86 65t-121 45t-139 40t-139.5 51t-121 75.5t-86 113.5t-33 168.5q0 80 34 152.5t97.5 128t154.5 87t206 31.5q113 0 196.5 -28.5 t139.5 -63.5q68 -41 114 -92l-153 -154q-31 37 -76 68q-37 25 -92 45t-129 20q-131 0 -198.5 -58t-67.5 -136q0 -59 32.5 -97t86 -65t121 -45.5t139 -40t139 -51t121 -75.5t86 -113.5t32.5 -168.5q0 -84 -35.5 -160.5t-101 -134t-161 -91t-214.5 -33.5q-131 0 -226 33.5 t-161 74.5q-74 47 -125 107z" />
<glyph unicode="T" horiz-adv-x="1167" d="M41 1219v215h1085v-215h-430v-1219h-225v1219h-430z" />
<glyph unicode="U" horiz-adv-x="1576" d="M184 573v861h226v-861q0 -84 28.5 -155.5t79.5 -123.5t121 -81t149 -29q78 0 147 31t120 83t81.5 124t30.5 151v861h226v-861q0 -131 -44 -239.5t-124 -187t-190.5 -122.5t-246.5 -44q-135 0 -245.5 44t-190.5 122.5t-124 187t-44 239.5z" />
<glyph unicode="V" horiz-adv-x="1413" d="M31 1434h235l439 -1143h4l438 1143h235l-553 -1434h-245z" />
<glyph unicode="W" horiz-adv-x="2150" d="M41 1434h235l347 -1072h4l336 1072h225l336 -1072h4l346 1072h235l-471 -1434h-225l-336 1071h-4l-336 -1071h-225z" />
<glyph unicode="X" horiz-adv-x="1351" d="M20 0l512 748l-471 686h267l346 -519h4l346 519h266l-471 -686l512 -748h-266l-387 580h-4l-387 -580h-267z" />
<glyph unicode="Y" horiz-adv-x="1331" d="M10 1434h256l393 -686h13l393 686h256l-543 -922v-512h-225v512z" />
<glyph unicode="Z" horiz-adv-x="1269" d="M92 0v215l799 1004h-768v215h1034v-215l-799 -1004h820v-215h-1086z" />
<glyph unicode="[" horiz-adv-x="686" d="M164 -430v1884h471v-194h-266v-1496h266v-194h-471z" />
<glyph unicode="\" horiz-adv-x="798" d="M0 1454h184l615 -1884h-185z" />
<glyph unicode="]" horiz-adv-x="686" d="M51 -236h266v1496h-266v194h471v-1884h-471v194z" />
<glyph unicode="^" horiz-adv-x="839" d="M72 840l276 594h144l276 -594h-184l-162 364h-4l-162 -364h-184z" />
<glyph unicode="_" horiz-adv-x="696" d="M-20 -195h737v-184h-737v184z" />
<glyph unicode="`" horiz-adv-x="491" d="M61 1434h215l154 -287h-154z" />
<glyph unicode="a" d="M72 266q0 123 77.5 204t208.5 103l359 62v4q0 74 -56.5 127t-148.5 53q-57 0 -104.5 -20.5t-81.5 -44.5q-39 -31 -70 -68l-133 133q41 51 98 92q49 35 122 64t169 29q92 0 168 -29t129 -80t83 -120.5t30 -149.5v-625h-205v139h-2q-33 -45 -78 -80q-41 -29 -99.5 -54 t-138.5 -25q-74 0 -134 23.5t-103 62t-66.5 91t-23.5 109.5zM276 287q0 -53 43 -93t121 -40q57 0 107.5 21.5t88.5 60t59.5 91t21.5 113.5v31l-287 -51q-78 -14 -116 -50t-38 -83z" />
<glyph unicode="b" horiz-adv-x="1239" d="M154 0v1434h204v-590h2q33 45 82 80q41 31 104.5 55.5t149.5 24.5q92 0 176 -38t146.5 -106.5t100.5 -163t38 -204.5q0 -111 -38 -205t-100.5 -163t-146.5 -106.5t-176 -37.5q-86 0 -149.5 25.5t-104.5 53.5q-49 35 -82 80h-2v-139h-204zM358 492q0 -70 24 -128.5 t63.5 -100.5t94 -65.5t115.5 -23.5t115.5 23.5t94.5 65.5t63.5 100.5t23.5 128.5t-23.5 128t-63.5 100t-94 65.5t-116 23.5q-61 0 -115.5 -23.5t-94 -65.5t-63.5 -100t-24 -128z" />
<glyph unicode="c" d="M82 492q0 109 40 201.5t108.5 161.5t162.5 109t201 40q104 0 181 -31t128 -66q59 -43 101 -98l-144 -133q-29 37 -67 67q-35 25 -84.5 45.5t-114.5 20.5q-66 0 -122 -23.5t-97 -65.5t-64.5 -100.5t-23.5 -127.5q0 -70 23.5 -128.5t64.5 -100.5t97 -65.5t122 -23.5 t117 22.5t86 49.5q43 31 73 71l144 -133q-45 -57 -107 -102q-53 -39 -131 -70.5t-182 -31.5q-106 0 -200.5 39.5t-163 108.5t-108.5 163t-40 201z" />
<glyph unicode="d" horiz-adv-x="1239" d="M82 492q0 111 38 205t100.5 162.5t146.5 106.5t176 38q88 0 150.5 -25t103.5 -55q49 -35 82 -80h2v590h204v-1434h-204v139h-2q-33 -45 -82 -80q-41 -29 -103.5 -54t-150.5 -25q-92 0 -176 37.5t-146.5 106.5t-100.5 163t-38 205zM287 492q0 -70 23.5 -128.5t63.5 -100.5 t94 -65.5t116 -23.5q61 0 115.5 23.5t94.5 65.5t63.5 100.5t23.5 128.5t-23.5 128t-63.5 100t-94.5 65.5t-115.5 23.5t-115.5 -23.5t-94.5 -65.5t-63.5 -100t-23.5 -128z" />
<glyph unicode="e" horiz-adv-x="1146" d="M82 492q0 109 40 201.5t107.5 161.5t158.5 109t196 40q104 0 192 -36t152.5 -100.5t100.5 -152.5t36 -193q0 -23 -1 -41t-3 -32q-4 -16 -6 -29h-758q8 -49 33.5 -94t65.5 -79t93.5 -53.5t114.5 -19.5q66 0 119 20.5t90 47.5q43 29 78 65l123 -143q-41 -51 -103 -92 q-53 -35 -131 -63.5t-186 -28.5q-106 0 -200.5 39.5t-163 108.5t-108.5 163t-40 201zM297 594h553q-23 100 -90.5 162.5t-175.5 62.5q-117 0 -186.5 -62.5t-100.5 -162.5z" />
<glyph unicode="f" horiz-adv-x="716" d="M61 788v195h154v143q0 162 80 245t227 83q35 0 62.5 -5t48.5 -9q25 -8 43 -17v-194q-14 8 -33 16q-16 4 -36.5 9.5t-43.5 5.5q-143 0 -143 -154v-123h235v-195h-235v-788h-205v788h-154z" />
<glyph unicode="g" horiz-adv-x="1187" d="M82 512q0 109 36 199t96 154.5t140 101.5t168 37q80 0 138.5 -23t99.5 -51q45 -35 78 -76h2v129h204v-901q0 -111 -37.5 -205t-106.5 -162.5t-163 -106.5t-205 -38q-104 0 -182 31.5t-131 70.5q-61 45 -106 103l143 133q31 -41 74 -72q35 -29 86 -50.5t116 -21.5 q139 0 223.5 85t84.5 233v88h-2q-33 -41 -78 -74q-41 -29 -99.5 -52.5t-138.5 -23.5q-88 0 -168 37t-140 101.5t-96 156t-36 197.5zM287 512q0 -66 21.5 -120t59.5 -94t88 -61.5t107 -21.5t107.5 21.5t88.5 61.5t59.5 94t21.5 120t-21.5 120t-59.5 94t-88.5 61.5 t-107.5 21.5t-107 -21.5t-88 -61.5t-59.5 -94t-21.5 -120z" />
<glyph unicode="h" horiz-adv-x="1198" d="M154 0v1434h204v-590h2q33 45 78 80q39 31 95.5 55.5t132.5 24.5q84 0 155.5 -30t123.5 -85t81 -135t29 -181v-573h-205v573q0 109 -62.5 172.5t-162.5 63.5q-57 0 -106.5 -20.5t-84.5 -56.5t-55.5 -87t-20.5 -113v-532h-204z" />
<glyph unicode="i" horiz-adv-x="512" d="M133 1290q0 53 38 88t85 35t85 -35t38 -88t-38 -88t-85 -35t-85 35t-38 88zM154 0v983h204v-983h-204z" />
<glyph unicode="j" horiz-adv-x="512" d="M-102 -205q14 -8 32 -16q16 -4 37 -9.5t43 -5.5q143 0 144 154v1065h204v-1085q0 -162 -79.5 -245t-227.5 -83q-35 0 -62.5 5t-47.5 9q-25 8 -43 17v194zM133 1290q0 53 38 88t85 35t85 -35t38 -88t-38 -88t-85 -35t-85 35t-38 88z" />
<glyph unicode="k" d="M154 0v1434h204v-902l420 451h256l-379 -399l410 -584h-236l-307 440l-164 -174v-266h-204z" />
<glyph unicode="l" horiz-adv-x="512" d="M154 0v1434h204v-1434h-204z" />
<glyph unicode="m" horiz-adv-x="1781" d="M143 0v983h205v-139h2q27 45 66 80q35 31 89 55.5t130 24.5q80 0 137 -26t96 -54q43 -37 72 -82h4q29 45 76 82q41 29 104.5 54.5t155.5 25.5q74 0 138.5 -30t113.5 -84t77.5 -132t28.5 -174v-584h-204v584q0 109 -59.5 167t-145.5 58q-100 0 -168 -71.5t-68 -194.5v-543 h-205v584q0 109 -59 167t-145 58q-100 0 -168 -71.5t-68 -194.5v-543h-205z" />
<glyph unicode="n" horiz-adv-x="1187" d="M143 0v983h205v-139h2q33 45 78 80q39 31 95.5 55.5t131.5 24.5q84 0 156 -30t124 -85t80.5 -135t28.5 -181v-573h-204v573q0 109 -62.5 172.5t-163.5 63.5q-57 0 -106 -20.5t-84 -56.5t-55.5 -87t-20.5 -113v-532h-205z" />
<glyph unicode="o" horiz-adv-x="1187" d="M82 492q0 109 40 201.5t108.5 161.5t162.5 109t201 40q109 0 202 -40t161.5 -109t108.5 -162t40 -201q0 -106 -40 -200.5t-108.5 -163.5t-161.5 -108.5t-202 -39.5q-106 0 -200.5 39.5t-163 108.5t-108.5 163t-40 201zM287 492q0 -70 23.5 -128.5t64.5 -100.5t97 -65.5 t122 -23.5t122 23.5t97 65.5t64.5 100.5t23.5 128.5t-23.5 128t-64.5 100t-97.5 65.5t-121.5 23.5q-66 0 -122 -23.5t-97 -65.5t-64.5 -100.5t-23.5 -127.5z" />
<glyph unicode="p" horiz-adv-x="1228" d="M143 -430v1413h205v-139h2q33 45 82 80q41 31 104.5 55.5t149.5 24.5q92 0 176 -38t146.5 -106.5t100.5 -163t38 -204.5q0 -111 -38 -205t-100.5 -163t-146.5 -106.5t-176 -37.5q-86 0 -149.5 25.5t-104.5 53.5q-49 35 -82 80h-2v-569h-205zM348 492q0 -70 23.5 -128.5 t63.5 -100.5t94.5 -65.5t115.5 -23.5t115.5 23.5t94.5 65.5t63.5 100.5t23.5 128.5t-23.5 128t-63.5 100t-94 65.5t-116 23.5q-61 0 -115.5 -23.5t-94.5 -65.5t-63.5 -100t-23.5 -128z" />
<glyph unicode="q" horiz-adv-x="1228" d="M82 492q0 111 38 205t100.5 162.5t146.5 106.5t176 38q88 0 150.5 -25t103.5 -55q49 -35 82 -80h2v139h204v-1413h-204v569h-2q-33 -45 -82 -80q-41 -29 -103.5 -54t-150.5 -25q-92 0 -176 37.5t-146.5 106.5t-100.5 163t-38 205zM287 492q0 -70 23.5 -128.5t63.5 -100.5 t94 -65.5t116 -23.5q61 0 115.5 23.5t94.5 65.5t63.5 100.5t23.5 128.5t-23.5 128t-63.5 100t-94.5 65.5t-115.5 23.5t-115.5 -23.5t-94.5 -65.5t-63.5 -100t-23.5 -128z" />
<glyph unicode="r" horiz-adv-x="737" d="M143 0v983h205v-129h4q31 41 74 76q37 29 92 51.5t127 22.5h51v-216q-12 2 -24 7q-12 2 -26.5 3t-31.5 1q-53 0 -101 -21.5t-85 -61.5t-58.5 -94.5t-21.5 -119.5v-502h-205z" />
<glyph unicode="s" horiz-adv-x="890" d="M51 164l133 133q31 -37 70 -66q35 -27 82 -47t104 -20q86 0 130 38t44 85q0 41 -38.5 64.5t-96 42t-126 39t-126 54t-96.5 89t-39 141.5q0 57 24.5 109.5t70.5 91t113 62.5t151 24q90 0 154.5 -20.5t107.5 -45.5q51 -31 86 -68l-133 -133q-25 23 -58 41 q-29 16 -67.5 28.5t-89.5 12.5q-78 0 -116 -31.5t-38 -70.5q0 -41 39 -64.5t96 -42t126 -39t126 -54.5t96 -88t39 -142q0 -61 -25.5 -116.5t-74.5 -98.5t-120 -67.5t-159 -24.5q-96 0 -168.5 28.5t-121.5 63.5q-57 41 -99 92z" />
<glyph unicode="t" horiz-adv-x="808" d="M61 788v195h113q47 0 69.5 25.5t22.5 87.5v215h185v-328h225v-195h-225v-460q0 -154 143 -154q23 0 43 5t37 11q18 6 33 15v-195q-18 -8 -43 -16q-20 -4 -48 -9t-63 -5q-147 0 -227 82.5t-80 244.5v481h-185z" />
<glyph unicode="u" horiz-adv-x="1187" d="M143 410v573h205v-573q0 -109 62.5 -172.5t162.5 -63.5q57 0 106.5 20.5t84.5 56.5t55.5 87t20.5 113v532h204v-983h-204v139h-2q-33 -45 -78 -80q-39 -29 -95.5 -54t-132.5 -25q-84 0 -155.5 29.5t-123.5 85t-81 135t-29 180.5z" />
<glyph unicode="v" horiz-adv-x="1044" d="M20 983h226l274 -723h4l275 723h225l-389 -983h-225z" />
<glyph unicode="w" horiz-adv-x="1556" d="M20 983h226l223 -661h4l213 661h184l213 -661h4l224 661h225l-348 -983h-195l-213 651h-4l-213 -651h-194z" />
<glyph unicode="x" horiz-adv-x="1024" d="M20 0l369 512l-338 471h236l223 -313h4l223 313h236l-338 -471l369 -512h-236l-254 354h-4l-254 -354h-236z" />
<glyph unicode="y" horiz-adv-x="1044" d="M20 983h226l274 -723h4l275 723h225l-430 -1096q-61 -156 -148.5 -236.5t-209.5 -80.5q-35 0 -63 5t-48 9q-25 8 -43 17v194q16 -8 35 -16q16 -4 38.5 -9.5t49.5 -5.5q61 0 105 36t69 98l41 102z" />
<glyph unicode="z" horiz-adv-x="993" d="M82 0v195l543 593h-523v195h789v-195l-543 -593h563v-195h-829z" />
<glyph unicode="{" horiz-adv-x="716" d="M61 420v184h31q61 0 97 36t36 97v410q0 139 85 223t233 84h123v-194h-103q-61 0 -97 -36t-36 -98v-389q0 -72 -21.5 -115.5t-48.5 -68.5q-31 -27 -69 -39v-4q39 -12 69 -39q27 -25 48.5 -69t21.5 -115v-389q0 -61 36 -97.5t97 -36.5h103v-194h-123q-147 0 -232.5 84 t-85.5 223v410q0 61 -35.5 97t-97.5 36h-31z" />
<glyph unicode="|" horiz-adv-x="696" d="M246 -430v1884h205v-1884h-205z" />
<glyph unicode="}" horiz-adv-x="716" d="M61 -236h103q61 0 97 36t36 98v389q0 72 21.5 115.5t48.5 68.5q31 27 69 39v4q-39 12 -69 39q-27 25 -48.5 69t-21.5 115v389q0 61 -36 97.5t-97 36.5h-103v194h123q147 0 232.5 -84t85.5 -223v-410q0 -61 35.5 -97t97.5 -36h31v-184h-31q-61 0 -97 -36t-36 -97v-410 q0 -139 -85 -223t-233 -84h-123v194z" />
<glyph unicode="~" horiz-adv-x="1116" d="M72 563q27 55 67 99q35 35 92.5 65.5t137.5 30.5q66 0 116 -22.5t93 -49.5t83.5 -49.5t86.5 -22.5q47 0 78.5 19.5t54.5 42.5q25 27 41 61l122 -92q-27 -55 -67 -96q-35 -37 -91.5 -67.5t-137.5 -30.5q-66 0 -116 22.5t-93 49t-83 49t-87 22.5t-79 -19.5t-54 -42.5 q-25 -27 -41 -61z" />
<glyph unicode="&#xa2;" d="M82 492q0 100 31.5 183t87 147.5t128 108.5t152.5 62v215h185v-211q82 -10 144 -39.5t105 -62.5q51 -39 89 -86l-144 -133q-43 61 -117.5 97t-148.5 36q-68 0 -124 -24.5t-97 -67.5t-63.5 -100.5t-22.5 -124.5q0 -68 22.5 -125.5t63.5 -100.5t97 -67.5t124 -24.5 q78 0 154.5 39t121.5 104l144 -133q-37 -49 -90 -90q-43 -35 -107.5 -66.5t-150.5 -41.5v-211h-185v215q-80 18 -152.5 62t-128 108.5t-87 148t-31.5 183.5z" />
<glyph unicode="&#xa3;" horiz-adv-x="1116" d="M82 0v205q143 0 143 143v225h-133v185h133v235q0 104 33 189.5t92.5 146t142 93t183.5 32.5q98 0 170 -26.5t121 -59.5q57 -39 98 -88l-143 -143q-25 31 -62 57q-31 20 -77 37.5t-107 17.5q-109 0 -177.5 -69.5t-68.5 -186.5v-235h399v-185h-399v-225q0 -37 -7 -64.5 t-17 -43.5q-10 -20 -25 -33v-2h694v-205h-993z" />
<glyph unicode="&#xa5;" horiz-adv-x="1331" d="M10 1434h256l393 -691h13l393 691h256l-440 -748h215v-174h-318v-123h318v-174h-318v-215h-225v215h-317v174h317v123h-317v174h215z" />
<glyph unicode="&#xa8;" horiz-adv-x="778" d="M61 1290q0 53 38 88t85 35t85 -35t38 -88t-38 -88t-85 -35t-85 35t-38 88zM471 1290q0 53 38 88t85 35t85 -35t38 -88t-38 -88t-85 -35t-85 35t-38 88z" />
<glyph unicode="&#xa9;" horiz-adv-x="1761" d="M123 717q0 154 58.5 288t159.5 234t239.5 157.5t300.5 57.5t300 -57.5t239.5 -157.5t159.5 -234.5t58 -287.5q0 -154 -58 -288t-159.5 -234.5t-239.5 -157.5t-300 -57t-300.5 57t-239.5 157.5t-159.5 234.5t-58.5 288zM287 717q0 -123 47 -231.5t127 -188.5t188.5 -127 t231.5 -47t231.5 47t188 127t127 188.5t47.5 231.5t-47.5 231.5t-127 188.5t-188 127t-231.5 47t-231.5 -47t-188.5 -127t-127 -188.5t-47 -231.5zM492 717q0 80 30.5 151.5t85 123.5t127 83t156.5 31q82 0 140.5 -23.5t98.5 -52.5q45 -35 78 -78l-102 -102q-23 31 -53 57 q-29 20 -69 38t-93 18q-49 0 -94 -19.5t-79 -53.5t-53.5 -79t-19.5 -94t19.5 -94t53.5 -79t79 -53.5t94 -19.5q53 0 93 17.5t69 39.5q31 25 53 56l102 -103q-33 -43 -78 -75q-41 -29 -99 -53.5t-140 -24.5q-84 0 -156.5 30.5t-127 83t-85 124t-30.5 151.5z" />
<glyph unicode="&#xab;" horiz-adv-x="1034" d="M82 492l246 348h215l-246 -348l246 -349h-215zM492 492l245 348h215l-245 -348l245 -349h-215z" />
<glyph unicode="&#xad;" horiz-adv-x="839" d="M92 512v184h656v-184h-656z" />
<glyph unicode="&#xae;" horiz-adv-x="1761" d="M123 717q0 154 58.5 288t159.5 234t239.5 157.5t300.5 57.5t300 -57.5t239.5 -157.5t159.5 -234.5t58 -287.5q0 -154 -58 -288t-159.5 -234.5t-240 -157.5t-299.5 -57q-162 0 -300.5 57t-239.5 157.5t-159.5 234.5t-58.5 288zM287 717q0 -123 47 -231.5t127 -188.5 t188.5 -127t231.5 -47t231.5 47t188 127t127 188.5t47.5 231.5t-47.5 231.5t-127 188.5t-188 127t-231.5 47t-231.5 -47t-188.5 -127t-127 -188.5t-47 -231.5zM614 338v758h308q57 0 106 -19.5t84 -53.5t55.5 -79t20.5 -94q0 -57 -21.5 -96t-50.5 -64q-31 -29 -72 -45 l175 -307h-164l-144 266h-143v-266h-154zM768 748h154q53 0 82.5 27.5t29.5 74.5t-29.5 74.5t-82.5 27.5h-154v-204z" />
<glyph unicode="&#xb4;" horiz-adv-x="491" d="M61 1147l154 287h215l-215 -287h-154z" />
<glyph unicode="&#xb8;" horiz-adv-x="522" d="M61 -369l52 93q18 -14 41 -27q20 -10 45.5 -17.5t56.5 -7.5q39 0 60.5 19.5t21.5 48.5q0 27 -20.5 46t-51.5 19q-16 0 -26.5 -3t-18.5 -7q-10 -4 -16 -10l-62 61l93 195h133l-72 -143h4q4 0 6 -1t6 -1q16 -4 41 -12.5t48.5 -26t41 -48t17.5 -75.5q0 -70 -52.5 -122 t-152.5 -52q-47 0 -83 11t-60 23q-29 16 -52 37z" />
<glyph unicode="&#xbb;" horiz-adv-x="1034" d="M82 143l246 349l-246 348h215l246 -348l-246 -349h-215zM492 143l245 349l-245 348h215l245 -348l-245 -349h-215z" />
<glyph unicode="&#x2c6;" horiz-adv-x="778" d="M61 1147l236 287h184l236 -287h-185l-141 172h-4l-141 -172h-185z" />
<glyph unicode="&#x2dc;" horiz-adv-x="808" d="M61 1157v4q0 141 56.5 207t148.5 66q49 0 86 -19.5t67 -42t56.5 -42t56.5 -19.5q39 0 60.5 26.5t21.5 96.5h134v-4q0 -141 -56.5 -207t-148.5 -66q-49 0 -86 19.5t-67 42t-56.5 42t-57.5 19.5q-39 0 -60 -26.5t-21 -96.5h-134z" />
<glyph unicode="&#x401;" horiz-adv-x="1331" d="M205 0v1434h1014v-215h-789v-369h625v-215h-625v-420h809v-215h-1034zM389 1741q0 53 38 88t85 35t85 -35t38 -88t-38 -88t-85 -35t-85 35t-38 88zM799 1741q0 53 38 88t85 35t85 -35t38 -88t-38 -88t-85 -35t-85 35t-38 88z" />
<glyph unicode="&#x404;" horiz-adv-x="1525" d="M113 717q0 154 58 288t159.5 234t240 157.5t299.5 57.5q147 0 256 -43t183 -94q86 -61 145 -139l-143 -144q-45 59 -109 109q-55 41 -137 73.5t-195 32.5q-104 0 -191 -33.5t-154.5 -91t-112.5 -134.5t-64 -161h707v-204h-707q16 -92 59.5 -172t110 -140.5t156.5 -94.5 t196 -34q113 0 197 36t139 77q68 49 115 113l143 -144q-63 -80 -151 -143q-74 -53 -184.5 -98t-258.5 -45q-162 0 -300 57t-239.5 157.5t-159.5 234.5t-58 288z" />
<glyph unicode="&#x406;" horiz-adv-x="634" d="M205 0v1434h225v-1434h-225z" />
<glyph unicode="&#x407;" horiz-adv-x="634" d="M-11 1741q0 53 38 88t85 35t85 -35t38 -88t-38 -88t-85 -35t-85 35t-38 88zM205 0v1434h225v-1434h-225zM399 1741q0 53 38 88t85 35t85 -35t38 -88t-38 -88t-85 -35t-85 35t-38 88z" />
<glyph unicode="&#x40e;" horiz-adv-x="1280" d="M20 1434h236l418 -764h4l356 764h236l-533 -1117q-39 -80 -82 -143t-96 -106t-117.5 -65.5t-144.5 -22.5q-35 0 -62.5 5t-48.5 9q-25 8 -43 16v205q16 -6 35 -10q16 -4 39 -7t49 -3q53 0 94 13t72 36.5t55.5 57.5t44.5 77l31 61zM348 1905h154q0 -61 41 -102.5t102 -41.5 t102.5 41t41.5 103h153q0 -61 -21.5 -113.5t-61.5 -91.5t-94 -60.5t-120 -21.5t-120 21.5t-94 60.5t-61.5 91t-21.5 114z" />
<glyph unicode="&#x410;" horiz-adv-x="1433" d="M20 0l574 1434h246l573 -1434h-235l-144 369h-635l-143 -369h-236zM481 573h471l-233 590h-4z" />
<glyph unicode="&#x411;" horiz-adv-x="1361" d="M205 0v1434h942v-215h-717v-338h369q100 0 184 -34t145.5 -94.5t96.5 -140.5t35 -172t-35 -172t-96.5 -140t-145.5 -94t-184 -34h-594zM430 205h369q49 0 92 18.5t74.5 50t50 74.5t18.5 92t-18.5 92t-50 75t-74.5 50.5t-92 18.5h-369v-471z" />
<glyph unicode="&#x412;" horiz-adv-x="1392" d="M205 0v1434h573q96 0 175 -31t136.5 -82t88 -119.5t30.5 -146.5q0 -80 -26.5 -134.5t-57.5 -86.5q-39 -41 -86 -64v-4q68 -29 121 -78q47 -41 84 -106.5t37 -161.5q0 -84 -35 -161t-97.5 -134t-148.5 -91t-190 -34h-604zM430 195h379q109 0 177.5 67.5t68.5 167.5 t-68.5 168t-177.5 68h-379v-471zM430 850h348q92 0 148.5 54t56.5 140t-56.5 140.5t-148.5 54.5h-348v-389z" />
<glyph unicode="&#x413;" horiz-adv-x="1167" d="M205 0v1434h921v-215h-696v-1219h-225z" />
<glyph unicode="&#x414;" horiz-adv-x="1484" d="M0 215h82q70 70 123 180q47 94 85 243.5t38 365.5v430h932v-1219h174v-522h-226v307h-983v-307h-225v522zM328 215h706v1004h-481v-215q0 -217 -35 -366t-78 -243q-49 -111 -112 -178v-2z" />
<glyph unicode="&#x415;" horiz-adv-x="1331" d="M205 0v1434h1014v-215h-789v-369h625v-215h-625v-420h809v-215h-1034z" />
<glyph unicode="&#x416;" horiz-adv-x="2007" d="M0 0l594 840l-553 594h287l563 -605v605h225v-605l563 605h287l-553 -594l594 -840h-276l-471 676l-144 -154v-522h-225v522l-143 154l-472 -676h-276z" />
<glyph unicode="&#x417;" horiz-adv-x="1218" d="M41 205l154 153q39 -49 94 -86q47 -35 117.5 -61.5t166.5 -26.5q78 0 136.5 19.5t99.5 52.5t61.5 76t20.5 88q0 43 -20.5 83t-61.5 71.5t-99.5 51t-136.5 19.5h-184v215h184q66 0 115 16.5t83 43t51.5 62.5t17.5 75q0 76 -67.5 134t-199.5 58q-80 0 -143 -23.5 t-106 -51.5q-51 -35 -88 -78l-154 153q53 57 127 103q63 39 154.5 70.5t209.5 31.5q119 0 211.5 -30.5t154.5 -82t94 -120t32 -146.5q0 -88 -35 -147.5t-76 -98.5q-49 -43 -110 -69v-4q76 -27 137 -74q51 -41 93 -106.5t42 -165.5q0 -84 -37 -162t-107.5 -137.5t-171 -95 t-227.5 -35.5q-135 0 -234 35.5t-167 76.5q-78 49 -131 113z" />
<glyph unicode="&#x418;" horiz-adv-x="1628" d="M205 0v1434h225v-1055l789 1055h204v-1434h-225v1055l-788 -1055h-205z" />
<glyph unicode="&#x419;" horiz-adv-x="1628" d="M205 0v1434h225v-1055l789 1055h204v-1434h-225v1055l-788 -1055h-205zM512 1905h154q0 -61 41 -102.5t102 -41.5t102 41t41 103h154q0 -61 -21.5 -113.5t-61.5 -91.5t-94.5 -60.5t-119.5 -21.5q-66 0 -120 21.5t-94 60.5t-61.5 91t-21.5 114z" />
<glyph unicode="&#x41a;" horiz-adv-x="1402" d="M205 0v1434h225v-697l645 697h287l-553 -594l594 -840h-277l-471 676l-225 -246v-430h-225z" />
<glyph unicode="&#x41b;" horiz-adv-x="1536" d="M-10 10v205q14 -6 33 -10q16 -4 36.5 -7t42.5 -3q49 0 96.5 29.5t82 117.5t56 245.5t21.5 416.5v430h973v-1434h-225v1219h-522v-215q0 -315 -33 -514t-91.5 -313t-139 -155.5t-177.5 -41.5q-35 0 -62.5 5t-47.5 9q-25 8 -43 16z" />
<glyph unicode="&#x41c;" horiz-adv-x="1904" d="M205 0v1434h205l542 -697l543 697h205v-1434h-225v1055l-523 -666l-522 666v-1055h-225z" />
<glyph unicode="&#x41d;" horiz-adv-x="1566" d="M205 0v1434h225v-605h707v605h225v-1434h-225v625h-707v-625h-225z" />
<glyph unicode="&#x41e;" horiz-adv-x="1740" d="M113 717q0 154 58 288t159.5 234t240 157.5t299.5 57.5q162 0 300.5 -57.5t239.5 -157.5t159.5 -234.5t58.5 -287.5q0 -154 -58.5 -288t-159.5 -234.5t-239.5 -157.5t-300.5 -57t-300 57t-239.5 157.5t-159.5 234.5t-58 288zM338 717q0 -111 41 -208t113.5 -170 t169.5 -114t208 -41t208.5 41t170 114t113.5 170t41 208t-41 208t-113.5 169.5t-170 113.5t-208.5 41t-208 -41t-169.5 -113.5t-113.5 -170t-41 -207.5z" />
<glyph unicode="&#x41f;" horiz-adv-x="1566" d="M205 0v1434h1157v-1434h-225v1219h-707v-1219h-225z" />
<glyph unicode="&#x420;" horiz-adv-x="1351" d="M205 0v1434h573q104 0 192.5 -36t153 -98.5t100.5 -146.5t36 -180t-36 -180t-100.5 -146.5t-152.5 -98.5t-193 -36h-348v-512h-225zM430 717h348q53 0 100.5 19.5t82 54t54 82t19.5 100.5t-19.5 100t-54 82t-82 54.5t-100.5 19.5h-348v-512z" />
<glyph unicode="&#x421;" horiz-adv-x="1525" d="M113 717q0 154 58 288t159.5 234t240 157.5t299.5 57.5q147 0 256 -43t183 -94q86 -61 145 -139l-143 -144q-45 59 -109 109q-55 41 -137 73.5t-195 32.5q-111 0 -208 -41t-169.5 -113.5t-113.5 -170t-41 -207.5q0 -111 41 -208t113.5 -170t170 -114t207.5 -41 q113 0 197 36t139 77q68 49 115 113l143 -144q-63 -80 -151 -143q-74 -53 -184.5 -98t-258.5 -45q-162 0 -300 57t-239.5 157.5t-159.5 234.5t-58 288z" />
<glyph unicode="&#x422;" horiz-adv-x="1167" d="M41 1219v215h1085v-215h-430v-1219h-225v1219h-430z" />
<glyph unicode="&#x423;" horiz-adv-x="1280" d="M20 1434h236l418 -764h4l356 764h236l-533 -1117q-39 -80 -82 -143t-96 -106t-117.5 -65.5t-144.5 -22.5q-35 0 -62.5 5t-48.5 9q-25 8 -43 16v205q16 -6 35 -10q16 -4 39 -7t49 -3q53 0 94 13t72 36.5t55.5 57.5t44.5 77l31 61z" />
<glyph unicode="&#x424;" horiz-adv-x="1761" d="M92 737q0 119 45 222.5t131 182.5t212 128t288 61v144h225v-144q162 -12 288 -61t212 -128t131 -182.5t45 -222.5t-45 -222t-131 -182t-212 -128t-288 -62v-184h-225v184q-162 12 -288 61.5t-212 128.5t-131 182t-45 222zM317 737q0 -76 30 -143.5t88.5 -119.5t142.5 -85 t190 -41v778q-106 -8 -190 -40.5t-142.5 -85t-88.5 -119t-30 -144.5zM993 348q109 8 192 41t141 85t88 119.5t30 143.5q0 78 -30 144.5t-88 119t-141 85t-192 40.5v-778z" />
<glyph unicode="&#x425;" horiz-adv-x="1351" d="M20 0l512 748l-471 686h267l346 -519h4l346 519h266l-471 -686l512 -748h-266l-387 580h-4l-387 -580h-267z" />
<glyph unicode="&#x426;" horiz-adv-x="1566" d="M205 0v1434h225v-1219h686v1219h225v-1219h175v-522h-226v307h-1085z" />
<glyph unicode="&#x427;" horiz-adv-x="1484" d="M184 1004v430h226v-430q0 -147 85 -232.5t232 -85.5q74 0 134.5 19.5t103.5 42.5q49 27 90 61v625h225v-1434h-225v573q-47 -29 -105 -51q-47 -18 -114.5 -34.5t-149.5 -16.5q-231 0 -366.5 138.5t-135.5 394.5z" />
<glyph unicode="&#x428;" horiz-adv-x="2129" d="M205 0v1434h225v-1219h522v1219h226v-1219h522v1219h225v-1434h-1720z" />
<glyph unicode="&#x429;" horiz-adv-x="2150" d="M205 0v1434h225v-1219h522v1219h226v-1219h522v1219h225v-1219h174v-522h-225v307h-1669z" />
<glyph unicode="&#x42a;" horiz-adv-x="1474" d="M0 1219v215h573v-512h328q104 0 192.5 -36t153 -98.5t100 -146.5t35.5 -180t-35.5 -180t-100 -146.5t-152.5 -98.5t-193 -36h-553v1219h-348zM573 205h328q53 0 100.5 19.5t82 54t54 82t19.5 100.5t-19.5 100t-54 82t-82 54.5t-100.5 19.5h-328v-512z" />
<glyph unicode="&#x42b;" horiz-adv-x="1873" d="M205 0v1434h225v-512h328q104 0 192 -36t152.5 -98.5t100.5 -146.5t36 -180t-36 -180t-100.5 -146.5t-152.5 -98.5t-192 -36h-553zM430 205h328q53 0 100 19.5t82 54t54.5 82t19.5 100.5t-19.5 100t-54.5 82t-82 54.5t-100 19.5h-328v-512zM1444 0v1434h225v-1434h-225z " />
<glyph unicode="&#x42c;" horiz-adv-x="1351" d="M205 0v1434h225v-512h348q104 0 192.5 -36t153 -98.5t100.5 -146.5t36 -180t-36 -180t-100.5 -146.5t-152.5 -98.5t-193 -36h-573zM430 205h348q53 0 100.5 19.5t82 54t54 82t19.5 100.5t-19.5 100t-54 82t-82 54.5t-100.5 19.5h-348v-512z" />
<glyph unicode="&#x42d;" horiz-adv-x="1515" d="M51 266l144 144q47 -63 114 -113q57 -41 141.5 -77t194.5 -36q109 0 198 34t155.5 94.5t110.5 140t58 172.5h-706v204h706q-18 84 -63 161t-112.5 134.5t-154.5 91t-192 33.5q-111 0 -193.5 -32.5t-138.5 -73.5q-63 -49 -108 -109l-144 144q59 78 146 139q74 51 182.5 94 t255.5 43q162 0 300 -57.5t239.5 -157.5t160 -234.5t58.5 -287.5q0 -154 -58.5 -288t-160 -234.5t-239.5 -157.5t-300 -57q-147 0 -256.5 45t-185.5 98q-88 63 -152 143z" />
<glyph unicode="&#x42e;" horiz-adv-x="2201" d="M205 0v1434h225v-605h236q12 123 70.5 236t152.5 200t218 138t265 51q150 0 281 -56.5t227 -154.5t152.5 -233.5t56.5 -292.5q0 -158 -56.5 -293t-152.5 -233.5t-227 -154.5t-281 -56q-141 0 -265 52t-218 140t-152.5 205t-70.5 248h-236v-625h-225zM881 717 q0 -115 38.5 -213t106.5 -169t157 -111t189 -40t189.5 40t157 111t106.5 169t39 213t-39 213t-106.5 168.5t-156.5 110.5t-190 40q-100 0 -189 -40t-157 -110.5t-106.5 -168.5t-38.5 -213z" />
<glyph unicode="&#x42f;" horiz-adv-x="1402" d="M82 0l326 573q-78 31 -138 86q-51 47 -94 126t-43 198q0 96 35 178t97.5 142.5t148.5 95.5t190 35h594v-1434h-225v532h-338l-297 -532h-256zM358 983q0 -109 69 -177.5t177 -68.5h369v492h-369q-109 0 -177.5 -68.5t-68.5 -177.5z" />
<glyph unicode="&#x430;" d="M72 266q0 123 77.5 204t208.5 103l359 62v4q0 74 -56.5 127t-148.5 53q-57 0 -104.5 -20.5t-81.5 -44.5q-39 -31 -70 -68l-133 133q41 51 98 92q49 35 122 64t169 29q92 0 168 -29t129 -80t83 -120.5t30 -149.5v-625h-205v139h-2q-33 -45 -78 -80q-41 -29 -99.5 -54 t-138.5 -25q-74 0 -134 23.5t-103 62t-66.5 91t-23.5 109.5zM276 287q0 -53 43 -93t121 -40q57 0 107.5 21.5t88.5 60t59.5 91t21.5 113.5v31l-287 -51q-78 -14 -116 -50t-38 -83z" />
<glyph unicode="&#x431;" horiz-adv-x="1187" d="M102 625q0 184 39 320t106.5 229.5t157 147t189.5 71.5q82 16 147.5 35.5t112.5 35.5q55 20 98 41l103 -174q-41 -20 -99 -41q-49 -18 -120.5 -39.5t-169.5 -42.5q-145 -31 -234.5 -122t-114.5 -250h5q35 41 81 73q41 29 99.5 51.5t132.5 22.5q92 0 177 -40t150.5 -107.5 t104.5 -158.5t39 -196q0 -104 -39 -195t-106.5 -159t-156.5 -107.5t-190 -39.5q-106 0 -200.5 41.5t-163 122.5t-108.5 202t-40 279zM328 481q0 -66 23.5 -122t62.5 -97t91 -64.5t109 -23.5t109.5 23.5t91.5 64.5t62.5 97.5t23.5 121.5q0 66 -23.5 122t-62.5 97t-91 64.5 t-110 23.5q-57 0 -109 -23.5t-91 -64.5t-62.5 -97t-23.5 -122z" />
<glyph unicode="&#x432;" horiz-adv-x="1054" d="M143 0v983h461q78 0 138.5 -21.5t102.5 -58.5t64.5 -85t22.5 -101t-18.5 -90t-41.5 -60q-27 -27 -59 -43v-4q45 -16 80 -49q31 -27 55.5 -71t24.5 -113q0 -57 -24.5 -109.5t-69.5 -91.5t-109.5 -62.5t-144.5 -23.5h-482zM348 184h266q70 0 107 35t37 88t-37 88t-107 35 h-266v-246zM348 594h246q61 0 92 27.5t31 74.5t-31 75t-92 28h-246v-205z" />
<glyph unicode="&#x433;" horiz-adv-x="880" d="M143 0v983h697v-195h-492v-788h-205z" />
<glyph unicode="&#x434;" horiz-adv-x="1136" d="M0 195h72q45 49 82 120q31 61 56.5 155.5t25.5 225.5v287h716v-788h144v-441h-205v246h-686v-246h-205v441zM287 195h461v593h-308v-92q0 -131 -23.5 -225t-51.5 -156q-35 -72 -78 -118v-2z" />
<glyph unicode="&#x435;" horiz-adv-x="1146" d="M82 492q0 109 40 201.5t107.5 161.5t158.5 109t196 40q104 0 192 -36t152.5 -100.5t100.5 -152.5t36 -193q0 -23 -1 -41t-3 -32q-4 -16 -6 -29h-758q8 -49 33.5 -94t65.5 -79t93.5 -53.5t114.5 -19.5q66 0 119 20.5t90 47.5q43 29 78 65l123 -143q-41 -51 -103 -92 q-53 -35 -131 -63.5t-186 -28.5q-106 0 -200.5 39.5t-163 108.5t-108.5 163t-40 201zM297 594h553q-23 100 -90.5 162.5t-175.5 62.5q-117 0 -186.5 -62.5t-100.5 -162.5z" />
<glyph unicode="&#x436;" horiz-adv-x="1515" d="M0 0l410 584l-379 399h256l368 -399v399h205v-399l369 399h256l-379 -399l410 -584h-236l-307 440l-113 -123v-317h-205v317l-112 123l-307 -440h-236z" />
<glyph unicode="&#x437;" horiz-adv-x="901" d="M31 154l133 133q31 -35 72 -62q35 -23 84 -42t110 -19q86 0 130 40t44 93q0 47 -44 85t-130 38h-133v184h123q78 0 115.5 32t37.5 71q0 47 -37.5 79.5t-115.5 32.5q-53 0 -97 -12t-75 -29q-35 -20 -64 -43l-133 133q39 37 92 68q47 27 116 47.5t161 20.5q88 0 156.5 -23 t115.5 -61.5t71.5 -89t24.5 -103.5q0 -59 -24.5 -100t-54.5 -68q-35 -29 -80 -45v-4q53 -16 96 -49q35 -27 64.5 -71t29.5 -114q0 -57 -26.5 -110t-75.5 -95t-122 -66.5t-165 -24.5q-100 0 -175 26.5t-124 61.5q-59 37 -100 86z" />
<glyph unicode="&#x438;" horiz-adv-x="1187" d="M143 0v983h205v-651h4l508 651h184v-983h-204v651h-4l-508 -651h-185z" />
<glyph unicode="&#x439;" horiz-adv-x="1187" d="M143 0v983h205v-651h4l508 651h184v-983h-204v651h-4l-508 -651h-185zM297 1434h154q0 -61 41 -102.5t102 -41.5t102.5 41t41.5 103h153q0 -61 -21.5 -113.5t-61.5 -91.5t-94 -60.5t-120 -21.5t-120 21.5t-94 60.5t-61.5 91t-21.5 114z" />
<glyph unicode="&#x43a;" horiz-adv-x="1054" d="M143 0v983h205v-451l420 451h256l-379 -399l410 -584h-236l-307 440l-164 -174v-266h-205z" />
<glyph unicode="&#x43b;" horiz-adv-x="1146" d="M-10 0v195q12 -2 24 -5q23 -6 47 -6q43 0 77 18.5t57.5 73t37 154.5t13.5 266v287h758v-983h-205v788h-348v-92q0 -215 -26 -354t-71 -219t-106.5 -111.5t-134.5 -31.5q-51 0 -88 10q-18 4 -35 10z" />
<glyph unicode="&#x43c;" horiz-adv-x="1331" d="M143 0v983h174l349 -430l348 430h174v-983h-205v655l-317 -389l-318 389v-655h-205z" />
<glyph unicode="&#x43d;" horiz-adv-x="1177" d="M143 0v983h205v-389h481v389h205v-983h-205v410h-481v-410h-205z" />
<glyph unicode="&#x43e;" horiz-adv-x="1187" d="M82 492q0 109 40 201.5t108.5 161.5t162.5 109t201 40q109 0 202 -40t161.5 -109t108.5 -162t40 -201q0 -106 -40 -200.5t-108.5 -163.5t-161.5 -108.5t-202 -39.5q-106 0 -200.5 39.5t-163 108.5t-108.5 163t-40 201zM287 492q0 -70 23.5 -128.5t64.5 -100.5t97 -65.5 t122 -23.5t122 23.5t97 65.5t64.5 100.5t23.5 128.5t-23.5 128t-64.5 100t-97.5 65.5t-121.5 23.5q-66 0 -122 -23.5t-97 -65.5t-64.5 -100.5t-23.5 -127.5z" />
<glyph unicode="&#x43f;" horiz-adv-x="1177" d="M143 0v983h891v-983h-205v788h-481v-788h-205z" />
<glyph unicode="&#x440;" horiz-adv-x="1228" d="M143 -430v1413h205v-139h2q33 45 82 80q41 31 104.5 55.5t149.5 24.5q92 0 176 -38t146.5 -106.5t100.5 -163t38 -204.5q0 -111 -38 -205t-100.5 -163t-146.5 -106.5t-176 -37.5q-86 0 -149.5 25.5t-104.5 53.5q-49 35 -82 80h-2v-569h-205zM348 492q0 -70 23.5 -128.5 t63.5 -100.5t94.5 -65.5t115.5 -23.5t115.5 23.5t94.5 65.5t63.5 100.5t23.5 128.5t-23.5 128t-63.5 100t-94 65.5t-116 23.5q-61 0 -115.5 -23.5t-94.5 -65.5t-63.5 -100t-23.5 -128z" />
<glyph unicode="&#x441;" d="M82 492q0 109 40 201.5t108.5 161.5t162.5 109t201 40q104 0 181 -31t128 -66q59 -43 101 -98l-144 -133q-29 37 -67 67q-35 25 -84.5 45.5t-114.5 20.5q-66 0 -122 -23.5t-97 -65.5t-64.5 -100.5t-23.5 -127.5q0 -70 23.5 -128.5t64.5 -100.5t97 -65.5t122 -23.5 t117 22.5t86 49.5q43 31 73 71l144 -133q-45 -57 -107 -102q-53 -39 -131 -70.5t-182 -31.5q-106 0 -200.5 39.5t-163 108.5t-108.5 163t-40 201z" />
<glyph unicode="&#x442;" horiz-adv-x="962" d="M41 788v195h881v-195h-338v-788h-205v788h-338z" />
<glyph unicode="&#x443;" horiz-adv-x="1044" d="M20 983h226l274 -723h4l275 723h225l-430 -1096q-61 -156 -148.5 -236.5t-209.5 -80.5q-35 0 -63 5t-48 9q-25 8 -43 17v194q16 -8 35 -16q16 -4 38.5 -9.5t49.5 -5.5q61 0 105 36t69 98l41 102z" />
<glyph unicode="&#x444;" horiz-adv-x="1474" d="M82 492q0 104 39 194t110.5 158.5t174 112.5t229.5 57v420h205v-420q127 -12 229 -56.5t174 -113t111 -158.5t39 -194t-39 -194.5t-111 -159t-174 -112.5t-229 -57v-399h-205v399q-127 12 -229.5 56.5t-174 113t-110.5 159t-39 194.5zM287 492q0 -66 25.5 -123.5 t71.5 -102.5t110.5 -71.5t140.5 -30.5v655q-76 -4 -140.5 -30.5t-110.5 -71.5t-71.5 -102t-25.5 -123zM840 164q78 4 141 30.5t109.5 71.5t72 102.5t25.5 123.5t-25.5 123t-72 102t-109.5 71.5t-141 30.5v-655z" />
<glyph unicode="&#x445;" horiz-adv-x="1024" d="M20 0l369 512l-338 471h236l223 -313h4l223 313h236l-338 -471l369 -512h-236l-254 354h-4l-254 -354h-236z" />
<glyph unicode="&#x446;" horiz-adv-x="1198" d="M143 0v983h205v-788h461v788h205v-788h143v-441h-205v246h-809z" />
<glyph unicode="&#x447;" horiz-adv-x="1105" d="M123 696v287h205v-287q0 -100 56 -157.5t148 -57.5q53 0 95.5 11.5t70.5 25.5q35 14 60 35v430h205v-983h-205v358q-31 -20 -72 -34q-35 -14 -84 -25.5t-110 -11.5q-80 0 -148 27.5t-117 81t-76.5 129t-27.5 171.5z" />
<glyph unicode="&#x448;" horiz-adv-x="1617" d="M143 0v983h205v-788h359v788h204v-788h359v788h205v-983h-1332z" />
<glyph unicode="&#x449;" horiz-adv-x="1658" d="M143 0v983h205v-788h359v788h204v-788h359v788h205v-788h143v-441h-205v246h-1270z" />
<glyph unicode="&#x44a;" horiz-adv-x="1105" d="M0 788v195h451v-307h204q88 0 159 -25.5t120 -70.5t74.5 -106.5t25.5 -135.5t-25.5 -135.5t-74.5 -106.5t-120 -70.5t-159 -25.5h-409v788h-246zM451 184h204q86 0 130 42t44 112t-44 112t-130 42h-204v-308z" />
<glyph unicode="&#x44b;" horiz-adv-x="1423" d="M143 0v983h205v-307h205q88 0 158.5 -25.5t120 -70.5t75 -106.5t25.5 -135.5t-25.5 -135.5t-75 -106.5t-120 -70.5t-158.5 -25.5h-410zM348 184h205q86 0 130 42t44 112t-44 112t-130 42h-205v-308zM1075 0v983h205v-983h-205z" />
<glyph unicode="&#x44c;" horiz-adv-x="1024" d="M143 0v983h205v-307h225q88 0 159 -25.5t120 -70.5t74.5 -106.5t25.5 -135.5t-25.5 -135.5t-74.5 -106.5t-119.5 -70.5t-159.5 -25.5h-430zM348 184h225q86 0 130.5 42t44.5 112t-44.5 112t-130.5 42h-225v-308z" />
<glyph unicode="&#x44d;" horiz-adv-x="1044" d="M31 184l143 133q31 -41 74 -71q35 -27 86 -49.5t117 -22.5q98 0 155.5 38t87.5 85q39 53 54 123h-451v174h440q-18 59 -55 108q-31 41 -86 74t-145 33q-66 0 -115 -20.5t-84 -45.5q-39 -31 -68 -67l-143 133q41 55 100 98q53 35 129 66t181 31q109 0 201.5 -40 t161.5 -109t109 -162t40 -201q0 -106 -40 -200.5t-109 -163.5t-162 -108.5t-201 -39.5q-104 0 -182.5 31.5t-131.5 70.5q-61 45 -106 102z" />
<glyph unicode="&#x44e;" horiz-adv-x="1617" d="M143 0v983h205v-389h195q16 88 55 162.5t101.5 130t146.5 86.5t188 31q109 0 200 -38t158.5 -106.5t105.5 -163t38 -204.5q0 -111 -38 -205t-105.5 -163t-158.5 -106.5t-200 -37.5q-104 0 -189 32.5t-148.5 90t-102.5 136t-51 171.5h-195v-410h-205zM737 492 q0 -147 83 -232.5t214 -85.5t214 85t83 233q0 147 -83 232t-214 85t-214 -85t-83 -232z" />
<glyph unicode="&#x44f;" d="M72 0l225 358q-55 23 -96 64q-37 35 -68 91t-31 142q0 70 26 129.5t75 103.5t119.5 69.5t158.5 25.5h441v-983h-205v328h-215l-195 -328h-235zM307 655q0 -61 44 -102t130 -41h236v287h-236q-86 0 -130 -41.5t-44 -102.5z" />
<glyph unicode="&#x451;" horiz-adv-x="1146" d="M82 492q0 109 40 201.5t107.5 161.5t158.5 109t196 40q104 0 192 -36t152.5 -100.5t100.5 -152.5t36 -193q0 -23 -1 -41t-3 -32q-4 -16 -6 -29h-758q8 -49 33.5 -94t65.5 -79t93.5 -53.5t114.5 -19.5q66 0 119 20.5t90 47.5q43 29 78 65l123 -143q-41 -51 -103 -92 q-53 -35 -131 -63.5t-186 -28.5q-106 0 -200.5 39.5t-163 108.5t-108.5 163t-40 201zM256 1290q0 53 38 88t85 35t85 -35t38 -88t-38 -88t-85 -35t-85 35t-38 88zM297 594h553q-23 100 -90.5 162.5t-175.5 62.5q-117 0 -186.5 -62.5t-100.5 -162.5zM666 1290q0 53 38 88 t85 35t85 -35t38 -88t-38 -88t-85 -35t-85 35t-38 88z" />
<glyph unicode="&#x454;" d="M82 492q0 109 40 201.5t108.5 161.5t162.5 109t201 40q104 0 181 -31t128 -66q59 -43 101 -98l-144 -133q-29 37 -67 67q-35 25 -84.5 45.5t-114.5 20.5q-88 0 -143.5 -33t-88.5 -74q-37 -49 -55 -108h441v-174h-451q14 -70 53 -123q31 -47 89.5 -85t154.5 -38 q66 0 117 22.5t86 49.5q43 31 73 71l144 -133q-45 -57 -107 -102q-53 -39 -131 -70.5t-182 -31.5q-106 0 -200.5 39.5t-163 108.5t-108.5 163t-40 201z" />
<glyph unicode="&#x456;" horiz-adv-x="512" d="M133 1290q0 53 38 88t85 35t85 -35t38 -88t-38 -88t-85 -35t-85 35t-38 88zM154 0v983h204v-983h-204z" />
<glyph unicode="&#x457;" horiz-adv-x="512" d="M-72 1290q0 53 38 88t85 35t85 -35t38 -88t-38 -88t-85 -35t-85 35t-38 88zM154 0v983h204v-983h-204zM338 1290q0 53 38 88t85 35t85 -35t38 -88t-38 -88t-85 -35t-85 35t-38 88z" />
<glyph unicode="&#x45e;" horiz-adv-x="1044" d="M20 983h226l274 -723h4l275 723h225l-430 -1096q-61 -156 -148.5 -236.5t-209.5 -80.5q-35 0 -63 5t-48 9q-25 8 -43 17v194q16 -8 35 -16q16 -4 38.5 -9.5t49.5 -5.5q61 0 105 36t69 98l41 102zM225 1434h154q0 -61 41 -102.5t102 -41.5t102.5 41t41.5 103h153 q0 -61 -21.5 -113.5t-61.5 -91.5t-94 -60.5t-120 -21.5t-120 21.5t-94 60.5t-61.5 91t-21.5 114z" />
<glyph unicode="&#x490;" horiz-adv-x="1167" d="M205 0v1434h706v286h215v-501h-696v-1219h-225z" />
<glyph unicode="&#x491;" horiz-adv-x="880" d="M143 0v983h502v246h195v-441h-492v-788h-205z" />
<glyph unicode="&#x4c1;" horiz-adv-x="2007" d="M0 0l594 840l-553 594h287l563 -605v605h225v-605l563 605h287l-553 -594l594 -840h-276l-471 676l-144 -154v-522h-225v522l-143 154l-472 -676h-276zM706 1905h154q0 -61 41 -102.5t102 -41.5t102.5 41t41.5 103h153q0 -61 -21.5 -113.5t-61.5 -91.5t-94 -60.5 t-120 -21.5t-120 21.5t-94 60.5t-61.5 91t-21.5 114z" />
<glyph unicode="&#x4c2;" horiz-adv-x="1515" d="M0 0l410 584l-379 399h256l368 -399v399h205v-399l369 399h256l-379 -399l410 -584h-236l-307 440l-113 -123v-317h-205v317l-112 123l-307 -440h-236zM460 1434h154q0 -61 41 -102.5t102 -41.5t102.5 41t41.5 103h153q0 -61 -21.5 -113.5t-61.5 -91.5t-94 -60.5 t-120 -21.5t-120 21.5t-94 60.5t-61.5 91t-21.5 114z" />
<glyph unicode="&#x2000;" horiz-adv-x="952" />
<glyph unicode="&#x2001;" horiz-adv-x="1905" />
<glyph unicode="&#x2002;" horiz-adv-x="952" />
<glyph unicode="&#x2003;" horiz-adv-x="1905" />
<glyph unicode="&#x2004;" horiz-adv-x="635" />
<glyph unicode="&#x2005;" horiz-adv-x="476" />
<glyph unicode="&#x2006;" horiz-adv-x="317" />
<glyph unicode="&#x2007;" horiz-adv-x="317" />
<glyph unicode="&#x2008;" horiz-adv-x="238" />
<glyph unicode="&#x2009;" horiz-adv-x="381" />
<glyph unicode="&#x200a;" horiz-adv-x="105" />
<glyph unicode="&#x2010;" horiz-adv-x="839" d="M92 512v184h656v-184h-656z" />
<glyph unicode="&#x2011;" horiz-adv-x="839" d="M92 512v184h656v-184h-656z" />
<glyph unicode="&#x2012;" horiz-adv-x="839" d="M92 512v184h656v-184h-656z" />
<glyph unicode="&#x2013;" horiz-adv-x="1003" d="M72 512v176h860v-176h-860z" />
<glyph unicode="&#x2014;" horiz-adv-x="1495" d="M72 512v176h1351v-176h-1351z" />
<glyph unicode="&#x2018;" horiz-adv-x="471" d="M41 1065l256 410l133 -72l-205 -440z" />
<glyph unicode="&#x2019;" horiz-adv-x="471" d="M41 1034l205 441l184 -103l-256 -409z" />
<glyph unicode="&#x201a;" horiz-adv-x="450" d="M-20 -195l204 441l185 -103l-256 -409z" />
<glyph unicode="&#x201c;" horiz-adv-x="839" d="M41 1065l256 410l133 -72l-205 -440zM410 1065l256 410l133 -72l-205 -440z" />
<glyph unicode="&#x201d;" horiz-adv-x="839" d="M41 1034l205 441l184 -103l-256 -409zM410 1034l204 441l185 -103l-256 -409z" />
<glyph unicode="&#x201e;" horiz-adv-x="819" d="M-20 -195l204 441l185 -103l-256 -409zM348 -195l205 441l184 -103l-256 -409z" />
<glyph unicode="&#x2022;" horiz-adv-x="942" d="M246 492q0 47 18.5 88t49 71.5t71.5 48t86 17.5q47 0 88 -17.5t72 -48t48 -71.5t17 -88q0 -45 -17 -86t-48 -72t-72 -49.5t-88 -18.5q-45 0 -86 18.5t-71.5 49.5t-49 72t-18.5 86z" />
<glyph unicode="&#x2026;" horiz-adv-x="1454" d="M92 113q0 53 40 93t93 40t93 -40t40 -93t-39.5 -93t-93.5 -40q-53 0 -93 40t-40 93zM594 113q0 53 40 93t93 40t93 -40t40 -93t-39.5 -93t-93.5 -40q-53 0 -93 40t-40 93zM1096 113q0 53 40 93t93 40t93 -40t40 -93t-39.5 -93t-93.5 -40q-53 0 -93 40t-40 93z" />
<glyph unicode="&#x202f;" horiz-adv-x="381" />
<glyph unicode="&#x2039;" horiz-adv-x="624" d="M82 492l246 348h215l-246 -348l246 -349h-215z" />
<glyph unicode="&#x203a;" horiz-adv-x="624" d="M82 143l246 349l-246 348h215l246 -348l-246 -349h-215z" />
<glyph unicode="&#x205f;" horiz-adv-x="476" />
<glyph unicode="&#x20ac;" horiz-adv-x="1515" d="M61 461v174h181q-2 12 -2 27q-2 10 -3 24t-1 31q0 16 1 30.5t3 26.5q0 12 2 25h-181v174h215q47 135 136 241q37 45 87 88.5t114.5 77t143.5 54t175 20.5q129 0 222 -35t155 -78q74 -49 125 -112l-144 -144q-39 45 -90 82q-47 31 -112.5 56.5t-155.5 25.5 q-111 0 -188.5 -43t-127.5 -94q-57 -61 -94 -139h420v-174h-475q-2 -12 -2 -25q-2 -12 -3 -26.5t-1 -30.5t1 -30.5t3 -24.5q0 -14 2 -27h475v-174h-420q37 -78 94 -137q49 -53 127 -96.5t189 -43.5q90 0 157.5 26t114.5 56q55 37 96 82l144 -143q-53 -63 -129 -113 q-66 -41 -160 -76.5t-223 -35.5q-96 0 -175 20t-143.5 54t-114.5 78t-87 89q-88 104 -136 240h-215z" />
<glyph unicode="&#x2122;" horiz-adv-x="1402" d="M20 1300v134h512v-134h-184v-501h-143v501h-185zM625 799v635h133l205 -267l204 267h133v-635h-143v389l-194 -246l-195 246v-389h-143z" />
<glyph unicode="&#x25fc;" horiz-adv-x="983" d="M0 0v983h983v-983h-983z" />
</font>
</defs>
</svg>
