<svg width="18" height="18" viewBox="0 0 18 18" fill="none" xmlns="http://www.w3.org/2000/svg">
<path fill-rule="evenodd" clip-rule="evenodd" d="M8.97536 6.76024L15.267 0.46861C15.8918 -0.156203 16.9066 -0.156203 17.5314 0.46861C18.1562 1.09342 18.1562 2.1082 17.5314 2.73302L11.2398 9.02464L17.5314 15.3163C18.1432 15.9266 18.1432 16.9196 17.5314 17.5314C16.9196 18.1432 15.9266 18.1432 15.3163 17.5314L9.02464 11.2398L2.73302 17.5314C2.1082 18.1562 1.09342 18.1562 0.46861 17.5314C-0.156203 16.9066 -0.156203 15.8918 0.46861 15.267L6.76024 8.97536L0.46861 2.68373C-0.143156 2.07341 -0.143156 1.08038 0.46861 0.46861C1.08038 -0.143156 2.07341 -0.143156 2.68373 0.46861L8.97536 6.76024Z" fill="white"/>
</svg>
