<svg width="13" height="13" viewBox="0 0 13 13" fill="none" xmlns="http://www.w3.org/2000/svg">
<path fill-rule="evenodd" clip-rule="evenodd" d="M6.19125 4.66325L10.5312 0.32325C10.9622 -0.10775 11.6623 -0.10775 12.0933 0.32325C12.5243 0.75425 12.5243 1.45425 12.0933 1.88525L7.75325 6.22525L12.0933 10.5653C12.5153 10.9862 12.5153 11.6713 12.0933 12.0933C11.6713 12.5153 10.9862 12.5153 10.5653 12.0933L6.22525 7.75325L1.88525 12.0933C1.45425 12.5243 0.75425 12.5243 0.32325 12.0933C-0.10775 11.6623 -0.10775 10.9622 0.32325 10.5312L4.66325 6.19125L0.32325 1.85125C-0.09875 1.43025 -0.09875 0.74525 0.32325 0.32325C0.74525 -0.09875 1.43025 -0.09875 1.85125 0.32325L6.19125 4.66325Z" fill="#333333"/>
</svg>
