<svg width="105" height="105" viewBox="0 0 105 105" fill="none" xmlns="http://www.w3.org/2000/svg">
<path d="M52.6427 16.123C55.0444 14.8011 57.9556 14.8011 60.3573 16.123L71.5075 22.2597L82.3824 28.4688C84.8561 29.8811 86.3922 32.5023 86.4155 35.3507L86.515 47.5L86.4155 59.6493C86.3922 62.4977 84.8561 65.1189 82.3824 66.5312L71.5075 72.7403L60.3573 78.877C57.9556 80.1989 55.0444 80.1989 52.6427 78.877L41.4925 72.7403L30.6176 66.5312C28.1439 65.1189 26.6078 62.4977 26.5845 59.6493L26.485 47.5L26.5845 35.3507C26.6078 32.5023 28.1439 29.8811 30.6176 28.4688L41.4925 22.2597L52.6427 16.123Z" fill="url(#paint0_linear)"/>
<path d="M41.4409 40.4303H24.2476C18.7247 40.4303 14.2476 44.9075 14.2476 50.4303V81C14.2476 86.5229 18.7247 91 24.2476 91H56.3682C61.891 91 66.3682 86.5229 66.3682 81V62.9057" stroke="#161251" stroke-width="2" stroke-linecap="round"/>
<defs>
<linearGradient id="paint0_linear" x1="91" y1="81" x2="9.70931" y2="20.9372" gradientUnits="userSpaceOnUse">
<stop stop-color="#0087FC" stop-opacity="0.48"/>
<stop offset="1" stop-color="#0087FC" stop-opacity="0.2"/>
</linearGradient>
</defs>
</svg>
