<svg width="60" height="58" viewBox="0 0 60 58" fill="none" xmlns="http://www.w3.org/2000/svg">
<circle cx="22.1455" cy="35.8546" r="22.1455" fill="url(#paint0_linear)"/>
<path d="M18.8813 46.1472L21.365 49.8719C23.9435 53.7389 29.6359 53.7242 32.2144 49.8571V49.8571C33.7019 47.6263 36.4147 46.536 39.0304 47.1251L40.4167 47.4373C44.5696 48.3726 48.2171 44.5363 47.0737 40.4359V40.4359C46.3671 37.9021 47.5126 35.2155 49.8286 33.9683V33.9683C53.7826 31.839 53.7826 26.161 49.8286 24.0317V24.0317C47.5126 22.7845 46.3671 20.0979 47.0737 17.5641V17.5641C48.2171 13.4637 44.5696 9.62744 40.4167 10.5627L39.0304 10.8749C36.4147 11.464 33.7019 10.3737 32.2144 8.14287V8.14287C29.6359 4.27584 23.9435 4.26108 21.365 8.12812L18.8813 11.8528" stroke="#161251" stroke-width="1.90476" stroke-linecap="round"/>
<path d="M34.9505 28.9999C34.9505 24.0293 30.9036 19.9999 25.9115 19.9999C23.5965 19.9999 21.4847 20.8664 19.8855 22.2916C18.0363 23.9395 16.8726 26.3344 16.8726 28.9999C16.8726 33.9704 20.9194 37.9999 25.9115 37.9999" stroke="#161251" stroke-width="1.8" stroke-linecap="round"/>
<defs>
<linearGradient id="paint0_linear" x1="44.2909" y1="58" x2="-8.96377" y2="19.7926" gradientUnits="userSpaceOnUse">
<stop stop-color="#0087FC" stop-opacity="0.48"/>
<stop offset="1" stop-color="#0087FC" stop-opacity="0.2"/>
</linearGradient>
</defs>
</svg>
