<svg width="105" height="105" viewBox="0 0 105 105" fill="none" xmlns="http://www.w3.org/2000/svg">
<path d="M74.229 59.5292C75.6476 61.9566 75.6476 64.9936 74.229 67.5037L67.7712 78.9299L61.0829 90.3442C59.6517 92.7867 57.0717 94.3413 54.2777 94.4447L41.0354 94.9349L27.793 95.2174C24.999 95.277 22.419 93.873 20.9878 91.514L14.2995 80.4899L7.84174 69.4406C6.42308 67.0132 6.42308 63.9762 7.84174 61.4661L14.2995 50.0399L20.9878 38.6256C22.419 36.1831 24.999 34.6285 27.793 34.5251L41.0354 34.0349L54.2777 33.7524C57.0717 33.6928 59.6517 35.0968 61.0829 37.4558L67.7712 48.4799L74.229 59.5292Z" fill="url(#paint0_linear)"/>
<path d="M55.9153 52.8166L63.1107 59.579C63.8701 60.2927 65.0502 60.3037 65.8227 59.6042L82.0485 44.9134L98.0908 30.3888C98.9359 29.6236 98.9715 28.3079 98.169 27.4983L86.2108 15.4332C85.4284 14.6437 84.1523 14.6437 83.3698 15.4332L65.9221 33.0369C65.1218 33.8443 63.8103 33.8232 63.0365 32.9904L46.9924 15.7237C46.2358 14.9094 44.9604 14.8683 44.1529 15.6321L31.8372 27.2813C31.0012 28.0721 31.0033 29.4035 31.8419 30.1916L38.8359 36.7648" stroke="#161251" stroke-width="2" stroke-linecap="round"/>
<defs>
<linearGradient id="paint0_linear" x1="5.55046" y1="100.52" x2="64.7828" y2="13.2172" gradientUnits="userSpaceOnUse">
<stop stop-color="#0087FC" stop-opacity="0.48"/>
<stop offset="1" stop-color="#0087FC" stop-opacity="0.2"/>
</linearGradient>
</defs>
</svg>
