<svg width="164" height="40" viewBox="0 0 164 40" fill="none" xmlns="http://www.w3.org/2000/svg">
<path d="M53.7591 19.7927H55.7189V14.2973C55.7189 12.9561 56.7454 11.9501 58.0706 11.9501C59.3771 11.9501 60.2357 12.9188 60.2357 14.3718V19.7927H62.1954V14.2973C62.1954 12.9561 63.222 11.9501 64.5471 11.9501C65.8536 11.9501 66.7122 12.9188 66.7122 14.3718V19.7927H68.6719V14.3532C68.6719 11.8197 67.0668 10.05 64.6591 10.05C63.3526 10.05 62.1394 10.5902 61.3555 11.5217C60.6463 10.5716 59.6197 10.05 58.4066 10.05C57.3427 10.05 56.3721 10.4598 55.7189 11.1677V10.2922H53.7591V19.7927Z" fill="white"/>
<path d="M75.187 20.0349C76.4935 20.0349 77.5946 19.5505 78.3972 18.7495V19.7927H80.357V10.2922H78.3972V11.3354C77.5946 10.5344 76.4935 10.05 75.187 10.05C72.406 10.05 70.2596 12.2109 70.2596 15.0425C70.2596 17.874 72.406 20.0349 75.187 20.0349ZM75.3549 18.1348C73.6005 18.1348 72.3126 16.8494 72.3126 15.0425C72.3126 13.2355 73.6005 11.9501 75.3549 11.9501C77.1467 11.9501 78.4159 13.2541 78.4159 15.0425C78.4159 16.8308 77.1467 18.1348 75.3549 18.1348Z" fill="white"/>
<path d="M82.6874 19.7927H84.6471V10.2922H82.6874V19.7927ZM83.6579 8.69014C84.3672 8.69014 84.9271 8.13128 84.9271 7.4234C84.9271 6.71552 84.3672 6.17529 83.6579 6.17529C82.9487 6.17529 82.4074 6.71552 82.4074 7.4234C82.4074 8.13128 82.9487 8.69014 83.6579 8.69014Z" fill="white"/>
<path d="M87.0801 19.7927H89.0398V6.38021H87.0801V19.7927Z" fill="white"/>
<path d="M92.7046 20.0535C93.3952 20.0535 94.0297 19.476 94.0297 18.7123C94.0297 17.9485 93.3952 17.371 92.7046 17.371C92.014 17.371 91.3794 17.9485 91.3794 18.7123C91.3794 19.476 92.014 20.0535 92.7046 20.0535Z" fill="white"/>
<path d="M96.2642 19.7927H98.224V14.8562C98.224 13.2169 99.4372 12.1178 101.21 12.1178H101.994V10.2922H101.21C99.8478 10.2922 98.9332 10.6834 98.224 11.5776V10.2922H96.2642V19.7927Z" fill="white"/>
<path d="M107.163 20.0349C108.339 20.0349 109.403 19.5878 110.094 18.8427V19.7927H112.053V10.2922H110.094V15.6945C110.094 17.0357 108.974 18.1348 107.499 18.1348C106.099 18.1348 105.166 17.1661 105.166 15.6199V10.2922H103.206V15.6758C103.206 18.2652 104.793 20.0349 107.163 20.0349Z" fill="white"/>
<path d="M52.8259 40H54.7857V37.8391H61.5982V40H63.5579V35.9762H62.1208V28.3385H54.8417V32.6231C54.8417 33.4986 54.8417 35.9762 53.0312 35.9762H52.8259V40ZM55.8122 35.9762C56.5588 35.2497 56.7828 33.8339 56.7828 32.2691V30.2014H60.161V35.9762H55.8122Z" fill="white"/>
<path d="M64.1062 37.9322H64.7594C66.9245 37.9322 67.9137 36.6468 67.9697 34.4114L68.0817 30.2014H71.6279V37.8391H73.5877V28.3385H66.1779L66.0286 34.0947C65.9913 35.6595 65.45 35.9762 64.1062 35.9762V37.9322Z" fill="white"/>
<path d="M75.272 37.8391H77.605L79.3968 34.9517H81.8231V37.8391H83.7829V28.3385H79.1168C77.0077 28.3385 75.4399 29.717 75.4399 31.6544C75.4399 32.9584 76.2238 34.0202 77.3624 34.5605L75.272 37.8391ZM79.1168 33.0888C78.1276 33.0888 77.437 32.4927 77.437 31.6544C77.437 30.7975 78.1276 30.2014 79.1168 30.2014H81.8231V33.0888H79.1168Z" fill="white"/>
<path d="M95.4835 38.0812C98.3578 38.0812 100.635 35.8458 100.635 33.1261C100.635 30.369 98.4885 28.1895 95.7822 28.1895C94.3637 28.1895 92.9452 28.7856 92.2173 29.6798C92.6092 27.3326 93.5424 26.5875 96.3234 26.3267L99.5523 26.0472L99.3844 24.1285L96.2114 24.4079C91.8067 24.7805 90.2202 26.6992 90.2202 31.6358C90.2202 33.1633 90.4628 34.4673 90.9481 35.4174C91.7507 36.9635 93.4491 38.0812 95.4835 38.0812ZM95.5022 36.1811C93.7291 36.1811 92.4226 34.8771 92.4226 33.1261C92.4226 31.375 93.7291 30.0896 95.5022 30.0896C97.2753 30.0896 98.5818 31.375 98.5818 33.1261C98.5818 34.8771 97.2753 36.1811 95.5022 36.1811Z" fill="white"/>
<path d="M102.316 37.8391H103.977L109.091 31.6172V37.8391H111.05V28.3385H109.427L104.275 34.635V28.3385H102.316V37.8391Z" fill="white"/>
<path d="M116.498 38.0812C119.111 38.0812 120.698 36.7214 120.698 34.8958C120.698 33.8339 120.175 33.1074 119.335 32.7349C119.559 32.5672 120.287 31.9152 120.287 30.7975C120.287 29.2141 118.85 28.0964 116.573 28.0964C115.267 28.0964 113.941 28.4689 112.822 29.3258L113.904 30.7602C114.557 30.2759 115.509 29.9592 116.48 29.9592C117.581 29.9592 118.271 30.369 118.271 31.0397C118.271 31.673 117.656 32.1015 116.722 32.1015H114.8V33.8898H116.853C117.917 33.8898 118.589 34.2997 118.589 34.9703C118.589 35.734 117.749 36.2184 116.461 36.2184C115.267 36.2184 114.296 35.8086 113.475 35.1193L112.355 36.5537C113.437 37.5596 114.893 38.0812 116.498 38.0812Z" fill="white"/>
<path d="M122.474 37.8391H124.434V33.9643H129.268V37.8391H131.228V28.3385H129.268V32.1015H124.434V28.3385H122.474V37.8391Z" fill="white"/>
<path d="M137.982 38.0812C139.606 38.0812 141.174 37.392 142.293 36.1811L141.006 34.8958C140.334 35.6036 139.363 36.1811 138.094 36.1811C136.508 36.1811 135.369 35.3056 134.977 34.0389H142.779C142.816 33.6849 142.835 33.3869 142.835 33.1261C142.835 30.2945 140.651 28.0964 137.87 28.0964C135.108 28.0964 132.905 30.3132 132.905 33.0888C132.905 35.8831 135.126 38.0812 137.982 38.0812ZM134.958 32.2505C135.276 30.8534 136.47 29.9592 137.926 29.9592C139.382 29.9592 140.558 30.8534 140.875 32.2505H134.958Z" fill="white"/>
<path d="M148.899 38.0812C150.728 38.0812 152.371 37.1498 153.248 35.6036L151.736 34.5977C151.027 35.6595 150.094 36.1811 148.974 36.1811C147.219 36.1811 145.913 34.8771 145.913 33.0888C145.913 31.3191 147.163 29.9965 148.899 29.9965C149.982 29.9965 150.952 30.4994 151.643 31.4309L153.117 30.3504C152.203 28.9346 150.616 28.0964 148.862 28.0964C146.043 28.0964 143.86 30.2945 143.86 33.0888C143.86 35.8831 146.081 38.0812 148.899 38.0812Z" fill="white"/>
<path d="M158.83 38.0812C160.137 38.0812 161.238 37.5969 162.04 36.7959V37.8391H164V28.3385H162.04V29.3817C161.238 28.5807 160.137 28.0964 158.83 28.0964C156.049 28.0964 153.903 30.2573 153.903 33.0888C153.903 35.9203 156.049 38.0812 158.83 38.0812ZM158.998 36.1811C157.244 36.1811 155.956 34.8958 155.956 33.0888C155.956 31.2818 157.244 29.9965 158.998 29.9965C160.79 29.9965 162.059 31.3005 162.059 33.0888C162.059 34.8771 160.79 36.1811 158.998 36.1811Z" fill="white"/>
<path fill-rule="evenodd" clip-rule="evenodd" d="M39.9676 11.2328C39.9676 10.0306 38.9898 9.05469 37.7853 9.05469C36.5808 9.05469 35.603 10.0306 35.603 11.2328V36.2205C35.603 37.4227 36.5808 38.3986 37.7853 38.3986C38.9898 38.3986 39.9676 37.4227 39.9676 36.2205V11.2328Z" fill="url(#paint0_linear)"/>
<path fill-rule="evenodd" clip-rule="evenodd" d="M30.9263 6.88072C30.9263 5.67857 29.9485 4.70264 28.744 4.70264C27.5396 4.70264 26.5618 5.67857 26.5618 6.88072V36.2247C26.5618 37.4268 27.5396 38.4027 28.744 38.4027C29.9485 38.4027 30.9263 37.4268 30.9263 36.2247V6.88072Z" fill="url(#paint1_linear)"/>
<path fill-rule="evenodd" clip-rule="evenodd" d="M19.7077 0L19.7094 0.000155603C20.1841 0.00140022 20.623 0.154177 20.9807 0.412436C21.1946 0.566146 21.3828 0.760151 21.5322 0.989939C21.7156 1.27029 21.8359 1.59514 21.8733 1.94472L21.8744 1.95561L21.8745 1.95639C21.882 2.02951 21.8858 2.10247 21.8858 2.17528V2.17808V36.2432C21.8858 37.4453 20.908 38.4213 19.7035 38.4213H2.18794C0.983634 38.4213 0.005663 37.4453 0.005663 36.2432V10.6911C-0.0573112 9.823 0.408137 8.96453 1.24192 8.56703L18.7305 0.228388C18.9342 0.126796 19.1562 0.0560079 19.39 0.0224032H19.3902H19.3905L19.3984 0.0211586L19.4011 0.0208474L19.4034 0.0205362L19.4108 0.0196028L19.412 0.0192916H19.4125C19.5085 0.00637869 19.6047 0.000155577 19.7005 0H19.7035H19.7077ZM4.37021 11.9031V34.0651H17.5212V5.63268L4.37021 11.9031Z" fill="url(#paint2_linear)"/>
<defs>
<linearGradient id="paint0_linear" x1="37.7853" y1="43.664" x2="37.7853" y2="11.8254" gradientUnits="userSpaceOnUse">
<stop stop-color="#5F11F2"/>
<stop offset="1" stop-color="#AA43CD"/>
</linearGradient>
<linearGradient id="paint1_linear" x1="28.744" y1="44.4499" x2="28.744" y2="7.88466" gradientUnits="userSpaceOnUse">
<stop stop-color="#FF5B6F"/>
<stop offset="1" stop-color="#FF9852"/>
</linearGradient>
<linearGradient id="paint2_linear" x1="6.29806" y1="8.29943" x2="17.4845" y2="35.0741" gradientUnits="userSpaceOnUse">
<stop stop-color="#49DEFF"/>
<stop offset="1" stop-color="#007CFF"/>
</linearGradient>
</defs>
</svg>
