<svg width="94" height="20" viewBox="0 0 94 20" fill="none" xmlns="http://www.w3.org/2000/svg">
<path fill-rule="evenodd" clip-rule="evenodd" d="M16.2165 19.3989H13.4191V5.99027H16.2165V19.3989ZM14.8238 0C15.8578 0 16.7072 0.847638 16.7072 1.88876C16.7072 2.92067 15.8578 3.7683 14.8238 3.7683C13.7805 3.7683 12.9312 2.92067 12.9312 1.88876C12.9312 0.847638 13.7805 0 14.8238 0Z" fill="white"/>
<path fill-rule="evenodd" clip-rule="evenodd" d="M6.30024 11.1027C3.99825 10.4639 3.30112 10.0001 3.35236 9.40012C3.40018 8.84165 4.07673 8.2607 5.6598 8.26329C6.65532 8.26494 7.77049 8.48022 9.01474 9.43136L10.6657 7.33113C9.48134 6.40091 7.79754 5.67095 5.75212 5.6456C4.29369 5.62754 2.7312 6.02823 1.81471 6.85754C1.02396 7.57304 0.47999 8.61062 0.51258 9.66184C0.550063 10.875 1.0163 11.7562 2.02631 12.4822C2.77007 13.0169 4.76555 13.7266 6.34105 14.1361C8.11274 14.5964 8.634 15.1427 8.49523 15.8509C8.34401 16.6226 7.22754 17.0123 6.08605 17.0171C4.78475 17.0225 3.18534 16.6322 1.76421 15.3405C1.76356 15.3398 1.76292 15.3392 1.76227 15.3385L0 17.4962C1.02894 18.5076 3.28081 19.7442 5.6165 19.7442C7.07973 19.7442 8.57048 19.4371 9.51818 18.8108C10.5761 18.1118 11.2084 17.1063 11.2954 15.9163C11.3825 14.7263 11.0358 13.4586 9.6863 12.5094C9.02341 12.0432 7.63081 11.472 6.30024 11.1027Z" fill="white"/>
<path d="M29.6902 16.343C28.4204 17.0529 27.257 17.0049 27.257 17.0049V17.004C27.2195 17.005 27.1823 17.0061 27.1442 17.0061C26.2639 17.0061 25.6114 16.7748 25.1495 16.299C24.3851 15.5116 24.2554 14.1455 24.2695 13.6933C24.2704 13.6736 24.2708 13.6539 24.2708 13.6343V8.6258H29.5244V5.98877H24.2708V0.475098H21.5289V5.98877H18.8086V8.6258H21.5289V13.7795C21.4369 16.6833 23.1323 19.7431 27.1442 19.7431C28.8971 19.7431 30.2396 19.1184 31.0788 18.5725L29.6902 16.343Z" fill="white"/>
<path fill-rule="evenodd" clip-rule="evenodd" d="M45.0729 17.0563C45.0314 17.1024 44.9871 17.1485 44.9418 17.1946C42.7999 19.4524 40.5971 19.7473 38.9251 19.7473C35.0281 19.7473 31.8633 16.5863 31.8633 12.6974C31.8633 8.8084 35.0281 5.64746 38.9251 5.64746C41.6874 5.64746 44.0814 7.23254 45.2419 9.54564C45.4127 9.89583 46.0996 11.4993 45.8558 14.0613H34.8232C35.3402 15.7938 37.0011 17.0379 38.9251 17.0379C40.9387 17.0379 42.3586 16.1808 43.316 15.2777L45.0729 17.0563ZM43.1022 11.4247C42.6655 9.75704 41.0821 8.39345 38.9255 8.39345C36.7697 8.39345 35.1993 9.7294 34.7838 11.4247H43.1022Z" fill="white"/>
<path fill-rule="evenodd" clip-rule="evenodd" d="M87.9559 12.333L93.3569 19.3829H89.9317L86.2203 14.5816L82.5181 19.3829H79.0929L84.4846 12.333L79.6007 5.99268H83.109L86.2203 10.0567L89.3408 5.99268H92.8491L87.9559 12.333Z" fill="white"/>
<path fill-rule="evenodd" clip-rule="evenodd" d="M48.3778 0.474369L51.1226 0.479898V7.45515C52.1058 6.34283 53.8387 5.64429 55.4682 5.64429C59.3661 5.64429 62.53 8.80246 62.53 12.6933C62.53 16.5841 59.3661 19.7432 55.4682 19.7432C53.8387 19.7432 52.1972 19.1303 51.1226 18.0466V19.3985H48.3778V0.474369ZM55.3791 16.9256C52.9759 16.9256 51.0851 15.2097 51.0851 12.6938C51.0851 10.1789 52.9759 8.4473 55.3791 8.4473C57.7822 8.4473 59.6093 10.295 59.6093 12.6938C59.6093 15.0926 57.7822 16.9256 55.3791 16.9256Z" fill="white"/>
<path fill-rule="evenodd" clip-rule="evenodd" d="M71.7057 5.64453C75.6036 5.64453 78.7685 8.80547 78.7685 12.6944C78.7685 16.5834 75.6036 19.7443 71.7057 19.7443C67.8078 19.7443 64.6439 16.5834 64.6439 12.6944C64.6439 8.80547 67.8078 5.64453 71.7057 5.64453ZM71.7063 8.38091C74.0901 8.38091 76.0252 10.3162 76.0252 12.6938C76.0252 15.0714 74.0901 17.0067 71.7063 17.0067C69.3235 17.0067 67.3884 15.0714 67.3884 12.6938C67.3884 10.3162 69.3235 8.38091 71.7063 8.38091Z" fill="white"/>
</svg>
