<svg width="199" height="41" viewBox="0 0 199 41" fill="none" xmlns="http://www.w3.org/2000/svg">
<path fill-rule="evenodd" clip-rule="evenodd" d="M93.4936 31.3658H89.6916V12.7504H93.4936V31.3658ZM91.5995 4.43408C93.0048 4.43408 94.1592 5.61114 94.1592 7.05688C94.1592 8.48983 93.0048 9.66689 91.5995 9.66689C90.1816 9.66689 89.0272 8.48983 89.0272 7.05688C89.0272 5.61114 90.1816 4.43408 91.5995 4.43408Z" fill="white"/>
<path fill-rule="evenodd" clip-rule="evenodd" d="M80.015 19.8485C76.8864 18.9616 75.9389 18.3177 76.0086 17.4848C76.0735 16.7094 76.993 15.9029 79.1446 15.9065C80.4976 15.9088 82.0132 16.2076 83.7043 17.5281L85.948 14.6123C84.3384 13.3209 82.05 12.3075 79.2701 12.2723C77.2879 12.2472 75.1644 12.8035 73.9187 13.9549C72.844 14.9482 72.1047 16.3887 72.149 17.8481C72.2 19.5323 72.8336 20.7557 74.2063 21.7636C75.2172 22.506 77.9292 23.4914 80.0705 24.0598C82.4783 24.6989 83.1868 25.4573 82.9982 26.4405C82.7927 27.5119 81.2753 28.0529 79.7239 28.0595C77.9553 28.0671 75.7816 27.5252 73.8501 25.7319C73.8492 25.731 73.8484 25.7301 73.8475 25.7292L71.4524 28.7247C72.8508 30.1288 75.9113 31.8457 79.0857 31.8457C81.0744 31.8457 83.1005 31.4193 84.3885 30.5498C85.8263 29.5793 86.6857 28.1834 86.8039 26.5312C86.9222 24.8791 86.451 23.1192 84.617 21.8015C83.716 21.1543 81.8234 20.3611 80.015 19.8485Z" fill="white"/>
<path d="M111.804 27.1235C110.079 28.109 108.498 28.0424 108.498 28.0424V28.0412C108.447 28.0425 108.396 28.044 108.344 28.044C107.148 28.044 106.261 27.723 105.633 27.0623C104.594 25.9692 104.418 24.0726 104.437 23.4448C104.439 23.4175 104.439 23.3902 104.439 23.3629V16.4095H111.579V12.7485H104.439V5.09375H100.713V12.7485H97.0154V16.4095H100.713V23.5645C100.588 27.596 102.892 31.8439 108.344 31.8439C110.727 31.8439 112.551 30.9766 113.692 30.2188L111.804 27.1235Z" fill="white"/>
<path fill-rule="evenodd" clip-rule="evenodd" d="M132.711 28.1136C132.655 28.1775 132.594 28.2415 132.533 28.3055C129.622 31.4401 126.628 31.8495 124.356 31.8495C119.059 31.8495 114.758 27.4611 114.758 22.0619C114.758 16.6628 119.059 12.2744 124.356 12.2744C128.11 12.2744 131.363 14.475 132.941 17.6863C133.173 18.1725 134.106 20.3987 133.775 23.9555H118.781C119.483 26.3608 121.741 28.088 124.356 28.088C127.092 28.088 129.022 26.8981 130.323 25.6443L132.711 28.1136ZM130.033 20.2964C129.439 17.9807 127.287 16.0871 124.356 16.0871C121.426 16.0871 119.292 17.9423 118.727 20.2964H130.033Z" fill="white"/>
<path fill-rule="evenodd" clip-rule="evenodd" d="M190.993 21.5563L198.333 31.3438H193.678L188.634 24.6781L183.602 31.3438H178.947L186.275 21.5563L179.637 12.7539H184.405L188.634 18.3961L192.875 12.7539H197.643L190.993 21.5563Z" fill="white"/>
<path fill-rule="evenodd" clip-rule="evenodd" d="M137.202 5.09297L140.933 5.10065V14.7845C142.269 13.2403 144.624 12.2705 146.839 12.2705C152.136 12.2705 156.437 16.655 156.437 22.0567C156.437 27.4584 152.136 31.8442 146.839 31.8442C144.624 31.8442 142.393 30.9934 140.933 29.4888V31.3657H137.202V5.09297ZM146.717 27.932C143.451 27.932 140.882 25.5497 140.882 22.0569C140.882 18.5654 143.451 16.1613 146.717 16.1613C149.984 16.1613 152.467 18.7266 152.467 22.0569C152.467 25.3872 149.984 27.932 146.717 27.932Z" fill="white"/>
<path fill-rule="evenodd" clip-rule="evenodd" d="M168.907 12.27C174.205 12.27 178.506 16.6584 178.506 22.0575C178.506 27.4567 174.205 31.8451 168.907 31.8451C163.61 31.8451 159.31 27.4567 159.31 22.0575C159.31 16.6584 163.61 12.27 168.907 12.27ZM168.907 16.07C172.147 16.07 174.777 18.7568 174.777 22.0577C174.777 25.3585 172.147 28.0453 168.907 28.0453C165.669 28.0453 163.039 25.3585 163.039 22.0577C163.039 18.7568 165.669 16.07 168.907 16.07Z" fill="white"/>
<path fill-rule="evenodd" clip-rule="evenodd" d="M36.5433 3.01416H33.1C31.7027 3.01416 30.5693 4.1701 30.5693 5.59388C30.5693 7.0179 31.7027 8.17384 33.1 8.17384H36.5433V3.01416Z" fill="#2C9BBA" fill-opacity="0.35"/>
<path fill-rule="evenodd" clip-rule="evenodd" d="M36.5433 33.2827H33.1C31.7027 33.2827 30.5693 34.4387 30.5693 35.8624C30.5693 37.2865 31.7027 38.4424 33.1 38.4424H36.5433V33.2827Z" fill="#2C9BBA" fill-opacity="0.35"/>
<path fill-rule="evenodd" clip-rule="evenodd" d="M48.0761 5.24316C51.9596 5.24316 55.1128 8.45815 55.1128 12.4181V28.9677C55.1128 32.9275 51.9596 36.1427 48.0761 36.1427H34.0026C30.7844 36.1427 43.1553 33.9346 42.3188 30.9245H47.9875C49.0957 30.9245 49.9952 30.0075 49.9952 28.8782V12.5076C49.9952 11.3783 49.0957 10.4613 47.9875 10.4613H42.9093C43.7458 7.45125 30.7844 5.24316 34.0026 5.24316H48.0761Z" fill="#6A53DE"/>
<path fill-rule="evenodd" clip-rule="evenodd" d="M38.2619 2.83496C42.4564 2.83496 45.8616 6.30724 45.8616 10.5839V30.8103C45.8616 35.087 42.4564 38.5592 38.2619 38.5592H25.3143C21.9898 38.5592 33.9001 36.3767 32.8707 33.3411H38.2639C39.6318 33.3411 40.7439 32.2079 40.7439 30.8123V10.5819C40.7439 9.18626 39.6318 8.05332 38.2639 8.05311H32.477C33.5065 5.01755 21.9898 2.83496 25.3143 2.83496H38.2619Z" fill="#005BD1"/>
<path fill-rule="evenodd" clip-rule="evenodd" d="M28.513 40.9675H8.09765C3.62761 40.9675 0 37.2678 0 32.7108V8.67518C0 4.11813 3.62761 0.418457 8.09765 0.418457H28.513C32.9831 0.418457 36.6107 4.11813 36.6107 8.67518V32.7108C36.6107 37.2678 32.9831 40.9675 28.513 40.9675ZM31.4936 17.4858H5.11813V32.49C5.11813 34.2844 6.54712 35.7413 8.3068 35.7413H28.3049C30.0646 35.7413 31.4936 34.2844 31.4936 32.49V17.4858ZM28.3049 5.64461H8.3068C6.54712 5.64481 5.11813 7.10148 5.11813 8.89592V12.2676H31.4936V8.89592C31.4936 7.10148 30.0646 5.64481 28.3049 5.64461Z" fill="#FF9E00"/>
</svg>
