<svg width="127" height="19" viewBox="0 0 127 19" fill="none" xmlns="http://www.w3.org/2000/svg">
<g clip-path="url(#clip0)">
<path d="M17.5353 3.68848C18.0024 4.26934 18.3966 4.90829 18.706 5.57628L9.78966 11.9541L6.06543 9.69459V6.96454L9.78966 9.2299L17.5353 3.68848Z" fill="#21A038"/>
<path d="M2.26244 9.49711C2.26244 9.37513 2.26851 9.25315 2.27457 9.13117L0.0181966 9.02661C0.00606553 9.18344 0 9.34028 0 9.50292C0 10.7518 0.254752 11.9832 0.74606 13.1391C1.23737 14.2892 1.95917 15.3406 2.86899 16.2177L4.47029 14.661C3.77276 13.9814 3.21473 13.1798 2.83867 12.2911C2.4626 11.4023 2.26244 10.4613 2.26244 9.49711Z" fill="url(#paint0_linear)"/>
<path d="M9.78991 2.19566C9.91728 2.19566 10.0386 2.20147 10.166 2.20728L10.2812 0.0174259C10.1174 0.00580862 9.95368 0 9.78991 0C8.50401 0 7.23025 0.243962 6.04141 0.720269C4.85257 1.19658 3.7729 1.89942 2.86914 2.78233L4.47044 4.33904C5.16798 3.65943 5.99895 3.11923 6.90878 2.75329C7.81861 2.38734 8.80123 2.19566 9.78991 2.19566Z" fill="url(#paint1_linear)"/>
<path d="M9.78965 16.8045C9.66227 16.8045 9.54096 16.8045 9.41359 16.7928L9.29834 18.9827C9.46211 18.9885 9.62588 18.9943 9.78965 18.9943C11.0755 18.9943 12.3493 18.7503 13.5321 18.274C14.7149 17.7977 15.8006 17.0949 16.7043 16.212L15.103 14.6553C14.4055 15.3349 13.5745 15.8751 12.6647 16.241C11.7549 16.607 10.7783 16.8045 9.78965 16.8045Z" fill="url(#paint2_linear)"/>
<path d="M14.0296 3.46778L15.9341 2.10856C14.1933 0.737729 12.0219 -0.00577484 9.78369 3.37782e-05V2.19569C11.3001 2.18988 12.7801 2.63715 14.0296 3.46778Z" fill="url(#paint3_linear)"/>
<path d="M19.5795 9.49709C19.5795 8.92785 19.5309 8.3586 19.4278 7.79517L17.3231 9.2996C17.3231 9.36349 17.3231 9.42739 17.3231 9.49709C17.3231 10.5194 17.1047 11.5301 16.6741 12.4595C16.2495 13.3947 15.6247 14.2253 14.8423 14.9107L16.3647 16.5429C17.3777 15.6542 18.1905 14.568 18.7485 13.354C19.2944 12.14 19.5795 10.8273 19.5795 9.49709Z" fill="#21A038"/>
<path d="M9.78973 16.8044C8.7404 16.8044 7.69712 16.5895 6.73877 16.1771C5.78042 15.7647 4.91911 15.1548 4.20945 14.3997L2.5293 15.875C3.44519 16.8625 4.56731 17.6467 5.81681 18.1869C7.06631 18.7271 8.41892 19.0059 9.78973 19.0001V16.8044Z" fill="url(#paint4_linear)"/>
<path d="M4.74324 4.08339L3.22686 2.45117C2.20785 3.3457 1.39507 4.43191 0.837043 5.64591C0.28508 6.85992 0 8.17266 0 9.49703H2.26244C2.26244 8.47471 2.4808 7.46401 2.91145 6.53463C3.33604 5.60525 3.96079 4.76881 4.74324 4.08339Z" fill="url(#paint5_linear)"/>
<path d="M56.4881 5.43118L59.2904 3.45044H49.9131V15.3465H59.2843V13.3658H52.588V10.3162H58.3017V8.33549H52.588V5.43118H56.4881Z" fill="#21A038"/>
<path d="M43.611 8.08567H40.3539V5.43113H45.5459L48.3421 3.44458H37.679V15.3406H43.2592C46.389 15.3406 48.1844 13.9814 48.1844 11.6057C48.1905 9.33452 46.565 8.08567 43.611 8.08567ZM43.144 13.3657H40.3539V10.0664H43.144C44.8363 10.0664 45.6309 10.6182 45.6309 11.7161C45.6309 12.8081 44.7877 13.3657 43.144 13.3657Z" fill="#21A038"/>
<path d="M66.1807 3.45044H61.0796V15.3465H63.7545V11.9775H66.1807C69.4379 11.9775 71.4516 10.3337 71.4516 7.70816C71.4456 5.08266 69.4318 3.45044 66.1807 3.45044ZM66.12 9.99676H63.7484V5.43118H66.12C67.8305 5.43118 68.7767 6.24439 68.7767 7.71397C68.7767 9.18355 67.8366 9.99676 66.12 9.99676Z" fill="#21A038"/>
<path d="M33.6696 12.5409C32.9782 12.901 32.2018 13.0869 31.4193 13.0811C29.0659 13.0811 27.3615 11.4721 27.3615 9.2532C27.3615 7.03431 29.0659 5.41951 31.4193 5.41951C32.2685 5.4079 33.0995 5.65186 33.7909 6.12236L35.6591 4.79799L35.5318 4.71086C34.44 3.7931 32.9842 3.30518 31.3162 3.30518C29.5087 3.30518 27.8649 3.89185 26.6943 4.95482C26.0999 5.50083 25.6328 6.16302 25.3174 6.8891C25.002 7.62098 24.8443 8.39934 24.8625 9.18931C24.8504 9.98509 25.002 10.7809 25.3174 11.5186C25.6328 12.2563 26.0938 12.9301 26.6822 13.4877C27.8589 14.5913 29.4966 15.2012 31.292 15.2012C33.1723 15.2012 34.81 14.5739 35.92 13.4296L34.2459 12.233L33.6696 12.5409Z" fill="#21A038"/>
<path d="M82.0544 8.08567H78.8033V5.43113H85.7908V3.44458H76.1223V15.3406H81.6965C84.8263 15.3406 86.6217 13.9814 86.6217 11.6057C86.6339 9.33452 85.0083 8.08567 82.0544 8.08567ZM81.5873 13.3657H78.7972V10.0664H81.5873C83.2796 10.0664 84.0742 10.6182 84.0742 11.7161C84.0742 12.8081 83.2372 13.3657 81.5873 13.3657Z" fill="#21A038"/>
<path d="M117.034 15.3291H114.323V3.42725H117.034V8.42266H118.508L122.493 3.42725H125.568L120.843 9.08484L126.333 15.3233H122.736L118.702 10.6416H117.04V15.3291H117.034Z" fill="#21A038"/>
<path d="M96.478 13.0635H90.74L89.7695 15.3753H86.8823L92.2624 3.47925H95.1496L100.445 15.3753H97.4545L96.478 13.0635ZM95.5803 10.9085L93.6272 6.28481L91.662 10.9085H95.5803Z" fill="#21A038"/>
<path d="M104.09 3.47925V8.44562H109.701V3.47925H112.497V15.3753H109.701V10.6877H104.09V15.3753H101.294V3.47925H104.09Z" fill="#21A038"/>
</g>
<defs>
<linearGradient id="paint0_linear" x1="3.34496" y1="15.9354" x2="1.00338" y2="8.96093" gradientUnits="userSpaceOnUse">
<stop offset="0.14" stop-color="#F1E813"/>
<stop offset="0.3" stop-color="#E6E418"/>
<stop offset="0.58" stop-color="#C9DA26"/>
<stop offset="0.89" stop-color="#A2CC39"/>
</linearGradient>
<linearGradient id="paint1_linear" x1="3.50699" y1="3.15582" x2="9.82133" y2="0.676425" gradientUnits="userSpaceOnUse">
<stop offset="0.06" stop-color="#0FA7DF"/>
<stop offset="0.54" stop-color="#0098F8"/>
<stop offset="0.92" stop-color="#0290EA"/>
</linearGradient>
<linearGradient id="paint2_linear" x1="9.14434" y1="17.6508" x2="16.319" y2="15.9808" gradientUnits="userSpaceOnUse">
<stop offset="0.12" stop-color="#A2CC39"/>
<stop offset="0.28" stop-color="#86C239"/>
<stop offset="0.87" stop-color="#219F38"/>
</linearGradient>
<linearGradient id="paint3_linear" x1="9.30609" y1="0.764216" x2="15.4256" y2="2.71004" gradientUnits="userSpaceOnUse">
<stop offset="0.06" stop-color="#0290EA"/>
<stop offset="0.79" stop-color="#0C89CA"/>
</linearGradient>
<linearGradient id="paint4_linear" x1="3.09042" y1="15.6248" x2="9.73678" y2="18.1842" gradientUnits="userSpaceOnUse">
<stop offset="0.13" stop-color="#F1E813"/>
<stop offset="0.3" stop-color="#EAE616"/>
<stop offset="0.53" stop-color="#D8DF1F"/>
<stop offset="0.8" stop-color="#BAD52D"/>
<stop offset="0.98" stop-color="#A2CC39"/>
</linearGradient>
<linearGradient id="paint5_linear" x1="0.798951" y1="9.74895" x2="3.34991" y2="2.91144" gradientUnits="userSpaceOnUse">
<stop offset="0.07" stop-color="#A2CC39"/>
<stop offset="0.26" stop-color="#81C45E"/>
<stop offset="0.92" stop-color="#0FA7DF"/>
</linearGradient>
<clipPath id="clip0">
<rect width="127" height="19" fill="white"/>
</clipPath>
</defs>
</svg>
