<svg width="120" height="33" viewBox="0 0 120 33" fill="none" xmlns="http://www.w3.org/2000/svg">
<path d="M22.0148 19.5568L13.8895 11.5111C13.0915 10.7212 13.0915 9.42702 13.8895 8.6371L22.0148 0.5939C22.8128 -0.196013 24.1202 -0.196013 24.9181 0.5939L33.0459 8.63959C33.8439 9.4295 33.8439 10.7237 33.0459 11.5136L24.9181 19.5568C24.1202 20.3467 22.8153 20.3467 22.0148 19.5568Z" fill="url(#paint0_linear)"/>
<path d="M8.72525 32.4064L0.599947 24.3632C-0.198029 23.5733 -0.198029 22.2791 0.599947 21.4892L8.72776 13.4435C9.52573 12.6536 10.8331 12.6536 11.6311 13.4435L19.7589 21.4892C20.5569 22.2791 20.5569 23.5733 19.7589 24.3632L11.6311 32.4089C10.8306 33.1963 9.52573 33.1963 8.72525 32.4064Z" fill="url(#paint1_linear)"/>
<path d="M35.2038 32.4064L27.076 24.3632C26.278 23.5733 26.278 22.2791 27.076 21.4892L35.2038 13.4435C36.0018 12.6536 37.3092 12.6536 38.1072 13.4435L46.235 21.4892C47.0329 22.2791 47.0329 23.5733 46.235 24.3632L38.1072 32.4089C37.3067 33.1963 36.0018 33.1963 35.2038 32.4064Z" fill="url(#paint2_linear)"/>
<path d="M61.9686 23.1063L65.9685 13.7366C65.9911 13.6819 65.951 13.6223 65.8907 13.6223H62.2898C62.2622 13.6223 62.2346 13.6074 62.2196 13.5851L60.9849 11.6699C60.9498 11.6152 60.99 11.5432 61.0552 11.5432H68.38C68.4252 11.5432 68.4628 11.5805 68.4628 11.6252V13.0783C68.4628 13.0883 68.4603 13.1007 68.4578 13.1081L64.3575 23.1684C64.345 23.2006 64.3149 23.2205 64.2797 23.2205H62.0439C61.9862 23.223 61.9435 23.1609 61.9686 23.1063Z" fill="#555555"/>
<path d="M67.7199 19.1519L68.4677 17.3411C68.4778 17.3162 68.5028 17.2988 68.5305 17.2988H72.1565C72.1941 17.2988 72.2242 17.3286 72.2242 17.3659V19.1767C72.2242 19.214 72.1941 19.2438 72.1565 19.2438H67.7801C67.735 19.2438 67.7024 19.1941 67.7199 19.1519Z" fill="#555555"/>
<path d="M90.6179 23.2032V21.4545H90.4448C89.4686 21.4545 88.6129 21.2856 87.8777 20.9453C87.1425 20.605 86.5628 20.0957 86.1412 19.4176C85.7196 18.7395 85.5063 17.9843 85.5063 17.1572C85.5063 16.3548 85.6945 15.6295 86.0684 14.9861C86.4448 14.3403 86.9869 13.836 87.6945 13.4709C88.4021 13.1057 89.2378 12.9219 90.1988 12.9219H90.6154V11.5234H92.8136V12.9219H93.2302C94.1862 12.9219 95.0193 13.1033 95.727 13.4709C96.4346 13.836 96.9791 14.3403 97.358 14.9861C97.737 15.632 97.9252 16.3548 97.9252 17.1572C97.9252 17.9868 97.7144 18.7395 97.2903 19.4176C96.8687 20.0957 96.2891 20.605 95.5538 20.9453C94.8186 21.2856 93.9629 21.4545 92.9867 21.4545H92.8136V23.2032H90.6179ZM90.6179 14.8023H90.2942C89.5238 14.8023 88.9141 15.0159 88.4674 15.4407C88.0207 15.8655 87.7974 16.4318 87.7974 17.1423C87.7974 17.8875 88.0333 18.4836 88.505 18.9307C88.9768 19.3754 89.6443 19.5989 90.505 19.5989H90.6154V14.8023H90.6179ZM92.8161 19.5989H92.9265C93.7722 19.5989 94.4346 19.3803 94.9164 18.9432C95.3957 18.506 95.6366 17.9048 95.6366 17.1447C95.6366 16.4393 95.4133 15.8729 94.9666 15.4457C94.52 15.0184 93.9102 14.8048 93.1398 14.8048H92.8161V19.5989Z" fill="#333333"/>
<path d="M84.4677 17.3608C84.4677 19.2388 83.9959 20.682 83.0524 21.6905C82.1089 22.699 80.7588 23.2032 78.9973 23.2032C77.2382 23.2032 75.8856 22.699 74.9421 21.6905C73.9986 20.682 73.5269 19.2338 73.5269 17.3435C73.5269 15.4556 73.9986 14.0124 74.9446 13.0163C75.8907 12.0202 77.2457 11.5234 79.0098 11.5234C80.7739 11.5234 82.1239 12.0252 83.0599 13.0287C84.0009 14.0323 84.4677 15.478 84.4677 17.3608ZM76.0839 17.3608C76.0839 18.6277 76.3273 19.584 76.8141 20.2249C77.3009 20.8658 78.0286 21.1862 78.9973 21.1862C80.9395 21.1862 81.9131 19.9119 81.9131 17.3608C81.9131 14.8048 80.947 13.528 79.0148 13.528C78.0462 13.528 77.316 13.8509 76.8216 14.4943C76.3298 15.1377 76.0839 16.0915 76.0839 17.3608Z" fill="#333333"/>
<path d="M60.8093 15.1807C60.8093 16.4376 60.4128 17.3989 59.6174 18.0646C58.8219 18.7303 57.6927 19.0632 56.2247 19.0632H55.1482V23.2164H52.6414V11.5366H56.4179C57.8508 11.5366 58.9424 11.8422 59.6876 12.4507C60.4354 13.0618 60.8093 13.9709 60.8093 15.1807ZM55.1507 17.0337H55.9763C56.7467 17.0337 57.3238 16.8822 57.7052 16.5816C58.0892 16.2811 58.2799 15.8414 58.2799 15.2676C58.2799 14.6863 58.1193 14.2591 57.7981 13.9809C57.4769 13.7052 56.975 13.5661 56.29 13.5661H55.1507V17.0337Z" fill="#555555"/>
<path d="M99.2476 11.5234H101.499V17.1646L101.466 18.6749L101.386 20.3938H101.433L106.881 11.5259H109.875V23.2057H107.646V17.5968C107.646 16.8467 107.694 15.7338 107.792 14.2583H107.727L102.256 23.2057H99.2451V11.5234H99.2476Z" fill="#333333"/>
<path d="M116.64 13.528C115.724 13.528 115.014 13.8683 114.512 14.549C114.01 15.2296 113.759 16.1785 113.759 17.3981C113.759 19.9318 114.72 21.1986 116.64 21.1986C117.446 21.1986 118.422 20.9999 119.568 20.6V22.6195C118.627 23.007 117.574 23.2032 116.412 23.2032C114.743 23.2032 113.466 22.7015 112.58 21.7004C111.694 20.6994 111.252 19.2586 111.252 17.3832C111.252 16.2008 111.471 15.1675 111.905 14.2782C112.339 13.3889 112.964 12.7083 113.777 12.2339C114.59 11.7594 115.543 11.5234 116.638 11.5234C117.752 11.5234 118.871 11.7892 119.998 12.3233L119.212 14.2807C118.783 14.0795 118.351 13.9031 117.917 13.7516C117.483 13.6001 117.059 13.528 116.64 13.528Z" fill="#333333"/>
<defs>
<linearGradient id="paint0_linear" x1="23.4673" y1="20.1493" x2="23.4673" y2="0.000223031" gradientUnits="userSpaceOnUse">
<stop stop-color="#FF8745"/>
<stop offset="0.1078" stop-color="#F67737"/>
<stop offset="0.3291" stop-color="#E65B1F"/>
<stop offset="0.5519" stop-color="#DA470E"/>
<stop offset="0.7752" stop-color="#D33B03"/>
<stop offset="1" stop-color="#D13700"/>
</linearGradient>
<linearGradient id="paint1_linear" x1="10.1776" y1="33.0841" x2="10.1776" y2="12.935" gradientUnits="userSpaceOnUse">
<stop stop-color="#4EB7E5"/>
<stop offset="1" stop-color="#328BCB"/>
</linearGradient>
<linearGradient id="paint2_linear" x1="36.6543" y1="32.9999" x2="36.6543" y2="12.8508" gradientUnits="userSpaceOnUse">
<stop stop-color="#9BDA32"/>
<stop offset="1" stop-color="#6EA70E"/>
</linearGradient>
</defs>
</svg>
