<svg width="109" height="31" viewBox="0 0 109 31" fill="none" xmlns="http://www.w3.org/2000/svg">
<path d="M108.137 9.84863H104.562C103.738 9.84863 103.187 10.0187 102.58 10.4652L90.092 20.9857C89.0426 21.8787 87.8886 20.6497 88.1646 19.3017L90.3094 11.2477C90.4013 10.6311 90.4682 10.0315 89.653 9.84863H84.9996L84.0004 13.8714L81.124 24.6215L81.0905 24.7533L79.8279 29.4309C79.6105 30.3282 80.2167 30.9958 80.8188 30.9958H83.0932H83.3733C84.3641 30.9958 85.1376 30.6641 85.7397 30.1028L98.5583 19.1359C99.3819 18.5193 100.757 19.3017 100.377 20.6455L98.0649 29.4309C97.8977 30.3835 98.1193 30.9958 98.9973 30.9958H99.3234H102.35H103.692L105.423 24.5619L108.952 11.4688C109.073 10.5205 108.965 9.84863 108.137 9.84863Z" fill="#007A82"/>
<path d="M65.9724 9.84863H62.3977C61.5699 9.84863 61.0222 10.0187 60.416 10.4652L47.9277 20.9857C46.8824 21.8787 45.7243 20.6497 46.0003 19.3017L48.1493 11.2477C48.2412 10.6311 48.3123 10.0315 47.4887 9.84863H42.8353L37.6719 29.4309C37.4504 30.3282 38.0566 30.9958 38.6628 30.9958H40.9372H41.2173C42.2082 30.9958 42.9775 30.6641 43.5837 30.1028L56.4023 19.1359C57.2302 18.5193 58.6057 19.3017 58.221 20.6455L55.909 29.4309C55.7418 30.3835 55.9675 30.9958 56.8413 30.9958H57.1674H60.1944H61.5365L66.796 11.4688C66.9089 10.5205 66.8002 9.84863 65.9724 9.84863Z" fill="#007A82"/>
<path d="M67.394 0.0596723C66.6749 0.114954 65.8889 0.476408 65.6631 1.32264L64.8938 4.23978C64.6304 5.25185 65.2199 5.57078 65.9349 5.66008H73.2723C74.0332 5.66008 74.3385 6.41701 74.2339 7.01235C74.2298 7.02085 74.2298 7.03361 74.2214 7.04211C74.2088 7.1144 68.4309 28.9675 68.4309 28.9675C68.2803 29.8222 68.4016 30.8045 69.4259 31.0001H76.4498L77.7166 26.246H77.1146C76.5083 26.246 75.9063 25.5741 76.1237 24.6811L76.1321 24.6556C76.1321 24.6471 76.1321 24.6385 76.1321 24.6258L80.8983 6.94006C81.0488 6.39575 81.8641 5.65583 82.4577 5.65583C82.4577 5.65583 101.431 5.71962 101.661 5.65583C102.028 5.55377 102.484 5.28587 102.685 4.59273L103.835 0.0554199H67.394V0.0596723Z" fill="#007A82"/>
<path d="M40.6104 0H35.0498V0.0042524H24.4931C20.5881 0.0042524 17.1765 2.24102 14.8101 5.65569L0.394416 28.9291C-0.211813 29.8816 -0.211813 30.9957 1.055 30.9957H4.85125C5.34459 30.9957 5.95082 30.3834 6.28111 29.9326L9.80142 24.396C10.1861 23.9495 11.1769 23.6093 11.8919 23.6093H23.7949C24.0164 23.6093 24.9488 23.6093 25.2247 22.104L25.831 20.0331C26.2699 18.7488 25.6094 18.8594 25.0073 18.8594H16.5159C14.5384 18.8594 13.8193 17.4604 14.7014 16.3973L19.5429 8.61962C20.4794 6.88464 21.0313 5.70672 24.1084 5.70672H31.4793C32.2528 5.70672 32.4159 6.5487 32.2528 7.27586L26.5292 28.9291C26.3661 29.8816 26.5292 30.9957 27.9005 30.9957H34.2973L35.539 26.1905H34.8909C33.8457 26.1905 33.7328 25.5187 33.9544 24.6257L40.6104 0Z" fill="#007A82"/>
<path d="M51.3141 0.0424805C50.5992 0.0977617 49.809 0.39543 49.5832 1.24166L48.3123 5.6599H58.8314C58.9192 5.6599 59.1115 5.63864 59.3456 5.57485C59.7177 5.4728 60.1693 5.20915 60.3741 4.52026L61.5239 0.0467329H51.3141V0.0424805Z" fill="#F39400"/>
</svg>
