<svg width="130" height="43" viewBox="0 0 130 43" fill="none" xmlns="http://www.w3.org/2000/svg">
<path d="M36.4 9.96151L19.795 0.287642C19.135 -0.0958808 18.325 -0.0958808 17.665 0.287642L2.72 8.99261C1.7 9.58808 1.35 10.9001 1.94 11.9296C2.125 12.2576 2.395 12.5301 2.72 12.7168L8.66 16.1786L1.06 20.6043C0.405 20.9928 0 21.6993 0 22.4664V31.1764C0 31.9434 0.405 32.6499 1.06 33.0385L17.665 42.7124C17.99 42.8991 18.36 43 18.735 43C19.105 43 19.475 42.8991 19.795 42.7124L36.4 33.0385C37.06 32.655 37.465 31.9434 37.465 31.1764V11.8236C37.465 11.0566 37.06 10.345 36.4 9.96151ZM3.19 11.8943C2.62 11.5612 2.425 10.8295 2.755 10.2542C2.86 10.0725 3.01 9.92114 3.19 9.81516L18.135 1.10515C18.505 0.888159 18.96 0.888159 19.33 1.10515L35.93 10.779C35.97 10.8042 36.01 10.8295 36.045 10.8598L27.865 15.6437L19.795 10.9304C19.135 10.5469 18.325 10.5469 17.665 10.9304L9.6 15.6437L3.19 11.8943ZM10.54 16.1786L18.135 11.7479C18.505 11.536 18.96 11.536 19.33 11.7479L26.925 16.1786L18.73 20.9525L10.54 16.1786ZM25.14 25.7667C25.71 26.0998 25.905 26.8315 25.575 27.4068C25.47 27.5884 25.32 27.7398 25.14 27.8458L19.33 31.2521C18.96 31.464 18.505 31.464 18.135 31.2521L12.32 27.8559C11.95 27.6439 11.725 27.2503 11.73 26.8214C11.725 26.3924 11.95 25.9938 12.32 25.7818L18.73 22.0425L25.14 25.7667ZM36.525 31.1764C36.525 31.6053 36.3 32.004 35.93 32.2159L19.33 41.8848C18.96 42.1017 18.505 42.1017 18.135 41.8848L1.53 32.2159C1.165 31.9989 0.935 31.6053 0.935 31.1764V22.4664C0.935 22.0374 1.165 21.6438 1.53 21.4268L9.6 16.7236L17.79 21.5025L11.855 24.9593C10.835 25.5547 10.49 26.8718 11.08 27.8963C11.265 28.2192 11.535 28.4917 11.855 28.6784L17.67 32.0696C18.33 32.4531 19.14 32.4531 19.8 32.0696L25.615 28.6835C26.635 28.0931 26.985 26.781 26.4 25.7566C26.215 25.4286 25.94 25.1561 25.615 24.9643L19.67 21.5025L36.5 11.6773C36.505 11.7277 36.505 11.7731 36.5 11.8236L36.525 31.1764Z" fill="url(#paint0_linear)"/>
<path d="M52.9601 22.5016C52.8251 22.1837 52.6251 21.896 52.3751 21.6639C52.0951 21.4166 51.7801 21.2047 51.4451 21.0382C51.0701 20.8666 50.6551 20.6849 50.2001 20.4982C49.8951 20.3872 49.6001 20.261 49.3101 20.1197C49.0451 20.0087 48.7901 19.8674 48.5601 19.6908C48.3401 19.5394 48.1601 19.3426 48.0251 19.1104C47.8901 18.8531 47.8251 18.5654 47.8351 18.2728C47.8251 18.0053 47.8851 17.7378 48.0001 17.5007C48.1251 17.2837 48.2951 17.102 48.5001 16.9607C48.7201 16.8093 48.9701 16.7033 49.2301 16.6529C49.5101 16.5822 49.7951 16.5469 50.0801 16.5519C50.5851 16.5419 51.0951 16.6125 51.5801 16.7538C51.8451 16.8295 52.1001 16.9254 52.3501 17.0414L52.6501 16.2542C52.3551 16.1079 52.0501 15.9918 51.7301 15.9161C51.1801 15.7849 50.6201 15.7243 50.0551 15.7243C49.1751 15.6739 48.3101 15.9262 47.5951 16.446C47.0101 16.9456 46.6951 17.6924 46.7451 18.4645C46.7351 18.8228 46.8001 19.1811 46.9401 19.5142C47.0801 19.7917 47.2701 20.039 47.5001 20.2459C47.7551 20.473 48.0401 20.6597 48.3501 20.806C48.6951 20.9776 49.0451 21.1239 49.4101 21.2451C49.7551 21.3662 50.0701 21.4974 50.3701 21.6235C50.6701 21.7346 50.9551 21.891 51.2101 22.0828C51.4601 22.2543 51.6701 22.4814 51.8301 22.7438C51.9951 23.0315 52.0801 23.3595 52.0701 23.6925C52.0701 24.5302 51.6251 25.5193 49.5351 25.5193C48.9201 25.5294 48.3101 25.4436 47.7251 25.267C47.3701 25.1408 47.0851 25.0298 46.8551 24.9289L46.5801 25.7363C46.6701 25.7817 46.7601 25.8221 46.8551 25.8574C47.0751 25.9533 47.3001 26.034 47.5301 26.0896C47.8251 26.1753 48.1251 26.2409 48.4301 26.2864C48.8001 26.3419 49.1701 26.3671 49.5451 26.3671C50.5001 26.4277 51.4451 26.1804 52.2501 25.6606C52.8651 25.2064 53.2151 24.4697 53.1701 23.7026C53.1851 23.2939 53.1151 22.8851 52.9601 22.5016Z" fill="#3E3A3A"/>
<path d="M61.5549 20.7355C61.3949 20.2762 61.1499 19.8524 60.8349 19.489C60.5299 19.1459 60.1549 18.8734 59.7349 18.6917C58.8399 18.3284 57.8399 18.3284 56.9449 18.6917C56.5299 18.8784 56.1549 19.1459 55.8499 19.489C55.5299 19.8524 55.2849 20.2762 55.1249 20.7355C54.9449 21.2603 54.8599 21.8103 54.8699 22.3654C54.8599 22.9205 54.9449 23.4756 55.1249 24.0005C55.2849 24.4546 55.5299 24.8735 55.8499 25.2318C56.1599 25.5699 56.5299 25.8373 56.9449 26.024C57.8399 26.3924 58.8399 26.3924 59.7349 26.024C60.1499 25.8373 60.5249 25.5699 60.8349 25.2318C61.1499 24.8684 61.3949 24.4445 61.5549 23.9853C61.7349 23.4605 61.8199 22.9054 61.8149 22.3503C61.8199 21.8002 61.7299 21.2552 61.5549 20.7355ZM60.1499 24.6413C59.3499 25.6506 57.8899 25.8121 56.8899 25.0047C56.7599 24.8987 56.6349 24.7776 56.5299 24.6413C56.0699 23.9752 55.8399 23.1779 55.8799 22.3654C55.8449 21.553 56.0699 20.7557 56.5299 20.0895C57.3299 19.0803 58.7899 18.9188 59.7899 19.7262C59.9199 19.8322 60.0449 19.9533 60.1499 20.0895C60.6099 20.7557 60.8399 21.553 60.7949 22.3654C60.8399 23.1779 60.6099 23.9803 60.1499 24.6413Z" fill="#3E3A3A"/>
<path d="M65.6499 16.103C66.0349 15.6388 66.6199 15.3966 67.2149 15.4571C67.5099 15.4521 67.7999 15.4823 68.0849 15.5479C68.1949 15.5782 68.2999 15.6136 68.3799 15.6438L68.5399 14.8768L68.1349 14.7859C67.7949 14.7203 67.4499 14.6901 67.1049 14.6951C66.3099 14.6194 65.5199 14.897 64.9399 15.4571C64.4499 16.0829 64.2049 16.865 64.2549 17.6624V26.11H65.2149V19.3479H68.2499V18.6111H65.2149V17.6927C65.1849 17.1275 65.3399 16.5724 65.6499 16.103Z" fill="#3E3A3A"/>
<path d="M74.06 25.2316C73.97 25.267 73.88 25.3073 73.76 25.3477C73.405 25.4688 73.03 25.5243 72.655 25.5092C72.415 25.5092 72.18 25.4739 71.95 25.4082C71.73 25.3326 71.535 25.2013 71.39 25.0197C71.23 24.8128 71.12 24.5706 71.07 24.3132C71.005 23.97 70.975 23.6218 70.98 23.2736V19.3476H73.98V18.6108H70.98V16.1936L70.015 16.3551V23.2635C70.01 23.7177 70.055 24.1719 70.14 24.621C70.21 24.9541 70.345 25.272 70.545 25.5495C70.74 25.7968 70.995 25.9835 71.29 26.0895C71.69 26.2359 72.11 26.3015 72.535 26.2863C72.925 26.2914 73.315 26.2409 73.69 26.1299L74.235 25.9482L74.06 25.2316Z" fill="#3E3A3A"/>
<path d="M83.0299 21.6994C82.6599 21.3058 82.1849 21.0232 81.6649 20.892L81.0399 20.7002L81.6449 20.4529C82.0399 20.3016 82.3849 20.0391 82.6449 19.701C82.8949 19.3226 83.0199 18.8734 82.9999 18.4193C83.0149 18.0004 82.9099 17.5866 82.7049 17.2233C82.4999 16.8902 82.2099 16.6228 81.8699 16.436C81.4599 16.2191 81.0199 16.0727 80.5649 15.997C80.0149 15.9011 79.4549 15.8557 78.8949 15.8557C78.6849 15.8557 78.4599 15.8557 78.2149 15.8557C77.9699 15.8557 77.7149 15.8557 77.4899 15.8961C77.2649 15.9365 76.9899 15.9465 76.7599 15.9768C76.5999 15.9768 76.4499 16.0172 76.2949 16.0525V25.9888C76.4499 26.0191 76.5999 26.0494 76.7699 26.0695C76.9399 26.0897 77.2699 26.1301 77.4899 26.1452C77.7099 26.1604 77.9899 26.1856 78.2299 26.1957C78.4699 26.2058 78.6949 26.1957 78.9049 26.1957C80.5349 26.1957 81.7249 25.9383 82.4549 25.4387C83.1649 24.9291 83.5599 24.0863 83.4999 23.2133C83.5399 22.6683 83.3699 22.1233 83.0299 21.6994ZM77.2949 16.7186L77.4999 16.6884C77.6699 16.6884 77.8749 16.648 78.0949 16.6379C78.7649 16.5975 79.4349 16.6278 80.0949 16.7186C80.4149 16.7792 80.7299 16.8801 81.0249 17.0265C81.2949 17.1577 81.5249 17.3545 81.6899 17.6068C81.8649 17.8692 81.9549 18.1871 81.9449 18.505C81.9549 18.8331 81.8699 19.1611 81.6999 19.4437C81.5399 19.696 81.3249 19.9029 81.0649 20.0442C80.7799 20.2006 80.4649 20.3016 80.1449 20.3419C79.7899 20.3974 79.4349 20.4227 79.0799 20.4227H77.2999L77.2949 16.7186ZM82.1499 24.3336C81.9499 24.6263 81.6749 24.8584 81.3499 25.0048C81.0099 25.1713 80.6449 25.2773 80.2699 25.3227C79.8499 25.3832 79.4199 25.4135 78.9949 25.4135C78.7649 25.4135 78.5499 25.4135 78.3799 25.4135C78.2099 25.4135 78.0349 25.4135 77.9049 25.4135L77.5099 25.3832H77.2949V21.1948H79.4199C79.8199 21.1897 80.2199 21.22 80.6149 21.2856C80.9499 21.3462 81.2749 21.4572 81.5749 21.6237C81.8499 21.7801 82.0749 22.0072 82.2299 22.2848C82.3949 22.5926 82.4699 22.9408 82.4549 23.294C82.4599 23.6675 82.3549 24.0359 82.1499 24.3487V24.3336Z" fill="#3E3A3A"/>
<path d="M90.825 18.6111V25.2672L90.685 25.3177C90.585 25.353 90.485 25.3782 90.38 25.3883L89.985 25.4388L89.52 25.4691C89.36 25.4691 89.2 25.4691 89.02 25.4691C88.365 25.5246 87.725 25.2521 87.31 24.7424C86.92 24.0763 86.745 23.3042 86.81 22.5321V18.6111H85.86V22.8551C85.855 23.3345 85.905 23.8088 86.015 24.2731C86.11 24.6617 86.28 25.03 86.515 25.348C86.755 25.6507 87.07 25.8879 87.425 26.0292C87.885 26.2159 88.375 26.3017 88.87 26.2866C89.475 26.2916 90.08 26.2462 90.68 26.1554L91.77 25.9384V18.6111H90.825Z" fill="#3E3A3A"/>
<path d="M95.62 15.4975C95.485 15.3713 95.305 15.3006 95.12 15.3057C94.935 15.3006 94.755 15.3662 94.62 15.4975C94.485 15.6287 94.415 15.8154 94.425 16.0021C94.415 16.1888 94.49 16.3755 94.62 16.5067C94.895 16.759 95.315 16.759 95.59 16.5067C95.72 16.3755 95.795 16.1888 95.79 16.0021C95.805 15.8204 95.74 15.6337 95.62 15.4975ZM94.67 18.6111V26.1099H95.62V18.6111H94.67Z" fill="#3E3A3A"/>
<path d="M100.21 25.4083C100.035 25.3679 99.8799 25.2721 99.7549 25.1409C99.6249 25.0147 99.5299 24.8482 99.4899 24.6715C99.4449 24.4596 99.4249 24.2476 99.4299 24.0307V14.7454L98.4699 14.9068V24.2628C98.4149 24.8128 98.5899 25.3578 98.9449 25.7767C99.3749 26.1148 99.8999 26.2914 100.445 26.2813L100.57 25.5143L100.21 25.4083Z" fill="#3E3A3A"/>
<path d="M107.74 14.9068V19.1761L107.39 18.9439C107.155 18.8077 106.905 18.7017 106.65 18.6159C105.815 18.3535 104.92 18.3939 104.11 18.7269C103.71 18.9137 103.355 19.1862 103.07 19.5243C102.775 19.8926 102.56 20.3165 102.425 20.7707C102.27 21.2955 102.195 21.8355 102.2 22.3805C102.2 22.9406 102.3 23.4957 102.5 24.0206C102.66 24.4798 102.91 24.8986 103.235 25.2569C103.565 25.59 103.965 25.8473 104.4 26.0189C104.895 26.2107 105.425 26.3066 105.955 26.2965C106.53 26.3066 107.1 26.2611 107.665 26.1653C108.08 26.0896 108.435 26.0088 108.715 25.9382V14.7454L107.74 14.9068ZM107.74 25.2771L107.57 25.3276C107.365 25.378 107.155 25.4184 106.945 25.4487C106.615 25.4891 106.28 25.5042 105.945 25.4991C105.19 25.5345 104.46 25.2317 103.945 24.6715C103.42 24.0256 103.155 23.2031 103.205 22.3654C103.2 21.9617 103.245 21.5579 103.33 21.1643C103.405 20.801 103.555 20.4578 103.765 20.1551C103.965 19.8624 104.235 19.6302 104.55 19.4738C105.275 19.1559 106.1 19.1458 106.835 19.4435C107.12 19.5495 107.39 19.6958 107.635 19.8826L107.725 19.9532L107.74 25.2771Z" fill="#3E3A3A"/>
<path d="M112.535 15.4974C112.4 15.3713 112.22 15.3006 112.035 15.3057C111.85 15.3006 111.67 15.3713 111.535 15.4974C111.4 15.6286 111.33 15.8154 111.34 16.0021C111.33 16.1888 111.405 16.3755 111.535 16.5067C111.815 16.7691 112.255 16.7691 112.535 16.5067C112.665 16.3705 112.735 16.1888 112.725 16.0021C112.735 15.8154 112.665 15.6337 112.535 15.4974ZM111.575 18.611V26.1099H112.535V18.611H111.575Z" fill="#3E3A3A"/>
<path d="M121.18 20.4377C121.09 20.0542 120.92 19.6909 120.68 19.378C120.45 19.0702 120.145 18.8279 119.795 18.6715C119.325 18.4949 118.83 18.4141 118.33 18.4293C117.72 18.4192 117.11 18.4646 116.51 18.5605C116.075 18.6311 115.71 18.7018 115.415 18.7724V26.0897H116.365V19.4386L116.8 19.3578L117.215 19.2973L117.69 19.2569C118.195 19.2064 118.705 19.2569 119.19 19.4083C119.475 19.5092 119.725 19.701 119.9 19.9482C120.085 20.2308 120.21 20.5538 120.265 20.8869C120.34 21.3158 120.37 21.7498 120.365 22.1838V26.1098H121.325V21.8759C121.33 21.3915 121.28 20.9121 121.18 20.4377Z" fill="#3E3A3A"/>
<path d="M128.945 18.5908C128.395 18.4898 127.835 18.4444 127.275 18.4495C126.755 18.4394 126.235 18.5352 125.75 18.722C125.325 18.8986 124.945 19.166 124.625 19.4991C124.315 19.8422 124.075 20.251 123.92 20.69C123.58 21.7094 123.58 22.8196 123.92 23.839C124.065 24.2578 124.3 24.6413 124.605 24.9643C124.885 25.257 125.23 25.4841 125.605 25.6254C126.385 25.9029 127.235 25.913 128.02 25.6556C128.25 25.59 128.47 25.4942 128.675 25.3731L129.03 25.1359V25.8878C129.085 26.5438 128.855 27.1948 128.395 27.6641C127.83 28.088 127.13 28.2898 126.43 28.2242C125.985 28.2293 125.545 28.1839 125.11 28.093C124.83 28.0375 124.55 27.9669 124.28 27.876L124.115 28.6532C124.415 28.744 124.725 28.8197 125.035 28.8752C125.485 28.956 125.945 28.9913 126.4 28.9913C127.615 28.9913 128.525 28.7339 129.1 28.2242C129.675 27.7146 130 26.887 130 25.7364V18.8178C129.705 18.7421 129.36 18.6715 128.945 18.5908ZM129.045 24.4092L128.955 24.4798C128.71 24.6565 128.435 24.7978 128.145 24.8886C127.79 25.0047 127.42 25.0602 127.045 25.0602C126.745 25.0602 126.445 24.9996 126.165 24.8886C125.875 24.7826 125.61 24.606 125.395 24.384C125.175 24.1216 125.005 23.8188 124.895 23.4958C124.76 23.077 124.69 22.643 124.7 22.2039C124.665 21.4369 124.895 20.6799 125.355 20.0693C125.83 19.4991 126.545 19.1913 127.285 19.2316C127.62 19.2316 127.955 19.2468 128.285 19.2871C128.53 19.3275 128.73 19.3679 128.885 19.4083L129.045 19.4587V24.4092Z" fill="#3E3A3A"/>
<defs>
<linearGradient id="paint0_linear" x1="3.53093e-08" y1="21.5002" x2="37.465" y2="21.5002" gradientUnits="userSpaceOnUse">
<stop stop-color="#FBEA35"/>
<stop offset="0.05" stop-color="#F7DD22"/>
<stop offset="0.13" stop-color="#F4D00F"/>
<stop offset="0.2" stop-color="#F2C904"/>
<stop offset="0.28" stop-color="#F1C600"/>
<stop offset="0.67" stop-color="#E79034"/>
<stop offset="0.89" stop-color="#DD6431"/>
<stop offset="1" stop-color="#D6382E"/>
</linearGradient>
</defs>
</svg>
