<svg width="79" height="21" viewBox="0 0 79 21" fill="none" xmlns="http://www.w3.org/2000/svg">
<path fill-rule="evenodd" clip-rule="evenodd" d="M77.7425 18.842L71.0163 9.65258L77.195 1.77598C77.195 1.77598 77.5861 1.31265 77.5861 1.23542C78.0553 0.694873 77.9771 0.385986 77.5861 0.385986C77.5079 0.385986 72.8934 0.385986 72.737 0.385986C72.1895 0.385986 72.1113 0.617651 71.642 1.23542C71.5638 1.31265 71.0945 1.93042 71.0945 1.93042L65.9325 8.57148H65.8543V0.772094C65.8543 0.54043 65.6979 0.385986 65.4633 0.385986H61.3181C61.0834 0.385986 60.927 0.54043 60.927 0.772094V19.4597C60.927 19.6914 61.0834 19.8458 61.3181 19.8458H65.4633C65.6979 19.8458 65.8543 19.6914 65.8543 19.4597V11.3515H65.9325L70.9381 18.3786C70.9381 18.3786 71.3291 18.9192 71.5638 19.2281C71.642 19.3053 71.7202 19.3825 71.7202 19.3825C72.1113 19.7686 72.3459 19.8458 72.8152 19.8458C73.0498 19.8458 76.9604 19.8458 77.8207 19.8458C78.29 19.8458 78.3682 19.6142 77.9771 19.1508L77.7425 18.842Z" fill="#00953B"/>
<path fill-rule="evenodd" clip-rule="evenodd" d="M27.9997 0.463379H20.335H19.9439C19.7093 0.463379 19.5529 0.617822 19.5529 0.849487V19.3827C19.5529 19.6143 19.7093 19.7688 19.9439 19.7688H20.335H23.5417H24.0109C24.1673 19.7688 24.402 19.6143 24.402 19.3827V14.8266H27.6869C33.7092 14.8266 37.1505 11.815 37.1505 7.56777C37.1505 3.3978 33.8656 0.463379 27.9997 0.463379ZM27.2176 10.9655H24.402V4.40168H27.5304C30.9718 4.40168 32.1449 5.94611 32.1449 7.64499C32.1449 9.65275 30.7371 10.9655 27.2176 10.9655Z" fill="#00953B"/>
<path fill-rule="evenodd" clip-rule="evenodd" d="M48.8823 0C43.5639 0 38.6366 3.9383 38.6366 10.116C38.6366 16.2938 43.5639 20.2321 48.8823 20.2321C54.1225 20.2321 59.0498 16.2938 59.0498 10.116C59.0498 3.9383 54.1225 0 48.8823 0ZM48.8823 15.5215C45.7539 15.5215 43.7986 13.1277 43.7986 10.116C43.7986 7.10439 45.7539 4.71052 48.8823 4.71052C52.0108 4.71052 53.9661 7.10439 53.9661 10.116C53.9661 13.1277 52.0108 15.5215 48.8823 15.5215Z" fill="#00953B"/>
<path fill-rule="evenodd" clip-rule="evenodd" d="M16.8937 18.842L10.0893 9.65258L16.268 1.77598C16.268 1.77598 16.6591 1.31265 16.6591 1.23542C17.1283 0.694873 17.0501 0.385986 16.6591 0.385986C16.5809 0.385986 11.9664 0.385986 11.81 0.385986C11.3407 0.385986 11.1843 0.694873 10.715 1.23542C10.6368 1.31265 10.2457 1.93042 10.2457 1.93042L5.00555 8.6487H4.92733V0.772094C4.92733 0.54043 4.77091 0.385986 4.53628 0.385986H0.391058C0.156423 0.385986 0 0.54043 0 0.772094V19.4597C0 19.6914 0.156423 19.8458 0.391058 19.8458H4.53628C4.77091 19.8458 4.92733 19.6914 4.92733 19.4597V11.3515H5.00555L10.0111 18.3786C10.0111 18.3786 10.4021 18.9192 10.715 19.2281C10.715 19.3053 10.7932 19.3825 10.7932 19.3825C11.1843 19.7686 11.4971 19.8458 11.8882 19.8458C12.1228 19.8458 16.1116 19.8458 16.8937 19.8458C17.363 19.8458 17.4412 19.6142 17.1283 19.1508C17.0501 19.1508 16.8937 18.842 16.8937 18.842Z" fill="#00953B"/>
</svg>
