<svg width="102" height="48" viewBox="0 0 102 48" fill="none" xmlns="http://www.w3.org/2000/svg">
<path d="M37.4823 43.1941L46.7398 23.9707L37.4823 4.74761L16.6811 0L0 13.303V34.6392L16.6811 47.9417L37.4823 43.1941ZM37.6208 40.8325V31.4204L44.9796 25.5515L37.6208 40.8325ZM44.4188 24.8479L37.6208 30.269V26.3995L44.4188 24.8479ZM44.2187 23.9707L37.621 25.4769V22.465L44.2187 23.9707ZM37.6208 21.5419V17.6725L44.4188 23.0938L37.6208 21.5419ZM45.0736 22.465L37.6208 16.5213V7.10916L45.0736 22.465ZM36.721 7.10916V15.8042L33.6957 13.3916L36.721 7.10916ZM30.6194 10.9383L35.9106 6.71889L32.9742 12.8161L30.6194 10.9383ZM26.8726 7.95017L35.3493 6.01533L29.8977 10.363L26.8726 7.95017ZM35.2085 5.12453L25.9728 7.23253L18.614 1.36413L35.2085 5.12453ZM24.8508 7.4885L21.0781 8.34943L18.0528 2.06744L24.8508 7.4885ZM17.2424 9.22541V2.45796L20.1785 8.55513L17.2424 9.22541ZM12.5698 10.2916L16.3426 2.45796V9.43063L12.5698 10.2916ZM2.2712 12.6424L15.5317 2.06744L11.4478 10.5478L2.2712 12.6424ZM2.47156 13.5194L10.9487 11.5845L9.26937 15.0707L2.47156 13.5194ZM2.2712 14.3968L8.90169 15.9098L7.56257 18.6162L2.2712 14.3968ZM1.69636 15.071L7.16186 19.4475L5.48299 22.934L1.69636 15.071ZM0.899786 15.4904L4.98367 23.9707L0.899786 32.4515V15.4904ZM5.48299 25.0077L7.1621 28.4939L1.71069 32.8411L5.48299 25.0077ZM7.56257 29.3252L8.86914 32.0389L2.27144 33.5454L7.56257 29.3252ZM8.2841 28.7504L13.5556 24.5463L16.3428 26.7689V30.3331L9.76942 31.834L8.2841 28.7504ZM5.98254 23.9707L7.88339 20.0231L12.834 23.9707L7.88339 27.9186L5.98254 23.9707ZM2.47156 34.4223L9.26937 32.8702L10.9487 36.3569L2.47156 34.4223ZM2.2712 35.2993L11.4478 37.3939L15.5317 45.874L2.2712 35.2993ZM12.5698 37.6497L16.3426 38.5111V45.4837L12.5698 37.6497ZM17.2424 38.7165L20.1785 39.3863L17.2424 45.4837V38.7165ZM21.0781 39.5915L24.8508 40.453L18.0528 45.874L21.0781 39.5915ZM25.9728 40.7092L35.1492 42.8033L18.614 46.5776L25.9728 40.7092ZM26.8726 39.9915L29.8994 37.5778L35.3493 41.9264L26.8726 39.9915ZM30.6194 37.0037L32.9742 35.1259L35.9106 41.2228L30.6194 37.0037ZM33.6957 34.5503L36.721 32.1373V40.8325L33.6957 34.5503ZM33.2952 33.719L30.548 28.0143L36.7207 26.605V30.9869L33.2952 33.719ZM24.6264 32.2242L26.1732 29.0124L29.6485 28.2193L32.5739 34.2941L29.8979 36.4276L24.6264 32.2242ZM21.4518 38.8161L24.226 33.0558L29.1764 37.0037L25.7295 39.7523L21.4518 38.8161ZM17.2424 37.7934V31.0507L20.7177 30.2576L23.5047 32.4802L20.5795 38.555L17.2424 37.7934ZM12.0705 36.6134L10.1694 32.665L16.3426 31.2562V37.588L12.0705 36.6134ZM25.051 29.2687L23.9047 31.6489L21.8392 30.0011L25.051 29.2687ZM17.2424 30.1619V27.4861L19.8176 29.5399L17.2424 30.1619ZM26.6725 27.9757L28.1017 25.0077L29.248 27.388L26.6725 27.9757ZM30.1476 27.1823L28.5998 23.9729L30.1476 20.7597L36.721 22.2598V25.6826L30.1476 27.1823ZM30.5483 19.9279L33.2955 14.2229L36.7212 16.9548V21.3367L30.5483 19.9279ZM26.6725 19.966L29.248 20.554L28.1017 22.934L26.6725 19.966ZM26.173 18.9293L24.6262 15.7172L29.8977 11.5136L32.5737 13.6476L29.6482 19.7224L26.173 18.9293ZM21.8392 17.9401L23.9047 16.2928L25.0857 18.7449L21.8392 17.9401ZM25.5505 19.71L27.6024 23.971L25.5505 28.2319L20.9399 29.284L17.2424 26.3354V21.6063L20.9399 18.6575L25.5505 19.71ZM19.8176 18.4015L17.2424 20.4556V17.8133L19.8176 18.4015ZM16.3426 22.3237V25.6178L14.2771 23.9707L16.3426 22.3237ZM8.2841 19.1915L9.76917 16.1082L16.3426 17.6084V21.1733L13.5553 23.3954L8.2841 19.1915ZM10.1694 15.2762L12.0705 11.3288L16.3426 10.3537V16.6857L10.1694 15.2762ZM17.2424 16.8907V10.148L20.5792 9.38667L23.5185 15.4904L20.7174 17.6839L17.2424 16.8907ZM21.4518 9.18729L25.7506 8.20614L29.1764 10.9383L24.226 14.8859L21.4518 9.18729Z" fill="black"/>
<path d="M17.2425 45.484L17.2148 46.5779L18.0529 45.8743L36.7214 7.10945L36.7928 6.01562L35.9105 6.71918L17.2425 45.484Z" fill="#D94360"/>
<path d="M61.8903 15.7803L62.0263 14.3722H61.977L61.4439 15.5916L59.0263 19.4888H58.654L56.1125 15.5792L55.6039 14.3846H55.5418L55.7407 15.7677V21.4503H54.5752V12.6499H55.5049L58.4432 17.1379L58.9019 18.0933H58.9267L59.3607 17.1126L62.1506 12.6499H63.1301V21.4503H61.8903V15.7803Z" fill="black"/>
<path d="M69.8835 19.1238H66.4811L65.5723 21.4494H64.3325L67.9032 12.5234H68.5483L72.1314 21.4494H70.8171L69.8835 19.1238ZM66.8497 18.0929H69.5272L68.5325 15.591L68.2005 14.246H68.1757L67.8442 15.6165L66.8497 18.0929Z" fill="black"/>
<path d="M78.7274 13.7564H75.8012V21.4503H74.5614V13.7564H71.6353V12.6499H78.7274V13.7564Z" fill="black"/>
<path d="M80.0667 12.7377C80.2403 12.7042 80.4324 12.6748 80.6434 12.6498C80.854 12.6245 81.0665 12.6039 81.2819 12.5869C81.4968 12.5704 81.7113 12.5575 81.9264 12.5492C82.1414 12.541 82.3439 12.5366 82.5341 12.5366C82.9472 12.5366 83.3462 12.5789 83.7304 12.6627C84.1151 12.7464 84.4539 12.8849 84.7475 13.0779C85.0406 13.2708 85.2764 13.5224 85.4542 13.8325C85.632 14.1429 85.7208 14.5246 85.7208 14.9778C85.7208 15.3302 85.6667 15.6488 85.5596 15.9342C85.452 16.2193 85.3034 16.4711 85.1132 16.689C84.9231 16.9071 84.6977 17.0897 84.4374 17.2364C84.177 17.3831 83.8938 17.4945 83.5883 17.5696L84.2329 18.0094L86.5638 21.4502H85.138L82.5591 17.7415L81.3069 17.5657V21.45H80.0671V12.7377H80.0667ZM82.571 13.6428H82.2176C82.0981 13.6428 81.9799 13.6472 81.8643 13.6555C81.7487 13.6637 81.6413 13.6722 81.5422 13.6807C81.4432 13.6892 81.3645 13.7018 81.3064 13.7181V16.7604H82.3235C82.621 16.7604 82.8954 16.7293 83.148 16.6662C83.3999 16.6033 83.6189 16.5071 83.805 16.3769C83.991 16.2472 84.1379 16.0775 84.2452 15.8679C84.3526 15.6583 84.4065 15.4028 84.4065 15.1009C84.4065 14.6485 84.2496 14.2925 83.9356 14.0326C83.6206 13.7728 83.1662 13.6428 82.571 13.6428Z" fill="black"/>
<path d="M88.9074 13.4795H87.9155V12.6499H91.139V13.4795H90.1471V20.6205H91.139V21.4501H87.9155V20.6205H88.9074V13.4795Z" fill="black"/>
<path d="M95.4663 16.9745L92.6023 12.6494H94.0774L95.9496 15.5409L96.2845 16.2702L96.607 15.5409L98.5659 12.6494H99.9298L96.9788 16.8865L100.066 21.4501H98.6155L96.5449 18.3823L96.1607 17.6156L95.8134 18.3823L93.6932 21.4501H92.3291L95.4663 16.9745Z" fill="black"/>
<path d="M54.5745 26.3388C54.7401 26.314 54.9322 26.2955 55.1512 26.2829C55.3698 26.27 55.5976 26.2596 55.8334 26.2511C56.0693 26.2431 56.3002 26.2368 56.5273 26.2326C56.7551 26.2283 56.9637 26.2266 57.1534 26.2266C57.9142 26.2266 58.5731 26.3375 59.1314 26.5595C59.6893 26.7815 60.1522 27.0899 60.5199 27.4836C60.8875 27.8773 61.1624 28.3469 61.3446 28.8914C61.5262 29.4364 61.6173 30.0316 61.6173 30.6769C61.6173 31.2637 61.5323 31.8319 61.363 32.3803C61.1938 32.9297 60.9228 33.4176 60.5509 33.845C60.1791 34.2724 59.7014 34.6163 59.1191 34.8757C58.5362 35.1355 57.8312 35.2655 57.005 35.2655C56.8641 35.2655 56.6762 35.2611 56.4406 35.2531C56.2053 35.2441 55.9634 35.2361 55.7154 35.2276C55.4675 35.2196 55.2382 35.2091 55.0271 35.1962C54.8166 35.1839 54.6658 35.1693 54.5747 35.1525V26.3388H54.5745ZM57.1908 27.3325H56.8189C56.6866 27.3325 56.5542 27.3369 56.4219 27.3454C56.2895 27.3534 56.17 27.3619 56.0624 27.3702C55.9553 27.3787 55.8723 27.3872 55.8145 27.3957V34.109C55.8558 34.117 55.9364 34.1238 56.0564 34.1274C56.1759 34.1318 56.3022 34.1359 56.4345 34.1403C56.5669 34.1447 56.6907 34.1488 56.8063 34.1532C56.9222 34.1571 57.005 34.1592 57.0543 34.1592C57.6743 34.1592 58.193 34.0606 58.6105 33.8637C59.028 33.6662 59.3629 33.4045 59.6147 33.0783C59.8671 32.7509 60.0446 32.3801 60.1478 31.9655C60.2513 31.5505 60.303 31.1211 60.303 30.6767C60.303 30.2995 60.2532 29.9139 60.1541 29.5202C60.055 29.126 59.8858 28.7678 59.6461 28.4448C59.4061 28.1228 59.0877 27.8561 58.6911 27.647C58.2941 27.4372 57.7943 27.3325 57.1908 27.3325Z" fill="black"/>
<path d="M64.1835 27.169H63.1921V26.3394H66.4153V27.169H65.4235V34.3099H66.4153V35.1395H63.1921V34.3099H64.1835V27.169Z" fill="black"/>
<path d="M71.586 30.7019H74.8342V34.5862C74.6858 34.7037 74.5078 34.8067 74.3011 34.8946C74.0942 34.9828 73.8732 35.0563 73.6381 35.1146C73.4023 35.1729 73.1609 35.2195 72.913 35.2526C72.665 35.2863 72.4207 35.3033 72.1815 35.3033C71.5862 35.3033 71.0345 35.2127 70.5262 35.033C70.0176 34.8528 69.5751 34.5738 69.1994 34.1969C68.8227 33.8197 68.5272 33.3444 68.313 32.7701C68.0976 32.1957 67.9905 31.5194 67.9905 30.74C67.9905 29.927 68.1209 29.2312 68.3812 28.6529C68.6416 28.0747 68.9779 27.6009 69.3915 27.2322C69.8046 26.8636 70.2658 26.5952 70.7741 26.4276C71.2822 26.2598 71.7883 26.1763 72.2929 26.1763C72.8384 26.1763 73.2908 26.2076 73.6505 26.2703C74.0099 26.3334 74.3094 26.4111 74.5493 26.5032L74.2518 27.5717C73.8217 27.3787 73.2017 27.2825 72.392 27.2825C72.0202 27.2825 71.6496 27.3413 71.2822 27.4586C70.914 27.5761 70.5835 27.7711 70.2903 28.0429C69.9967 28.3156 69.759 28.6719 69.5773 29.1114C69.3952 29.5517 69.3046 30.0943 69.3046 30.7398C69.3046 31.3346 69.3808 31.8501 69.5341 32.2856C69.6868 32.722 69.8998 33.0819 70.1726 33.367C70.4453 33.6521 70.7678 33.8612 71.1396 33.9955C71.5114 34.1298 71.916 34.1966 72.3544 34.1966C72.6276 34.1966 72.8894 34.1697 73.1417 34.116C73.3936 34.0618 73.615 33.9851 73.8052 33.8855V31.6823L71.5857 31.4504V30.7019H71.586Z" fill="black"/>
<path d="M77.4005 27.169H76.4087V26.3394H79.6326V27.169H78.6403V34.3099H79.6326V35.1395H76.4087V34.3099H77.4005V27.169Z" fill="black"/>
<path d="M87.8163 27.4461H84.8896V35.1395H83.6496V27.4461H80.7236V26.3394H87.8163V27.4461Z" fill="black"/>
<path d="M92.8711 32.8138H89.4686L88.5598 35.1394H87.3201L90.8908 26.2134H91.5353L95.1189 35.1394H93.8046L92.8711 32.8138ZM89.8373 31.7826H92.5148L91.52 29.2809L91.1881 27.9357H91.1633L90.8313 29.3062L89.8373 31.7826Z" fill="black"/>
<path d="M102 35.1395H96.3213V26.3394H97.5613V34.0336H102V35.1395Z" fill="black"/>
</svg>
