<svg width="91" height="46" viewBox="0 0 91 46" fill="none" xmlns="http://www.w3.org/2000/svg">
<path d="M44.0246 2.53678V1.82034C43.9419 0.817323 43.1069 0.0263365 42.0736 0H41.9685C40.9247 0.0267829 40.0835 0.828482 40.0134 1.8431V6.07077C42.0891 6.05426 43.7912 4.51647 44.0246 2.53678ZM85.696 20.95C86.8995 20.95 88.7354 20.8236 89.8347 20.6736C90.5049 20.5067 91 19.9161 91 19.205C91 18.3663 90.3079 17.6869 89.4538 17.6869C89.4538 17.6869 89.468 17.6834 89.4725 17.6807H85.3066C83.6831 17.6807 83.1221 17.1321 83.1221 15.3185V1.97167C83.0775 0.95213 82.229 0.137039 81.1811 0.137039C80.1051 0.137039 79.2324 0.993196 79.2324 2.04888C79.2324 2.04888 79.2288 2.04308 79.2288 2.03995V15.3185C79.2282 19.9894 82.0588 20.95 85.696 20.95ZM44.0246 19.0859V6.08283C41.9749 6.09087 40.2878 7.58534 40.0134 9.52576V19.0096C40.0175 19.0002 40.0185 18.9934 40.0185 18.9934C40.0185 20.0808 40.9174 20.9625 42.0281 20.9625C43.102 20.9625 43.9741 20.1304 44.0246 19.0859ZM64.3102 20.9455C65.3553 20.9455 66.204 20.1353 66.2522 19.1207V12.929H73.2541V19.0903C73.2819 20.1161 74.1359 20.942 75.1879 20.942C76.2284 20.942 77.0743 20.1317 77.1171 19.1184V6.03372C77.1171 1.41815 74.5673 0.181231 70.7043 0.181231H68.7724C64.9086 0.181231 62.3588 1.41815 62.3588 6.03372V19.0493C62.3692 20.0974 63.2365 20.9455 64.3102 20.9455ZM66.2517 6.03372C66.2517 4.10982 66.8132 3.50453 68.772 3.50453H70.7039C72.6917 3.50453 73.2537 4.10982 73.2537 6.03372V9.71458H66.2517V6.03372ZM88.9325 45.779H89.023C90.0754 45.7549 90.9203 44.9229 90.9408 43.8899V32.8415C90.9408 26.9904 88.0306 25.1504 82.8218 25.1504C81.1966 25.1504 78.1431 25.395 76.632 25.6159C75.763 25.753 75.4555 25.9994 75.4555 27.0163V43.8904C75.4659 44.9331 76.3336 45.7776 77.3982 45.7776C78.4725 45.7776 79.3461 44.9215 79.3461 43.8658V43.8739V28.6638C80.2702 28.5546 81.8104 28.4447 83.2118 28.4447C85.8999 28.4447 87.0205 29.7088 87.0205 32.8415V43.9345C87.0629 44.947 87.8974 45.7571 88.9325 45.779ZM64.7029 28.4171C66.7932 28.4171 68.423 28.4845 69.6501 28.5662C70.5146 28.5567 71.2107 27.8684 71.2107 27.0199C71.2107 26.3119 70.7257 25.7217 70.0637 25.5369C68.8976 25.3678 66.891 25.1504 64.7034 25.1504C61.37 25.1504 57.114 27.0997 57.114 33.6093V37.5652C57.114 44.0488 61.5957 45.9995 64.6196 45.9995C67.5044 45.9995 69.3244 45.8076 70.7239 45.533C71.0892 45.4513 71.2553 45.2317 71.2553 44.8737V37.062C71.2472 37.0679 71.2412 37.0719 71.2412 37.0719C71.2412 36.0238 70.374 35.1708 69.3039 35.1708C68.3202 35.1708 67.5158 35.8935 67.3924 36.8299V42.6463C66.5224 42.7039 65.6561 42.7297 64.6196 42.7297C62.9667 42.7297 61.0347 41.4665 61.0347 37.5652V33.6093C61.0347 29.7088 62.827 28.4171 64.7029 28.4171ZM53.4727 43.9091V27.2872C53.4727 26.2302 52.5991 25.3709 51.5216 25.3709C50.4861 25.3709 49.647 26.1633 49.5829 27.1618V43.8314C49.5924 44.8787 50.4592 45.729 51.5335 45.729C52.5763 45.729 53.4212 44.9206 53.4727 43.9091ZM42.3293 34.6538L38.9691 32.8116C37.1492 31.8234 36.6732 31.2747 36.6732 30.3659C36.6732 29.1303 37.5404 28.4171 39.6135 28.4171C41.099 28.4171 42.6023 28.4925 44.1116 28.6116C44.9656 28.5702 45.6472 27.8832 45.6472 27.0372C45.6472 26.3012 45.1307 25.6887 44.4383 25.5111C44.3254 25.4923 44.2035 25.4772 44.0825 25.4602C44.0651 25.4593 44.051 25.4566 44.036 25.4566L44.0364 25.4553C42.8284 25.2919 41.1163 25.1504 39.7814 25.1504C34.5734 25.1504 32.7807 27.3462 32.7807 30.3664C32.7807 32.2912 33.4797 33.8842 36.0854 35.3961L39.7814 37.5656C41.6291 38.6369 42.161 39.1868 42.161 40.2581C42.161 41.8518 41.4053 42.7303 38.9137 42.7303C38.1192 42.7303 36.2861 42.6499 34.973 42.5499C34.0965 42.5677 33.3904 43.2659 33.3904 44.1296C33.3904 44.8479 33.8878 45.4496 34.5584 45.6397C34.6568 45.6589 34.7581 45.6781 34.8624 45.6946C34.9097 45.6996 34.9543 45.7098 35.0016 45.7098C35.0016 45.7098 34.9848 45.7129 34.9793 45.7151C36.0635 45.8929 37.2975 46 38.8577 46C44.4583 46 46.2232 43.0338 46.2232 40.2586C46.2241 38.0865 45.4092 36.33 42.3293 34.6538ZM30.7524 20.95C33.6362 20.95 35.4561 20.7585 36.8553 20.484C37.2188 20.4001 37.3885 20.1809 37.3885 19.8246V11.7376C37.2702 10.7944 36.459 10.0614 35.4698 10.0614C34.3965 10.0614 33.526 10.9154 33.526 11.9688L33.5242 11.967V17.6004C32.6543 17.6534 31.7875 17.6807 30.7524 17.6807C29.0994 17.6807 27.1674 16.4161 27.1674 12.517V8.55979C27.1674 4.65932 28.9597 3.36884 30.8365 3.36884C33.0278 3.36884 34.7091 3.44204 35.9557 3.52819C36.6792 3.46436 37.2838 2.91263 37.3716 2.17521C37.4723 1.332 36.8553 0.566457 35.9975 0.468253C35.9975 0.468253 36.0153 0.464236 36.0272 0.462897C34.8424 0.29729 32.9232 0.0986501 30.8361 0.0986501C27.5023 0.0986501 23.2471 2.04844 23.2471 8.55935V12.516C23.2477 19.0006 27.7275 20.95 30.7524 20.95ZM61.022 1.72169C61.022 0.851694 60.3299 0.146859 59.4586 0.0919543H47.5568C47.5568 0.0937399 47.5623 0.0973109 47.5623 0.0973109C46.6436 0.0973109 45.9015 0.825804 45.9015 1.7266C45.9015 2.62561 46.6436 3.3541 47.5623 3.3541L47.5532 3.35678H51.4766V19.0895C51.5308 20.1192 52.3911 20.938 53.454 20.938C54.5505 20.938 55.4437 20.0671 55.4437 18.9877C55.4437 18.9877 55.4446 18.9944 55.4492 19.002V3.35723H59.3931C60.2963 3.33357 61.022 2.61221 61.022 1.72169ZM23.5697 28.4171H28.3686C29.188 28.3764 29.8392 27.7171 29.8392 26.9033C29.8392 26.1901 29.3346 25.5954 28.6584 25.4325C28.5875 25.4209 28.5129 25.4106 28.4387 25.3995C28.3887 25.3937 28.3414 25.3857 28.2904 25.3857C28.2904 25.3857 28.3026 25.3821 28.3072 25.3812C27.4691 25.2629 26.2392 25.15 23.9602 25.15C20.3189 25.15 17.492 26.1079 17.492 30.7797V40.3684C17.492 45.0363 20.3183 45.9986 23.9602 45.9986C26.6173 45.9986 27.8504 45.8428 28.6935 45.7089C29.3518 45.5303 29.8347 44.9442 29.8347 44.2403C29.8347 43.4646 29.249 42.8315 28.4892 42.7293H23.5697C21.944 42.7293 21.3585 42.1794 21.3585 40.3684V36.8229H27.9323H27.9291C28.7973 36.8229 29.5011 36.1304 29.5011 35.2797C29.5011 34.461 28.8527 33.8008 28.0333 33.7455H21.3585V30.7793C21.3585 28.967 21.944 28.4171 23.5697 28.4171ZM0.727996 20.6219C1.56883 20.7576 4.25741 20.95 6.2462 20.95C11.8467 20.95 15.0367 17.9829 15.0367 12.5433V8.50623C15.0367 3.06663 11.8467 0.0995428 6.2462 0.0995428C4.25741 0.0990965 1.56883 0.290594 0.727996 0.428079C0.251159 0.51066 0 0.731172 0 1.28156V19.768C0 20.3188 0.251159 20.5389 0.727996 20.6219ZM3.89251 3.39606C4.47945 3.36794 5.20927 3.31259 6.24666 3.31259C9.04626 3.31259 11.172 4.38479 11.172 8.50578V12.5433C11.172 16.6648 9.04626 17.7374 6.24666 17.7374C5.20927 17.7374 4.47945 17.6807 3.89251 17.6534V3.39606ZM15.0367 33.5545C15.0367 28.117 11.8467 25.15 6.2462 25.15C4.25741 25.15 1.56838 25.3401 0.727996 25.478C0.251159 25.5606 0 25.7794 0 26.3293V44.8188C0 45.3687 0.251159 45.5866 0.727996 45.6724C1.56883 45.8076 4.25741 45.9991 6.2462 45.9991C11.8467 45.9991 15.0367 43.0329 15.0367 37.5929V33.5545ZM11.1716 37.5929C11.1716 41.7124 9.04581 42.7846 6.2462 42.7846C5.20881 42.7846 4.479 42.7297 3.89205 42.7039V28.4447C4.479 28.4165 5.20881 28.3617 6.2462 28.3617C9.04581 28.3617 11.1716 29.4334 11.1716 33.5545V37.5929ZM20.7661 19.0546C20.7661 19.0546 20.7793 19.0895 20.7916 19.1448V1.63152C20.5959 0.750365 19.802 0.0901689 18.846 0.0901689C17.891 0.0901689 17.097 0.747241 16.9009 1.62483V19.2573C17.0056 20.2143 17.82 20.9616 18.8219 20.9616C19.8962 20.9621 20.7661 20.1072 20.7661 19.0546Z" fill="#66CCCC"/>
</svg>
