<svg width="75" height="57" viewBox="0 0 75 57" fill="none" xmlns="http://www.w3.org/2000/svg">
<path d="M4.45483 0V40.8892C5.76934 38.2321 8.90955 31.8109 8.90955 20.5922V20.297C8.83652 9.07828 5.76934 2.65706 4.45483 0Z" fill="#1B857E"/>
<path d="M0 20.5922C0 31.8109 3.14021 38.2321 4.45471 40.8892V0C3.06718 2.65706 0 9.07828 0 20.297V20.5922Z" fill="#20A098"/>
<path d="M43.89 0C44.109 3.0999 44.6202 10.6282 40.5307 21.7731L40.3846 22.1421C36.295 33.3608 31.037 38.6749 28.8462 40.8892L43.89 0Z" fill="#1B857E"/>
<path d="M32.3515 18.7471L32.2055 19.0423C30.4528 23.6921 29.2844 28.5634 28.8462 33.5085C29.0653 35.9441 29.0653 38.3798 28.8462 40.8154L43.89 0C41.6992 2.21422 36.5142 7.52834 32.3515 18.7471Z" fill="#20A098"/>
<path d="M28.8461 33.5823C28.4079 28.6372 27.2394 23.7659 25.4868 19.1161L25.3407 18.8208C21.2511 7.52833 16.0661 2.21421 13.8752 0L28.9191 40.8892C29.0651 38.4535 29.0651 36.0179 28.8461 33.5823Z" fill="#1B857E"/>
<path d="M13.8753 0C13.6562 3.09991 13.145 10.6282 17.2346 21.7731L17.3807 22.0684C21.4703 33.2871 26.7283 38.6012 28.9192 40.8154L13.8753 0Z" fill="#20A098"/>
<path d="M74.8538 40.8892C75.0729 37.7893 75.5841 30.2609 71.4945 19.1161L71.3485 18.8208C67.2589 7.52833 62.0009 2.21421 59.8101 0L74.8538 40.8892Z" fill="#1B857E"/>
<path d="M59.8101 0C60.0291 2.43564 60.0291 4.87128 59.8101 7.30692C60.2482 12.252 61.4167 17.1233 63.1694 21.7731L63.3154 22.0684C67.405 33.2871 72.663 38.6012 74.8539 40.8154L59.8101 0Z" fill="#20A098"/>
<path d="M59.8102 0L44.8394 40.8892C47.0302 38.6749 52.2152 33.3608 56.3778 22.1421L56.5239 21.8469C58.2766 17.1971 59.445 12.3258 59.8832 7.38071C60.0292 4.87127 60.0293 2.43564 59.8102 0Z" fill="#1B857E"/>
<path d="M44.8393 40.8892C44.5472 37.7893 44.109 30.2609 48.1986 19.0422L48.3446 18.747C52.4342 7.52833 57.6192 2.21421 59.8101 0L44.8393 40.8892Z" fill="#20A098"/>
<path d="M4.89304 50.7057H2.92128V56.0195H2.191V50.7057H0.219238V50.0415H4.96606L4.89304 50.7057Z" fill="#ADADAD"/>
<path d="M6.93799 50.0415H10.4433V50.7057H7.7413V52.6984H10.2242V53.3626H7.7413V55.5028H10.5164V56.0933H6.93799V50.0415Z" fill="#ADADAD"/>
<path d="M17.0157 55.7975C16.7967 55.9452 16.5776 56.019 16.2855 56.0928C15.9933 56.0928 15.7012 56.0928 15.4091 56.0928C15.044 56.0928 14.6788 56.019 14.3137 55.8714C13.9485 55.7237 13.6564 55.5761 13.4373 55.2809C13.1452 54.9857 12.9992 54.6905 12.8531 54.3214C12.7071 53.8786 12.634 53.4358 12.634 52.9191C12.634 52.4025 12.7071 51.9596 12.8531 51.5168C12.9992 51.1478 13.2183 50.8525 13.5104 50.5573C13.7295 50.3359 14.0946 50.1145 14.3867 50.0407C14.6788 49.8931 15.044 49.8931 15.4091 49.8931C15.7012 49.8931 15.9933 49.8931 16.2855 49.9669C16.5045 49.9669 16.6506 50.0407 16.8697 50.1145L16.6506 50.7049C16.2855 50.5573 15.8473 50.4835 15.4091 50.4835C15.19 50.4835 14.8979 50.5573 14.6788 50.6311C14.4597 50.7049 14.2407 50.8525 14.0216 51.074C13.8025 51.2954 13.6564 51.5168 13.5834 51.812C13.4373 52.1811 13.3643 52.5501 13.4373 52.9929C13.4373 53.362 13.5104 53.731 13.5834 54.1C13.6564 54.3952 13.8025 54.6167 14.0216 54.8381C14.2407 55.0595 14.4597 55.2071 14.6788 55.2809C14.9709 55.3547 15.2631 55.4285 15.5552 55.4285C15.7743 55.4285 16.0664 55.4285 16.2855 55.3547C16.4315 55.2809 16.6506 55.2809 16.7967 55.1333L17.0157 55.7975Z" fill="#ADADAD"/>
<path d="M23.0772 53.2888H20.0101V56.0195H19.2798V50.0415H20.0101V52.6246H23.0772V50.0415H23.8075V56.0195H23.0772V53.2888Z" fill="#ADADAD"/>
<path d="M27.6047 52.1072L27.0935 51.2215L27.1666 52.1072V56.019H26.4363V49.9668H26.8014L29.8686 53.9524L30.3067 54.7642H30.3797L30.3067 53.9524V50.0406H31.037V56.0928H30.6719L27.6047 52.1072Z" fill="#ADADAD"/>
<path d="M33.447 53.0667C33.3739 52.2548 33.6661 51.4429 34.1042 50.7787C34.6154 50.262 35.2727 49.9668 36.003 49.9668C36.3681 49.9668 36.8063 50.0406 37.1714 50.1882C37.4635 50.3358 37.7557 50.5573 37.9747 50.7787C38.1938 51.0739 38.3399 51.3691 38.4859 51.7382C38.559 52.181 38.632 52.55 38.632 52.9929C38.705 53.8048 38.4129 54.6166 37.9747 55.2809C37.4635 55.7975 36.7333 56.0928 36.003 56.0928C35.6378 56.0928 35.1997 56.019 34.8345 55.8714C34.5424 55.7237 34.2503 55.5023 34.0312 55.2071C33.8121 54.9119 33.6661 54.6166 33.52 54.2476C33.52 53.8786 33.447 53.4357 33.447 53.0667ZM34.2503 53.0667C34.2503 53.3619 34.2503 53.7309 34.3233 54.0262C34.3963 54.3214 34.4694 54.5428 34.6154 54.8381C34.7615 55.0595 34.9806 55.2809 35.1997 55.3547C35.4187 55.5023 35.7109 55.5761 36.003 55.5761C36.5142 55.5761 37.0254 55.3547 37.3175 54.9857C37.6826 54.469 37.8287 53.8048 37.8287 53.1405C37.8287 52.8453 37.8287 52.4762 37.7557 52.181C37.6826 51.8858 37.6096 51.6644 37.3905 51.3691C37.2445 51.1477 37.0254 50.9263 36.8063 50.8525C36.076 50.4834 35.1997 50.6311 34.6885 51.2215C34.3963 51.7382 34.2503 52.4024 34.2503 53.0667Z" fill="#ADADAD"/>
<path d="M44.8395 56.0195H41.042V50.0415H41.7723V55.3553H44.7664L44.8395 56.0195Z" fill="#ADADAD"/>
<path d="M46.6653 53.0667C46.5922 52.2548 46.8843 51.4429 47.3225 50.7787C47.8337 50.262 48.4909 49.9668 49.2212 49.9668C49.5863 49.9668 50.0245 50.0406 50.3896 50.1882C50.6817 50.3358 50.9738 50.5573 51.1929 50.7787C51.412 51.0739 51.558 51.3691 51.7041 51.7382C51.7771 52.181 51.8501 52.55 51.8501 52.9929C51.9232 53.8048 51.6311 54.6166 51.1929 55.2809C50.6817 55.7975 49.9515 56.0928 49.2212 56.0928C48.8561 56.0928 48.4179 56.019 48.0528 55.8714C47.7607 55.7237 47.4685 55.5023 47.2495 55.2071C47.0304 54.9119 46.8843 54.6166 46.7383 54.2476C46.6653 53.8786 46.5922 53.4357 46.6653 53.0667ZM47.4685 53.0667C47.4685 53.3619 47.4685 53.7309 47.5416 54.0262C47.6146 54.3214 47.6876 54.5428 47.8337 54.8381C47.9797 55.0595 48.1988 55.2809 48.4179 55.3547C48.637 55.5023 48.9291 55.5761 49.2212 55.5761C49.7324 55.5761 50.2436 55.3547 50.5357 54.9857C50.9008 54.469 51.0469 53.8048 51.0469 53.1405C51.0469 52.8453 51.0469 52.4762 50.9738 52.181C50.9008 51.8858 50.8278 51.6644 50.6087 51.3691C50.4626 51.1477 50.2436 50.9263 50.0245 50.8525C49.2942 50.4834 48.4179 50.6311 47.9067 51.2215C47.5416 51.7382 47.3955 52.4024 47.4685 53.0667Z" fill="#ADADAD"/>
<path d="M56.3779 53.0667H58.4957V55.7237C58.3497 55.7975 58.2766 55.8713 58.1306 55.9451C57.9845 56.0189 57.8385 56.0189 57.6924 56.0927C57.5464 56.1665 57.4003 56.1665 57.1812 56.1665C57.0352 56.1665 56.8891 56.1665 56.67 56.1665C56.3049 56.1665 55.9398 56.0927 55.5746 55.9451C55.2095 55.7975 54.9174 55.6499 54.6983 55.3546C54.4062 55.0594 54.2602 54.7642 54.1141 54.3952C53.968 53.9523 53.895 53.5095 53.895 52.9928C53.895 52.4762 53.968 52.0334 54.1871 51.5905C54.3332 51.2215 54.5523 50.9263 54.8444 50.6311C55.1365 50.4096 55.4286 50.1882 55.7937 50.1144C56.1589 49.9668 56.451 49.9668 56.8161 49.9668C57.1082 49.9668 57.4003 49.9668 57.6924 50.0406C57.9115 50.0406 58.1306 50.1144 58.2766 50.1882L58.0576 50.7787C57.6924 50.6311 57.2543 50.5572 56.8161 50.5572C56.597 50.5572 56.3049 50.6311 56.0858 50.7049C55.8668 50.7787 55.5746 50.9263 55.4286 51.1477C55.2095 51.3691 55.0634 51.5905 54.9174 51.8858C54.7713 52.2548 54.6983 52.6238 54.6983 53.0667C54.6983 53.4357 54.7713 53.8047 54.8444 54.1737C54.9174 54.469 55.0634 54.6904 55.2825 54.9118C55.5016 55.1332 55.7207 55.2808 55.9398 55.3546C56.2319 55.4284 56.524 55.5022 56.8161 55.5022C57.1812 55.5022 57.4733 55.4284 57.8385 55.2808V53.5833L56.3779 53.4357V53.0667Z" fill="#ADADAD"/>
<path d="M61.1248 50.0415H61.8551V56.0195H61.1248V50.0415Z" fill="#ADADAD"/>
<path d="M64.7031 50.0415H68.2085V50.7057H65.5064V52.6984H67.9164V53.3626H65.4334V55.5028H68.2085V56.0933H64.7031V50.0415Z" fill="#ADADAD"/>
<path d="M73.5397 54.469C73.5397 54.2476 73.4667 54.0262 73.3206 53.8786C73.1746 53.731 72.9555 53.5833 72.7364 53.5095C72.5173 53.3619 72.2252 53.2881 72.0061 53.2143C71.787 53.1405 71.4949 52.9929 71.2758 52.8453C71.0567 52.6977 70.8376 52.55 70.6916 52.3286C70.5455 52.1072 70.4725 51.812 70.4725 51.5167C70.4725 51.0739 70.6185 50.7049 70.9837 50.4096C71.4218 50.1144 71.9331 49.9668 72.4443 49.9668C72.8094 49.9668 73.1015 49.9668 73.4667 50.0406C73.6858 50.0406 73.9779 50.1144 74.197 50.262L73.9779 50.8525C73.7588 50.7787 73.5397 50.7049 73.3936 50.6311C73.1015 50.5573 72.8094 50.5573 72.4443 50.5573C72.1521 50.5573 71.787 50.6311 71.5679 50.7787C71.3488 50.9263 71.2758 51.1477 71.2758 51.3691C71.2758 51.5906 71.3488 51.812 71.4949 51.9596C71.6409 52.1072 71.86 52.2548 72.0791 52.3286C72.2982 52.4762 72.5173 52.55 72.8094 52.6977C73.0285 52.8453 73.3206 52.9191 73.5397 53.0667C73.7588 53.2143 73.9779 53.3619 74.1239 53.5833C74.27 53.8048 74.343 54.1 74.343 54.3952C74.343 54.6166 74.27 54.8381 74.197 55.0595C74.1239 55.2809 73.9779 55.4285 73.7588 55.5761C73.5397 55.7237 73.3206 55.8714 73.1015 55.9452C72.7364 56.0928 72.4443 56.0928 72.1521 56.0928C71.787 56.0928 71.4219 56.0928 71.0567 56.019C70.8376 55.9452 70.5455 55.8714 70.3264 55.7975L70.6185 55.1333C70.8376 55.2071 71.0567 55.2809 71.2758 55.3547C71.5679 55.4285 71.86 55.4285 72.2252 55.4285C72.4443 55.4285 72.5903 55.4285 72.8094 55.3547C72.9555 55.3547 73.1015 55.2809 73.2476 55.2071C73.3936 55.1333 73.4667 55.0595 73.5397 54.9119C73.5397 54.8381 73.5397 54.6904 73.5397 54.469Z" fill="#ADADAD"/>
</svg>
