<svg width="123" height="42" viewBox="0 0 123 42" fill="none" xmlns="http://www.w3.org/2000/svg">
<path d="M16.954 9.55176H8.34119L0 32.6357H7.76529L8.57926 29.9367H16.717L17.5309 32.6357H25.2962L16.954 9.55176ZM10.4097 23.8451L12.6481 16.4046L14.8865 23.8451H10.4097Z" fill="#272A48"/>
<path d="M57.999 21.1109C57.999 14.0161 63.3906 9.17065 70.3755 9.17065C77.3604 9.17065 82.7519 14.0161 82.7519 21.1109C82.7519 28.2057 77.3604 33.0511 70.3755 33.0511C63.3906 33.0511 57.999 28.2057 57.999 21.1109ZM75.8006 21.1109C75.8006 17.8927 73.6639 15.3318 70.3755 15.3318C67.086 15.3318 64.9503 17.8927 64.9503 21.1109C64.9503 24.3291 67.086 26.8899 70.3755 26.8899C73.6639 26.8909 75.8006 24.3301 75.8006 21.1109Z" fill="#272A48"/>
<path d="M85.1931 32.6357V9.55176H102.351V15.6434H92.0427V17.927H102.113V24.0186H92.0427V32.6357H85.1931Z" fill="#272A48"/>
<path d="M110.115 32.6357V15.6434H104.046V9.55176H123V15.6434H116.964V32.6357H110.115Z" fill="#272A48"/>
<path d="M26.4983 9.64966H33.9643L37.9867 15.1565L34.4039 20.2984L26.4983 9.64966Z" fill="#00A870"/>
<path d="M50.9244 21.875L59.475 9.53052H52.2738L43.572 22.115L47.3514 27.0018L51.363 32.4935H58.8092L50.9244 21.875Z" fill="#00A870"/>
<path d="M43.572 22.115L29.8076 41.9999H37.0098L47.3395 26.9665L43.572 22.115Z" fill="#009FE3"/>
<path d="M37.974 15.1504L41.7219 20.1138L33.0389 32.67H25.8179L37.974 15.1504Z" fill="#00A4B7"/>
<path d="M37.969 15.1564L48.4064 0H55.6284L41.7129 20.1239L37.969 15.1564Z" fill="#00A870"/>
</svg>
