<svg width="134" height="24" viewBox="0 0 134 24" fill="none" xmlns="http://www.w3.org/2000/svg">
<path d="M20.1189 18.544C19.2971 18.544 18.6302 17.872 18.6302 17.044C18.6302 16.216 19.2971 15.544 20.1189 15.544C20.9406 15.544 21.6076 16.216 21.6076 17.044C21.6076 17.876 20.9406 18.544 20.1189 18.544ZM16.6295 18.544C15.8077 18.544 15.1408 17.872 15.1408 17.044C15.1408 16.216 15.8077 15.544 16.6295 15.544C17.4512 15.544 18.1181 16.216 18.1181 17.044C18.1181 17.876 17.4512 18.544 16.6295 18.544ZM13.14 18.544C12.3183 18.544 11.6513 17.872 11.6513 17.044C11.6513 16.216 12.3183 15.544 13.14 15.544C13.9618 15.544 14.6287 16.216 14.6287 17.044C14.6247 17.876 13.9618 18.544 13.14 18.544ZM13.3822 0.092041V12.468V12.476V12.48C13.3782 13.016 12.9455 13.448 12.4096 13.448H10.9447C10.8733 13.448 10.8137 13.508 10.8137 13.58V23.952C11.171 23.984 11.5402 24 11.9094 24C18.4873 24 23.8187 18.628 23.8187 12C23.8187 5.87604 19.2654 0.820041 13.3822 0.092041Z" fill="#3AAA35"/>
<path d="M9.62672 9.896C8.80498 9.896 8.13805 9.224 8.13805 8.396C8.13805 7.568 8.80498 6.896 9.62672 6.896C10.4485 6.896 11.1154 7.568 11.1154 8.396C11.1154 9.224 10.4524 9.896 9.62672 9.896ZM11.9093 0C5.33142 0 0 5.372 0 12C0 17.756 4.01742 22.56 9.3806 23.728V12.96C9.39251 12.44 9.80139 12.02 10.3135 12H10.8097H11.8141C11.8855 12 11.9411 11.944 11.9451 11.876L11.949 0H11.9093Z" fill="#3AAA35"/>
<path d="M131.027 6.6001V11.1281H124.993V6.6001H122.015V18.5561H124.993V13.7241H131.027V18.5561H134V6.6001H131.027Z" fill="#3AAA35"/>
<path d="M76.978 13.636L78.812 9.29201C78.8676 9.15601 78.9748 9.12001 79.0542 9.12001C79.1335 9.12001 79.2368 9.15601 79.2963 9.29201L81.1264 13.636H76.978ZM81.4956 7.93201C80.9993 6.84801 80.0069 6.31201 79.0542 6.31201C78.0974 6.31201 77.109 6.84401 76.6127 7.93201L71.7498 18.556H74.9137L75.9736 16.032H82.1387L83.1986 18.556H86.3625L81.4956 7.93201Z" fill="#3AAA35"/>
<path d="M46.105 4.43188C44.7116 4.43188 43.8224 5.17988 43.1634 6.68388L39.2849 15.6839L35.4024 6.68388C34.7435 5.17988 33.8582 4.43188 32.4608 4.43188C31.1587 4.43188 29.813 5.37189 29.813 7.41189V18.5519H32.7824V7.71988L36.6847 16.6399C37.2087 17.8879 38.0543 18.6719 39.2809 18.6719C40.5076 18.6719 41.3492 17.8879 41.8772 16.6399L45.7795 7.71988V18.5559H48.7528V7.41589C48.7568 5.37189 47.4071 4.43188 46.105 4.43188Z" fill="#3AAA35"/>
<path d="M53.9653 16.0279C53.8224 16.0279 53.7112 15.9119 53.7112 15.7679V13.6359H61.1268V11.1999H53.7112V9.37995C53.7112 9.23995 53.8224 9.12395 53.9653 9.12395H61.2975V6.59595H52.5044C51.4762 6.59595 50.7339 7.46395 50.7339 8.37995V16.7719C50.7339 17.688 51.4723 18.556 52.5044 18.556H61.2975V16.0279H53.9653Z" fill="#3AAA35"/>
<path d="M66.3431 18.5561V9.3801C66.3431 9.2441 66.4542 9.1241 66.6011 9.1241H73.9333V6.6001H65.1362C64.1041 6.6001 63.3657 7.4681 63.3657 8.3841V18.5601H66.3431V18.5561Z" fill="#3AAA35"/>
<path d="M113.71 16.196H112.758C110.277 16.196 109.32 15.072 109.32 12.568V12.56C109.32 10.128 110.161 8.93202 112.758 8.93202H113.71C116.235 8.93202 117.148 10.128 117.148 12.556V12.568C117.152 15.072 116.176 16.196 113.71 16.196ZM120.046 12.556C120.046 8.36801 118.26 6.41602 113.754 6.41602H112.714C108.208 6.41602 106.422 8.36801 106.422 12.556V12.56C106.422 16.68 108.244 18.668 112.742 18.668H113.73C118.224 18.668 120.046 16.68 120.046 12.56V12.556Z" fill="#3AAA35"/>
<path d="M101.214 12.5561C100.769 13.7401 100.046 14.4961 98.0337 14.4961H96.6721V7.23606H98.5022C100.217 7.23606 101.384 8.31606 101.384 10.8681C101.38 11.5241 101.384 12.1001 101.214 12.5561ZM93.6988 14.5001H92.3371C90.3244 14.5001 89.598 13.7441 89.1573 12.5601C88.9866 12.1041 88.9866 11.5241 88.9866 10.8681C88.9866 8.31606 90.1577 7.23606 91.8727 7.23606H93.7027V14.5001H93.6988ZM98.129 4.71606H92.2379C87.8433 4.71606 86.0847 6.95606 86.0847 10.8641C86.0847 11.4761 86.1204 12.0401 86.2078 12.5601C86.6722 15.3241 88.2879 17.0241 92.4006 17.0241H93.6948V18.5561H96.6642V17.0241H97.9583C102.075 17.0241 103.687 15.3241 104.151 12.5601C104.239 12.0401 104.274 11.4761 104.274 10.8641C104.282 6.95606 102.524 4.71606 98.129 4.71606Z" fill="#3AAA35"/>
</svg>
