<svg width="106" height="41" viewBox="0 0 106 41" fill="none" xmlns="http://www.w3.org/2000/svg">
<g clip-path="url(#clip0)">
<path d="M29.3477 32.0282C30.3121 32.0208 31.2377 32.4158 31.9009 33.1224L31.0628 34.0743C30.6231 33.6008 30.0036 33.3407 29.3623 33.3603C27.844 33.3603 26.8237 34.5502 26.8237 36.4932C26.8237 38.4363 27.7396 39.6531 29.4546 39.6531C29.8919 39.6727 30.3194 39.5354 30.6692 39.2704V37.4059H29.0586V36.1498H32.032V39.9573C31.2668 40.6295 30.2854 40.9975 29.27 40.9877C26.9914 40.9877 25.2642 39.4004 25.2642 36.5325C25.2642 33.7063 27.0448 32.0282 29.3477 32.0282Z" fill="#504F54"/>
<path d="M42.4803 40.8308L40.6341 37.4477H39.3369V40.8308H37.8186V32.1853H40.6997C42.4803 32.1853 43.8577 32.8207 43.8577 34.7515C43.8577 36.0738 43.1751 36.8663 42.1427 37.222L44.1832 40.8308H42.4803ZM39.3369 36.2308H40.5515C41.7297 36.2308 42.3589 35.7279 42.3589 34.7588C42.3589 33.7898 41.7297 33.4242 40.5515 33.4242H39.3369V36.2308Z" fill="#504F54"/>
<path d="M49.0852 36.4686C49.0852 33.6792 50.6302 32.0281 52.8675 32.0281C55.1049 32.0281 56.6377 33.6792 56.6377 36.4686C56.6377 39.258 55.0927 40.9901 52.8675 40.9901C50.6423 40.9901 49.0852 39.2727 49.0852 36.4686ZM55.0806 36.4686C55.0806 34.5378 54.2036 33.3627 52.8675 33.3627C51.5315 33.3627 50.6423 34.5378 50.6423 36.4686C50.6423 38.3994 51.5193 39.6579 52.8675 39.6579C54.2158 39.6579 55.0879 38.4116 55.0879 36.4686H55.0806Z" fill="#504F54"/>
<path d="M62.2031 32.1853H63.7214V37.1557C63.7214 39.035 64.4283 39.6557 65.4632 39.6557C66.498 39.6557 67.2292 39.035 67.2292 37.1557V32.1853H68.6868V37.0478C68.6868 39.8888 67.4309 41.0001 65.4535 41.0001C63.4761 41.0001 62.2031 39.8789 62.2031 37.0478V32.1853Z" fill="#504F54"/>
<path d="M74.7283 32.1853H77.6069C79.4799 32.1853 80.8548 32.8477 80.8548 34.857C80.8548 36.773 79.441 37.6587 77.6069 37.6587H76.2466V40.8308H74.7283V32.1853ZM77.4758 36.4296C78.7584 36.4296 79.3608 35.9144 79.3608 34.857C79.3608 33.7996 78.7195 33.4169 77.4758 33.4169H76.2466V36.4296H77.4758Z" fill="#504F54"/>
<path d="M97.8135 12.294L105.757 0.00283631H100.435C99.356 0.00283631 98.3527 0.567102 97.7843 1.49446L94.0214 7.62778L90.3775 1.5239C89.8115 0.579368 88.7985 0.00283631 87.7054 0.00283631H82.0963L89.9889 12.5541L85.5944 19.3669L79.752 2.14704C79.3221 0.873767 78.1366 0.0175563 76.8029 0.0200096H74.3178C72.9866 0.0200096 71.8011 0.873767 71.3687 2.14704L65.3612 19.8282V3.14555C65.3588 1.41105 63.9692 0.00774296 62.2518 0.00283631H58.037L52.4498 12.4854L46.8285 0.00283631H42.6162C40.8939 0.00283631 39.4971 1.4135 39.4971 3.15291V20.5715L33.2563 2.12496C32.8215 0.854141 31.636 0.000382982 30.3048 0.00283631H27.8245C26.4909 0.00283631 25.303 0.859047 24.873 2.13478L18.9481 19.6466L14.901 14.5363C16.2881 13.8862 17.493 12.8951 18.4064 11.6561C19.2785 10.4516 19.7157 8.87897 19.7157 6.9433C19.7157 5.57434 19.4485 4.44581 18.9165 3.55525C18.3797 2.65734 17.6387 1.90171 16.7569 1.34726C15.8727 0.797714 14.8888 0.427262 13.8613 0.260436C12.6466 0.0739828 11.4199 -0.0118837 10.1907 0.00283631H3.11915C1.39681 0.00283631 0 1.41105 0 3.15291V25.2059H6.33061V16.0132H8.61166L14.7334 23.9817C15.3212 24.7545 16.2322 25.2083 17.1966 25.2083H23.4203L25.0018 20.1299H32.9624L33.8588 23.0052C34.2669 24.3178 35.4694 25.2108 36.8322 25.2132H45.4876V8.5306L49.2845 17.4411C49.7776 18.5991 50.9048 19.3498 52.1534 19.3498H52.3769C53.6255 19.3498 54.7551 18.5991 55.2483 17.4411L59.0452 8.52324V22.0509C59.0452 23.7903 60.442 25.201 62.1643 25.201H69.916L71.4975 20.0882H79.4508L80.3739 23.0077C80.7845 24.3153 81.9869 25.201 83.3449 25.201H88.8423L93.7833 17.2203L97.7066 23.6946C98.2726 24.6293 99.2783 25.201 100.364 25.201H106L97.8135 12.294ZM12.8896 9.47513C12.6831 9.92409 12.3721 10.3166 11.9786 10.6135C11.5219 10.9766 10.9802 11.2121 10.4044 11.3004C9.65867 11.4182 8.9056 11.4721 8.15011 11.4623H6.33061V4.66416H8.45619C9.18254 4.66416 9.78985 4.68624 10.2781 4.7304C10.7348 4.76965 11.1818 4.8776 11.6045 5.05424C12.1171 5.25786 12.5446 5.63322 12.8191 6.11653C13.0742 6.62437 13.1981 7.18618 13.1835 7.75535C13.2029 8.34169 13.1033 8.92804 12.8896 9.47513ZM26.3962 15.5373L28.9833 7.19599L31.568 15.5373H26.3962ZM72.8919 15.503L75.479 7.16164L78.0637 15.503H72.8919Z" fill="#9E171A"/>
</g>
<defs>
<clipPath id="clip0">
<rect width="106" height="41" fill="white"/>
</clipPath>
</defs>
</svg>
