<svg width="74" height="57" viewBox="0 0 74 57" fill="#fff" xmlns="http://www.w3.org/2000/svg">
<path fill-rule="evenodd" clip-rule="evenodd" d="M0 28.5C0 21.0045 1.52903 14.3921 3.85124 10.4933C4.96263 8.12372 6.84084 6.10674 9.21115 4.68703C13.4666 1.94859 24.3095 0 37 0C49.6905 0 60.5334 1.94859 64.7888 4.68703C67.1592 6.10674 69.0374 8.12372 70.1488 10.4933C72.471 14.3917 74 21.0045 74 28.5C74 35.9955 72.471 42.6079 70.1488 46.5067C69.0374 48.8763 67.1592 50.8933 64.7888 52.313C60.5334 55.0514 49.6905 57 37 57C24.3095 57 13.4666 55.0514 9.21115 52.313C6.84084 50.8933 4.96263 48.8763 3.85124 46.5067C1.52903 42.6079 0 35.9955 0 28.5ZM31.6012 40.2945C31.1993 40.5579 30.7012 40.7143 30.1619 40.7143C28.8309 40.7143 27.75 39.7628 27.75 38.591V18.409C27.75 17.2372 28.8309 16.2857 30.1619 16.2857C30.7021 16.2857 31.2007 16.4425 31.6031 16.7067L49.7812 26.6516L49.7738 26.6654C50.4384 27.0656 50.875 27.7382 50.875 28.5C50.875 29.2618 50.4384 29.9344 49.7738 30.3346L49.7812 30.3484L31.6012 40.2945Z" fill="#fff"/>
</svg>
