<svg width="36" height="36" viewBox="0 0 36 36" fill="none" xmlns="http://www.w3.org/2000/svg">
<rect width="36" height="36" rx="6" fill="#4680C2"/>
<path fill-rule="evenodd" clip-rule="evenodd" d="M28.5557 13.3263C28.7204 12.8383 28.5557 12.4837 27.8287 12.4837H25.4126C24.8019 12.4837 24.5209 12.7951 24.3561 13.1274C24.3561 13.1274 23.1127 15.9654 21.3764 17.8051C20.8142 18.3376 20.5553 18.5142 20.2507 18.5142C20.0859 18.5142 19.8754 18.3376 19.8754 17.8496V13.3041C19.8754 12.7283 19.6871 12.4614 19.1706 12.4614H15.3698C14.9946 12.4614 14.7606 12.7283 14.7606 12.994C14.7606 13.5487 15.6288 13.6809 15.7215 15.234V18.6032C15.7215 19.3346 15.5817 19.4681 15.2757 19.4681C14.4546 19.4681 12.4607 16.6079 11.2644 13.3485C11.029 12.7061 10.795 12.4614 10.1844 12.4614H7.74467C7.04128 12.4614 6.92358 12.7728 6.92358 13.1052C6.92358 13.7031 7.74467 16.7191 10.7479 20.7098C12.7418 23.4366 15.5817 24.9007 18.1391 24.9007C19.6871 24.9007 19.8754 24.5671 19.8754 24.0136V21.9515C19.8754 21.2868 20.0153 21.1756 20.5082 21.1756C20.8599 21.1756 21.4941 21.3522 22.9258 22.6607C24.5679 24.2125 24.849 24.923 25.7643 24.923H28.1804C28.8852 24.923 29.2134 24.5893 29.0251 23.9469C28.8146 23.3044 28.017 22.3728 26.9841 21.2646C26.4206 20.6431 25.5759 19.9561 25.3184 19.6238C24.9667 19.1802 25.0609 19.0023 25.3184 18.6032C25.2949 18.6032 28.251 14.657 28.5557 13.3263Z" fill="white"/>
</svg>
