<svg width="36" height="36" viewBox="0 0 36 36" fill="none" xmlns="http://www.w3.org/2000/svg">
<rect width="36" height="36" rx="6" fill="#DC1616"/>
<path d="M16.0172 20.9221V15.0784L21.0839 18.0002L16.0172 20.9221ZM27.2879 13.2397C27.1794 12.8222 26.9638 12.4409 26.663 12.1338C26.3621 11.8268 25.9865 11.6049 25.5738 11.4903C24.0618 11.0771 17.9999 11.0771 17.9999 11.0771C17.9999 11.0771 11.9381 11.0771 10.4261 11.4903C10.0137 11.6052 9.63843 11.8272 9.33792 12.1342C9.03742 12.4412 8.82218 12.8224 8.71377 13.2397C8.30762 14.7806 8.30762 18.0002 8.30762 18.0002C8.30762 18.0002 8.30762 21.2189 8.71285 22.7608C8.82142 23.1781 9.03683 23.5593 9.33749 23.8663C9.63816 24.1733 10.0135 24.3953 10.4261 24.5102C11.9381 24.9233 17.9999 24.9233 17.9999 24.9233C17.9999 24.9233 24.0618 24.9233 25.5738 24.5102C25.9863 24.3953 26.3617 24.1733 26.6624 23.8663C26.963 23.5593 27.1784 23.1781 27.287 22.7608C27.6922 21.2198 27.6922 18.0002 27.6922 18.0002C27.6922 18.0002 27.6922 14.7816 27.287 13.2397H27.2879Z" fill="white"/>
</svg>
